<svg width="24" height="24" viewBox="0 0 24 24" fill="none" xmlns="http://www.w3.org/2000/svg">
<path d="M10.1412 15.3262L11.7212 13.7448L8.15737 10.1837C7.64606 9.67242 7.6454 8.83805 8.16004 8.32274C8.67402 7.80943 9.50572 7.80943 10.019 8.32207L10.1419 8.44489L11.7238 6.86425L11.601 6.74143C10.6985 5.8403 9.43296 5.52524 8.27685 5.79625C8.11064 4.77764 7.22754 4.00067 6.16221 4C4.97873 4 4.01953 4.95987 4.01953 6.14335C4.01953 7.16395 4.73309 8.01836 5.68828 8.23396C5.3265 9.44414 5.6222 10.8098 6.5774 11.765L10.1412 15.3262Z" fill="#082B45"/>
<path d="M12.2168 6.74476C13.1687 5.79291 14.525 5.4932 15.7305 5.84764C15.8747 4.80434 16.7705 4 17.8538 4C19.0373 4 19.9972 4.9592 19.9972 6.14335C19.9972 7.23137 19.1862 8.12983 18.1362 8.268C18.4813 9.46884 18.1803 10.8159 17.2344 11.7624L17.1116 11.8859L15.5316 10.3039L15.6538 10.1811C16.1671 9.66775 16.1671 8.83538 15.6544 8.32274C15.1425 7.81143 14.3128 7.81076 13.7974 8.32541L10.2343 11.8859L8.65234 10.3052L12.2168 6.74476Z" fill="#082B45"/>
<path d="M15.6574 13.9644C16.1727 14.4797 16.1714 15.3094 15.6601 15.8214C15.1475 16.334 14.3151 16.334 13.8011 15.8207L13.6796 15.6992L12.0997 17.2812L12.2211 17.402C13.1837 18.3646 14.5614 18.6589 15.7776 18.2845C15.9758 19.2637 16.8403 19.9999 17.8782 19.9999C19.0617 19.9999 20.0216 19.0414 20.0216 17.8572C20.0216 16.7759 19.2212 15.8814 18.1799 15.7353C18.4629 14.5718 18.1486 13.2929 17.2394 12.3837L13.6796 8.82129L12.0977 10.4013L15.6574 13.9644Z" fill="#082B45"/>
<path d="M13.58 12.2603L15.1599 13.8422L11.6015 17.404C10.6884 18.3172 9.40142 18.6275 8.23262 18.3379C8.01435 19.2904 7.16128 19.9993 6.14335 19.9999C4.9592 19.9999 4 19.0407 4 17.8573C4 16.844 4.70355 15.9943 5.64873 15.7713C5.34969 14.5972 5.65941 13.3002 6.57856 12.3811L6.69937 12.2603L8.28135 13.8409L8.15853 13.9624C7.64522 14.4757 7.64589 15.3074 8.1592 15.8207C8.67451 16.336 9.50822 16.3347 10.0202 15.8227L13.58 12.2603Z" fill="#082B45"/>
</svg>
