<svg width="18" height="18" viewBox="0 0 18 18" fill="none" xmlns="http://www.w3.org/2000/svg">
<path d="M3 6V12.6C3 13.4401 3 13.8598 3.16349 14.1807C3.3073 14.4629 3.5366 14.6929 3.81885 14.8367C4.1394 15 4.55925 15 5.39768 15H12.6023C13.4408 15 13.86 15 14.1805 14.8367C14.4628 14.6929 14.6929 14.4629 14.8367 14.1807C15 13.8601 15 13.4408 15 12.6023V6M3 6H15M3 6L4.02388 4.20817C4.27515 3.76845 4.40076 3.54863 4.57744 3.38855C4.73388 3.2468 4.91894 3.13954 5.11963 3.07404C5.34646 3 5.59967 3 6.10693 3H11.8928C12.4001 3 12.6542 3 12.881 3.07404C13.0817 3.13954 13.2659 3.2468 13.4224 3.38855C13.5992 3.54876 13.7251 3.7688 13.9768 4.20923L15 6M9 8.25V12.75M9 12.75L11.25 11.25M9 12.75L6.75 11.25" stroke="#082B45" stroke-linecap="round" stroke-linejoin="round"/>
</svg>
