<svg width="25" height="25" viewBox="0 0 25 25" fill="none" xmlns="http://www.w3.org/2000/svg">
<g id="Icon">
<path id="icon" fill-rule="evenodd" clip-rule="evenodd" d="M19.4375 4.5H18.4375V2.5H16.4375V4.5H8.4375V2.5H6.4375V4.5H5.4375C4.3275 4.5 3.4375 5.4 3.4375 6.5V20.5C3.4375 21.6 4.3275 22.5 5.4375 22.5H19.4375C20.5375 22.5 21.4375 21.6 21.4375 20.5V6.5C21.4375 5.4 20.5375 4.5 19.4375 4.5ZM19.4375 20.5H5.4375V9.5H19.4375V20.5ZM6.9375 13.5C6.9375 12.12 8.0575 11 9.4375 11C10.8175 11 11.9375 12.12 11.9375 13.5C11.9375 14.88 10.8175 16 9.4375 16C8.0575 16 6.9375 14.88 6.9375 13.5Z" fill="#49454F"/>
</g>
</svg>
