<svg width="24" height="24" viewBox="0 0 24 24" fill="none" xmlns="http://www.w3.org/2000/svg">
<path d="M5.055 3.24562C4.98471 3.16827 4.89903 3.10646 4.80346 3.06416C4.70788 3.02187 4.60452 3.00001 4.5 3C4.10218 3 3.72064 3.15804 3.43934 3.43934C3.15804 3.72064 3 4.10218 3 4.5V19.5C3 19.8978 3.15804 20.2794 3.43934 20.5607C3.72064 20.842 4.10218 21 4.5 21H19.5C19.6453 21 19.7874 20.9578 19.9092 20.8785C20.0309 20.7992 20.127 20.6863 20.1858 20.5535C20.2446 20.4206 20.2635 20.2735 20.2403 20.1301C20.2171 19.9867 20.1527 19.8531 20.055 19.7456L5.055 3.24562ZM6.89531 7.5H4.5V4.86375L6.89531 7.5ZM4.5 19.5V9H8.25937L17.805 19.5H4.5ZM21 4.5V16.6153C21 16.8142 20.921 17.005 20.7803 17.1456C20.6397 17.2863 20.4489 17.3653 20.25 17.3653C20.0511 17.3653 19.8603 17.2863 19.7197 17.1456C19.579 17.005 19.5 16.8142 19.5 16.6153V9H12.645C12.4461 9 12.2553 8.92098 12.1147 8.78033C11.974 8.63968 11.895 8.44891 11.895 8.25C11.895 8.05109 11.974 7.86032 12.1147 7.71967C12.2553 7.57902 12.4461 7.5 12.645 7.5H19.5V4.5H17.25V5.25C17.25 5.44891 17.171 5.63968 17.0303 5.78033C16.8897 5.92098 16.6989 6 16.5 6C16.3011 6 16.1103 5.92098 15.9697 5.78033C15.829 5.63968 15.75 5.44891 15.75 5.25V4.5H8.55469C8.35578 4.5 8.16501 4.42098 8.02436 4.28033C7.88371 4.13968 7.80469 3.94891 7.80469 3.75C7.80469 3.55109 7.88371 3.36032 8.02436 3.21967C8.16501 3.07902 8.35578 3 8.55469 3H15.75V2.25C15.75 2.05109 15.829 1.86032 15.9697 1.71967C16.1103 1.57902 16.3011 1.5 16.5 1.5C16.6989 1.5 16.8897 1.57902 17.0303 1.71967C17.171 1.86032 17.25 2.05109 17.25 2.25V3H19.5C19.8978 3 20.2794 3.15804 20.5607 3.43934C20.842 3.72064 21 4.10218 21 4.5Z" fill="#00ADF0"/>
</svg>
