<svg width="40" height="40" viewBox="0 0 40 40" fill="none" xmlns="http://www.w3.org/2000/svg">
<path d="M27.3333 18.6667C27.3333 20.1171 26.9032 21.5349 26.0974 22.7408C25.2916 23.9468 24.1463 24.8867 22.8063 25.4418C21.4664 25.9968 19.9919 26.1421 18.5693 25.8591C17.1468 25.5761 15.8401 24.8777 14.8146 23.8521C13.789 22.8265 13.0905 21.5199 12.8076 20.0973C12.5246 18.6748 12.6698 17.2003 13.2249 15.8603C13.7799 14.5203 14.7199 13.375 15.9258 12.5692C17.1318 11.7634 18.5496 11.3333 20 11.3333C21.9449 11.3333 23.8102 12.106 25.1855 13.4812C26.5607 14.8565 27.3333 16.7217 27.3333 18.6667ZM36 6.66667V33.3333C36 34.0406 35.719 34.7189 35.219 35.219C34.7189 35.719 34.0406 36 33.3333 36H6.66667C5.95942 36 5.28115 35.719 4.78105 35.219C4.28095 34.7189 4 34.0406 4 33.3333V6.66667C4 5.95942 4.28095 5.28115 4.78105 4.78105C5.28115 4.28095 5.95942 4 6.66667 4H33.3333C34.0406 4 34.7189 4.28095 35.219 4.78105C35.719 5.28115 36 5.95942 36 6.66667ZM33.3333 33.3333V6.66667H6.66667V33.3333H7.27833C8.072 30.8291 9.58268 28.6126 11.6233 26.9583C11.9656 26.6828 12.3189 26.4261 12.6833 26.1883C12.8048 26.1091 12.9487 26.0716 13.0934 26.0815C13.2381 26.0914 13.3755 26.1482 13.485 26.2433C15.2957 27.8064 17.608 28.6664 20 28.6664C22.392 28.6664 24.7043 27.8064 26.515 26.2433C26.6245 26.1482 26.7619 26.0914 26.9066 26.0815C27.0513 26.0716 27.1952 26.1091 27.3167 26.1883C27.6811 26.4272 28.0344 26.6839 28.3767 26.9583C30.4173 28.6126 31.928 30.8291 32.7217 33.3333H33.3333Z" fill="#082B45"/>
</svg>
