<svg width="40" height="40" viewBox="0 0 40 40" fill="none" xmlns="http://www.w3.org/2000/svg">
<path d="M23.52 9.97V21.61C23.52 21.8673 23.4178 22.114 23.2359 22.2959C23.054 22.4778 22.8073 22.58 22.55 22.58H17.7C17.4427 22.58 17.196 22.4778 17.0141 22.2959C16.8322 22.114 16.73 21.8673 16.73 21.61V9.97C16.73 9.71274 16.8322 9.46602 17.0141 9.28411C17.196 9.1022 17.4427 9 17.7 9H22.55C22.8073 9 23.054 9.1022 23.2359 9.28411C23.4178 9.46602 23.52 9.71274 23.52 9.97ZM31.28 9H26.43C26.1727 9 25.926 9.1022 25.7441 9.28411C25.5622 9.46602 25.46 9.71274 25.46 9.97V16.275C25.46 16.4036 25.5111 16.527 25.6021 16.6179C25.693 16.7089 25.8164 16.76 25.945 16.76H31.765C31.8936 16.76 32.017 16.7089 32.1079 16.6179C32.1989 16.527 32.25 16.4036 32.25 16.275V9.97C32.25 9.71274 32.1478 9.46602 31.9659 9.28411C31.784 9.1022 31.5373 9 31.28 9ZM31.765 18.7H25.945C25.8164 18.7 25.693 18.7511 25.6021 18.8421C25.5111 18.933 25.46 19.0564 25.46 19.185V24.52C25.46 25.0345 25.6644 25.528 26.0282 25.8918C26.392 26.2556 26.8855 26.46 27.4 26.46H30.31C30.8245 26.46 31.318 26.2556 31.6818 25.8918C32.0456 25.528 32.25 25.0345 32.25 24.52V19.185C32.25 19.0564 32.1989 18.933 32.1079 18.8421C32.017 18.7511 31.8936 18.7 31.765 18.7ZM13.82 9H8.97C8.71274 9 8.46602 9.1022 8.28411 9.28411C8.1022 9.46602 8 9.71274 8 9.97V16.275C8 16.4036 8.0511 16.527 8.14205 16.6179C8.23301 16.7089 8.35637 16.76 8.485 16.76H14.305C14.4336 16.76 14.557 16.7089 14.6479 16.6179C14.7389 16.527 14.79 16.4036 14.79 16.275V9.97C14.79 9.71274 14.6878 9.46602 14.5059 9.28411C14.324 9.1022 14.0773 9 13.82 9ZM14.305 18.7H8.485C8.35637 18.7 8.23301 18.7511 8.14205 18.8421C8.0511 18.933 8 19.0564 8 19.185V28.4C8 28.9145 8.20439 29.408 8.56821 29.7718C8.93203 30.1356 9.42548 30.34 9.94 30.34H12.85C13.3645 30.34 13.858 30.1356 14.2218 29.7718C14.5856 29.408 14.79 28.9145 14.79 28.4V19.185C14.79 19.0564 14.7389 18.933 14.6479 18.8421C14.557 18.7511 14.4336 18.7 14.305 18.7Z" fill="#082B45"/>
</svg>
