<svg width="14" height="14" viewBox="0 0 14 14" fill="none" xmlns="http://www.w3.org/2000/svg">
<path d="M9.66688 5L6.11133 9L4.33333 7M1 10.8668V3.13346C1 2.38673 1 2.01308 1.14532 1.72786C1.27316 1.47698 1.47698 1.27316 1.72786 1.14532C2.01308 1 2.38673 1 3.13346 1H10.8668C11.6135 1 11.9864 1 12.2716 1.14532C12.5225 1.27316 12.727 1.47698 12.8548 1.72786C13 2.0128 13 2.386 13 3.13127V10.8691C13 11.6143 13 11.987 12.8548 12.2719C12.727 12.5228 12.5225 12.727 12.2716 12.8548C11.9867 13 11.614 13 10.8687 13H3.13127C2.386 13 2.0128 13 1.72786 12.8548C1.47698 12.727 1.27316 12.5228 1.14532 12.2719C1 11.9867 1 11.6135 1 10.8668Z" stroke="#FFFFFF" stroke-width="1.5" stroke-linecap="round" stroke-linejoin="round"/>
</svg>
