<svg width="18" height="18" viewBox="0 0 18 18" fill="none" xmlns="http://www.w3.org/2000/svg">
<g id="Group">
<path id="Vector" fill-rule="evenodd" clip-rule="evenodd" d="M9 0C13.9702 0 18 4.02978 18 9C18 13.9702 13.9702 18 9 18C4.02978 18 0 13.9702 0 9C0 4.02978 4.02978 0 9 0ZM7.75195 4.4707H8.85205C9.05273 4.4707 9.21826 4.63623 9.21826 4.83691V9.07617H13.0869C13.2891 9.07617 13.4531 9.2417 13.4531 9.44238V10.5425C13.4531 10.7446 13.2876 10.9087 13.0869 10.9087H7.38428V4.83691C7.38428 4.63477 7.5498 4.4707 7.75195 4.4707ZM9 2.04346C12.8423 2.04346 15.9565 5.15771 15.9565 9C15.9565 12.8423 12.8423 15.9565 9 15.9565C5.15771 15.9565 2.04346 12.8423 2.04346 9C2.04346 5.15918 5.15771 2.04346 9 2.04346Z" fill="#D9D9D9"/>
</g>
</svg>
