<svg width="16" height="16" viewBox="0 0 16 16" fill="none" xmlns="http://www.w3.org/2000/svg">
<path d="M10.4605 5.96047L8.60774 7.8125L10.4605 9.66453C10.5127 9.71679 10.5542 9.77884 10.5825 9.84712C10.6108 9.9154 10.6253 9.98859 10.6253 10.0625C10.6253 10.1364 10.6108 10.2096 10.5825 10.2779C10.5542 10.3462 10.5127 10.4082 10.4605 10.4605C10.4082 10.5127 10.3462 10.5542 10.2779 10.5825C10.2096 10.6108 10.1364 10.6253 10.0625 10.6253C9.98859 10.6253 9.91541 10.6108 9.84712 10.5825C9.77884 10.5542 9.7168 10.5127 9.66453 10.4605L7.8125 8.60773L5.96047 10.4605C5.90821 10.5127 5.84617 10.5542 5.77788 10.5825C5.7096 10.6108 5.63641 10.6253 5.5625 10.6253C5.48859 10.6253 5.41541 10.6108 5.34712 10.5825C5.27884 10.5542 5.2168 10.5127 5.16453 10.4605C5.11227 10.4082 5.07082 10.3462 5.04253 10.2779C5.01425 10.2096 4.99969 10.1364 4.99969 10.0625C4.99969 9.98859 5.01425 9.9154 5.04253 9.84712C5.07082 9.77884 5.11227 9.71679 5.16453 9.66453L7.01727 7.8125L5.16453 5.96047C5.05899 5.85492 4.99969 5.71177 4.99969 5.5625C4.99969 5.41323 5.05899 5.27008 5.16453 5.16453C5.27008 5.05898 5.41324 4.99969 5.5625 4.99969C5.71177 4.99969 5.85492 5.05898 5.96047 5.16453L7.8125 7.01727L9.66453 5.16453C9.7168 5.11227 9.77884 5.07081 9.84712 5.04253C9.91541 5.01424 9.98859 4.99969 10.0625 4.99969C10.1364 4.99969 10.2096 5.01424 10.2779 5.04253C10.3462 5.07081 10.4082 5.11227 10.4605 5.16453C10.5127 5.21679 10.5542 5.27884 10.5825 5.34712C10.6108 5.4154 10.6253 5.48859 10.6253 5.5625C10.6253 5.63641 10.6108 5.7096 10.5825 5.77788C10.5542 5.84616 10.5127 5.90821 10.4605 5.96047ZM15.125 7.8125C15.125 9.25878 14.6961 10.6726 13.8926 11.8751C13.0891 13.0776 11.9471 14.0149 10.6109 14.5684C9.27469 15.1218 7.80439 15.2666 6.38591 14.9845C4.96742 14.7023 3.66446 14.0059 2.64178 12.9832C1.61911 11.9605 0.922665 10.6576 0.640511 9.2391C0.358357 7.82061 0.503168 6.35031 1.05663 5.01413C1.6101 3.67794 2.54736 2.53589 3.7499 1.73238C4.95243 0.928871 6.36623 0.5 7.8125 0.5C9.75127 0.502047 11.61 1.27313 12.981 2.64404C14.3519 4.01496 15.123 5.87373 15.125 7.8125ZM14 7.8125C14 6.58873 13.6371 5.39244 12.9572 4.37491C12.2773 3.35738 11.311 2.56431 10.1804 2.096C9.04974 1.62768 7.80564 1.50514 6.60538 1.74389C5.40512 1.98264 4.30262 2.57194 3.43728 3.43728C2.57194 4.30261 1.98264 5.40512 1.74389 6.60538C1.50515 7.80564 1.62768 9.04974 2.096 10.1804C2.56432 11.311 3.35738 12.2773 4.37491 12.9572C5.39244 13.6371 6.58873 14 7.8125 14C9.45296 13.9981 11.0257 13.3456 12.1857 12.1857C13.3456 11.0257 13.9981 9.45296 14 7.8125Z" fill="white"/>
</svg>
