<svg width="25" height="25" viewBox="0 0 25 25" fill="none" xmlns="http://www.w3.org/2000/svg">
<g clip-path="url(#clip0_11304_40293)">
<path d="M12.2422 16.8301V10.8301M12.2422 10.8301L9.24219 12.8301M12.2422 10.8301L15.2422 12.8301M23.2422 15.8301C23.2422 13.6209 21.4513 11.8301 19.2422 11.8301C19.2185 11.8301 19.1954 11.8303 19.1719 11.8307C18.6869 8.4381 15.7689 5.83008 12.2422 5.83008C9.44554 5.83008 7.03238 7.47012 5.91113 9.84089C3.30425 10.0115 1.24219 12.1799 1.24219 14.8299C1.24219 17.5914 3.48076 19.8302 6.24219 19.8302L19.2422 19.8301C21.4513 19.8301 23.2422 18.0392 23.2422 15.8301Z" stroke="#828282" stroke-width="1.5" stroke-linecap="round" stroke-linejoin="round"/>
</g>
<defs>
<clipPath id="clip0_11304_40293">
<rect width="24" height="24" fill="white" transform="translate(0.242188 0.830078)"/>
</clipPath>
</defs>
</svg>
