<svg width="382" height="383" viewBox="0 0 382 383" fill="none" xmlns="http://www.w3.org/2000/svg">
<path d="M191.001 374.318C107.856 374.318 40.4545 336.028 40.4545 288.796C40.4545 241.563 107.856 203.273 191.001 203.273C274.145 203.273 341.547 241.563 341.547 288.796C341.547 336.028 274.145 374.318 191.001 374.318Z" fill="#F5F5F5"/>
<path d="M128.352 342.719L240.728 277.833C241.717 277.263 242.538 276.443 243.109 275.455C243.68 274.468 243.98 273.347 243.98 272.206C243.98 271.065 243.68 269.944 243.109 268.956C242.538 267.969 241.717 267.149 240.728 266.579L229.643 259.589C227.729 258.486 225.56 257.906 223.351 257.906C221.143 257.906 218.973 258.486 217.06 259.589L104.668 324.483C103.679 325.052 102.858 325.872 102.287 326.86C101.716 327.848 101.416 328.969 101.416 330.11C101.416 331.25 101.716 332.371 102.287 333.359C102.858 334.347 103.679 335.167 104.668 335.736L115.753 342.719C117.668 343.827 119.841 344.411 122.053 344.411C124.264 344.411 126.437 343.827 128.352 342.719Z" fill="#E0E0E0"/>
<path d="M299.219 283.563C285.75 283.563 274.832 277.293 274.832 269.559C274.832 261.825 285.75 255.555 299.219 255.555C312.687 255.555 323.605 261.825 323.605 269.559C323.605 277.293 312.687 283.563 299.219 283.563Z" fill="#E6E6E6"/>
<path d="M88.5016 286.774L77.8056 292.924C77.8056 292.924 83.2682 275.757 80.3573 258.452C79.2572 251.912 76.8964 248.665 76.0713 246.916C75.2462 245.166 68.8515 234.356 74.5433 229.405C80.2351 224.454 93.4752 234.409 92.7571 261.05C92.4306 269.77 91.0007 278.413 88.5016 286.774Z" fill="#6F8EA6"/>
<path opacity="0.5" d="M88.5016 286.774L77.8056 292.924C77.8056 292.924 83.2682 275.757 80.3573 258.452C79.2572 251.912 76.8964 248.665 76.0713 246.916C75.2462 245.166 68.8515 234.356 74.5433 229.405C80.2351 224.454 93.4752 234.409 92.7571 261.05C92.4306 269.77 91.0007 278.413 88.5016 286.774Z" fill="black"/>
<path d="M83.5289 290.015C83.6067 290.017 83.6831 289.994 83.7475 289.95C83.8119 289.906 83.861 289.844 83.888 289.771C83.9262 289.656 88.0136 278.486 87.8837 260.532C87.7538 242.578 78.3184 232.83 78.2267 232.738C78.1912 232.702 78.149 232.674 78.1024 232.654C78.0559 232.635 78.0059 232.625 77.9555 232.625C77.9051 232.625 77.8552 232.635 77.8086 232.654C77.7621 232.674 77.7198 232.702 77.6843 232.738C77.6485 232.773 77.6201 232.816 77.6007 232.862C77.5813 232.909 77.5713 232.959 77.5713 233.009C77.5713 233.06 77.5813 233.11 77.6007 233.156C77.6201 233.203 77.6485 233.245 77.6843 233.28C77.776 233.372 86.9898 242.83 87.1197 260.54C87.2496 278.249 83.2156 289.404 83.1698 289.511C83.1354 289.606 83.1402 289.711 83.1832 289.803C83.2262 289.894 83.3038 289.965 83.399 290C83.441 290.013 83.485 290.018 83.5289 290.015Z" fill="white"/>
<path d="M84.0377 289.398L69.4147 297.802C67.8911 298.703 66.084 298.996 64.3537 298.624C62.6233 298.251 61.0969 297.24 60.0787 295.793C59.1107 294.287 58.7024 292.488 58.925 290.712C59.6279 283.118 62.9284 281.368 58.8868 277.984C54.8453 274.599 53.7909 274.362 54.0201 271.108C54.2493 267.853 56.4726 266.432 57.5269 265.149C58.5812 263.865 61.4997 261.176 59.5133 257.203C57.5269 253.23 54.8147 249.387 58.925 247.63C61.3775 246.576 65.4649 247.982 68.1541 250.9C70.8434 253.818 73.059 255.919 75.6337 256.622C78.2084 257.325 83.5717 257.44 83.3425 261.879C83.1133 266.318 81.9367 267.838 82.991 269.817C84.9774 273.514 93.6183 275.615 84.0377 289.398Z" fill="#6F8EA6"/>
<path d="M76.8138 293.923C76.909 293.92 77 293.883 77.0701 293.819C77.1402 293.754 77.1849 293.667 77.1958 293.572C77.1958 293.312 79.442 267.092 61.4116 249.642C61.3372 249.581 61.2424 249.55 61.1461 249.555C61.0499 249.561 60.9593 249.603 60.8926 249.672C60.8259 249.742 60.788 249.834 60.7865 249.931C60.7849 250.027 60.8199 250.12 60.8844 250.192C78.655 267.39 76.4547 293.244 76.4318 293.503C76.4233 293.603 76.4546 293.703 76.519 293.78C76.5833 293.857 76.6755 293.906 76.7756 293.916L76.8138 293.923Z" fill="white"/>
<path d="M73.9159 271.358C74.0121 271.359 74.1049 271.323 74.1757 271.258C74.2465 271.192 74.2902 271.103 74.2979 271.007C74.4579 268.975 75.0302 266.997 75.9798 265.194C76.9295 263.39 78.2367 261.799 79.8216 260.517C79.8629 260.488 79.8981 260.452 79.9251 260.409C79.9521 260.366 79.9704 260.319 79.9789 260.269C79.9874 260.219 79.986 260.168 79.9747 260.119C79.9635 260.07 79.9426 260.024 79.9133 259.983C79.885 259.941 79.8489 259.906 79.8069 259.88C79.765 259.853 79.7181 259.834 79.669 259.826C79.6199 259.817 79.5696 259.819 79.521 259.83C79.4724 259.841 79.4266 259.862 79.3861 259.891C77.6972 261.23 76.3049 262.906 75.2974 264.811C74.29 266.717 73.6895 268.811 73.5339 270.961C73.5254 271.063 73.5575 271.165 73.6233 271.243C73.6891 271.322 73.7832 271.372 73.8853 271.381L73.9159 271.358Z" fill="white"/>
<path d="M75.1605 275.855C75.2529 275.856 75.3424 275.824 75.4126 275.764C75.4884 275.696 75.5349 275.602 75.542 275.5C75.5491 275.399 75.5164 275.299 75.4508 275.221C75.2675 275.007 70.7522 270.026 60.1708 271.348C60.0706 271.361 59.9797 271.414 59.9181 271.494C59.8566 271.574 59.8293 271.675 59.8423 271.776C59.8557 271.876 59.9079 271.968 59.9878 272.031C60.0678 272.094 60.1691 272.123 60.2702 272.112C70.4314 270.836 74.8396 275.68 74.8855 275.726C74.9203 275.765 74.9626 275.796 75.0098 275.818C75.0571 275.841 75.1083 275.853 75.1605 275.855Z" fill="white"/>
<path d="M131.778 334.962L230.609 277.899C237.585 273.873 243.238 263.07 243.238 253.772V42.1441C243.238 32.8462 237.585 28.5754 230.609 32.6017L131.778 89.6649C124.803 93.6912 119.149 104.494 119.149 113.792V325.42C119.149 334.71 124.803 338.989 131.778 334.962Z" fill="#455A64"/>
<path d="M120.396 83.0107L219.234 25.9475C222.214 24.2285 224.949 24.0299 227.111 25.0842C227.376 25.2168 227.631 25.3674 227.875 25.535L238.953 31.9755C236.722 30.6385 233.804 30.7378 230.603 32.5867L131.772 89.6498C124.796 93.6761 119.143 104.479 119.143 113.777V325.405C119.143 330.325 120.724 333.809 123.245 335.459L112.312 329.095C109.524 327.613 107.728 323.984 107.728 318.781V107.153C107.728 97.8399 113.42 87.037 120.396 83.0107Z" fill="#37474F"/>
<path d="M119.147 113.78V325.408C119.147 330.328 120.729 333.812 123.25 335.462L112.31 329.098C109.521 327.616 107.726 323.987 107.726 318.784V107.156L119.109 113.765L119.147 113.78Z" fill="#263238"/>
<path d="M107.765 123.57L119.148 130.141V135.275L107.765 128.697V123.57Z" fill="#37474F"/>
<path d="M112.756 157.71C113.773 158.299 114.598 157.672 114.598 156.32V145.28C114.587 144.59 114.415 143.912 114.096 143.3C113.776 142.689 113.317 142.16 112.756 141.758C111.74 141.17 110.915 141.758 110.915 143.149V154.188C110.926 154.878 111.097 155.557 111.417 156.168C111.737 156.78 112.196 157.308 112.756 157.71Z" fill="#37474F"/>
<path d="M114.602 156.356V145.286C114.591 144.595 114.419 143.917 114.1 143.306C113.78 142.694 113.321 142.166 112.76 141.763C112.593 141.646 112.397 141.575 112.194 141.556C111.99 141.537 111.785 141.572 111.599 141.657L112.982 140.946C113.171 140.855 113.381 140.816 113.59 140.832C113.799 140.848 114.001 140.919 114.174 141.038C114.735 141.44 115.195 141.968 115.516 142.58C115.837 143.191 116.01 143.869 116.023 144.56V155.592C116.051 155.871 116.009 156.152 115.899 156.41C115.79 156.668 115.617 156.894 115.396 157.066L113.952 157.83C114.182 157.665 114.363 157.441 114.478 157.182C114.592 156.922 114.635 156.637 114.602 156.356Z" fill="#455A64"/>
<path d="M112.756 184.429C113.773 185.017 114.598 184.429 114.598 183.039V171.999C114.587 171.309 114.415 170.631 114.095 170.019C113.775 169.408 113.317 168.879 112.756 168.477C111.74 167.888 110.915 168.477 110.915 169.875V180.907C110.924 181.597 111.096 182.276 111.416 182.888C111.735 183.5 112.195 184.028 112.756 184.429Z" fill="#37474F"/>
<path d="M114.601 183.042V172.002C114.59 171.312 114.418 170.635 114.098 170.023C113.779 169.411 113.32 168.883 112.76 168.48C112.591 168.365 112.396 168.295 112.193 168.276C111.99 168.258 111.785 168.291 111.599 168.373L112.981 167.655C113.17 167.56 113.38 167.518 113.59 167.535C113.8 167.551 114.002 167.624 114.173 167.747C114.736 168.148 115.196 168.676 115.518 169.288C115.839 169.899 116.012 170.578 116.022 171.269V182.332C116.052 182.61 116.009 182.892 115.9 183.15C115.79 183.408 115.617 183.634 115.396 183.806L113.952 184.57C114.191 184.401 114.378 184.168 114.493 183.898C114.608 183.628 114.645 183.332 114.601 183.042Z" fill="#455A64"/>
<path d="M135.233 95.6063L232.352 39.5134C232.758 39.2803 233.217 39.1571 233.685 39.1563C234.152 39.1554 234.612 39.2768 235.018 39.5085C235.424 39.7402 235.763 40.074 236 40.4769C236.238 40.8799 236.365 41.3378 236.371 41.8054V253.777C236.371 260.852 231.352 269.539 225.224 273.076L130.488 327.801C130.039 328.06 129.53 328.196 129.011 328.195C128.493 328.195 127.984 328.058 127.535 327.799C127.086 327.539 126.713 327.167 126.454 326.718C126.195 326.269 126.058 325.76 126.057 325.242V111.52C126.019 105.683 130.16 98.5248 135.233 95.6063Z" fill="#6F8EA6"/>
<path opacity="0.9" d="M135.233 95.6063L232.352 39.5134C232.758 39.2803 233.217 39.1571 233.685 39.1563C234.152 39.1554 234.612 39.2768 235.018 39.5085C235.424 39.7402 235.763 40.074 236 40.4769C236.238 40.8799 236.365 41.3378 236.371 41.8054V253.777C236.371 260.852 231.352 269.539 225.224 273.076L130.488 327.801C130.039 328.06 129.53 328.196 129.011 328.195C128.493 328.195 127.984 328.058 127.535 327.799C127.086 327.539 126.713 327.167 126.454 326.718C126.195 326.269 126.058 325.76 126.057 325.242V111.52C126.019 105.683 130.16 98.5248 135.233 95.6063Z" fill="white"/>
<path d="M203.305 54.1562L201.8 60.4898L169.605 79.055L164.043 76.0907L203.305 54.1562Z" fill="#455A64"/>
<path d="M193.836 60.2787C193.836 61.333 194.6 61.7532 195.486 61.2337C195.962 60.9179 196.357 60.4948 196.639 59.9986C196.922 59.5023 197.084 58.9467 197.113 58.3764C197.113 57.3297 196.349 56.9018 195.463 57.429C194.987 57.7432 194.592 58.1649 194.31 58.6599C194.027 59.1549 193.865 59.7094 193.836 60.2787Z" fill="#263238"/>
<path d="M172.147 73.6796C172.323 73.6782 172.496 73.6336 172.651 73.5497L189.092 64.3817C189.325 64.2454 189.494 64.0237 189.565 63.764C189.636 63.5043 189.603 63.2271 189.472 62.9918C189.341 62.7564 189.124 62.5814 188.866 62.5042C188.608 62.4271 188.33 62.4538 188.092 62.5787L171.643 71.7467C171.443 71.8578 171.285 72.0322 171.195 72.2426C171.106 72.4529 171.088 72.6872 171.146 72.9085C171.204 73.1299 171.333 73.3258 171.514 73.4653C171.696 73.6049 171.918 73.6803 172.147 73.6796Z" fill="#263238"/>
<path d="M140.24 190.398V285.325C140.238 286.399 140.519 287.454 141.055 288.385C141.591 289.315 142.362 290.088 143.292 290.625C144.221 291.163 145.276 291.446 146.349 291.446C147.423 291.447 148.478 291.164 149.408 290.628L200.534 261.107L209.595 255.881C212.716 254.077 215.308 251.485 217.112 248.365C218.917 245.246 219.871 241.707 219.879 238.103V143.168C219.88 142.094 219.599 141.039 219.063 140.109C218.528 139.178 217.756 138.405 216.827 137.868C215.897 137.33 214.843 137.047 213.769 137.047C212.696 137.046 211.641 137.329 210.711 137.866L150.508 172.62C147.386 174.421 144.794 177.013 142.992 180.133C141.189 183.254 140.24 186.794 140.24 190.398Z" fill="#6F8EA6"/>
<path opacity="0.5" d="M140.24 190.398V285.325C140.238 286.399 140.519 287.454 141.055 288.385C141.591 289.315 142.362 290.088 143.292 290.625C144.221 291.163 145.276 291.446 146.349 291.446C147.423 291.447 148.478 291.164 149.408 290.628L200.534 261.107L209.595 255.881C212.716 254.077 215.308 251.485 217.112 248.365C218.917 245.246 219.871 241.707 219.879 238.103V143.168C219.88 142.094 219.599 141.039 219.063 140.109C218.528 139.178 217.756 138.405 216.827 137.868C215.897 137.33 214.843 137.047 213.769 137.047C212.696 137.046 211.641 137.329 210.711 137.866L150.508 172.62C147.386 174.421 144.794 177.013 142.992 180.133C141.189 183.254 140.24 186.794 140.24 190.398Z" fill="white"/>
<path d="M169.693 246.57C169.693 246.57 160.12 262.446 167.034 280.347L200.559 261.109L169.693 246.57Z" fill="#263238"/>
<path d="M154.424 175.236C153.699 169.352 157.882 163.995 163.765 163.27C169.649 162.546 175.007 166.728 175.731 172.612C176.456 178.496 172.273 183.853 166.389 184.578C160.505 185.302 155.148 181.12 154.424 175.236Z" fill="#263238"/>
<path d="M165.023 143.822C165.023 143.822 161.731 138.474 160.722 138.864C159.714 139.254 161.379 144.35 161.379 144.35C161.379 144.35 156.398 145.389 157.322 146.642C158.247 147.895 164.336 147.597 164.336 147.597L165.023 143.822Z" fill="#263238"/>
<path d="M162.732 157.6C165.024 174.821 179.54 174.821 179.54 174.821L209.947 161.436C209.947 161.436 212.239 159.426 212.942 154.812C213.212 152.921 213.212 151.002 212.942 149.112C212.942 149.112 212.942 149.074 212.942 149.059C211.972 141.816 206.555 134.031 194.759 131.64C192.174 131.118 189.542 130.862 186.905 130.876C185.629 130.871 184.354 130.935 183.085 131.067C173.917 131.968 167.492 136.246 164.428 142.901C163.739 144.403 163.226 145.98 162.9 147.6C162.278 150.9 162.222 154.281 162.732 157.6Z" fill="#263238"/>
<path d="M235.732 190.908C235.732 190.908 246.527 190.534 250.684 201.054C250.684 201.054 246.1 204.148 240.087 201.054C234.074 197.96 235.732 190.908 235.732 190.908Z" fill="#6F8EA6"/>
<path opacity="0.5" d="M235.732 190.908C235.732 190.908 246.527 190.534 250.684 201.054C250.684 201.054 246.1 204.148 240.087 201.054C234.074 197.96 235.732 190.908 235.732 190.908Z" fill="black"/>
<path d="M236.037 195.98C236.037 195.98 239.093 182.701 240.705 182.541C242.317 182.381 242.63 186.59 242.5 188.966L246.32 180.746C246.441 180.49 246.614 180.262 246.826 180.076C247.039 179.889 247.287 179.749 247.557 179.662C247.826 179.575 248.11 179.545 248.391 179.572C248.673 179.6 248.945 179.684 249.193 179.821C253.013 181.922 259.713 188.309 245.587 204.101L236.037 195.98Z" fill="#945959"/>
<path d="M196.922 186.795L199.214 186.497C201.524 186.19 203.873 186.505 206.022 187.407C208.17 188.309 210.039 189.767 211.438 191.631L225.075 209.783L235.771 190.913C235.771 190.913 237.055 203.748 250.723 201.059L236.046 225.759C235.117 227.322 233.825 228.639 232.278 229.595C230.731 230.552 228.976 231.121 227.162 231.254C225.348 231.387 223.529 231.079 221.86 230.358C220.19 229.637 218.719 228.523 217.573 227.111L205.013 211.67L196.922 186.795Z" fill="#6F8EA6"/>
<path d="M167.813 229.157C170.869 236.904 171.205 238.417 169.341 242.29C168.043 245.151 167.02 248.129 166.285 251.183C166.285 251.183 180.45 267.059 200.612 261.115L209.673 255.889C211.557 254.803 213.255 253.42 214.7 251.794L211.942 231.227C211.803 230.145 211.913 229.045 212.263 228.011L215.158 219.523C216.571 215.377 216.782 210.916 215.765 206.656C214.748 202.396 212.546 198.51 209.413 195.449L199.68 185.938L174.116 189.207L170.296 190.3C167.795 191.023 165.64 192.625 164.225 194.81C162.81 196.995 162.231 199.618 162.595 202.195C163.848 211.211 165.896 224.29 167.813 229.157Z" fill="#6F8EA6"/>
<path opacity="0.5" d="M167.813 229.157C170.869 236.904 171.205 238.417 169.341 242.29C168.043 245.151 167.02 248.129 166.285 251.183C166.285 251.183 180.45 267.059 200.612 261.115L209.673 255.889C211.557 254.803 213.255 253.42 214.7 251.794L211.942 231.227C211.803 230.145 211.913 229.045 212.263 228.011L215.158 219.523C216.571 215.377 216.782 210.916 215.765 206.656C214.748 202.396 212.546 198.51 209.413 195.449L199.68 185.938L174.116 189.207L170.296 190.3C167.795 191.023 165.64 192.625 164.225 194.81C162.81 196.995 162.231 199.618 162.595 202.195C163.848 211.211 165.896 224.29 167.813 229.157Z" fill="black"/>
<path d="M183.232 206.02L188.351 201.658C188.893 201.194 189.547 200.879 190.247 200.745C190.948 200.611 191.672 200.662 192.347 200.894L198.535 203.025L199.368 199.557C199.498 199.017 199.736 198.509 200.067 198.064C200.399 197.619 200.817 197.245 201.297 196.966C201.777 196.687 202.308 196.508 202.859 196.44C203.41 196.372 203.969 196.416 204.502 196.569L207.184 197.333L202.645 188.639C201.164 185.807 198.881 183.474 196.083 181.931L194.303 180.953L179.596 181.717C179.596 181.717 174.118 184.009 174.118 189.166L183.232 205.974" fill="#6F8EA6"/>
<path d="M179.532 188.23L194.277 199.721V163.133H179.532V188.23Z" fill="#945959"/>
<path d="M194.05 185.211L198.535 203.05L179.596 188.229L194.05 185.211Z" fill="#945959"/>
<path d="M194.278 182.561C190.999 181.344 188.002 179.473 185.468 177.061C182.935 174.65 180.918 171.749 179.54 168.534V163.133H194.285L194.278 182.561Z" fill="#703838"/>
<path d="M191.101 136.016C196.693 136.016 208.581 139.133 209.956 153.771C211.331 168.409 210.002 179.747 202.454 180.847C194.905 181.947 177.364 176.469 175.011 157.522C172.658 138.575 185.653 136.016 191.101 136.016Z" fill="#945959"/>
<path d="M199.899 159.969V168.594L204.957 167.043L199.899 159.969Z" fill="#703838"/>
<path d="M194.274 163.218C193.304 163.218 192.517 162.431 192.517 161.46C192.517 160.49 193.304 159.703 194.274 159.703C195.245 159.703 196.031 160.49 196.031 161.46C196.031 162.431 195.245 163.218 194.274 163.218Z" fill="#263238"/>
<path d="M204.087 160.234C204.089 160.581 204.193 160.92 204.387 161.208C204.581 161.496 204.856 161.72 205.177 161.852C205.498 161.983 205.851 162.017 206.192 161.948C206.532 161.88 206.845 161.712 207.09 161.466C207.335 161.22 207.501 160.907 207.568 160.566C207.636 160.225 207.6 159.872 207.467 159.552C207.334 159.231 207.109 158.957 206.82 158.764C206.531 158.572 206.192 158.469 205.844 158.469C205.613 158.469 205.384 158.514 205.17 158.603C204.956 158.692 204.762 158.822 204.599 158.986C204.436 159.15 204.307 159.345 204.219 159.559C204.131 159.773 204.086 160.002 204.087 160.234Z" fill="#263238"/>
<path d="M207.991 156.569L204.553 154.529C204.553 154.529 205.867 153.162 207.181 153.979C208.495 154.797 207.991 156.569 207.991 156.569Z" fill="#263238"/>
<path d="M202.277 172.096C200.603 172.219 198.937 171.772 197.548 170.828C197.548 170.828 197.22 173.326 199.313 173.8C201.406 174.274 202.277 172.096 202.277 172.096Z" fill="#703838"/>
<path d="M205.277 140.998C205.277 140.998 203.176 161.205 175.695 161.839C175.695 161.839 167.391 141.754 183.801 135.229C200.212 128.705 205.277 140.998 205.277 140.998Z" fill="#263238"/>
<path d="M167.607 158.813L170.984 156.858C172.267 156.094 174.04 156.201 176.003 157.331C179.9 159.577 183.062 165.055 183.062 169.555C183.062 171.809 182.299 173.375 180.984 174.139L177.669 176.049L177.478 176.156L177.363 176.225C176.11 176.836 174.437 176.691 172.596 175.629C168.699 173.337 165.536 167.905 165.536 163.405C165.559 161.128 166.346 159.555 167.607 158.813Z" fill="#6F8EA6"/>
<path d="M167.635 170.323C164.88 165.55 164.88 160.392 167.635 158.801C170.39 157.211 174.857 159.79 177.613 164.562C180.368 169.334 180.368 174.493 177.613 176.083C174.858 177.674 170.39 175.095 167.635 170.323Z" fill="#6F8EA6"/>
<path opacity="0.5" d="M167.635 170.323C164.88 165.55 164.88 160.392 167.635 158.801C170.39 157.211 174.857 159.79 177.613 164.562C180.368 169.334 180.368 174.493 177.613 176.083C174.858 177.674 170.39 175.095 167.635 170.323Z" fill="black"/>
<path d="M166.254 163.055L168.546 161.718C169.417 161.198 170.632 161.267 171.976 162.039C173.381 162.956 174.55 164.192 175.389 165.645C176.227 167.099 176.712 168.729 176.805 170.404C176.805 171.932 176.262 173.025 175.384 173.529L173.092 174.836C173.051 174.865 173.007 174.891 172.962 174.912L172.885 174.958C172.348 175.162 171.769 175.23 171.199 175.159C170.629 175.087 170.085 174.876 169.615 174.545C168.212 173.628 167.043 172.394 166.205 170.942C165.366 169.49 164.88 167.861 164.787 166.187C164.848 164.636 165.383 163.559 166.254 163.055Z" fill="#6F8EA6"/>
<path d="M164.847 166.17C164.94 167.844 165.426 169.472 166.265 170.924C167.104 172.376 168.272 173.611 169.676 174.528C172.35 176.056 174.512 174.818 174.512 171.739C174.421 170.063 173.936 168.433 173.095 166.98C172.255 165.528 171.083 164.295 169.676 163.381C167.009 161.838 164.847 163.083 164.847 166.17Z" fill="#6F8EA6"/>
<path opacity="0.3" d="M164.847 166.17C164.94 167.844 165.426 169.472 166.265 170.924C167.104 172.376 168.272 173.611 169.676 174.528C172.35 176.056 174.512 174.818 174.512 171.739C174.421 170.063 173.936 168.433 173.095 166.98C172.255 165.528 171.083 164.295 169.676 163.381C167.009 161.838 164.847 163.083 164.847 166.17Z" fill="black"/>
<path d="M178.095 132.075C180.285 130.384 182.968 129.453 185.735 129.424H186.415C189.217 129.394 192.015 129.65 194.766 130.188C194.261 130.188 193.757 130.188 193.238 130.188H194.766V131.609H193.345C188.447 131.776 183.806 133.84 180.403 137.366C177 140.892 175.101 145.603 175.108 150.503V156.516C175.108 156.753 175.058 156.988 174.962 157.206C174.865 157.423 174.724 157.617 174.548 157.777C174.371 157.936 174.163 158.056 173.937 158.13C173.711 158.203 173.473 158.229 173.236 158.204H173.06L171.532 157.73C171.634 157.763 171.739 157.783 171.846 157.792C171.39 157.73 170.973 157.502 170.675 157.153C170.376 156.804 170.216 156.356 170.226 155.897V150.32C170.241 140.227 174.604 134.803 178.095 132.075Z" fill="#6F8EA6"/>
<path d="M187.714 180.427C188.344 180.427 188.967 180.291 189.54 180.029L194.315 177.822C194.39 177.795 194.458 177.753 194.516 177.698C194.574 177.644 194.619 177.578 194.65 177.505C194.681 177.432 194.696 177.353 194.695 177.274C194.694 177.195 194.677 177.116 194.644 177.044C194.611 176.972 194.563 176.908 194.504 176.855C194.445 176.802 194.375 176.762 194.3 176.737C194.225 176.713 194.145 176.704 194.066 176.712C193.987 176.719 193.911 176.744 193.842 176.782L189.067 178.99C188.458 179.274 187.775 179.36 187.115 179.236C186.455 179.113 185.85 178.787 185.384 178.303L180.8 173.566C180.693 173.459 180.547 173.398 180.395 173.398C180.243 173.398 180.098 173.459 179.99 173.566C179.885 173.674 179.826 173.82 179.826 173.971C179.826 174.122 179.885 174.267 179.99 174.376L184.574 179.113C184.982 179.532 185.471 179.864 186.01 180.09C186.55 180.316 187.129 180.43 187.714 180.427Z" fill="#6F8EA6"/>
<path opacity="0.5" d="M187.714 180.427C188.344 180.427 188.967 180.291 189.54 180.029L194.315 177.822C194.39 177.795 194.458 177.753 194.516 177.698C194.574 177.644 194.619 177.578 194.65 177.505C194.681 177.432 194.696 177.353 194.695 177.274C194.694 177.195 194.677 177.116 194.644 177.044C194.611 176.972 194.563 176.908 194.504 176.855C194.445 176.802 194.375 176.762 194.3 176.737C194.225 176.713 194.145 176.704 194.066 176.712C193.987 176.719 193.911 176.744 193.842 176.782L189.067 178.99C188.458 179.274 187.775 179.36 187.115 179.236C186.455 179.113 185.85 178.787 185.384 178.303L180.8 173.566C180.693 173.459 180.547 173.398 180.395 173.398C180.243 173.398 180.098 173.459 179.99 173.566C179.885 173.674 179.826 173.82 179.826 173.971C179.826 174.122 179.885 174.267 179.99 174.376L184.574 179.113C184.982 179.532 185.471 179.864 186.01 180.09C186.55 180.316 187.129 180.43 187.714 180.427Z" fill="black"/>
<path d="M193.062 176.215C193.062 176.656 193.193 177.088 193.438 177.455C193.683 177.822 194.031 178.107 194.439 178.276C194.846 178.445 195.295 178.489 195.728 178.403C196.161 178.317 196.558 178.105 196.87 177.793C197.182 177.481 197.394 177.083 197.481 176.65C197.567 176.218 197.522 175.769 197.354 175.362C197.185 174.954 196.899 174.605 196.532 174.36C196.165 174.115 195.734 173.984 195.293 173.984C194.701 173.984 194.133 174.219 193.715 174.638C193.297 175.056 193.062 175.624 193.062 176.215Z" fill="#6F8EA6"/>
<path opacity="0.5" d="M193.062 176.215C193.062 176.656 193.193 177.088 193.438 177.455C193.683 177.822 194.031 178.107 194.439 178.276C194.846 178.445 195.295 178.489 195.728 178.403C196.161 178.317 196.558 178.105 196.87 177.793C197.182 177.481 197.394 177.083 197.481 176.65C197.567 176.218 197.522 175.769 197.354 175.362C197.185 174.954 196.899 174.605 196.532 174.36C196.165 174.115 195.734 173.984 195.293 173.984C194.701 173.984 194.133 174.219 193.715 174.638C193.297 175.056 193.062 175.624 193.062 176.215Z" fill="black"/>
<path d="M170.241 150.32V155.898C170.231 156.357 170.391 156.804 170.69 157.154C170.988 157.503 171.405 157.73 171.861 157.792C172.112 157.819 172.367 157.793 172.608 157.715C172.848 157.637 173.07 157.509 173.258 157.339C173.446 157.17 173.597 156.963 173.699 156.732C173.802 156.5 173.855 156.25 173.855 155.997V150.32C173.85 147.611 174.394 144.929 175.453 142.436C176.513 139.942 178.065 137.689 180.018 135.811C181.971 133.933 184.283 132.469 186.817 131.509C189.35 130.548 192.051 130.109 194.758 130.22C192.008 129.681 189.21 129.425 186.407 129.456H185.743C182.975 129.484 180.293 130.415 178.103 132.107C174.603 134.804 170.241 140.228 170.241 150.32Z" fill="#6F8EA6"/>
<path opacity="0.5" d="M170.241 150.32V155.898C170.231 156.357 170.391 156.804 170.69 157.154C170.988 157.503 171.405 157.73 171.861 157.792C172.112 157.819 172.367 157.793 172.608 157.715C172.848 157.637 173.07 157.509 173.258 157.339C173.446 157.17 173.597 156.963 173.699 156.732C173.802 156.5 173.855 156.25 173.855 155.997V150.32C173.85 147.611 174.394 144.929 175.453 142.436C176.513 139.942 178.065 137.689 180.018 135.811C181.971 133.933 184.283 132.469 186.817 131.509C189.35 130.548 192.051 130.109 194.758 130.22C192.008 129.681 189.21 129.425 186.407 129.456H185.743C182.975 129.484 180.293 130.415 178.103 132.107C174.603 134.804 170.241 140.228 170.241 150.32Z" fill="black"/>
<path d="M178.829 255.421C178.829 255.421 182.526 265.605 169.309 270.189C169.309 270.189 164.993 263.848 169.309 258.66C173.626 253.473 178.829 255.421 178.829 255.421Z" fill="#6F8EA6"/>
<path opacity="0.7" d="M178.829 255.421C178.829 255.421 182.526 265.605 169.309 270.189C169.309 270.189 164.993 263.848 169.309 258.66C173.626 253.473 178.829 255.421 178.829 255.421Z" fill="black"/>
<path d="M174.19 255.891C174.19 255.891 187.102 260.62 187.033 262.453C186.964 264.287 181.547 263.034 181.547 263.034L183.526 264.333C185.61 265.692 187.224 267.661 188.148 269.971C188.35 270.481 188.357 271.046 188.168 271.561C187.979 272.075 187.608 272.502 187.124 272.76L182.22 275.357C181.943 275.504 181.639 275.594 181.327 275.622C181.014 275.649 180.7 275.614 180.401 275.518C180.103 275.422 179.827 275.267 179.589 275.062C179.352 274.857 179.158 274.607 179.018 274.326C178.745 273.786 178.367 273.305 177.907 272.912C177.447 272.518 176.913 272.22 176.337 272.034C173.67 271.148 168.697 268.596 166.703 261.613L174.19 255.891Z" fill="#945959"/>
<path d="M170.317 190.281C170.317 190.281 177.193 194.101 173.541 205.699C169.889 217.296 163.036 235.288 163.036 235.288L178.828 255.42C177.141 255.623 175.516 256.18 174.058 257.054C172.601 257.929 171.345 259.1 170.371 260.493C169.438 261.909 168.855 263.527 168.67 265.212C168.486 266.898 168.704 268.604 169.309 270.188L149.704 244.976C147.891 242.646 146.688 239.901 146.202 236.989C145.717 234.077 145.965 231.09 146.923 228.298L155.327 203.758C156.355 200.761 158.062 198.041 160.315 195.813C162.568 193.585 165.307 191.909 168.315 190.915L170.317 190.281Z" fill="#6F8EA6"/>
<path d="M323.47 121.778L293.085 104.206C292.736 103.964 292.331 103.812 291.908 103.765C291.485 103.719 291.058 103.778 290.663 103.938C290.58 103.977 290.501 104.023 290.427 104.076L283.818 107.949H283.864C283.031 108.423 282.504 109.523 282.504 111.097V144.896C282.504 147.754 284.238 151.077 286.385 152.315L316.769 169.887C317.155 170.166 317.614 170.325 318.089 170.346C318.564 170.366 319.035 170.246 319.443 170.002C319.423 170.01 319.404 170.023 319.39 170.04L325.953 166.22C326.808 165.761 327.351 164.646 327.351 163.049V129.196C327.351 126.339 325.647 123.016 323.47 121.778Z" fill="#6F8EA6"/>
<path d="M326.264 124.979C325.65 123.672 324.681 122.563 323.468 121.778L293.084 104.206C292.734 103.964 292.33 103.812 291.907 103.765C291.484 103.719 291.056 103.778 290.662 103.938C290.579 103.977 290.499 104.023 290.425 104.076L283.816 107.949C284.221 107.743 284.674 107.651 285.127 107.685C285.579 107.719 286.014 107.876 286.383 108.14L316.768 125.712C318.022 126.532 319.016 127.693 319.633 129.059L326.264 124.979Z" fill="#6F8EA6"/>
<path d="M320.651 166.913C320.651 168.441 320.162 169.502 319.391 169.969L325.953 166.149C326.809 165.69 327.352 164.575 327.352 162.978V129.194C327.319 127.723 326.948 126.28 326.267 124.977L319.635 129.056C320.272 130.321 320.619 131.712 320.651 133.128V166.913Z" fill="#6F8EA6"/>
<path opacity="0.3" d="M326.264 124.979C325.65 123.672 324.681 122.563 323.468 121.778L293.084 104.206C292.734 103.964 292.33 103.812 291.907 103.765C291.484 103.719 291.056 103.778 290.662 103.938C290.579 103.977 290.499 104.023 290.425 104.076L283.816 107.949C284.221 107.743 284.674 107.651 285.127 107.685C285.579 107.719 286.014 107.876 286.383 108.14L316.768 125.712C318.022 126.532 319.016 127.693 319.633 129.059L326.264 124.979Z" fill="black"/>
<path opacity="0.6" d="M320.651 166.913C320.651 168.441 320.162 169.502 319.391 169.969L325.953 166.149C326.809 165.69 327.352 164.575 327.352 162.978V129.194C327.319 127.723 326.948 126.28 326.267 124.977L319.635 129.056C320.272 130.321 320.619 131.712 320.651 133.128V166.913Z" fill="black"/>
<path d="M311.742 142.809C311.742 147.187 310.008 148.677 307.41 147.172C306.694 146.764 306.067 146.215 305.568 145.559C305.069 144.902 304.708 144.151 304.507 143.352C303.743 144.292 302.559 144.353 300.893 143.39C298.158 141.809 296.004 138.042 296.004 134.382C296.004 130.723 298.135 129.462 300.893 131.051C302.293 131.876 303.423 133.089 304.148 134.543V133.099L307.028 134.764V142.68C306.985 143.096 307.057 143.516 307.236 143.895C307.416 144.273 307.695 144.595 308.044 144.826C309.015 145.392 309.611 144.437 309.611 141.602C309.611 136.644 306.432 131.388 301.734 128.675C297.035 125.963 293.864 127.85 293.864 132.954C293.926 135.662 294.672 138.31 296.034 140.652C297.395 142.994 299.327 144.953 301.65 146.347C302.911 147.124 304.343 147.58 305.821 147.676L306.501 150.312C304.78 150.173 303.117 149.626 301.65 148.715C295.538 145.178 291.496 138.057 291.496 131.609C291.496 125.161 295.576 122.823 301.734 126.383C307.685 129.814 311.742 136.682 311.742 142.809ZM304.194 139.135C304.209 138.166 303.972 137.21 303.508 136.359C303.043 135.509 302.366 134.794 301.543 134.283C300.015 133.389 298.922 134.016 298.922 136.094C298.903 137.064 299.133 138.023 299.592 138.878C300.051 139.734 300.723 140.456 301.543 140.976C303.071 141.839 304.194 141.281 304.194 139.135Z" fill="#6F8EA6"/>
<g opacity="0.9">
<path d="M311.742 142.809C311.742 147.187 310.008 148.677 307.41 147.172C306.694 146.764 306.067 146.215 305.568 145.559C305.069 144.902 304.708 144.151 304.507 143.352C303.743 144.292 302.559 144.353 300.893 143.39C298.158 141.809 296.004 138.042 296.004 134.382C296.004 130.723 298.135 129.462 300.893 131.051C302.293 131.876 303.423 133.089 304.148 134.543V133.099L307.028 134.764V142.68C306.985 143.096 307.057 143.516 307.236 143.895C307.416 144.273 307.695 144.595 308.044 144.826C309.015 145.392 309.611 144.437 309.611 141.602C309.611 136.644 306.432 131.388 301.734 128.675C297.035 125.963 293.864 127.85 293.864 132.954C293.926 135.662 294.672 138.31 296.034 140.652C297.395 142.994 299.327 144.953 301.65 146.347C302.911 147.124 304.343 147.58 305.821 147.676L306.501 150.312C304.78 150.173 303.117 149.626 301.65 148.715C295.538 145.178 291.496 138.057 291.496 131.609C291.496 125.161 295.576 122.823 301.734 126.383C307.685 129.814 311.742 136.682 311.742 142.809ZM304.194 139.135C304.209 138.166 303.972 137.21 303.508 136.359C303.043 135.509 302.366 134.794 301.543 134.283C300.015 133.389 298.922 134.016 298.922 136.094C298.903 137.064 299.133 138.023 299.592 138.878C300.051 139.734 300.723 140.456 301.543 140.976C303.071 141.839 304.194 141.281 304.194 139.135Z" fill="white"/>
</g>
<path d="M323.47 181.965L293.085 164.393C292.736 164.149 292.331 163.997 291.908 163.952C291.484 163.907 291.056 163.969 290.663 164.133C290.58 164.171 290.501 164.217 290.427 164.27L283.818 168.144H283.864C283.031 168.618 282.504 169.718 282.504 171.284V205.068C282.504 207.933 284.238 211.249 286.385 212.486L316.769 230.058C317.154 230.339 317.613 230.5 318.089 230.52C318.565 230.541 319.036 230.42 319.443 230.173L319.39 230.219L325.953 226.361C326.808 225.91 327.351 224.833 327.351 223.19V189.375C327.351 186.518 325.647 183.202 323.47 181.965Z" fill="#6F8EA6"/>
<path d="M326.264 185.166C325.652 183.857 324.682 182.748 323.468 181.965L293.084 164.393C292.735 164.149 292.329 163.997 291.906 163.952C291.483 163.907 291.055 163.969 290.662 164.133C290.579 164.171 290.499 164.217 290.425 164.27L283.816 168.144C284.22 167.935 284.673 167.842 285.126 167.874C285.579 167.907 286.014 168.063 286.383 168.327L316.768 185.899C318.024 186.72 319.018 187.884 319.633 189.253L326.264 185.166Z" fill="#6F8EA6"/>
<path d="M320.651 227.1C320.651 228.628 320.162 229.69 319.391 230.194L325.953 226.336C326.809 225.885 327.352 224.808 327.352 223.166V189.382C327.319 187.913 326.948 186.473 326.267 185.172L319.635 189.252C320.272 190.514 320.619 191.903 320.651 193.316V227.1Z" fill="#6F8EA6"/>
<path opacity="0.3" d="M326.264 185.166C325.652 183.857 324.682 182.748 323.468 181.965L293.084 164.393C292.735 164.149 292.329 163.997 291.906 163.952C291.483 163.907 291.055 163.969 290.662 164.133C290.579 164.171 290.499 164.217 290.425 164.27L283.816 168.144C284.22 167.935 284.673 167.842 285.126 167.874C285.579 167.907 286.014 168.063 286.383 168.327L316.768 185.899C318.024 186.72 319.018 187.884 319.633 189.253L326.264 185.166Z" fill="black"/>
<path opacity="0.6" d="M320.651 227.1C320.651 228.628 320.162 229.69 319.391 230.194L325.953 226.336C326.809 225.885 327.352 224.808 327.352 223.166V189.382C327.319 187.913 326.948 186.473 326.267 185.172L319.635 189.252C320.272 190.514 320.619 191.903 320.651 193.316V227.1Z" fill="black"/>
<path d="M298.182 197.075L290.855 185.172V201.3L298.182 197.075Z" fill="#6F8EA6"/>
<path d="M304.988 200.5L312.3 213.16V197.055L304.988 200.5Z" fill="#6F8EA6"/>
<path d="M291.961 184.625L299.486 196.849C299.518 196.876 299.546 196.907 299.57 196.941C299.577 196.971 299.577 197.002 299.57 197.032L301.809 200.669L303.704 199.775C303.733 199.743 303.766 199.715 303.803 199.691C303.878 199.647 303.961 199.621 304.047 199.615L311.687 196.032L291.961 184.625Z" fill="#6F8EA6"/>
<path d="M303.88 201.02L301.832 201.983C301.753 202.02 301.667 202.038 301.58 202.036C301.475 202.038 301.371 202.011 301.278 201.961C301.186 201.91 301.108 201.836 301.053 201.746L298.815 198.109L291.465 202.357L311.245 213.771L303.88 201.02Z" fill="#6F8EA6"/>
<g opacity="0.9">
<path d="M298.178 197.075L290.852 185.172V201.3L298.178 197.075Z" fill="white"/>
<path d="M304.984 200.5L312.296 213.16V197.055L304.984 200.5Z" fill="white"/>
<path d="M291.957 184.625L299.482 196.849C299.514 196.876 299.543 196.907 299.566 196.941C299.573 196.971 299.573 197.002 299.566 197.032L301.805 200.669L303.7 199.775C303.729 199.743 303.763 199.715 303.799 199.691C303.874 199.647 303.957 199.621 304.044 199.615L311.684 196.032L291.957 184.625Z" fill="white"/>
<path d="M303.88 201.02L301.832 201.983C301.753 202.02 301.667 202.038 301.58 202.036C301.475 202.038 301.371 202.011 301.278 201.961C301.186 201.91 301.108 201.836 301.053 201.746L298.815 198.109L291.465 202.357L311.245 213.771L303.88 201.02Z" fill="white"/>
</g>
<path d="M323.47 61.6209L293.085 44.0489C292.736 43.8052 292.331 43.6536 291.908 43.6082C291.484 43.5628 291.056 43.625 290.663 43.7891C290.58 43.8274 290.501 43.8735 290.427 43.9266L283.818 47.8001H283.864C283.031 48.2661 282.504 49.3739 282.504 50.9401V84.7242C282.504 87.5816 284.238 90.905 286.385 92.1426L316.769 109.715C317.154 109.995 317.613 110.156 318.089 110.176C318.565 110.197 319.036 110.076 319.443 109.829L319.39 109.867L325.953 106.047C326.808 105.597 327.351 104.519 327.351 102.877V69.0087C327.351 66.1514 325.647 62.828 323.47 61.6209Z" fill="#6F8EA6"/>
<path d="M326.264 64.7991C325.652 63.4883 324.683 62.3763 323.468 61.5903L293.084 44.0489C292.735 43.8052 292.329 43.6536 291.906 43.6082C291.483 43.5628 291.055 43.625 290.662 43.7891C290.579 43.8274 290.499 43.8735 290.425 43.9266L283.816 47.8001C284.22 47.5915 284.673 47.4983 285.126 47.5306C285.579 47.563 286.014 47.7197 286.383 47.9835L316.768 65.5555C318.024 66.3765 319.018 67.5405 319.633 68.9094L326.264 64.7991Z" fill="#6F8EA6"/>
<path d="M320.651 106.695C320.651 108.223 320.162 109.285 319.391 109.751L325.953 105.931C326.809 105.48 327.352 104.403 327.352 102.76V69.0065C327.319 67.5384 326.948 66.0977 326.267 64.7969L319.635 68.8766C320.272 70.1391 320.619 71.5276 320.651 72.9411V106.695Z" fill="#6F8EA6"/>
<path opacity="0.3" d="M326.264 64.7991C325.652 63.4883 324.683 62.3763 323.468 61.5903L293.084 44.0489C292.735 43.8052 292.329 43.6536 291.906 43.6082C291.483 43.5628 291.055 43.625 290.662 43.7891C290.579 43.8274 290.499 43.8735 290.425 43.9266L283.816 47.8001C284.22 47.5915 284.673 47.4983 285.126 47.5306C285.579 47.563 286.014 47.7197 286.383 47.9835L316.768 65.5555C318.024 66.3765 319.018 67.5405 319.633 68.9094L326.264 64.7991Z" fill="black"/>
<path opacity="0.6" d="M320.651 106.695C320.651 108.223 320.162 109.285 319.391 109.751L325.953 105.931C326.809 105.48 327.352 104.403 327.352 102.76V69.0065C327.319 67.5384 326.948 66.0977 326.267 64.7969L319.635 68.8766C320.272 70.1391 320.619 71.5276 320.651 72.9411V106.695Z" fill="black"/>
<path d="M310.713 92.1819C309.544 90.2566 308.368 88.3619 307.199 86.4213C307.013 86.0538 306.754 85.7284 306.437 85.4655C306.121 85.2026 305.753 85.0078 305.358 84.8933C304.792 84.7787 304.227 84.6488 303.646 84.4808C303.439 84.3945 303.265 84.2447 303.15 84.0529C301.237 80.7793 299.716 77.2918 298.619 73.6625C298.596 73.5849 298.589 73.5033 298.6 73.4229C298.61 73.3426 298.638 73.2654 298.68 73.1965C299.039 72.8374 299.444 72.5089 299.811 72.188C300.178 71.8671 300.369 71.126 300.101 70.1634C299.536 68.1235 298.993 66.0836 298.428 64.0514C298.319 63.474 298.059 62.9355 297.676 62.4903C297.292 62.045 296.798 61.7086 296.243 61.5149C295.011 61.1724 293.703 61.2204 292.499 61.6524C292.033 61.8282 291.789 62.2484 291.781 62.9742C291.98 64.3723 292.11 65.7551 292.377 67.1762C294.262 77.4239 298.795 86.8466 305.976 95.4442C306.164 95.7293 306.416 95.9663 306.712 96.1362C307.008 96.306 307.339 96.404 307.68 96.4221C308.869 96.3938 310.011 95.9536 310.912 95.1768C311.592 94.5656 311.523 93.4807 310.713 92.1819Z" fill="#6F8EA6"/>
<path d="M310.619 81.7647C310.459 79.5671 309.854 77.4252 308.839 75.4693C308.082 73.9414 307.117 72.5249 305.974 71.2597C305.676 70.9235 305.424 70.8166 305.271 71.0687C305.118 71.3208 305.271 71.6799 305.561 72.0084L305.859 72.3522C307.971 74.7898 309.302 77.8054 309.679 81.0083C309.676 81.2419 309.699 81.4752 309.748 81.7036C309.844 81.9663 309.998 82.204 310.199 82.3988C310.359 82.5134 310.543 82.3988 310.673 82.3988C310.627 82.0856 310.634 81.9251 310.619 81.7647Z" fill="#6F8EA6"/>
<path d="M303.697 75.4949C304.656 76.5501 305.239 77.8934 305.355 79.3149C305.405 79.531 305.485 79.7392 305.591 79.9337C306.057 80.3157 306.287 80.1858 306.287 79.7045C306.123 77.8819 305.369 76.1624 304.14 74.8073C303.849 74.5093 303.613 74.4176 303.475 74.6698C303.426 74.8137 303.42 74.9692 303.46 75.1162C303.499 75.2632 303.582 75.3951 303.697 75.4949Z" fill="#6F8EA6"/>
<g opacity="0.9">
<path d="M310.709 92.1819C309.54 90.2566 308.364 88.3619 307.195 86.4213C307.009 86.0538 306.75 85.7284 306.433 85.4655C306.117 85.2026 305.749 85.0078 305.354 84.8933C304.788 84.7787 304.223 84.6488 303.642 84.4808C303.435 84.3945 303.262 84.2447 303.146 84.0529C301.233 80.7793 299.712 77.2918 298.615 73.6625C298.592 73.5849 298.585 73.5033 298.596 73.4229C298.606 73.3426 298.634 73.2654 298.676 73.1965C299.035 72.8374 299.44 72.5089 299.807 72.188C300.174 71.8671 300.365 71.126 300.097 70.1634C299.532 68.1235 298.99 66.0836 298.424 64.0514C298.315 63.474 298.055 62.9355 297.672 62.4903C297.288 62.045 296.794 61.7086 296.239 61.5149C295.007 61.1724 293.699 61.2204 292.496 61.6524C292.029 61.8282 291.785 62.2484 291.777 62.9742C291.976 64.3723 292.106 65.7551 292.373 67.1762C294.258 77.4239 298.791 86.8466 305.972 95.4442C306.16 95.7293 306.412 95.9663 306.708 96.1362C307.004 96.306 307.335 96.404 307.676 96.4221C308.865 96.3938 310.007 95.9536 310.908 95.1768C311.588 94.5656 311.519 93.4807 310.709 92.1819Z" fill="white"/>
<path d="M310.619 81.7725C310.459 79.575 309.854 77.433 308.839 75.4771C308.082 73.9492 307.117 72.5328 305.974 71.2675C305.676 70.9313 305.424 70.8244 305.271 71.0765C305.118 71.3286 305.271 71.6877 305.561 72.0162L305.859 72.36C307.971 74.7976 309.302 77.8132 309.679 81.0161C309.676 81.2497 309.699 81.483 309.748 81.7114C309.844 81.9741 309.998 82.2118 310.199 82.4066C310.359 82.5212 310.543 82.4066 310.673 82.4066C310.627 82.0934 310.634 81.9329 310.619 81.7725Z" fill="white"/>
<path d="M303.693 75.4949C304.652 76.5501 305.235 77.8934 305.351 79.3149C305.401 79.531 305.481 79.7392 305.587 79.9337C306.053 80.3157 306.283 80.1858 306.283 79.7045C306.119 77.8819 305.366 76.1624 304.136 74.8073C303.846 74.5093 303.609 74.4176 303.471 74.6698C303.422 74.8137 303.416 74.9692 303.456 75.1162C303.495 75.2632 303.578 75.3951 303.693 75.4949Z" fill="white"/>
</g>
<path d="M130.489 41.361L123.33 45.4331V42.8967C123.33 42.7209 123.33 42.5376 123.33 42.3619C123.33 42.1861 123.33 42.0181 123.33 41.85V41.7583C123.07 38.4043 120.526 37.1132 117.425 38.9086C116.02 39.7723 114.817 40.9263 113.895 42.2931C113.2 37.7091 109.479 36.0894 104.979 38.6794C99.9824 41.5673 95.9332 48.6114 95.9332 54.3567V59.7811C95.9403 60.215 95.8333 60.6431 95.6228 61.0226C95.4122 61.4021 95.1056 61.7196 94.7337 61.9432L90.5164 64.4109C89.6063 64.9505 88.8518 65.7172 88.3268 66.6359C87.8019 67.5546 87.5244 68.5938 87.5216 69.6519C87.5214 70.0909 87.637 70.5222 87.8565 70.9023C88.0761 71.2824 88.392 71.598 88.7723 71.8172C89.1526 72.0364 89.584 72.1515 90.0229 72.151C90.4619 72.1504 90.893 72.0342 91.2728 71.8141L130.382 49.2073C131.419 48.6048 132.281 47.7412 132.882 46.7025C133.482 45.6638 133.8 44.4861 133.805 43.2863C133.805 42.898 133.703 42.5163 133.51 42.1797C133.316 41.843 133.037 41.5632 132.702 41.3682C132.366 41.1731 131.985 41.0698 131.596 41.0686C131.208 41.0673 130.826 41.1682 130.489 41.361Z" fill="#E6E6E6"/>
<path d="M75.9137 40.2969L70.7109 43.2841V41.42C70.7109 41.2901 70.7109 41.1602 70.7109 41.0303C70.7109 40.9005 70.7109 40.7782 70.7109 40.656V40.6101C70.5199 38.173 68.671 37.2333 66.4172 38.5397C65.3966 39.1651 64.5214 40.0012 63.8501 40.9921C63.3383 37.6764 60.6337 36.4769 57.3638 38.364C53.7272 40.465 50.7858 45.5685 50.7858 49.7629V53.7127C50.783 54.0224 50.6999 54.326 50.5445 54.5938C50.3892 54.8617 50.1669 55.0846 49.8995 55.2407L46.8435 57.0361C46.1785 57.4272 45.6276 57.9857 45.2456 58.6559C44.8636 59.3261 44.6638 60.0847 44.6661 60.8561C44.6666 61.1721 44.7494 61.4825 44.9064 61.7567C45.0634 62.0309 45.2891 62.2595 45.5613 62.4199C45.8336 62.5803 46.1429 62.667 46.4588 62.6714C46.7748 62.6759 47.0864 62.5979 47.363 62.4453L75.8373 46.004C76.5918 45.5675 77.2184 44.9404 77.6541 44.1854C78.0899 43.4305 78.3196 42.5743 78.3203 41.7027C78.3209 41.4205 78.2474 41.1432 78.1072 40.8984C77.967 40.6536 77.765 40.4499 77.5214 40.3076C77.2778 40.1653 77.0011 40.0894 76.719 40.0875C76.4368 40.0856 76.1592 40.1578 75.9137 40.2969Z" fill="#E6E6E6"/>
</svg>
