<svg width="18" height="18" viewBox="0 0 18 18" fill="none" xmlns="http://www.w3.org/2000/svg">
<path d="M8.25 13.5C8.25 13.9142 8.58579 14.25 9 14.25C9.41421 14.25 9.75 13.9142 9.75 13.5C9.75 13.0858 9.41421 12.75 9 12.75C8.58579 12.75 8.25 13.0858 8.25 13.5Z" stroke="#082B45" stroke-width="2" stroke-linecap="round" stroke-linejoin="round"/>
<path d="M8.25 9C8.25 9.41421 8.58579 9.75 9 9.75C9.41421 9.75 9.75 9.41421 9.75 9C9.75 8.58579 9.41421 8.25 9 8.25C8.58579 8.25 8.25 8.58579 8.25 9Z" stroke="#082B45" stroke-width="2" stroke-linecap="round" stroke-linejoin="round"/>
<path d="M8.25 4.5C8.25 4.91421 8.58579 5.25 9 5.25C9.41421 5.25 9.75 4.91421 9.75 4.5C9.75 4.08579 9.41421 3.75 9 3.75C8.58579 3.75 8.25 4.08579 8.25 4.5Z" stroke="#082B45" stroke-width="2" stroke-linecap="round" stroke-linejoin="round"/>
</svg>
