<svg width="18" height="18" viewBox="0 0 18 18" fill="none" xmlns="http://www.w3.org/2000/svg">
<g clip-path="url(#clip0_29252_81052)">
<path d="M15.9589 4.80254L8.80395 11.9575C8.09145 12.67 5.97643 13 5.50393 12.5275C5.03143 12.055 5.35393 9.94 6.06643 9.2275L13.2289 2.06502C13.4056 1.87231 13.6194 1.71741 13.8576 1.60963C14.0957 1.50186 14.3533 1.44343 14.6146 1.43793C14.8759 1.43243 15.1357 1.47994 15.3782 1.57759C15.6207 1.67525 15.8409 1.82105 16.0255 2.00615C16.21 2.19125 16.3552 2.41183 16.4522 2.65457C16.5492 2.89732 16.5961 3.1572 16.5898 3.41854C16.5836 3.67987 16.5244 3.93727 16.4161 4.17513C16.3076 4.41299 16.1521 4.62643 15.9589 4.80254Z" stroke="#082B45" stroke-width="1.125" stroke-linecap="round" stroke-linejoin="round"/>
<path d="M8.25 3H4.5C3.70435 3 2.94133 3.31606 2.37872 3.87868C1.81612 4.44129 1.5 5.20435 1.5 6V13.5C1.5 14.2957 1.81612 15.0587 2.37872 15.6213C2.94133 16.1839 3.70435 16.5 4.5 16.5H12.75C14.4075 16.5 15 15.15 15 13.5V9.75" stroke="#989797" stroke-width="1.125" stroke-linecap="round" stroke-linejoin="round"/>
</g>
<defs>
<clipPath id="clip0_29252_81052">
<rect width="18" height="18" fill="white"/>
</clipPath>
</defs>
</svg>
