<svg width="25" height="25" viewBox="0 0 25 25" fill="none" xmlns="http://www.w3.org/2000/svg">
<g id="Icons">
<g id="Vector">
<path d="M11.1172 18.5C11.1172 19.0523 11.5649 19.5 12.1172 19.5C12.6695 19.5 13.1172 19.0523 13.1172 18.5C13.1172 17.9477 12.6695 17.5 12.1172 17.5C11.5649 17.5 11.1172 17.9477 11.1172 18.5Z" stroke="#4F4F4F" stroke-width="2" stroke-linecap="round" stroke-linejoin="round"/>
<path d="M11.1172 12.5C11.1172 13.0523 11.5649 13.5 12.1172 13.5C12.6695 13.5 13.1172 13.0523 13.1172 12.5C13.1172 11.9477 12.6695 11.5 12.1172 11.5C11.5649 11.5 11.1172 11.9477 11.1172 12.5Z" stroke="#4F4F4F" stroke-width="2" stroke-linecap="round" stroke-linejoin="round"/>
<path d="M11.1172 6.5C11.1172 7.05228 11.5649 7.5 12.1172 7.5C12.6695 7.5 13.1172 7.05228 13.1172 6.5C13.1172 5.94772 12.6695 5.5 12.1172 5.5C11.5649 5.5 11.1172 5.94772 11.1172 6.5Z" stroke="#4F4F4F" stroke-width="2" stroke-linecap="round" stroke-linejoin="round"/>
</g>
</g>
</svg>
