<svg width="24" height="24" viewBox="0 0 24 24" fill="none" xmlns="http://www.w3.org/2000/svg">
<g id="Envelope">
<path id="Vector" d="M20.3077 5.5H3.69231C3.5087 5.5 3.33261 5.56848 3.20277 5.69038C3.07294 5.81228 3 5.97761 3 6.15V17.2C3 17.5448 3.14588 17.8754 3.40554 18.1192C3.66521 18.363 4.01739 18.5 4.38462 18.5H19.6154C19.9826 18.5 20.3348 18.363 20.5945 18.1192C20.8541 17.8754 21 17.5448 21 17.2V6.15C21 5.97761 20.9271 5.81228 20.7972 5.69038C20.6674 5.56848 20.4913 5.5 20.3077 5.5ZM12 12.4184L5.4724 6.8H18.5276L12 12.4184ZM9.46529 12L4.38462 16.3721V7.62794L9.46529 12ZM10.4899 12.8816L11.5284 13.7794C11.6561 13.8895 11.8232 13.9505 11.9965 13.9505C12.1699 13.9505 12.337 13.8895 12.4647 13.7794L13.5032 12.8816L18.5224 17.2H5.4724L10.4899 12.8816ZM14.5347 12L19.6154 7.62713V16.3729L14.5347 12Z" fill="#BDBDBD"/>
</g>
</svg>
