<svg width="18" height="18" viewBox="0 0 18 18" fill="none" xmlns="http://www.w3.org/2000/svg">
<path d="M16.062 2.6949C15.9722 2.48746 15.8234 2.311 15.6341 2.18745C15.4449 2.0639 15.2234 1.99872 14.9974 2.00002H2.16434C1.93855 2.00046 1.71773 2.06642 1.52869 2.18989C1.33964 2.31337 1.19049 2.48905 1.09932 2.69562C1.00815 2.90219 0.978893 3.13078 1.01508 3.35366C1.05128 3.57653 1.15137 3.78412 1.30322 3.95123L1.30905 3.95779L6.24759 9.23101V14.8331C6.24754 15.0442 6.3048 15.2514 6.41325 15.4326C6.52171 15.6138 6.67729 15.7621 6.86343 15.8618C7.04956 15.9615 7.25925 16.0088 7.47016 15.9987C7.68106 15.9885 7.88526 15.9214 8.06099 15.8043L10.3943 14.2483C10.5542 14.1418 10.6854 13.9974 10.7761 13.8279C10.8668 13.6585 10.9142 13.4693 10.9142 13.2771V9.23101L15.8534 3.95779L15.8593 3.95123C16.0127 3.78488 16.1138 3.57702 16.1498 3.35359C16.1859 3.13017 16.1553 2.90107 16.062 2.6949ZM10.064 8.43697C9.86133 8.65176 9.74817 8.93572 9.74752 9.23101V13.2771L7.41424 14.8331V9.23101C7.41491 8.93466 7.30222 8.64926 7.09924 8.43332L2.16434 3.16666H14.9974L10.064 8.43697Z" fill="#082B45"/>
</svg>
