<svg width="40" height="40" viewBox="0 0 40 40" fill="none" xmlns="http://www.w3.org/2000/svg">
<rect width="40" height="40" rx="20" fill="#082B45" fill-opacity="0.2"/>
<path d="M29.8715 11.8934C29.759 11.6267 29.5726 11.3999 29.3354 11.241C29.0983 11.0822 28.8209 10.9984 28.5377 11H12.4588C12.1759 11.0006 11.8993 11.0854 11.6624 11.2442C11.4255 11.4029 11.2387 11.6288 11.1244 11.8944C11.0102 12.16 10.9736 12.4539 11.0189 12.7404C11.0642 13.027 11.1897 13.2939 11.3799 13.5087L11.3872 13.5172L17.5748 20.297V27.4997C17.5748 27.7712 17.6465 28.0376 17.7824 28.2705C17.9183 28.5034 18.1132 28.6941 18.3464 28.8223C18.5796 28.9505 18.8424 29.0113 19.1066 28.9983C19.3709 28.9853 19.6267 28.8989 19.8469 28.7484L22.7703 26.7478C22.9707 26.6108 23.135 26.4252 23.2487 26.2073C23.3623 25.9895 23.4217 25.7462 23.4217 25.4991V20.297L29.6102 13.5172L29.6175 13.5087C29.8098 13.2948 29.9364 13.0276 29.9816 12.7403C30.0267 12.4531 29.9885 12.1585 29.8715 11.8934ZM22.3565 19.2761C22.1026 19.5523 21.9608 19.9173 21.96 20.297V25.4991L19.0365 27.4997V20.297C19.0374 19.916 18.8962 19.5491 18.6419 19.2714L12.4588 12.5H28.5377L22.3565 19.2761Z" fill="#082B45" fill-opacity="0.8"/>
</svg>
