<svg width="40" height="40" viewBox="0 0 40 40" fill="none" xmlns="http://www.w3.org/2000/svg">
<path d="M32.5 5H28.75V3.75C28.75 3.41848 28.6183 3.10054 28.3839 2.86612C28.1495 2.6317 27.8315 2.5 27.5 2.5C27.1685 2.5 26.8505 2.6317 26.6161 2.86612C26.3817 3.10054 26.25 3.41848 26.25 3.75V5H13.75V3.75C13.75 3.41848 13.6183 3.10054 13.3839 2.86612C13.1495 2.6317 12.8315 2.5 12.5 2.5C12.1685 2.5 11.8505 2.6317 11.6161 2.86612C11.3817 3.10054 11.25 3.41848 11.25 3.75V5H7.5C6.83696 5 6.20107 5.26339 5.73223 5.73223C5.26339 6.20107 5 6.83696 5 7.5V32.5C5 33.163 5.26339 33.7989 5.73223 34.2678C6.20107 34.7366 6.83696 35 7.5 35H32.5C33.163 35 33.7989 34.7366 34.2678 34.2678C34.7366 33.7989 35 33.163 35 32.5V7.5C35 6.83696 34.7366 6.20107 34.2678 5.73223C33.7989 5.26339 33.163 5 32.5 5ZM17.5 28.75C17.5 29.0815 17.3683 29.3995 17.1339 29.6339C16.8995 29.8683 16.5815 30 16.25 30C15.9185 30 15.6005 29.8683 15.3661 29.6339C15.1317 29.3995 15 29.0815 15 28.75V20.7719L14.3094 21.1188C14.0127 21.2671 13.6692 21.2915 13.3545 21.1866C13.0398 21.0817 12.7796 20.8561 12.6312 20.5594C12.4829 20.2627 12.4585 19.9192 12.5634 19.6045C12.6683 19.2898 12.8939 19.0296 13.1906 18.8812L15.6906 17.6312C15.8813 17.5359 16.0931 17.4908 16.3061 17.5004C16.5191 17.5099 16.7261 17.5738 16.9074 17.6859C17.0887 17.798 17.2383 17.9547 17.3421 18.1409C17.4458 18.3271 17.5002 18.5368 17.5 18.75V28.75ZM26.25 27.5C26.5815 27.5 26.8995 27.6317 27.1339 27.8661C27.3683 28.1005 27.5 28.4185 27.5 28.75C27.5 29.0815 27.3683 29.3995 27.1339 29.6339C26.8995 29.8683 26.5815 30 26.25 30H21.25C21.0179 30 20.7903 29.9354 20.5928 29.8133C20.3954 29.6913 20.2358 29.5166 20.132 29.309C20.0282 29.1014 19.9842 28.8689 20.005 28.6377C20.0259 28.4065 20.1107 28.1857 20.25 28L24.7469 22.0047C24.8492 21.8685 24.9225 21.7129 24.9625 21.5473C25.0025 21.3818 25.0082 21.2098 24.9793 21.042C24.9504 20.8741 24.8876 20.714 24.7946 20.5713C24.7016 20.4286 24.5804 20.3065 24.4385 20.2123C24.2965 20.1182 24.1369 20.054 23.9693 20.0238C23.8017 19.9936 23.6297 19.9979 23.4638 20.0366C23.2979 20.0752 23.1417 20.1473 23.0047 20.2485C22.8677 20.3497 22.7529 20.4778 22.6672 20.625C22.5875 20.7717 22.4793 20.9009 22.3489 21.0051C22.2185 21.1093 22.0685 21.1863 21.9078 21.2316C21.7472 21.2769 21.5791 21.2896 21.4135 21.2688C21.2478 21.2481 21.088 21.1944 20.9435 21.1109C20.7989 21.0274 20.6726 20.9158 20.5719 20.7827C20.4711 20.6496 20.3981 20.4977 20.3571 20.3359C20.316 20.1741 20.3078 20.0057 20.3329 19.8407C20.358 19.6756 20.4159 19.5173 20.5031 19.375C20.916 18.6604 21.5531 18.1021 22.3156 17.7864C23.0782 17.4707 23.9235 17.4154 24.7207 17.6291C25.5178 17.8427 26.2222 18.3133 26.7247 18.9679C27.2272 19.6226 27.4997 20.4247 27.5 21.25C27.5027 22.0652 27.2369 22.8587 26.7438 23.5078L23.75 27.5H26.25ZM7.5 12.5V7.5H11.25V8.75C11.25 9.08152 11.3817 9.39946 11.6161 9.63388C11.8505 9.8683 12.1685 10 12.5 10C12.8315 10 13.1495 9.8683 13.3839 9.63388C13.6183 9.39946 13.75 9.08152 13.75 8.75V7.5H26.25V8.75C26.25 9.08152 26.3817 9.39946 26.6161 9.63388C26.8505 9.8683 27.1685 10 27.5 10C27.8315 10 28.1495 9.8683 28.3839 9.63388C28.6183 9.39946 28.75 9.08152 28.75 8.75V7.5H32.5V12.5H7.5Z" fill="#082B45"/>
<rect x="11" y="16" width="18" height="15" fill="#082B45"/>
<path d="M22.0305 29C22.0305 29.1326 21.9745 29.2598 21.8749 29.3536C21.7753 29.4473 21.6401 29.5 21.4992 29.5H17.2492C17.1083 29.5 16.9732 29.4473 16.8736 29.3536C16.774 29.2598 16.718 29.1326 16.718 29C16.718 28.8674 16.774 28.7402 16.8736 28.6464C16.9732 28.5527 17.1083 28.5 17.2492 28.5H21.4992C21.6401 28.5 21.7753 28.5527 21.8749 28.6464C21.9745 28.7402 22.0305 28.8674 22.0305 29ZM25.6038 25.9963C25.2346 25.3988 24.6867 23.7081 24.6867 21.5C24.6867 20.1739 24.127 18.9021 23.1307 17.9645C22.1344 17.0268 20.7832 16.5 19.3742 16.5C17.9653 16.5 16.614 17.0268 15.6177 17.9645C14.6214 18.9021 14.0617 20.1739 14.0617 21.5C14.0617 23.7087 13.5132 25.3988 13.1447 25.9963C13.0505 26.1482 13.0006 26.3207 13 26.4966C12.9994 26.6724 13.048 26.8453 13.141 26.9978C13.234 27.1503 13.3681 27.277 13.5298 27.3652C13.6914 27.4534 13.8749 27.4999 14.0617 27.5H24.6867C24.8735 27.4998 25.0569 27.4532 25.2185 27.365C25.38 27.2768 25.514 27.15 25.607 26.9975C25.6999 26.845 25.7485 26.6722 25.7478 26.4964C25.7471 26.3206 25.6972 26.1481 25.6031 25.9963H25.6038Z" fill="white"/>
</svg>
