<svg width="17" height="18" viewBox="0 0 17 18" fill="none" xmlns="http://www.w3.org/2000/svg">
<path d="M6.07422 0.75H1.57422C1.17639 0.75 0.794863 0.908035 0.513559 1.18934C0.232254 1.47064 0.0742188 1.85218 0.0742188 2.25V6.75C0.0742188 7.14782 0.232254 7.52936 0.513559 7.81066C0.794863 8.09196 1.17639 8.25 1.57422 8.25H6.07422C6.47204 8.25 6.85357 8.09196 7.13488 7.81066C7.41618 7.52936 7.57422 7.14782 7.57422 6.75V2.25C7.57422 1.85218 7.41618 1.47064 7.13488 1.18934C6.85357 0.908035 6.47204 0.75 6.07422 0.75ZM6.07422 6.75H1.57422V2.25H6.07422V6.75ZM15.0742 0.75H10.5742C10.1764 0.75 9.79486 0.908035 9.51356 1.18934C9.23225 1.47064 9.07422 1.85218 9.07422 2.25V6.75C9.07422 7.14782 9.23225 7.52936 9.51356 7.81066C9.79486 8.09196 10.1764 8.25 10.5742 8.25H15.0742C15.472 8.25 15.8536 8.09196 16.1349 7.81066C16.4162 7.52936 16.5742 7.14782 16.5742 6.75V2.25C16.5742 1.85218 16.4162 1.47064 16.1349 1.18934C15.8536 0.908035 15.472 0.75 15.0742 0.75ZM15.0742 6.75H10.5742V2.25H15.0742V6.75ZM6.07422 9.75H1.57422C1.17639 9.75 0.794863 9.90804 0.513559 10.1893C0.232254 10.4706 0.0742188 10.8522 0.0742188 11.25V15.75C0.0742188 16.1478 0.232254 16.5294 0.513559 16.8107C0.794863 17.092 1.17639 17.25 1.57422 17.25H6.07422C6.47204 17.25 6.85357 17.092 7.13488 16.8107C7.41618 16.5294 7.57422 16.1478 7.57422 15.75V11.25C7.57422 10.8522 7.41618 10.4706 7.13488 10.1893C6.85357 9.90804 6.47204 9.75 6.07422 9.75ZM6.07422 15.75H1.57422V11.25H6.07422V15.75ZM15.0742 9.75H10.5742C10.1764 9.75 9.79486 9.90804 9.51356 10.1893C9.23225 10.4706 9.07422 10.8522 9.07422 11.25V15.75C9.07422 16.1478 9.23225 16.5294 9.51356 16.8107C9.79486 17.092 10.1764 17.25 10.5742 17.25H15.0742C15.472 17.25 15.8536 17.092 16.1349 16.8107C16.4162 16.5294 16.5742 16.1478 16.5742 15.75V11.25C16.5742 10.8522 16.4162 10.4706 16.1349 10.1893C15.8536 9.90804 15.472 9.75 15.0742 9.75ZM15.0742 15.75H10.5742V11.25H15.0742V15.75Z" fill="#4F4F4F"/>
</svg>
