<svg width="24" height="24" viewBox="0 0 24 24" fill="none" xmlns="http://www.w3.org/2000/svg">
<g clip-path="url(#clip0_972_2443)">
<path fill-rule="evenodd" clip-rule="evenodd" d="M13.0599 16.0604C12.7787 16.3413 12.3974 16.4991 11.9999 16.4991C11.6024 16.4991 11.2212 16.3413 10.9399 16.0604L5.2819 10.4044C5.00064 10.123 4.84268 9.74138 4.84277 9.34352C4.84287 8.94567 5.00101 8.56414 5.2824 8.28288C5.56379 8.00162 5.9454 7.84366 6.34325 7.84375C6.74111 7.84384 7.12264 8.00198 7.4039 8.28338L11.9999 12.8794L16.5959 8.28338C16.8787 8.01 17.2575 7.85863 17.6508 7.86186C18.0441 7.86509 18.4204 8.02267 18.6986 8.30065C18.9769 8.57863 19.1348 8.95478 19.1384 9.34807C19.142 9.74137 18.991 10.1203 18.7179 10.4034L13.0609 16.0614L13.0599 16.0604Z" fill="black"/>
</g>
<defs>
<clipPath id="clip0_972_2443">
<rect width="24" height="24" fill="white"/>
</clipPath>
</defs>
</svg>
