<svg width="24" height="24" viewBox="0 0 24 24" fill="none" xmlns="http://www.w3.org/2000/svg">
<path d="M8.87721 21H5.49488C3.81209 21 3 20.2214 3 18.614V5.38605C3 3.7786 3.82047 3 5.49488 3H8.87721C10.56 3 11.3721 3.7786 11.3721 5.38605V18.614C11.3721 20.2214 10.5516 21 8.87721 21ZM5.49488 4.25581C4.43163 4.25581 4.25581 4.54046 4.25581 5.38605V18.614C4.25581 19.4595 4.43163 19.7442 5.49488 19.7442H8.87721C9.94047 19.7442 10.1163 19.4595 10.1163 18.614V5.38605C10.1163 4.54046 9.94047 4.25581 8.87721 4.25581H5.49488ZM18.5051 15.1395H15.1228C13.44 15.1395 12.6279 14.3609 12.6279 12.7535V5.38605C12.6279 3.7786 13.4484 3 15.1228 3H18.5051C20.1879 3 21 3.7786 21 5.38605V12.7535C21 14.3609 20.1795 15.1395 18.5051 15.1395ZM15.1228 4.25581C14.0595 4.25581 13.8837 4.54046 13.8837 5.38605V12.7535C13.8837 13.5991 14.0595 13.8837 15.1228 13.8837H18.5051C19.5684 13.8837 19.7442 13.5991 19.7442 12.7535V5.38605C19.7442 4.54046 19.5684 4.25581 18.5051 4.25581H15.1228Z" fill="#606060"/>
</svg>
