<svg width="18" height="18" viewBox="0 0 18 18" fill="none" xmlns="http://www.w3.org/2000/svg">
<path d="M10.5 15L9.96975 15.5303L10.5 16.0605L11.0302 15.5303L10.5 15ZM4.5 2.25C4.30109 2.25 4.11032 2.32902 3.96967 2.46967C3.82902 2.61032 3.75 2.80109 3.75 3C3.75 3.19891 3.82902 3.38968 3.96967 3.53033C4.11032 3.67098 4.30109 3.75 4.5 3.75V2.25ZM6.21975 11.7802L9.96975 15.5303L11.0302 14.4697L7.28025 10.7198L6.21975 11.7802ZM11.0302 15.5303L14.7803 11.7802L13.7197 10.7198L9.96975 14.4697L11.0302 15.5303ZM11.25 15V7.5H9.75V15H11.25ZM6 2.25H4.5V3.75H6V2.25ZM11.25 7.5C11.25 6.10761 10.6969 4.77226 9.71231 3.78769C8.72774 2.80312 7.39239 2.25 6 2.25V3.75C6.99456 3.75 7.94839 4.14509 8.65165 4.84835C9.35491 5.55161 9.75 6.50544 9.75 7.5H11.25Z" fill="white"/>
</svg>
