<svg width="24" height="24" viewBox="0 0 24 24" fill="none" xmlns="http://www.w3.org/2000/svg">
<path d="M16.5 18.375C16.5 18.6734 16.3815 18.9595 16.1705 19.1705C15.9595 19.3815 15.6734 19.5 15.375 19.5L4.125 19.5C3.82663 19.5 3.54048 19.3815 3.32951 19.1705C3.11853 18.9595 3 18.6734 3 18.375C3 18.0766 3.11853 17.7905 3.32951 17.5795C3.54048 17.3685 3.82663 17.25 4.125 17.25L15.375 17.25C15.6734 17.25 15.9595 17.3685 16.1705 17.5795C16.3815 17.7905 16.5 18.0766 16.5 18.375ZM15 6.375C15 6.67337 14.8815 6.95952 14.6705 7.17049C14.4595 7.38147 14.1734 7.5 13.875 7.5L4.125 7.5C3.82663 7.5 3.54048 7.38147 3.32951 7.17049C3.11853 6.95952 3 6.67337 3 6.375C3 6.07663 3.11853 5.79048 3.32951 5.57951C3.54048 5.36853 3.82663 5.25 4.125 5.25L13.875 5.25C14.1734 5.25 14.4595 5.36853 14.6705 5.57951C14.8815 5.79048 15 6.07663 15 6.375ZM19.875 13.5C20.1734 13.5 20.4595 13.3815 20.6705 13.1705C20.8815 12.9595 21 12.6734 21 12.375C21 12.0766 20.8815 11.7905 20.6705 11.5795C20.4595 11.3685 20.1734 11.25 19.875 11.25L4.125 11.25C3.82663 11.25 3.54048 11.3685 3.32951 11.5795C3.11853 11.7905 3 12.0766 3 12.375C3 12.6734 3.11853 12.9595 3.32951 13.1705C3.54048 13.3815 3.82663 13.5 4.125 13.5L19.875 13.5Z" fill="#606060"/>
</svg>
