<svg width="24" height="24" viewBox="0 0 24 24" fill="none" xmlns="http://www.w3.org/2000/svg">
<path fill-rule="evenodd" clip-rule="evenodd" d="M6.90596 3.26547C10.291 2.89068 13.707 2.89068 17.092 3.26547C18.9662 3.47553 20.4783 4.95147 20.6982 6.83223C21.0993 10.2655 21.0993 13.7338 20.6982 17.1671C20.4783 19.0479 18.9662 20.5238 17.092 20.7339C13.707 21.1087 10.291 21.1087 6.90596 20.7339C5.03176 20.5238 3.51972 19.0479 3.2998 17.1671C2.89876 13.7342 2.89876 10.2662 3.2998 6.83333C3.41104 5.91961 3.82757 5.07023 4.4819 4.42285C5.13623 3.77547 5.99001 3.36803 6.90486 3.26656M11.999 6.53683C12.2166 6.53683 12.4253 6.62328 12.5792 6.77717C12.7331 6.93105 12.8196 7.13977 12.8196 7.3574V11.1791H16.6413C16.8589 11.1791 17.0676 11.2655 17.2215 11.4194C17.3754 11.5733 17.4618 11.782 17.4618 11.9997C17.4618 12.2173 17.3754 12.426 17.2215 12.5799C17.0676 12.7338 16.8589 12.8202 16.6413 12.8202H12.8196V16.6419C12.8196 16.8596 12.7331 17.0683 12.5792 17.2222C12.4253 17.3761 12.2166 17.4625 11.999 17.4625C11.7814 17.4625 11.5726 17.3761 11.4188 17.2222C11.2649 17.0683 11.1784 16.8596 11.1784 16.6419V12.8202H7.35672C7.13909 12.8202 6.93038 12.7338 6.77649 12.5799C6.6226 12.426 6.53615 12.2173 6.53615 11.9997C6.53615 11.782 6.6226 11.5733 6.77649 11.4194C6.93038 11.2655 7.13909 11.1791 7.35672 11.1791H11.1784V7.3574C11.1784 7.13977 11.2649 6.93105 11.4188 6.77717C11.5726 6.62328 11.7814 6.53683 11.999 6.53683Z" fill="white"/>
</svg>
