<svg width="25" height="24" viewBox="0 0 25 24" fill="none" xmlns="http://www.w3.org/2000/svg">
<path d="M7.16406 19H18.1641C18.6287 19 18.861 18.9999 19.0542 18.9614C19.8476 18.8036 20.4677 18.1836 20.6255 17.3902C20.6639 17.197 20.6639 16.9647 20.6639 16.5C20.6639 16.0353 20.6639 15.8031 20.6255 15.6099C20.4677 14.8165 19.8476 14.1962 19.0542 14.0384C18.861 14 18.6287 14 18.1641 14H7.16406C6.69941 14 6.46712 14 6.27393 14.0384C5.48054 14.1962 4.86031 14.8165 4.70249 15.6099C4.66406 15.8031 4.66406 16.0354 4.66406 16.5C4.66406 16.9647 4.66406 17.1969 4.70249 17.3901C4.86031 18.1835 5.48054 18.8036 6.27393 18.9614C6.46712 18.9999 6.69941 19 7.16406 19Z" stroke="#4F4F4F" stroke-width="2" stroke-linecap="round" stroke-linejoin="round"/>
<path d="M7.16406 10H18.1641C18.6287 10 18.861 9.99986 19.0542 9.96143C19.8476 9.80361 20.4677 9.18356 20.6255 8.39018C20.6639 8.19698 20.6639 7.96465 20.6639 7.5C20.6639 7.03535 20.6639 6.80306 20.6255 6.60986C20.4677 5.81648 19.8476 5.19624 19.0542 5.03843C18.861 5 18.6287 5 18.1641 5H7.16406C6.69941 5 6.46712 5 6.27393 5.03843C5.48054 5.19624 4.86031 5.81648 4.70249 6.60986C4.66406 6.80306 4.66406 7.03539 4.66406 7.50004C4.66406 7.9647 4.66406 8.19694 4.70249 8.39014C4.86031 9.18352 5.48054 9.80361 6.27393 9.96143C6.46712 9.99986 6.69941 10 7.16406 10Z" stroke="#4F4F4F" stroke-width="2" stroke-linecap="round" stroke-linejoin="round"/>
</svg>
