<svg width="9" height="12" viewBox="0 0 9 12" fill="none" xmlns="http://www.w3.org/2000/svg">
<path fill-rule="evenodd" clip-rule="evenodd" d="M6.1328 10.014C5.6324 10.5628 5.04964 11.0542 4.39527 11.4517C4.3147 11.5108 4.20549 11.5179 4.11597 11.4606C3.14918 10.8456 2.33726 10.1071 1.699 9.30415C0.818147 8.19951 0.264034 6.97491 0.074257 5.79507C-0.119101 4.59911 0.0617246 3.44792 0.657016 2.51246C0.891552 2.14275 1.19144 1.80617 1.55667 1.51523C2.39634 0.846539 3.35507 0.492945 4.31112 0.500107C5.23136 0.507268 6.13996 0.85012 6.92503 1.56716C7.20075 1.8178 7.4326 2.10516 7.62237 2.41668C8.26242 3.47119 8.40028 4.81574 8.11919 6.1782C7.84169 7.52454 7.15241 8.89237 6.1328 10.0113V10.014ZM4.1285 2.62704C5.26359 2.62704 6.18293 3.54728 6.18293 4.68147C6.18293 5.81655 5.26269 6.7359 4.1285 6.7359C2.99342 6.7359 2.07408 5.81655 2.07408 4.68147C2.07318 3.54639 2.99342 2.62704 4.1285 2.62704Z" fill="#00ADF0"/>
</svg>
