<svg width="659" height="652" viewBox="0 0 659 652" fill="none" xmlns="http://www.w3.org/2000/svg">
<g clip-path="url(#clip0_7034_50202)">
<path d="M66.0247 519.338H109.613V519.663H66.0247V519.338Z" fill="#EBEBEB"/>
<path d="M222.208 522.873H233.648V523.199H222.208V522.873Z" fill="#EBEBEB"/>
<path d="M110.931 507.248H136.188V507.574H110.931V507.248Z" fill="#EBEBEB"/>
<path d="M532.217 509.436H589.059V509.761H532.217V509.436Z" fill="#EBEBEB"/>
<path d="M512.166 509.436H520.5V509.761H512.166V509.436Z" fill="#EBEBEB"/>
<path d="M361.8 514.934H485.078V515.259H361.8V514.934Z" fill="#EBEBEB"/>
<path d="M344.358 440.315H598.477C602.618 440.315 605.988 436.981 605.988 432.883V79.4787C605.988 75.3813 602.618 72.0469 598.477 72.0469H344.358C340.218 72.0469 336.848 75.3813 336.848 79.4787V432.883C336.848 436.981 340.218 440.315 344.358 440.315ZM598.477 72.3737C602.438 72.3737 605.659 75.561 605.659 79.48V432.884C605.659 436.803 602.438 439.991 598.477 439.991H344.358C340.398 439.991 337.177 436.803 337.177 432.884V79.4787C337.177 75.561 340.398 72.3724 344.358 72.3724L598.477 72.3737Z" fill="#EBEBEB"/>
<path d="M59.7112 440.315H313.829C317.97 440.315 321.34 436.981 321.34 432.883V79.4787C321.34 75.3813 317.97 72.0469 313.829 72.0469H59.7112C55.5684 72.0469 52.1994 75.3813 52.1994 79.4787V432.883C52.1994 436.981 55.5697 440.315 59.7112 440.315ZM313.829 72.3737C317.789 72.3737 321.011 75.561 321.011 79.48V432.884C321.011 436.803 317.789 439.991 313.829 439.991H59.7112C55.75 439.991 52.5284 436.803 52.5284 432.884V79.4787C52.5284 75.561 55.75 72.3724 59.7112 72.3724L313.829 72.3737Z" fill="#EBEBEB"/>
<path d="M0.09375 498.381H658.094V498.706H0.09375V498.381Z" fill="#EBEBEB"/>
<path d="M501.054 410.303C502.166 397.728 515.141 393.022 530.516 394.352C545.889 395.683 557.841 402.548 556.729 415.123L501.054 410.303Z" fill="#F0F0F0"/>
<path d="M531.024 388.606C523.889 387.989 521.611 382.026 522.236 374.966C522.86 367.907 526.15 362.425 533.285 363.044C540.42 363.661 542.698 369.624 542.073 376.683C541.449 383.743 538.159 389.224 531.024 388.606Z" fill="#F0F0F0"/>
<path d="M210.521 142.378C210.176 146.271 213.087 149.703 217.022 150.043C220.957 150.384 224.426 147.504 224.769 143.611C225.114 139.718 222.203 136.286 218.268 135.945C214.333 135.605 210.864 138.485 210.521 142.378Z" fill="#F5F5F5"/>
<path d="M170.945 138.953C170.6 142.846 173.511 146.278 177.446 146.617C181.381 146.959 184.85 144.079 185.195 140.186C185.54 136.293 182.629 132.861 178.694 132.519C174.758 132.18 171.29 135.06 170.945 138.953Z" fill="#F5F5F5"/>
<path d="M131.367 135.528C131.022 139.421 133.933 142.853 137.868 143.194C141.803 143.535 145.272 140.655 145.617 136.762C145.962 132.869 143.051 129.437 139.116 129.096C135.181 128.755 131.712 131.635 131.367 135.528Z" fill="#F5F5F5"/>
<path d="M206.992 182.288C206.647 186.181 209.558 189.613 213.493 189.954C217.428 190.296 220.897 187.416 221.242 183.523C221.587 179.63 218.676 176.198 214.741 175.858C210.805 175.515 207.336 178.394 206.992 182.288Z" fill="#F5F5F5"/>
<path d="M167.414 178.861C167.069 182.754 169.98 186.187 173.915 186.528C177.85 186.869 181.319 183.989 181.664 180.096C182.008 176.203 179.097 172.771 175.163 172.43C171.228 172.09 167.759 174.97 167.414 178.861Z" fill="#F5F5F5"/>
<path d="M127.84 175.437C127.495 179.33 130.406 182.762 134.341 183.102C138.276 183.443 141.745 180.563 142.089 176.67C142.434 172.777 139.523 169.345 135.588 169.004C131.654 168.665 128.185 171.545 127.84 175.437Z" fill="#F5F5F5"/>
<path d="M203.462 222.198C203.117 226.091 206.028 229.523 209.963 229.864C213.898 230.205 217.367 227.325 217.711 223.432C218.055 219.539 215.144 216.107 211.21 215.766C207.276 215.425 203.807 218.305 203.462 222.198Z" fill="#F5F5F5"/>
<path d="M163.887 218.773C163.542 222.666 166.453 226.098 170.388 226.439C174.323 226.78 177.792 223.9 178.136 220.007C178.481 216.114 175.57 212.682 171.635 212.342C167.7 212 164.232 214.88 163.887 218.773Z" fill="#F5F5F5"/>
<path d="M124.312 215.346C123.968 219.239 126.879 222.671 130.814 223.011C134.748 223.351 138.217 220.472 138.562 216.579C138.907 212.686 135.996 209.254 132.061 208.914C128.125 208.573 124.656 211.453 124.312 215.346Z" fill="#F5F5F5"/>
<path d="M132.859 217.646L214.17 224.684L142.076 138.014L215.944 144.408C216.807 144.482 217.567 143.851 217.642 142.997C217.717 142.143 217.079 141.39 216.216 141.316L134.906 134.277L206.999 220.948L133.132 214.553C132.268 214.479 131.508 215.111 131.433 215.964C131.358 216.818 131.996 217.572 132.859 217.646Z" fill="#E6E6E6"/>
<path d="M131.615 372.359C131.884 371.592 132.577 371.023 133.396 370.969C137.125 370.722 140.276 369.342 142.77 366.864C146.021 363.634 147.933 358.718 148.243 352.881C148.301 351.794 149.222 350.946 150.322 350.939C151.541 350.932 152.512 351.95 152.446 353.153C152.071 359.999 149.731 365.854 145.754 369.805C142.647 372.893 138.64 374.701 134.073 375.096C133.994 375.102 133.892 375.111 133.773 375.12C132.259 375.239 131.118 373.778 131.615 372.359Z" fill="#F0F0F0"/>
<path d="M135.822 397.35C153.264 395.839 165.841 384.078 169.822 365.725C170.076 364.555 169.322 363.403 168.13 363.198C167.028 363.009 165.952 363.699 165.719 364.781C162.152 381.287 150.956 391.856 135.456 393.199C118.457 394.67 100.2 383.606 96.93 355.712C96.7971 354.582 95.8009 353.747 94.656 353.846C93.4834 353.947 92.6043 354.983 92.7425 356.139C95.8759 382.438 113.354 399.295 135.822 397.35Z" fill="#F0F0F0"/>
<path d="M168.725 347.434C169.897 347.333 170.776 346.298 170.638 345.142C167.503 318.841 150.024 301.986 127.557 303.929C107.871 305.634 94.5982 320.215 92.5308 342.18C92.4216 343.34 93.3309 344.35 94.5061 344.419H94.5101C95.6563 344.487 96.6236 343.63 96.7328 342.5C98.6305 322.711 110.443 309.593 127.926 308.08C144.925 306.609 163.182 317.672 166.452 345.567C166.583 346.699 167.58 347.533 168.725 347.434Z" fill="#F0F0F0"/>
<path d="M134.965 386.195C138.207 385.913 141.249 385.165 144.04 383.958C145.176 383.467 145.644 382.114 145.05 381.037C144.533 380.099 143.379 379.692 142.391 380.123C139.767 381.264 136.866 381.934 133.741 382.104C120.848 382.834 107.24 373.8 105.907 351.97C105.086 338.526 109.741 327.666 118.432 322.472C119.363 321.915 119.71 320.75 119.229 319.783C118.683 318.686 117.299 318.281 116.241 318.912C106.184 324.92 100.783 337.177 101.703 352.221C102.988 373.271 116.263 387.27 133.983 386.266C134.311 386.245 134.64 386.222 134.965 386.195Z" fill="#F0F0F0"/>
<path d="M153.716 373.209C154.735 373.898 156.127 373.576 156.746 372.519C160.477 366.134 162.222 357.901 161.681 349.059C160.45 328.924 148.248 315.239 131.679 314.969C130.45 314.949 129.456 315.966 129.526 317.181V317.186C129.589 318.268 130.48 319.12 131.575 319.141C143.862 319.38 156.208 328.57 157.475 349.311C157.967 357.362 156.41 364.793 153.073 370.475C152.525 371.408 152.815 372.599 153.716 373.209Z" fill="#F0F0F0"/>
<path d="M124.941 371.504C125.37 370.54 124.995 369.425 124.082 368.881C118.548 365.584 115.149 358.665 115.091 350.326C115.045 343.645 117.005 337.995 120.609 334.414C123.388 331.651 126.982 330.261 131.29 330.269C137.778 330.286 143.031 333.802 145.942 339.991C146.4 340.965 147.54 341.425 148.56 341.054C149.719 340.633 150.27 339.311 149.747 338.204C146.146 330.602 139.391 326.122 131.302 326.1C125.907 326.092 121.176 327.945 117.624 331.473C113.221 335.848 110.826 342.552 110.88 350.353C110.947 360.195 115.137 368.445 121.962 372.482C123.036 373.117 124.437 372.638 124.941 371.504Z" fill="#F0F0F0"/>
<path d="M140.105 356.198C141.301 356.673 142.639 355.986 142.946 354.746C143.086 354.183 143.201 353.602 143.292 353.004C144.483 345.213 140.25 338.428 133.444 337.225C129.932 336.602 126.8 337.419 124.406 339.534C123.435 340.393 123.51 341.926 124.569 342.677L124.701 342.769C125.499 343.334 126.55 343.207 127.294 342.574C128.721 341.362 130.535 340.943 132.704 341.327C137.89 342.245 139.861 347.583 139.127 352.381C139.056 352.848 138.966 353.301 138.859 353.736C138.608 354.758 139.119 355.805 140.105 356.198Z" fill="#F0F0F0"/>
<path d="M133.145 364.214C133.15 364.214 133.156 364.213 133.162 364.213C134.613 364.085 135.415 362.476 134.641 361.254L134.462 360.971C134.074 360.359 133.38 360.022 132.651 360.073C132.027 360.114 131.367 360.075 130.676 359.953C126.147 359.151 124.069 354.979 124.105 350.74C124.114 349.681 123.373 348.767 122.317 348.61C121.081 348.425 119.914 349.334 119.89 350.571C119.765 357.365 123.808 362.972 129.935 364.055C131.04 364.251 132.115 364.304 133.145 364.214Z" fill="#F0F0F0"/>
<path d="M132.208 356.521C134.45 356.327 136.122 354.832 136.728 352.698C137.08 351.461 136.031 350.264 134.738 350.376L134.256 350.417C133.505 350.482 132.887 350.99 132.637 351.693C132.514 352.037 132.28 352.331 131.842 352.369C130.83 352.456 130.652 351.02 130.626 350.731C130.608 350.525 130.564 349.727 130.909 349.257C131.247 348.796 131.479 348.269 131.429 347.701C131.264 345.849 128.898 345.104 127.704 346.541C126.756 347.684 126.269 349.285 126.429 351.094C126.731 354.502 129.161 356.785 132.208 356.521Z" fill="#F0F0F0"/>
<path d="M171.788 309.924C172.947 309.824 173.804 308.814 173.703 307.667L172.107 289.613L153.859 291.193C152.699 291.293 151.843 292.303 151.944 293.45C152.045 294.597 153.067 295.445 154.226 295.345L168.277 294.129L169.506 308.03C169.607 309.177 170.63 310.025 171.788 309.924Z" fill="#F0F0F0"/>
<path d="M85.0241 317.434C86.1835 317.334 87.0402 316.323 86.9389 315.176L85.7097 301.275L99.7607 300.059C100.92 299.958 101.777 298.948 101.675 297.801C101.574 296.654 100.553 295.806 99.3935 295.906L81.1458 297.486L82.7421 315.539C82.8435 316.686 83.8647 317.534 85.0241 317.434Z" fill="#F0F0F0"/>
<path d="M91.4935 414.497L109.741 412.918C110.901 412.817 111.757 411.807 111.656 410.66C111.555 409.513 110.533 408.665 109.374 408.766L95.3231 409.982L94.0939 396.08C93.9926 394.933 92.9714 394.086 91.812 394.186C90.6526 394.286 89.7959 395.296 89.8972 396.443L91.4935 414.497Z" fill="#F0F0F0"/>
<path d="M164.205 408.203L182.453 406.624L180.857 388.57C180.755 387.423 179.734 386.576 178.575 386.676C177.415 386.776 176.559 387.787 176.66 388.934L177.889 402.835L163.838 404.051C162.679 404.151 161.822 405.162 161.924 406.309C162.025 407.456 163.046 408.304 164.205 408.203Z" fill="#F0F0F0"/>
<path d="M559.748 369.13C560.46 369.191 561.089 368.67 561.151 367.964L562.133 356.865L550.914 355.894C550.201 355.832 549.573 356.353 549.511 357.059C549.449 357.763 549.976 358.386 550.689 358.447L559.328 359.194L558.573 367.742C558.509 368.447 559.036 369.069 559.748 369.13Z" fill="#E0E0E0"/>
<path d="M506.404 364.512C507.116 364.573 507.745 364.052 507.807 363.346L508.562 354.799L517.202 355.546C517.914 355.607 518.543 355.086 518.604 354.381C518.666 353.676 518.14 353.054 517.427 352.993L506.208 352.021L505.226 363.121C505.164 363.828 505.691 364.45 506.404 364.512Z" fill="#E0E0E0"/>
<path d="M500.877 412.309L512.096 413.28C512.808 413.341 513.437 412.82 513.499 412.115C513.561 411.41 513.034 410.788 512.321 410.727L503.682 409.98L504.437 401.432C504.499 400.726 503.972 400.105 503.259 400.044C502.547 399.983 501.918 400.504 501.856 401.209L500.877 412.309Z" fill="#E0E0E0"/>
<path d="M545.583 416.179L556.802 417.15L557.784 406.049C557.846 405.345 557.32 404.722 556.606 404.661C555.894 404.6 555.265 405.121 555.203 405.826L554.448 414.374L545.809 413.627C545.097 413.566 544.468 414.086 544.406 414.792C544.344 415.495 544.872 416.116 545.583 416.179Z" fill="#E0E0E0"/>
<path d="M507.301 184.014L550.244 187.732L551.123 177.79C552.035 167.475 544.295 158.351 533.871 157.448C523.446 156.546 514.223 164.203 513.311 174.516L512.801 180.293L506.605 179.757L507.116 173.98C508.326 160.285 520.572 150.121 534.413 151.319C548.255 152.516 558.529 164.631 557.318 178.326L556.434 188.325C561.431 189.289 564.988 193.848 564.535 198.977L561.468 233.666C560.982 239.151 556.095 243.209 550.55 242.729L502.477 238.568C496.932 238.089 492.832 233.253 493.316 227.768L496.384 193.079C496.869 187.592 501.757 183.534 507.301 184.014ZM525.542 210.744L524.486 222.689C524.312 224.65 525.778 226.378 527.76 226.549C529.742 226.721 531.488 225.271 531.662 223.31L532.718 211.365C534.295 210.405 535.42 208.76 535.594 206.794C535.886 203.494 533.417 200.584 530.081 200.295C526.745 200.006 523.804 202.448 523.512 205.749C523.339 207.713 524.159 209.527 525.542 210.744Z" fill="#EBEBEB"/>
<path d="M433.788 204.124L438.13 197.121C440.482 197.443 442.406 197.443 444.757 197.121L449.099 204.124L449.932 203.905C452.73 203.169 455.429 202.06 457.953 200.611L458.699 200.182L456.858 192.581C456.709 191.965 456.084 191.587 455.462 191.734C454.839 191.881 454.456 192.499 454.606 193.115L456.043 199.044C454.168 200.055 452.197 200.865 450.165 201.461L445.924 194.62L445.157 194.744C442.699 195.141 440.191 195.141 437.732 194.744L436.965 194.62L432.725 201.461C430.693 200.863 428.722 200.055 426.846 199.044L428.734 191.252L428.102 190.804C426.381 189.58 424.846 188.134 423.529 186.497C423.138 186.01 422.442 185.896 421.933 186.259C421.403 186.635 421.28 187.377 421.684 187.882C422.979 189.499 424.466 190.947 426.121 192.202L424.188 200.182L424.933 200.611C427.457 202.06 430.156 203.169 432.954 203.905L433.788 204.124ZM460.398 188.837C460.762 188.424 461.115 188 461.453 187.563L469.52 189.475L469.953 188.738C471.418 186.241 472.539 183.57 473.283 180.802L473.504 179.978L466.426 175.683C466.59 174.516 466.669 173.438 466.669 172.404C466.669 171.372 466.588 170.292 466.426 169.126L473.504 164.832L473.283 164.008C472.539 161.24 471.418 158.569 469.953 156.072L469.52 155.335L461.455 157.246C460.103 155.502 458.53 153.947 456.767 152.609L458.23 146.57C458.379 145.955 457.996 145.338 457.376 145.191L457.372 145.19C456.751 145.043 456.127 145.422 455.979 146.035L454.157 153.558L454.794 154.011C456.816 155.451 458.588 157.205 460.043 159.205L460.497 159.828L468.373 157.961C469.393 159.816 470.21 161.767 470.814 163.777L463.902 167.971L464.027 168.73C464.248 170.072 464.356 171.274 464.356 172.403C464.356 173.534 464.248 174.735 464.027 176.076L463.902 176.834L470.815 181.03C470.213 183.042 469.394 184.991 468.374 186.846L460.498 184.979L460.044 185.603C459.616 186.191 459.157 186.763 458.673 187.311C458.27 187.767 458.28 188.447 458.721 188.868L458.763 188.908C459.227 189.355 459.971 189.318 460.398 188.837ZM413.368 189.476L416.342 188.772C416.965 188.625 417.348 188.006 417.199 187.39C417.05 186.776 416.425 186.396 415.803 186.543L414.518 186.847C413.498 184.992 412.681 183.042 412.077 181.031L418.99 176.835L418.865 176.077C418.644 174.736 418.536 173.534 418.536 172.404C418.536 171.274 418.644 170.074 418.865 168.731L418.99 167.972L412.078 163.778C412.681 161.767 413.5 159.818 414.519 157.962L422.396 159.83L422.85 159.206C424.304 157.206 426.077 155.452 428.098 154.012L428.735 153.559L426.848 145.767C428.723 144.758 430.694 143.948 432.726 143.35L436.966 150.19L437.734 150.067C440.193 149.673 442.702 149.673 445.161 150.067L445.927 150.19L450.167 143.351C450.43 143.428 450.694 143.51 450.957 143.595C451.544 143.785 452.176 143.472 452.387 142.9C452.611 142.297 452.294 141.617 451.678 141.418C451.1 141.23 450.517 141.06 449.937 140.908L449.103 140.688L444.761 147.691C442.399 147.367 440.497 147.367 438.135 147.691L433.794 140.688L432.959 140.906C430.161 141.643 427.462 142.752 424.938 144.2L424.193 144.629L426.127 152.61C424.363 153.948 422.791 155.503 421.439 157.248L413.373 155.336L412.94 156.073C411.476 158.57 410.354 161.241 409.611 164.009L409.39 164.833L416.467 169.127C416.304 170.294 416.225 171.373 416.225 172.406C416.225 173.439 416.305 174.517 416.467 175.684L409.39 179.979L409.611 180.803C410.354 183.571 411.476 186.242 412.94 188.739L413.368 189.476ZM441.769 183.561C447.648 183.397 452.552 178.548 452.72 172.731C452.89 166.868 448.462 161.971 442.746 161.319C442.055 161.24 441.444 161.775 441.444 162.463C441.444 163.042 441.879 163.527 442.459 163.592C447.5 164.157 451.286 168.873 450.23 174.191C449.545 177.643 446.733 180.426 443.241 181.1C437.513 182.208 432.478 177.878 432.478 172.404C432.478 170.572 433.049 168.799 434.1 167.313C434.432 166.845 434.342 166.204 433.908 165.825C433.388 165.371 432.578 165.466 432.182 166.03C430.872 167.891 430.161 170.111 430.161 172.404C430.164 178.666 435.4 183.738 441.769 183.561Z" fill="#F0F0F0"/>
<path d="M515.554 299.428L518.359 294.905C519.877 295.113 521.121 295.113 522.64 294.905L525.444 299.428L525.982 299.286C527.79 298.811 529.534 298.094 531.165 297.157L531.646 296.88L530.457 291.969C530.361 291.571 529.957 291.325 529.555 291.422C529.154 291.517 528.906 291.916 529.002 292.314L529.93 296.144C528.718 296.796 527.446 297.32 526.132 297.705L523.394 293.286L522.897 293.367C521.309 293.623 519.689 293.623 518.101 293.367L517.605 293.286L514.865 297.705C513.551 297.32 512.279 296.796 511.067 296.144L512.287 291.111L511.879 290.82C510.767 290.03 509.776 289.095 508.924 288.038C508.672 287.724 508.221 287.65 507.892 287.884C507.552 288.128 507.471 288.607 507.732 288.934C508.569 289.978 509.53 290.914 510.599 291.725L509.351 296.88L509.832 297.157C511.463 298.093 513.206 298.809 515.015 299.286L515.554 299.428ZM532.745 289.553C532.981 289.286 533.208 289.013 533.427 288.73L538.638 289.966L538.917 289.49C539.863 287.876 540.587 286.151 541.067 284.362L541.211 283.83L536.639 281.055C536.744 280.301 536.796 279.605 536.796 278.937C536.796 278.27 536.744 277.572 536.639 276.818L541.211 274.044L541.067 273.511C540.587 271.722 539.863 269.999 538.917 268.384L538.638 267.908L533.427 269.143C532.554 268.016 531.538 267.012 530.399 266.147L531.344 262.247C531.44 261.849 531.192 261.451 530.792 261.356L530.79 261.355C530.388 261.26 529.985 261.504 529.889 261.901L528.713 266.762L529.125 267.055C530.43 267.984 531.575 269.117 532.515 270.41L532.808 270.814L537.897 269.608C538.555 270.807 539.084 272.066 539.474 273.366L535.009 276.075L535.089 276.566C535.232 277.433 535.301 278.209 535.301 278.939C535.301 279.67 535.231 280.446 535.089 281.313L535.007 281.803L539.473 284.513C539.083 285.813 538.554 287.072 537.896 288.271L532.807 287.065L532.513 287.469C532.237 287.849 531.941 288.219 531.628 288.573C531.367 288.867 531.375 289.307 531.659 289.578L531.687 289.604C531.988 289.887 532.469 289.863 532.745 289.553ZM502.363 289.965L504.284 289.51C504.685 289.415 504.934 289.016 504.838 288.619C504.742 288.221 504.338 287.977 503.937 288.072L503.106 288.268C502.448 287.069 501.919 285.81 501.53 284.511L505.995 281.8L505.913 281.31C505.771 280.445 505.701 279.667 505.701 278.937C505.701 278.206 505.771 277.43 505.913 276.563L505.993 276.072L501.528 273.363C501.918 272.064 502.447 270.805 503.105 269.605L508.194 270.811L508.487 270.407C509.427 269.116 510.572 267.982 511.877 267.052L512.289 266.759L511.069 261.724C512.281 261.072 513.554 260.55 514.867 260.163L517.606 264.581L518.101 264.502C519.689 264.246 521.309 264.246 522.899 264.502L523.394 264.581L526.132 260.163C526.302 260.213 526.473 260.266 526.642 260.321C527.021 260.443 527.428 260.241 527.565 259.872C527.71 259.482 527.505 259.044 527.107 258.915C526.734 258.794 526.357 258.683 525.984 258.585L525.444 258.443L522.64 262.968C521.113 262.758 519.885 262.758 518.359 262.968L515.554 258.443L515.016 258.585C513.209 259.062 511.465 259.778 509.834 260.713L509.352 260.99L510.601 266.146C509.461 267.011 508.446 268.014 507.573 269.142L502.361 267.906L502.082 268.383C501.136 269.996 500.412 271.721 499.932 273.51L499.789 274.043L504.36 276.817C504.255 277.571 504.204 278.268 504.204 278.936C504.204 279.603 504.255 280.3 504.36 281.054L499.789 283.828L499.932 284.361C500.412 286.15 501.136 287.875 502.082 289.488L502.363 289.965ZM520.709 286.143C524.508 286.038 527.675 282.905 527.784 279.146C527.894 275.359 525.033 272.195 521.341 271.773C520.895 271.722 520.5 272.069 520.5 272.513C520.5 272.886 520.781 273.2 521.156 273.242C524.412 273.606 526.859 276.653 526.177 280.089C525.735 282.319 523.917 284.118 521.662 284.554C517.961 285.27 514.708 282.472 514.708 278.936C514.708 277.752 515.076 276.606 515.756 275.647C515.97 275.345 515.912 274.929 515.632 274.685C515.295 274.39 514.773 274.453 514.516 274.817C513.67 276.02 513.21 277.454 513.21 278.936C513.213 282.981 516.596 286.259 520.709 286.143Z" fill="#E6E6E6"/>
<path d="M329.092 556.475C188.172 556.475 73.9341 549.875 73.9341 541.733C73.9341 533.591 188.172 526.99 329.092 526.99C470.012 526.99 584.25 533.591 584.25 541.733C584.25 549.875 470.012 556.475 329.092 556.475Z" fill="#F5F5F5"/>
<path d="M179.794 190.367H222.644L252.953 533.117H210.103C197.917 533.117 187.136 523.309 186.07 511.253L159.628 212.232C158.562 200.175 167.608 190.367 179.794 190.367Z" fill="#082B45"/>
<path d="M188.539 190.367H333.561C345.747 190.367 356.527 200.175 357.593 212.232L384.036 511.253C385.102 523.309 376.056 533.117 363.869 533.117H218.848C206.661 533.117 195.881 523.309 194.815 511.253L168.372 212.232C167.306 200.175 176.353 190.367 188.539 190.367Z" fill="#00ADF0"/>
<path d="M188.539 190.367H333.561C345.747 190.367 356.527 200.175 357.593 212.232L384.036 511.253C385.102 523.309 376.056 533.117 363.869 533.117H218.847C206.661 533.117 195.881 523.309 194.815 511.253L168.372 212.232C167.306 200.175 176.353 190.367 188.539 190.367Z" fill="#00ADF0"/>
<path opacity="0.4" d="M189.16 197.371H227.395C229.651 197.371 231.768 198.836 232.604 200.974C235.695 208.877 243.523 214.289 251.861 214.289H274.471C282.809 214.289 289.682 208.876 291.375 200.974C291.833 198.836 293.691 197.372 295.947 197.372H334.182C342.477 197.372 349.789 204.024 350.515 212.231L376.957 511.252C377.683 519.459 371.547 526.111 363.253 526.111H218.231C209.936 526.111 202.624 519.459 201.898 511.252L175.455 212.231C174.73 204.024 180.866 197.371 189.16 197.371Z" fill="white"/>
<path d="M225.285 359.798H326.78C329.79 359.798 332.016 357.384 331.752 354.407L331.244 348.662C330.981 345.684 328.328 343.271 325.318 343.271H223.823C220.814 343.271 218.588 345.685 218.851 348.662L219.359 354.407C219.623 357.384 222.276 359.798 225.285 359.798Z" fill="white"/>
<path d="M227.477 384.589H328.972C331.982 384.589 334.207 382.175 333.944 379.199L333.436 373.453C333.173 370.475 330.519 368.062 327.51 368.062H226.015C223.005 368.062 220.78 370.476 221.043 373.453L221.551 379.199C221.814 382.175 224.467 384.589 227.477 384.589Z" fill="white"/>
<path opacity="0.1" d="M256.123 202.974C256.416 206.275 259.357 208.951 262.694 208.951C266.032 208.951 268.499 206.275 268.207 202.974C267.915 199.672 264.974 196.996 261.636 196.996C258.3 196.996 255.831 199.672 256.123 202.974Z" fill="black"/>
<path opacity="0.1" d="M258.865 202.972C259.025 204.776 260.631 206.238 262.455 206.238C264.278 206.238 265.627 204.776 265.468 202.972C265.308 201.169 263.702 199.707 261.878 199.707C260.054 199.707 258.706 201.169 258.865 202.972Z" fill="black"/>
<g opacity="0.8">
<path d="M207.01 212.944C207.988 212.944 208.711 212.16 208.626 211.193L208.343 207.991C208.257 207.024 207.395 206.24 206.418 206.24C205.44 206.24 204.716 207.024 204.802 207.991L205.085 211.193C205.17 212.16 206.032 212.944 207.01 212.944Z" fill="white"/>
<path d="M192.846 212.944C193.824 212.944 194.547 212.16 194.462 211.193L193.797 203.679C193.712 202.712 192.85 201.928 191.872 201.928C190.894 201.928 190.17 202.712 190.256 203.679L190.921 211.193C191.006 212.16 191.868 212.944 192.846 212.944Z" fill="white"/>
<path d="M199.928 212.944C200.906 212.944 201.629 212.16 201.544 211.193L201.07 205.835C200.985 204.868 200.123 204.084 199.145 204.084C198.167 204.084 197.443 204.868 197.529 205.835L198.003 211.193C198.088 212.16 198.95 212.944 199.928 212.944Z" fill="white"/>
</g>
<g opacity="0.8">
<path d="M328.258 212.945H337.148C337.702 212.945 338.111 212.501 338.062 211.953L337.645 207.23C337.597 206.682 337.108 206.238 336.556 206.238H327.666C327.112 206.238 326.703 206.682 326.751 207.23L327.169 211.953C327.217 212.501 327.704 212.945 328.258 212.945Z" fill="white"/>
<path d="M324.136 211.664C324.69 211.664 325.099 211.22 325.051 210.672L324.86 208.512C324.811 207.964 324.323 207.52 323.77 207.52C323.216 207.52 322.807 207.964 322.856 208.512L323.046 210.672C323.094 211.22 323.582 211.664 324.136 211.664Z" fill="white"/>
</g>
<path d="M241.994 322.032C224.285 305.261 222.521 278.651 238.053 262.598C253.585 246.545 280.531 247.126 298.24 263.897C315.949 280.668 317.714 307.277 302.182 323.331C286.65 339.384 259.703 338.803 241.994 322.032Z" fill="white"/>
<path d="M269.979 291.34C281.145 291.34 290.571 295.543 291.377 304.676L292.273 314.812H251.834L250.938 304.676C250.131 295.543 258.812 291.34 269.979 291.34Z" fill="#00ADF0"/>
<path d="M269.61 287.166C264.428 287.166 262.038 283.01 261.585 277.883C261.131 272.756 262.786 268.6 267.969 268.6C273.151 268.6 275.541 272.756 275.995 277.883C276.448 283.01 274.792 287.166 269.61 287.166Z" fill="#00ADF0"/>
<path d="M229.92 351.238C232.678 351.238 235.006 352.276 235.205 354.532L235.426 357.036H225.437L225.216 354.532C225.018 352.276 227.161 351.238 229.92 351.238Z" fill="#00ADF0"/>
<path d="M229.828 350.207C228.547 350.207 227.958 349.179 227.846 347.914C227.734 346.647 228.142 345.621 229.422 345.621C230.703 345.621 231.292 346.648 231.404 347.914C231.516 349.181 231.107 350.207 229.828 350.207Z" fill="#00ADF0"/>
<path d="M260.671 409.377H300.163C304.776 409.377 308.188 405.678 307.784 401.113C307.38 396.55 303.313 392.85 298.701 392.85H259.209C254.596 392.85 251.184 396.55 251.588 401.113C251.992 405.678 256.059 409.377 260.671 409.377Z" fill="#00ADF0"/>
<path d="M265.435 501.533H307.701C312.575 501.533 316.181 497.623 315.755 492.8L313.058 462.301C312.632 457.478 308.335 453.568 303.461 453.568H261.195C256.32 453.568 252.714 457.478 253.141 462.301L255.837 492.8C256.264 497.623 260.56 501.533 265.435 501.533Z" fill="#082B45"/>
<g opacity="0.6">
<path d="M278.47 470.005C278.214 467.103 280.384 464.75 283.317 464.75C286.25 464.75 288.836 467.103 289.093 470.005C289.246 471.733 288.526 473.253 287.309 474.21L288.238 484.712C288.39 486.436 287.102 487.833 285.359 487.833C283.617 487.833 282.081 486.436 281.929 484.712L281 474.21C279.611 473.253 278.623 471.734 278.47 470.005Z" fill="white"/>
</g>
<path d="M260.818 459.917H266.265L264.931 444.827C264.129 435.758 270.933 428.381 280.099 428.381C289.265 428.381 297.374 435.758 298.176 444.827L299.51 459.917H304.957L303.623 444.827C302.558 432.787 291.792 422.992 279.623 422.992C267.454 422.992 258.419 432.787 259.484 444.827L260.818 459.917Z" fill="#082B45"/>
<path d="M229.25 374.348L229.123 372.9C228.991 371.42 230.102 370.217 231.598 370.217C233.094 370.217 234.417 371.421 234.547 372.9L234.675 374.348C235.272 374.348 235.799 374.827 235.85 375.418L236.191 379.267C236.244 379.858 235.802 380.337 235.204 380.337H229.782C229.185 380.337 228.658 379.858 228.606 379.267L228.265 375.418C228.212 374.827 228.653 374.348 229.25 374.348ZM231.656 370.878C230.53 370.878 229.694 371.784 229.791 372.899L229.919 374.347H234.005L233.877 372.899C233.779 371.784 232.783 370.878 231.656 370.878Z" fill="#00ADF0"/>
<path d="M310.872 375.891L312.764 375.504C312.988 375.459 313.104 375.226 313.011 375.007L312.222 373.163C312.053 372.768 312.539 372.475 312.846 372.788L314.277 374.247C314.446 374.42 314.719 374.42 314.857 374.247L316.029 372.788C316.281 372.476 316.819 372.768 316.72 373.163L316.258 375.007C316.203 375.226 316.36 375.459 316.593 375.504L318.554 375.891C318.975 375.974 319.026 376.559 318.619 376.642L316.727 377.029C316.503 377.075 316.387 377.308 316.481 377.526L317.269 379.37C317.439 379.766 316.952 380.059 316.645 379.745L315.215 378.287C315.045 378.114 314.773 378.114 314.635 378.287L313.462 379.745C313.211 380.059 312.672 379.766 312.771 379.37L313.233 377.526C313.288 377.308 313.132 377.075 312.899 377.029L310.938 376.642C310.517 376.559 310.465 375.973 310.872 375.891Z" fill="#263238"/>
<path d="M298.419 375.891L300.311 375.504C300.535 375.459 300.651 375.226 300.557 375.007L299.769 373.163C299.599 372.768 300.086 372.475 300.393 372.788L301.823 374.247C301.993 374.42 302.264 374.42 302.404 374.247L303.576 372.788C303.828 372.476 304.366 372.768 304.267 373.163L303.805 375.007C303.75 375.226 303.908 375.459 304.139 375.504L306.1 375.891C306.521 375.974 306.573 376.559 306.167 376.642L304.275 377.029C304.051 377.075 303.935 377.308 304.029 377.526L304.817 379.37C304.987 379.766 304.5 380.059 304.193 379.745L302.763 378.287C302.593 378.114 302.322 378.114 302.182 378.287L301.01 379.745C300.759 380.059 300.22 379.766 300.319 379.37L300.781 377.526C300.836 377.308 300.678 377.075 300.447 377.029L298.486 376.642C298.063 376.559 298.012 375.973 298.419 375.891Z" fill="#082B45"/>
<path d="M285.966 375.891L287.858 375.504C288.082 375.459 288.198 375.226 288.104 375.007L287.316 373.163C287.146 372.768 287.633 372.475 287.94 372.788L289.37 374.247C289.54 374.42 289.812 374.42 289.95 374.247L291.123 372.788C291.374 372.476 291.913 372.768 291.814 373.163L291.352 375.007C291.297 375.226 291.453 375.459 291.686 375.504L293.647 375.891C294.068 375.974 294.12 376.559 293.714 376.642L291.822 377.029C291.598 377.075 291.482 377.308 291.576 377.526L292.364 379.37C292.534 379.766 292.047 380.059 291.74 379.745L290.31 378.287C290.14 378.114 289.868 378.114 289.729 378.287L288.557 379.745C288.306 380.059 287.767 379.766 287.866 379.37L288.328 377.526C288.383 377.308 288.227 377.075 287.994 377.029L286.033 376.642C285.61 376.559 285.559 375.973 285.966 375.891Z" fill="#082B45"/>
<path d="M273.513 375.891L275.405 375.504C275.629 375.459 275.745 375.226 275.651 375.007L274.863 373.163C274.693 372.768 275.18 372.475 275.487 372.788L276.917 374.247C277.087 374.42 277.359 374.42 277.498 374.247L278.67 372.788C278.921 372.476 279.46 372.768 279.361 373.163L278.899 375.007C278.844 375.226 279 375.459 279.233 375.504L281.194 375.891C281.615 375.974 281.667 376.559 281.26 376.642L279.368 377.029C279.144 377.075 279.028 377.308 279.121 377.526L279.91 379.37C280.08 379.766 279.593 380.059 279.286 379.745L277.855 378.287C277.686 378.114 277.413 378.114 277.275 378.287L276.103 379.745C275.851 380.059 275.313 379.766 275.412 379.37L275.874 377.526C275.929 377.308 275.772 377.075 275.539 377.029L273.578 376.642C273.159 376.559 273.106 375.973 273.513 375.891Z" fill="#082B45"/>
<path d="M261.059 375.891L262.952 375.504C263.176 375.459 263.291 375.226 263.198 375.007L262.41 373.163C262.24 372.768 262.727 372.475 263.033 372.788L264.464 374.247C264.634 374.42 264.906 374.42 265.044 374.247L266.217 372.788C266.468 372.476 267.006 372.768 266.908 373.163L266.446 375.007C266.391 375.226 266.547 375.459 266.78 375.504L268.741 375.891C269.162 375.974 269.213 376.559 268.808 376.642L266.916 377.029C266.692 377.075 266.576 377.308 266.669 377.526L267.458 379.37C267.626 379.766 267.141 380.059 266.834 379.745L265.404 378.287C265.234 378.114 264.963 378.114 264.823 378.287L263.651 379.745C263.399 380.059 262.861 379.766 262.96 379.37L263.422 377.526C263.477 377.308 263.319 377.075 263.087 377.029L261.127 376.642C260.705 376.559 260.653 375.973 261.059 375.891Z" fill="#082B45"/>
<path d="M248.602 375.891L250.495 375.504C250.718 375.459 250.834 375.226 250.741 375.007L249.953 373.163C249.784 372.768 250.27 372.475 250.576 372.788L252.007 374.247C252.177 374.42 252.448 374.42 252.587 374.247L253.76 372.788C254.011 372.476 254.549 372.768 254.451 373.163L253.989 375.007C253.933 375.226 254.091 375.459 254.323 375.504L256.284 375.891C256.705 375.974 256.756 376.559 256.351 376.642L254.459 377.029C254.235 377.075 254.119 377.308 254.212 377.526L255.001 379.37C255.171 379.766 254.684 380.059 254.377 379.745L252.946 378.287C252.777 378.114 252.504 378.114 252.366 378.287L251.194 379.745C250.942 380.059 250.404 379.766 250.503 379.37L250.965 377.526C251.02 377.308 250.863 377.075 250.63 377.029L248.669 376.642C248.248 376.559 248.196 375.973 248.602 375.891Z" fill="#082B45"/>
<path d="M278.621 348.932H302.004C303.457 348.932 304.737 350.097 304.865 351.534C304.992 352.972 303.917 354.137 302.464 354.137H279.082C277.629 354.137 276.348 352.972 276.221 351.534C276.093 350.097 277.168 348.932 278.621 348.932Z" fill="#082B45"/>
<path d="M254.885 348.932H268.453C269.906 348.932 271.186 350.097 271.314 351.534C271.442 352.972 270.366 354.137 268.914 354.137H255.346C253.893 354.137 252.612 352.972 252.485 351.534C252.357 350.097 253.432 348.932 254.885 348.932Z" fill="#082B45"/>
<path d="M236.976 466.96C245.792 470.442 253.521 475.523 258.811 481.3C261.913 478.688 266.323 476.874 271.609 476.045L272.229 475.947L272.5 479.019L272.154 479.148C266.936 481.098 262.689 484.559 259.872 489.154L259.429 489.876L258.94 489.101C253.518 480.513 245.611 473.319 236.678 468.842L236.376 468.69L236.196 466.648L236.976 466.96Z" fill="white"/>
<path opacity="0.2" d="M355.679 210.609C357.322 213.358 358.407 216.424 358.707 219.673L378.305 432.631H317.667L305.484 388.227L309.494 343.823L297.31 299.419L301.32 255.015L289.136 210.611H355.679V210.609Z" fill="#082B45"/>
<path d="M305.471 243.803L293.289 197.59H446.634L458.818 243.803L454.807 290.015L466.99 336.227L462.981 382.44L475.164 428.652H321.818L309.635 382.44L313.645 336.227L301.463 290.015L305.471 243.803Z" fill="#00ADF0"/>
<path opacity="0.1" d="M305.471 243.803L293.289 197.59H446.634L458.818 243.803L454.807 290.015L466.99 336.227L462.981 382.44L475.164 428.652H321.818L309.635 382.44L313.645 336.227L301.463 290.015L305.471 243.803Z" fill="#00ADF0"/>
<path opacity="0.5" d="M305.471 243.803H458.816L446.633 197.59H293.287L305.471 243.803Z" fill="#082B45"/>
<path opacity="0.5" d="M313.647 336.228H466.992L454.809 290.016H301.463L313.647 336.228Z" fill="#082B45"/>
<path opacity="0.5" d="M321.818 428.651H475.164L462.981 382.439H309.635L321.818 428.651Z" fill="#082B45"/>
<path opacity="0.2" d="M325.993 263.115C327.311 263.522 328.998 263.767 330.836 263.767C333.543 263.767 335.923 263.237 337.276 262.439C337.647 262.219 338.055 262.109 338.463 262.109C338.842 262.109 339.219 262.215 339.569 262.404C339.596 262.418 339.625 262.423 339.65 262.439C339.664 262.448 339.682 262.454 339.697 262.464C340.198 262.753 340.83 263.006 341.567 263.211C342.832 263.561 344.395 263.768 346.087 263.768C346.547 263.768 346.998 263.753 347.435 263.724C348.747 263.635 349.943 263.422 350.93 263.117C351.103 263.064 351.276 263.033 351.446 263.021C352.64 262.943 353.712 263.849 353.712 265.101V266.513H413.315C417.928 266.513 421.668 270.212 421.668 274.777V283.104C421.668 287.668 417.928 291.368 413.315 291.368H345.506C345.356 291.368 345.211 291.354 345.062 291.346C344.331 291.945 343.569 292.542 342.762 293.148C341.796 293.872 340.779 294.606 339.713 295.372C338.971 295.904 337.952 295.904 337.21 295.372C328.683 289.253 323.209 285.034 323.209 273.439V265.103C323.21 263.669 324.612 262.687 325.993 263.115Z" fill="#082B45"/>
<path d="M346.799 286.779H414.608C419.221 286.779 422.961 283.08 422.961 278.515V270.188C422.961 265.624 419.222 261.924 414.608 261.924H346.799C342.186 261.924 338.446 265.623 338.446 270.188V278.515C338.446 283.079 342.186 286.779 346.799 286.779Z" fill="#00ADF0"/>
<path d="M332.129 259.179C334.836 259.179 337.214 258.649 338.568 257.851C339.312 257.412 340.199 257.412 340.942 257.851C342.295 258.649 344.673 259.179 347.382 259.179C349.221 259.179 350.907 258.934 352.224 258.528C353.605 258.101 355.008 259.081 355.008 260.513V268.85C355.008 280.444 349.533 284.664 341.007 290.782C340.265 291.315 339.246 291.315 338.504 290.782C329.977 284.664 324.503 280.444 324.503 268.85V260.513C324.503 259.081 325.904 258.101 327.286 258.528C328.604 258.934 330.289 259.179 332.129 259.179Z" fill="white"/>
<path opacity="0.3" d="M332.129 259.179C334.836 259.179 337.214 258.649 338.568 257.851C339.312 257.412 340.199 257.412 340.942 257.851C342.295 258.649 344.673 259.179 347.382 259.179C349.221 259.179 350.907 258.934 352.224 258.528C353.605 258.101 355.008 259.081 355.008 260.513V268.85C355.008 280.444 349.533 284.664 341.007 290.782C340.265 291.315 339.246 291.315 338.504 290.782C329.977 284.664 324.503 280.444 324.503 268.85V260.513C324.503 259.081 325.904 258.101 327.286 258.528C328.604 258.934 330.289 259.179 332.129 259.179Z" fill="white"/>
<path opacity="0.05" d="M340.942 257.851C342.295 258.649 344.673 259.179 347.382 259.179C349.221 259.179 350.907 258.934 352.224 258.528C353.605 258.101 355.008 259.081 355.008 260.512V268.85C355.008 280.444 349.533 284.664 341.007 290.782C340.636 291.048 340.196 291.182 339.755 291.182V257.521C340.163 257.521 340.571 257.631 340.942 257.851Z" fill="#082B45"/>
<path d="M327.532 266.574C333.042 268.829 337.758 272.119 340.851 275.861C343.01 274.169 345.969 272.995 349.441 272.457L349.848 272.395V274.384L349.616 274.468C346.125 275.731 343.177 277.973 341.088 280.948L340.761 281.415L340.488 280.914C337.468 275.352 332.759 270.692 327.231 267.794L327.043 267.695V266.373L327.532 266.574Z" fill="#01A0DF"/>
<path d="M295.996 210.585H301.814C305.041 210.585 307.427 207.998 307.145 204.805L306.636 199.049C306.353 195.857 303.509 193.27 300.282 193.27H294.464C291.238 193.27 288.852 195.858 289.133 199.049L289.643 204.805C289.926 207.998 292.769 210.585 295.996 210.585Z" fill="#00ADF0"/>
<path d="M293.581 199.038L294.843 197.668L298.021 200.558L300.687 197.668L302.193 199.038L299.526 201.928L302.703 204.819L301.44 206.188L298.263 203.298L295.597 206.188L294.091 204.819L296.757 201.928L293.581 199.038Z" fill="white"/>
<path d="M425.987 260.242C422.614 263.871 419.392 267.63 416.21 271.424C413.023 275.214 409.916 279.072 406.847 282.963C406.713 283.133 406.767 283.064 406.736 283.114C406.721 283.137 406.719 283.173 406.7 283.191C406.666 283.229 406.647 283.292 406.607 283.325C406.546 283.422 406.458 283.491 406.37 283.582C406.183 283.747 405.928 283.873 405.643 283.926C405.503 283.946 405.354 283.967 405.202 283.952C405.121 283.962 405.049 283.937 404.963 283.935C404.918 283.936 404.885 283.913 404.842 283.907C404.775 283.879 404.817 283.937 404.635 283.831L401.339 282.062C396.917 279.746 392.46 277.482 387.85 275.45L383.996 280.171C387.71 283.552 391.578 287.781 395.481 290.88L398.429 293.172C398.504 293.24 398.821 293.446 399.02 293.577C399.248 293.722 399.47 293.878 399.711 294.006C400.189 294.266 400.67 294.526 401.182 294.727C402.193 295.159 403.272 295.434 404.366 295.601C406.559 295.923 408.839 295.705 410.967 294.951C412.027 294.573 413.055 294.069 413.991 293.426C414.47 293.119 414.908 292.758 415.345 292.395C415.565 292.214 415.761 292.012 415.966 291.816L416.49 291.291C419.972 287.757 423.416 284.19 426.782 280.555C430.151 276.922 433.481 273.257 436.66 269.46L425.987 260.242Z" fill="#E09C95"/>
<path d="M389.641 278.324L386.573 268.576L378.498 272.558C378.498 272.558 379.675 279.671 385.553 280.904L389.641 278.324Z" fill="#E09C95"/>
<path d="M383.336 265.871L376.053 267.855L378.499 272.556L386.574 268.574L383.336 265.871Z" fill="#E09C95"/>
<path d="M468.466 262.897C469.346 267.039 470.419 271.133 471.545 275.216C472.664 279.301 473.887 283.36 475.158 287.408L475.632 288.927L475.869 289.686C475.919 289.851 475.952 289.893 475.997 290.003C476.141 290.387 476.228 290.804 476.245 291.241C476.268 292.109 476.06 293.073 475.486 293.912C475.439 294.047 474.985 294.519 474.631 294.899L473.538 296.073L471.384 298.46C469.965 300.07 468.552 301.686 467.21 303.385L471.796 308.637C473.69 307.571 475.511 306.421 477.328 305.267L480.027 303.505L481.362 302.605C481.816 302.293 482.18 302.083 482.907 301.488C485.41 299.388 487.28 296.406 487.966 293.096C488.316 291.443 488.401 289.721 488.206 288.015C488.155 287.606 488.077 287.13 488.014 286.78L487.875 285.997L487.596 284.432C486.858 280.256 486.071 276.093 485.182 271.952C484.298 267.812 483.362 263.683 482.233 259.602L468.466 262.897Z" fill="#E09C95"/>
<path d="M471.715 303.015L466.285 300.268L463.89 309.399C463.89 309.399 468.247 311.051 471.62 308.928L471.715 303.015Z" fill="#B55B52"/>
<path d="M458.783 297.346L458.537 305.721L464.6 309.644L466.703 300.443L458.783 297.346Z" fill="#B55B52"/>
<path d="M441.03 219.846C440.897 220.492 440.445 220.945 440.018 220.859C439.592 220.773 439.354 220.181 439.487 219.535C439.619 218.889 440.072 218.436 440.499 218.522C440.924 218.608 441.162 219.201 441.03 219.846Z" fill="#263238"/>
<path d="M440.504 220.957C440.504 220.957 438.256 224.381 436.255 225.849C437.19 227.147 439.251 227.054 439.251 227.054L440.504 220.957Z" fill="#E09C95"/>
<path d="M444.152 216.743C444.247 216.743 444.343 216.709 444.418 216.64C444.576 216.496 444.586 216.251 444.439 216.093C442.971 214.522 441.191 214.802 441.113 214.814C440.9 214.85 440.758 215.049 440.793 215.26C440.83 215.47 441.034 215.61 441.242 215.577C441.301 215.567 442.694 215.366 443.864 216.618C443.941 216.701 444.047 216.743 444.152 216.743Z" fill="#263238"/>
<path d="M460.008 228.924C458.557 234.896 457.108 245.839 462.289 249.824C462.289 249.824 460.265 255.882 446.504 255.882C431.372 255.882 439.272 251.98 439.272 251.98C447.53 250.39 447.318 243.293 445.88 238.652L460.008 228.924Z" fill="#E09C95"/>
<path d="M463.899 250.93C464.801 249.27 465.794 247.372 463.74 246.777C461.481 246.122 446.964 244.909 442.7 246.138C444.011 248.443 441.792 251.278 441.792 251.278L463.899 250.93Z" fill="#263238"/>
<path d="M451.879 530.309H442.384L441.439 511.402H450.933L451.879 530.309Z" fill="#E09C95"/>
<path d="M512.133 527.705L502.517 528.207L496.672 509.582L506.29 509.078L512.133 527.705Z" fill="#E09C95"/>
<path d="M502.808 527.455L511.869 525.514C512.198 525.444 512.534 525.609 512.674 525.913L515.82 532.663C516.146 533.364 515.714 534.185 514.95 534.335C511.776 534.959 510.198 535.105 506.214 535.957C503.762 536.482 498.23 537.817 494.844 538.542C491.533 539.252 490.292 536.05 491.612 535.454C497.531 532.778 500.004 530.421 501.607 528.226C501.895 527.832 502.325 527.56 502.808 527.455Z" fill="black"/>
<path d="M442.888 529.363H451.899C452.236 529.363 452.528 529.595 452.602 529.921L454.232 537.177C454.401 537.929 453.824 538.641 453.045 538.628C449.795 538.574 445.098 538.385 441.012 538.385C436.235 538.385 432.109 538.643 426.507 538.643C423.119 538.643 422.18 535.255 423.597 534.948C430.052 533.551 435.323 533.401 440.901 529.999C441.507 529.629 442.176 529.363 442.888 529.363Z" fill="black"/>
<path d="M479.477 252.583C486.642 255.953 488.59 276.388 488.59 276.388L470.863 284.492C470.863 284.492 466.464 278.08 466.127 267.997C465.774 257.434 472.15 249.136 479.477 252.583Z" fill="#082B45"/>
<path opacity="0.4" d="M469.861 265.186C473.062 270.101 472.759 277.706 471.651 284.132L470.868 284.496C470.868 284.496 466.463 278.075 466.125 267.995C466.105 267.365 466.108 266.739 466.13 266.13L469.861 265.186Z" fill="black"/>
<path d="M430.014 252.09C430.014 252.09 421.231 261.904 429.525 322.652C442.824 322.652 467.189 322.652 473.66 322.652C473.964 315.949 469.707 283.252 476.242 251.669C476.242 251.669 468.676 250.167 461.467 249.823C455.828 249.555 447.664 249.376 442.707 249.823C436.17 250.414 430.014 252.09 430.014 252.09Z" fill="#082B45"/>
<path opacity="0.6" d="M430.014 252.09C430.014 252.09 421.231 261.904 429.525 322.652C442.824 322.652 467.189 322.652 473.66 322.652C473.964 315.949 469.707 283.252 476.242 251.669C476.242 251.669 468.676 250.167 461.467 249.823C455.828 249.555 447.664 249.376 442.707 249.823C436.17 250.414 430.014 252.09 430.014 252.09Z" fill="#FAFAFA"/>
<path opacity="0.2" d="M426.156 270.656L426.325 270.511L435.103 265.871C435.995 279.243 429.953 287.625 426.359 291.291C425.864 282.724 425.876 275.967 426.156 270.656Z" fill="black"/>
<path opacity="0.2" d="M441.441 511.408L441.927 521.154H451.426L450.94 511.408H441.441Z" fill="black"/>
<path opacity="0.2" d="M506.291 509.084L496.671 509.588L499.689 519.188L509.309 518.685L506.291 509.084Z" fill="black"/>
<path d="M463.062 222.853C460.942 230.679 460.104 235.366 455.221 238.62C447.879 243.514 438.737 237.897 438.452 229.602C438.194 222.136 441.705 210.593 450.193 209.015C458.556 207.462 465.182 215.026 463.062 222.853Z" fill="#E09C95"/>
<path d="M445.181 322.652C445.181 322.652 454.546 385.04 459.686 408.414C465.316 434.009 495.503 518.691 495.503 518.691L510.273 515.527C510.273 515.527 491.344 446.517 486.62 410.734C484.776 396.77 482.551 374.261 479.734 355.494C477.008 337.319 473.66 322.652 473.66 322.652H445.181Z" fill="#082B45"/>
<path d="M491.964 513.811C491.901 513.824 494.717 519.096 494.717 519.096L511.336 515.536L509.934 510.594L491.964 513.811Z" fill="#407BFF"/>
<path d="M491.964 513.811C491.901 513.824 494.717 519.096 494.717 519.096L511.336 515.536L509.934 510.594L491.964 513.811Z" fill="#082B45"/>
<path opacity="0.6" d="M451.099 344.88C461.927 346.98 460.78 386.929 459.478 407.477C456.355 392.954 451.784 365.005 448.661 345.169C449.38 344.813 450.189 344.703 451.099 344.88Z" fill="black"/>
<path d="M429.525 322.652C429.525 322.652 425.121 383.69 426.018 408.586C426.951 434.48 439.361 519.267 439.361 519.267H453.34C453.34 519.267 453.853 435.993 454.474 410.562C455.152 382.837 458.535 322.652 458.535 322.652H429.525Z" fill="#082B45"/>
<path d="M436.67 513.758C436.606 513.758 437.459 519.5 437.459 519.5H454.463L454.922 514.375L436.67 513.758Z" fill="#407BFF"/>
<path d="M436.67 513.758C436.606 513.758 437.459 519.5 437.459 519.5H454.463L454.922 514.375L436.67 513.758Z" fill="#082B45"/>
<path d="M435.164 263.524C435.164 279.904 426.353 286.649 426.353 286.649L412.033 272.798C412.033 272.798 416.902 264.498 423.598 256.878C431.871 247.465 435.164 252.991 435.164 263.524Z" fill="#082B45"/>
<path opacity="0.2" d="M438.952 232.568C439.315 233.572 440.269 235.274 442.666 235.952C446.161 236.942 446.207 239.873 446.207 239.873L446.164 239.927C442.829 238.837 440.052 236.111 438.952 232.568Z" fill="#7A4944"/>
<path d="M442.666 207.298C439.715 203.618 444.254 203.442 444.254 203.442C443.075 199.048 448.384 201.413 448.384 201.413C451.571 197.067 453.369 202.356 453.369 202.356C456.675 198.674 457.283 204.692 457.283 204.692C460.598 200.022 462.286 206.758 462.286 206.758C465.339 201.908 467.208 208.227 467.208 208.227C473.512 205.994 470.515 212.475 470.515 212.475C475.896 212.625 471.58 216.743 471.58 216.743C478.025 216.759 472.342 220.411 472.342 220.411C477.461 223.734 471.035 224.628 471.035 224.628C475.212 231.09 468.04 228.693 468.04 228.693C470.945 235.088 464.502 232.271 464.502 232.271C464.921 238.442 461.317 236.763 459.586 235.62C459.251 236.863 458.628 238.179 457.469 238.329C455.222 238.619 454.785 234.422 454.785 234.422C454.785 234.422 452.699 236.027 450.95 235.157C449.201 234.288 449.86 232.086 449.86 232.086C449.86 232.086 448.522 233.074 447.296 232.132C446.545 231.555 446.541 227.41 447.498 225.954L444.073 224.627C444.073 224.627 441.53 224.273 442.666 220.956C443.8 217.642 442.838 215.023 442.838 215.023C438.972 213.23 442.143 211.074 442.143 211.074C437.673 208.209 442.666 207.298 442.666 207.298Z" fill="black"/>
<path d="M449.607 223.181C449.068 225.235 447.704 227.001 446.277 228.052C444.13 229.632 442.527 228.076 442.679 225.673C442.816 223.509 444.099 220.079 446.468 219.437C448.8 218.805 450.221 220.832 449.607 223.181Z" fill="#F1ABA4"/>
<mask id="mask0_7034_50202" style="mask-type:luminance" maskUnits="userSpaceOnUse" x="68" y="50" width="178" height="17">
<path d="M245.182 50.5H68.0938V66.5H245.182V50.5Z" fill="white"/>
</mask>
<g mask="url(#mask0_7034_50202)">
<path fill-rule="evenodd" clip-rule="evenodd" d="M130.803 50.5843C127.082 50.8624 124.145 52.8421 123.037 55.8185C122.684 56.7675 122.55 57.6398 122.585 58.7701C122.649 60.8179 123.397 62.4887 124.891 63.9232C126.25 65.2274 128.005 66.0264 130.155 66.3197C130.865 66.4165 132.477 66.4167 133.157 66.32C134.999 66.0582 136.483 65.4686 137.781 64.4826C139.928 62.8512 141.029 60.2447 140.698 57.5773C140.577 56.6094 140.387 55.9755 139.957 55.1072C138.775 52.7232 136.413 51.1525 133.277 50.6651C132.89 50.605 131.245 50.5513 130.803 50.5843ZM85.8984 54.9647C85.8984 57.4916 85.9164 59.3483 85.9445 59.7175C86.0932 61.6756 86.727 63.2012 87.8623 64.3343C89.2298 65.6989 91.2249 66.3816 93.8407 66.3801C96.4978 66.3786 98.5775 65.6267 99.9301 64.1788C100.693 63.3616 101.274 62.1984 101.532 60.9682C101.734 60.0085 101.75 59.5689 101.751 55.0533L101.752 50.8178H100.156H98.5604L98.5445 55.2042C98.5307 59.0584 98.52 59.6379 98.4571 59.98C98.1638 61.5732 97.5311 62.5181 96.3822 63.0777C95.7733 63.3741 95.1999 63.5171 94.4083 63.5695C91.567 63.7576 89.8031 62.6898 89.2712 60.4597C89.1058 59.7657 89.0967 59.4893 89.0959 55.0964L89.0951 50.8178H87.4967H85.8984V54.9647ZM104.776 58.4914V66.165H106.374H107.973V63.3197V60.4744L110.705 60.4769L113.437 60.4794L113.918 61.2421C114.182 61.6616 114.909 62.8099 115.532 63.7939C116.156 64.7779 116.747 65.7133 116.845 65.8727L117.023 66.1624L118.853 66.1637L120.683 66.165L120.621 66.068C120.588 66.0146 119.715 64.673 118.683 63.0865C117.651 61.5001 116.81 60.1912 116.814 60.178C116.819 60.1647 116.979 60.1013 117.17 60.0371C118.021 59.7516 118.852 59.1922 119.354 58.5669C120.022 57.7335 120.301 56.8821 120.304 55.6677C120.306 54.933 120.261 54.5978 120.083 54.0333C119.604 52.5081 118.329 51.4357 116.49 51.0101C115.664 50.8188 115.631 50.8178 110.068 50.8178H104.776V58.4914ZM143.406 58.4806L143.417 66.1434L150.404 66.1543L157.391 66.1652V64.7856V63.4059H151.992H146.592V57.1119V50.8178H144.993H143.395L143.406 58.4806ZM165.782 53.0707C165.158 54.3093 163.947 56.7099 163.091 58.4051C160.332 63.8657 159.206 66.1071 159.206 66.1368C159.206 66.1529 159.966 66.1609 160.895 66.1547L162.584 66.1434L163.476 64.3659L164.368 62.5884L168.72 62.5876C171.526 62.5871 173.072 62.6018 173.072 62.6289C173.072 62.6521 173.465 63.4572 173.946 64.418L174.819 66.165H176.539H178.259L176.848 63.3736C176.072 61.8383 174.927 59.5734 174.304 58.3405C173.681 57.1075 172.571 54.9106 171.837 53.4584L170.502 50.8181L168.709 50.8183L166.917 50.8186L165.782 53.0707ZM180.027 58.4914V66.165H181.561H183.094L183.096 60.5068C183.097 56.0502 183.108 54.8631 183.15 54.9167C183.179 54.9542 183.332 55.1288 183.49 55.3047C183.648 55.4806 184.531 56.4781 185.452 57.5214C186.374 58.5647 187.285 59.5938 187.476 59.8083C187.668 60.0229 188.012 60.4108 188.24 60.6705C188.469 60.9302 189.06 61.5985 189.553 62.1557C190.649 63.3935 190.513 63.2398 191.928 64.8426L193.095 66.1633L194.509 66.1642L195.924 66.165V58.4914V50.8178H194.391H192.857V56.185C192.857 59.1369 192.841 61.5522 192.821 61.5522C192.8 61.5522 192.559 61.2951 192.284 60.981C192.01 60.6668 191.749 60.371 191.705 60.3235C191.661 60.2761 191.351 59.9269 191.016 59.5476C189.384 57.6991 188.641 56.8597 188.499 56.702C188.413 56.6071 188.197 56.3648 188.019 56.1637C187.841 55.9626 187.634 55.7299 187.56 55.6466C187.486 55.5633 186.954 54.9617 186.377 54.3097C185.8 53.6577 185.255 53.0413 185.165 52.9401C185.075 52.8389 184.616 52.32 184.145 51.7871L183.289 50.818L181.658 50.8179L180.027 50.8178V58.4914ZM198.559 58.4914V66.165H202.956C207.541 66.165 207.773 66.1573 208.754 65.9723C210.68 65.609 212.16 64.8576 213.312 63.6587C214.358 62.5701 214.946 61.2945 215.192 59.5816C215.262 59.096 215.223 57.4215 215.131 56.961C214.902 55.8138 214.599 55.0515 214.034 54.2019C212.957 52.583 211.078 51.428 208.842 51.0104C207.835 50.8223 207.698 50.8178 203.028 50.8178H198.559V58.4914ZM223.225 58.4914V66.165H224.824H226.422V58.4914V50.8178H224.824H223.225V58.4914ZM229.23 58.4914V66.165H230.807H232.383V63.3197V60.4744H235.12H237.858L238.424 61.369C238.736 61.861 239.145 62.506 239.334 62.8024C239.523 63.0988 239.818 63.5644 239.989 63.837C240.16 64.1097 240.562 64.745 240.882 65.2489L241.465 66.165H243.279C244.814 66.165 245.017 66.2001 245.101 66.1828C245.081 66.1302 244.236 64.7954 242.989 62.8886C242.511 62.1575 242.238 61.7381 241.865 61.1642C241.704 60.9152 241.497 60.5986 241.405 60.4606C241.314 60.3226 241.239 60.1959 241.239 60.1792C241.239 60.1624 241.39 60.1012 241.574 60.043C242.321 59.8072 243.068 59.3428 243.592 58.7882C244.385 57.9497 244.738 56.9744 244.738 55.6245C244.738 53.2556 243.432 51.6382 241.034 51.0375C240.148 50.8157 240.208 50.8178 234.527 50.8178H229.23V58.4914ZM132.78 53.427C135.21 53.7882 136.842 55.1636 137.355 57.2843C137.481 57.8058 137.51 58.8057 137.416 59.3536C137.055 61.4459 135.63 62.8911 133.396 63.4314C132.992 63.529 132.145 63.6207 131.645 63.6209C130.502 63.6216 129.365 63.3631 128.493 62.9042C126.922 62.0763 126.001 60.6934 125.855 58.9413C125.73 57.436 126.184 56.0765 127.15 55.0586C127.979 54.1864 129.106 53.6413 130.522 53.4276C131.051 53.3479 132.245 53.3476 132.78 53.427ZM115.089 53.5555C115.798 53.6703 116.297 53.9046 116.648 54.288C117.049 54.7255 117.223 55.3327 117.131 55.9653C116.988 56.9417 116.341 57.5072 115.106 57.735C114.8 57.7914 114.229 57.8016 111.359 57.8016H107.973V55.6461V53.4906L111.331 53.4908C114.107 53.4909 114.759 53.5022 115.089 53.5555ZM239.411 53.5366C240.491 53.6836 241.168 54.1364 241.47 54.9132C241.567 55.1628 241.608 55.7703 241.548 56.0873C241.413 56.8052 240.913 57.3324 240.11 57.6045C239.555 57.7925 239.315 57.8028 235.774 57.7912L232.405 57.78L232.394 55.6353L232.382 53.4906H235.728C237.858 53.4906 239.195 53.5073 239.411 53.5366ZM207.973 53.6566C209.154 53.9133 209.989 54.3341 210.676 55.0209C211.574 55.9166 211.991 57.0177 211.993 58.4914C211.994 59.6123 211.749 60.4921 211.213 61.2912C210.572 62.2467 209.573 62.9162 208.322 63.2291C207.56 63.4197 207.553 63.4201 204.553 63.4381L201.67 63.4555V58.4921V53.5288L204.596 53.5439C207.447 53.5585 207.535 53.5615 207.973 53.6566ZM170.158 56.864C170.953 58.4585 171.615 59.797 171.628 59.8386C171.651 59.9099 171.491 59.914 168.677 59.914H165.701L167.194 56.9397C168.016 55.3038 168.693 53.9652 168.7 53.9651C168.707 53.9649 169.363 55.2694 170.158 56.864Z" fill="#082B45"/>
<path d="M68.2344 66.0246V58.4596V50.8945H75.5337H82.833V52.3156V53.7367H77.0649H71.2967V55.304V56.8713H76.4362H81.5757L81.5646 58.2193L81.5535 59.5672L76.4251 59.5778L71.2967 59.5884V61.448V63.3076L77.0544 63.3182L82.812 63.3288L82.8231 64.6767L82.8342 66.0246H75.5343H68.2344Z" fill="#082B45"/>
<path d="M71.3116 53.7461H68.2344V56.8684H71.3116V53.7461Z" fill="#00ADF0"/>
<path d="M71.2879 59.5859H68.2344V63.3032H71.2879V59.5859Z" fill="#00ADF0"/>
</g>
</g>
<defs>
<clipPath id="clip0_7034_50202">
<rect width="658" height="651" fill="white" transform="matrix(-1 0 0 1 658.094 0.5)"/>
</clipPath>
</defs>
</svg>
