<svg width="1441" height="1025" viewBox="0 0 1441 1025" fill="none" xmlns="http://www.w3.org/2000/svg">
<path d="M0.609375 0.335938H1440.61V1024.34H0.609375V0.335938Z" fill="#00ADF0" fill-opacity="0.1"/>
<path fill-rule="evenodd" clip-rule="evenodd" d="M1440.61 0.335938H0.609375L0.609863 870.707C3.37549 854.359 12.9575 837.037 22.9692 818.943C29.5317 807.082 36.2778 794.891 41.4067 782.426C47.2896 768.225 51.0356 753.66 54.6255 739.756L54.6372 739.692C60.0356 718.729 65.0474 699.27 76.3677 684.809C94.9849 660.52 131.532 650.076 166.493 652.119C201.227 654.162 234.825 668.692 270.239 687.307C305.426 706.149 342.657 729.305 359.227 763.129C375.797 796.953 371.485 841.449 354.688 878.451C337.887 915.455 308.375 944.74 275.231 971.527C241.86 998.315 204.86 1022.38 168.989 1020.79C133.122 1019.2 98.6138 991.733 65.6997 964.717C35.0552 939.781 5.78955 915.432 0.609863 888.014L0.609375 1024.34H1440.61L1440.61 196.567C1431.88 212.988 1410.78 224.844 1388.94 237.119L1383.87 239.975C1379.12 242.66 1374.37 245.385 1369.75 248.199C1361.38 253.295 1353.41 258.668 1345.59 263.943C1326.08 277.096 1307.47 289.643 1285.8 295.795C1255.26 304.414 1218.72 300.293 1195.67 280.43C1172.81 260.567 1163.44 225.151 1156.32 191.609C1149.01 158.067 1143.95 126.586 1153.88 101.102C1163.81 75.6173 1188.73 56.3165 1214.22 39.6388C1239.7 22.7736 1265.94 8.72083 1292.17 8.34583C1318.59 7.97083 1345.02 21.6505 1366.38 39.6388C1387.74 57.8146 1403.86 80.4884 1419.78 108.223C1427.79 122.254 1435.79 137.518 1440.61 152.227L1440.61 0.335938ZM1354.96 688.17L1354.93 688.152C1347.33 682.303 1339.54 676.307 1331.76 669.883C1326.22 665.313 1320.67 660.531 1315.08 655.709L1314.98 655.615C1291.15 635.049 1266.49 613.766 1237.47 605.059C1201.6 594.297 1158.81 603.01 1130.62 627.608C1102.69 652.461 1089.11 693.457 1079.38 731.121C1069.64 769.043 1063.49 803.633 1067.59 836.943C1071.95 870.508 1086.81 902.535 1108.07 932.258C1129.34 961.981 1156.76 989.397 1188.79 996.826C1216.92 1003.35 1248.41 994.856 1281.53 985.92C1284.86 985.022 1288.2 984.119 1291.56 983.227L1295.38 982.223C1300.1 980.977 1304.85 979.768 1309.6 978.561C1342.96 970.072 1376.11 961.637 1397.86 941.227C1422.72 917.91 1432.97 878.963 1434.25 841.299C1435.79 803.633 1428.1 767.25 1409.65 739.834C1395.89 719.66 1376.16 704.483 1354.96 688.17Z" fill="#00ADF0"/>
</svg>
