<svg width="25" height="24" viewBox="0 0 25 24" fill="none" xmlns="http://www.w3.org/2000/svg">
<path d="M9.5 5.00245C9.23478 5.00245 8.98043 5.10781 8.79289 5.29534C8.60536 5.48288 8.5 5.73723 8.5 6.00245C8.5 6.26767 8.60536 6.52202 8.79289 6.70956C8.98043 6.89709 9.23478 7.00245 9.5 7.00245C9.76522 7.00245 10.0196 6.89709 10.2071 6.70956C10.3946 6.52202 10.5 6.26767 10.5 6.00245C10.5 5.73723 10.3946 5.48288 10.2071 5.29534C10.0196 5.10781 9.76522 5.00245 9.5 5.00245ZM6.67 5.00245C6.8766 4.41692 7.25974 3.90988 7.7666 3.55124C8.27346 3.1926 8.87909 3 9.5 3C10.1209 3 10.7265 3.1926 11.2334 3.55124C11.7403 3.90988 12.1234 4.41692 12.33 5.00245H19.5C19.7652 5.00245 20.0196 5.10781 20.2071 5.29534C20.3946 5.48288 20.5 5.73723 20.5 6.00245C20.5 6.26767 20.3946 6.52202 20.2071 6.70956C20.0196 6.89709 19.7652 7.00245 19.5 7.00245H12.33C12.1234 7.58798 11.7403 8.09502 11.2334 8.45366C10.7265 8.81231 10.1209 9.0049 9.5 9.0049C8.87909 9.0049 8.27346 8.81231 7.7666 8.45366C7.25974 8.09502 6.8766 7.58798 6.67 7.00245H5.5C5.23478 7.00245 4.98043 6.89709 4.79289 6.70956C4.60536 6.52202 4.5 6.26767 4.5 6.00245C4.5 5.73723 4.60536 5.48288 4.79289 5.29534C4.98043 5.10781 5.23478 5.00245 5.5 5.00245H6.67ZM15.5 11.0025C15.2348 11.0025 14.9804 11.1078 14.7929 11.2953C14.6054 11.4829 14.5 11.7372 14.5 12.0025C14.5 12.2677 14.6054 12.522 14.7929 12.7096C14.9804 12.8971 15.2348 13.0025 15.5 13.0025C15.7652 13.0025 16.0196 12.8971 16.2071 12.7096C16.3946 12.522 16.5 12.2677 16.5 12.0025C16.5 11.7372 16.3946 11.4829 16.2071 11.2953C16.0196 11.1078 15.7652 11.0025 15.5 11.0025ZM12.67 11.0025C12.8766 10.4169 13.2597 9.90988 13.7666 9.55124C14.2735 9.1926 14.8791 9 15.5 9C16.1209 9 16.7265 9.1926 17.2334 9.55124C17.7403 9.90988 18.1234 10.4169 18.33 11.0025H19.5C19.7652 11.0025 20.0196 11.1078 20.2071 11.2953C20.3946 11.4829 20.5 11.7372 20.5 12.0025C20.5 12.2677 20.3946 12.522 20.2071 12.7096C20.0196 12.8971 19.7652 13.0025 19.5 13.0025H18.33C18.1234 13.588 17.7403 14.095 17.2334 14.4537C16.7265 14.8123 16.1209 15.0049 15.5 15.0049C14.8791 15.0049 14.2735 14.8123 13.7666 14.4537C13.2597 14.095 12.8766 13.588 12.67 13.0025H5.5C5.23478 13.0025 4.98043 12.8971 4.79289 12.7096C4.60536 12.522 4.5 12.2677 4.5 12.0025C4.5 11.7372 4.60536 11.4829 4.79289 11.2953C4.98043 11.1078 5.23478 11.0025 5.5 11.0025H12.67ZM9.5 17.0025C9.23478 17.0025 8.98043 17.1078 8.79289 17.2953C8.60536 17.4829 8.5 17.7372 8.5 18.0025C8.5 18.2677 8.60536 18.522 8.79289 18.7096C8.98043 18.8971 9.23478 19.0025 9.5 19.0025C9.76522 19.0025 10.0196 18.8971 10.2071 18.7096C10.3946 18.522 10.5 18.2677 10.5 18.0025C10.5 17.7372 10.3946 17.4829 10.2071 17.2953C10.0196 17.1078 9.76522 17.0025 9.5 17.0025ZM6.67 17.0025C6.8766 16.4169 7.25974 15.9099 7.7666 15.5512C8.27346 15.1926 8.87909 15 9.5 15C10.1209 15 10.7265 15.1926 11.2334 15.5512C11.7403 15.9099 12.1234 16.4169 12.33 17.0025H19.5C19.7652 17.0025 20.0196 17.1078 20.2071 17.2953C20.3946 17.4829 20.5 17.7372 20.5 18.0025C20.5 18.2677 20.3946 18.522 20.2071 18.7096C20.0196 18.8971 19.7652 19.0025 19.5 19.0025H12.33C12.1234 19.588 11.7403 20.095 11.2334 20.4537C10.7265 20.8123 10.1209 21.0049 9.5 21.0049C8.87909 21.0049 8.27346 20.8123 7.7666 20.4537C7.25974 20.095 6.8766 19.588 6.67 19.0025H5.5C5.23478 19.0025 4.98043 18.8971 4.79289 18.7096C4.60536 18.522 4.5 18.2677 4.5 18.0025C4.5 17.7372 4.60536 17.4829 4.79289 17.2953C4.98043 17.1078 5.23478 17.0025 5.5 17.0025H6.67Z" fill="#606060"/>
</svg>
