<svg width="546" height="546" viewBox="0 0 546 546" fill="none" xmlns="http://www.w3.org/2000/svg">
<path d="M546 417.586H0V417.859H546V417.586Z" fill="#EBEBEB"/>
<path d="M491.292 435.156H455.125V435.429H491.292V435.156Z" fill="#EBEBEB"/>
<path d="M361.693 438.125H352.203V438.398H361.693V438.125Z" fill="#EBEBEB"/>
<path d="M454.034 425.023H433.078V425.296H454.034V425.023Z" fill="#EBEBEB"/>
<path d="M104.453 426.852H57.2891V427.125H104.453V426.852Z" fill="#EBEBEB"/>
<path d="M121.092 426.852H114.18V427.125H121.092V426.852Z" fill="#EBEBEB"/>
<path d="M245.861 431.461H143.562V431.734H245.861V431.461Z" fill="#EBEBEB"/>
<path d="M258.805 368.88H47.951C46.2991 368.877 44.716 368.219 43.549 367.05C42.382 365.881 41.7266 364.297 41.7266 362.645V66.2432C41.7409 64.6009 42.4027 63.0305 43.5682 61.8733C44.7336 60.716 46.3086 60.0653 47.951 60.0625H258.805C260.459 60.0625 262.045 60.7194 263.214 61.8888C264.384 63.0581 265.041 64.6441 265.041 66.2978V362.645C265.041 364.298 264.384 365.884 263.214 367.054C262.045 368.223 260.459 368.88 258.805 368.88ZM47.951 60.2809C46.3716 60.2838 44.8578 60.9132 43.742 62.0311C42.6262 63.1489 41.9996 64.6638 41.9996 66.2432V362.645C41.9996 364.224 42.6262 365.739 43.742 366.857C44.8578 367.975 46.3716 368.604 47.951 368.607H258.805C260.386 368.604 261.901 367.975 263.018 366.858C264.136 365.74 264.765 364.225 264.768 362.645V66.2432C264.765 64.6628 264.136 63.1479 263.018 62.0304C261.901 60.9129 260.386 60.2838 258.805 60.2809H47.951Z" fill="#EBEBEB"/>
<path d="M495.015 368.88H284.149C282.497 368.877 280.912 368.219 279.744 367.051C278.575 365.882 277.917 364.298 277.914 362.645V66.2432C277.931 64.5999 278.596 63.0295 279.763 61.8726C280.93 60.7156 282.506 60.0653 284.149 60.0625H495.015C496.655 60.0682 498.227 60.7202 499.39 61.8771C500.553 63.0341 501.214 64.6028 501.228 66.2432V362.645C501.228 364.295 500.574 365.877 499.41 367.046C498.245 368.215 496.665 368.874 495.015 368.88ZM284.149 60.2809C282.569 60.2838 281.054 60.9129 279.937 62.0304C278.819 63.1479 278.19 64.6628 278.187 66.2432V362.645C278.19 364.225 278.819 365.74 279.937 366.858C281.054 367.975 282.569 368.604 284.149 368.607H495.015C496.595 368.604 498.11 367.975 499.227 366.858C500.345 365.74 500.974 364.225 500.977 362.645V66.2432C500.974 64.6628 500.345 63.1479 499.227 62.0304C498.11 60.9129 496.595 60.2838 495.015 60.2809H284.149Z" fill="#EBEBEB"/>
<path d="M316.341 190.078L466.797 190.078V91.547L316.341 91.547V190.078Z" fill="#E6E6E6"/>
<path d="M311.747 190.078L464.648 190.078V91.547L311.747 91.547V190.078Z" fill="#F0F0F0"/>
<path d="M316.341 209.406L466.797 209.406V190.067L316.341 190.067V209.406Z" fill="#E6E6E6"/>
<path d="M304.114 209.406L457.016 209.406V190.067L304.114 190.067V209.406Z" fill="#F0F0F0"/>
<path d="M458.227 183.655V97.9766L318.178 97.9766V183.655H458.227Z" fill="#FAFAFA"/>
<path d="M426.646 183.644L408.759 97.9766H380.848L398.735 183.644H426.646Z" fill="white"/>
<path d="M455.256 177.259C455.317 177.259 455.377 177.247 455.434 177.223C455.49 177.199 455.541 177.164 455.584 177.121C455.627 177.077 455.66 177.025 455.683 176.968C455.705 176.911 455.716 176.85 455.714 176.789V102.162C455.714 102.04 455.666 101.924 455.58 101.838C455.494 101.752 455.377 101.703 455.256 101.703C455.195 101.702 455.135 101.713 455.078 101.735C455.022 101.758 454.971 101.791 454.928 101.834C454.885 101.877 454.851 101.928 454.829 101.985C454.806 102.041 454.796 102.101 454.797 102.162V176.789C454.796 176.85 454.806 176.911 454.829 176.968C454.851 177.025 454.885 177.077 454.927 177.121C454.97 177.164 455.021 177.199 455.078 177.223C455.134 177.247 455.194 177.259 455.256 177.259Z" fill="#F0F0F0"/>
<path d="M392.735 183.644L374.848 97.9766H363.961L381.859 183.644H392.735Z" fill="white"/>
<path d="M318.992 183.655V97.9766H318.173V183.655H318.992Z" fill="#E6E6E6"/>
<path opacity="0.6" d="M310.234 107.665H460.69L461.28 100.469H310.824L310.234 107.665Z" fill="#EBEBEB"/>
<path opacity="0.6" d="M310.234 119.459H460.69L461.28 112.273H310.824L310.234 119.459Z" fill="#EBEBEB"/>
<path opacity="0.6" d="M310.234 131.248H460.69L461.28 124.062H310.824L310.234 131.248Z" fill="#EBEBEB"/>
<path opacity="0.6" d="M310.234 143.056H460.69L461.28 135.859H310.824L310.234 143.056Z" fill="#EBEBEB"/>
<path opacity="0.6" d="M310.234 154.845H460.69L461.28 147.648H310.824L310.234 154.845Z" fill="#EBEBEB"/>
<path opacity="0.6" d="M310.234 166.642H460.69L461.28 159.445H310.824L310.234 166.642Z" fill="#EBEBEB"/>
<path d="M445.196 345.93H413.648V352.154H445.196V345.93Z" fill="#E6E6E6"/>
<path d="M354.148 417.586H359.969V274.458H354.148V417.586Z" fill="#E6E6E6"/>
<path d="M333.968 352.148H413.641V345.924H333.968V352.148Z" fill="#F5F5F5"/>
<path d="M445.196 379.961H413.648V386.185H445.196V379.961Z" fill="#E6E6E6"/>
<path d="M333.968 386.18H413.641V379.955H333.968V386.18Z" fill="#F5F5F5"/>
<path d="M445.196 277.859H413.648V284.084H445.196V277.859Z" fill="#E6E6E6"/>
<path d="M333.968 284.078H413.641V277.854H333.968V284.078Z" fill="#F5F5F5"/>
<path d="M445.196 311.891H413.648V318.115H445.196V311.891Z" fill="#E6E6E6"/>
<path d="M333.968 318.109H413.641V311.885H333.968V318.109Z" fill="#F5F5F5"/>
<path d="M433.828 417.586H439.648V274.458H433.828V417.586Z" fill="#E6E6E6"/>
<path d="M407.82 417.586H413.641V274.458H407.82V417.586Z" fill="#F5F5F5"/>
<path d="M333.969 417.586H339.789V274.458H333.969V417.586Z" fill="#F5F5F5"/>
<path d="M71.3947 417.586H130.996V301.954H71.3947L71.3947 417.586Z" fill="#E6E6E6"/>
<path d="M87.3042 417.582H71.3828V401.617H103.99L87.3042 417.582Z" fill="#FAFAFA"/>
<path d="M233.883 417.586H293.484V301.954H233.883V417.586Z" fill="#E6E6E6"/>
<path d="M71.3944 412.078H247.785V301.939H71.3944V412.078Z" fill="#FAFAFA"/>
<path d="M231.865 417.582H247.776V401.617H215.18L231.865 417.582Z" fill="#FAFAFA"/>
<path d="M83.7368 370.555H235.438V342.993H83.7368V370.555Z" fill="#F0F0F0"/>
<path d="M83.7368 404H235.438V376.438H83.7368V404Z" fill="#F0F0F0"/>
<path d="M206.607 345.938H112.575C111.249 345.938 109.977 345.411 109.039 344.473C108.101 343.535 107.574 342.263 107.574 340.936V340.598H211.598V340.936C211.598 342.261 211.072 343.531 210.137 344.469C209.201 345.406 207.932 345.935 206.607 345.938Z" fill="#FAFAFA"/>
<path d="M83.7368 337.094H235.438V309.532H83.7368V337.094Z" fill="#F0F0F0"/>
<path d="M206.607 312.477H112.575C111.249 312.477 109.977 311.95 109.039 311.012C108.101 310.074 107.574 308.802 107.574 307.475V307.137H211.598V307.475C211.598 308.8 211.072 310.07 210.137 311.008C209.201 311.945 207.932 312.474 206.607 312.477Z" fill="#FAFAFA"/>
<path d="M206.607 379.398H112.575C111.249 379.398 109.977 378.872 109.039 377.934C108.101 376.996 107.574 375.724 107.574 374.397V374.059H211.598V374.397C211.598 375.722 211.072 376.992 210.137 377.93C209.201 378.867 207.932 379.396 206.607 379.398Z" fill="#FAFAFA"/>
<path d="M80.8841 190.078L231.34 190.078V91.547L80.8841 91.547V190.078Z" fill="#E6E6E6"/>
<path d="M76.2974 190.078L229.199 190.078V91.547L76.2974 91.547V190.078Z" fill="#F0F0F0"/>
<path d="M80.8841 209.406L231.34 209.406V190.067L80.8841 190.067V209.406Z" fill="#E6E6E6"/>
<path d="M68.645 209.406L221.547 209.406V190.067L68.645 190.067V209.406Z" fill="#F0F0F0"/>
<path d="M222.766 183.655V97.9766L82.7166 97.9766V183.655H222.766Z" fill="#FAFAFA"/>
<path d="M191.189 183.644L173.302 97.9766H145.391L163.278 183.644H191.189Z" fill="white"/>
<path d="M219.787 177.259C219.848 177.259 219.909 177.247 219.965 177.223C220.021 177.199 220.072 177.164 220.115 177.121C220.158 177.077 220.191 177.025 220.214 176.968C220.236 176.911 220.247 176.85 220.246 176.789V102.162C220.247 102.101 220.236 102.041 220.214 101.985C220.191 101.928 220.157 101.877 220.115 101.834C220.072 101.791 220.02 101.758 219.964 101.735C219.908 101.713 219.848 101.702 219.787 101.703C219.665 101.703 219.549 101.752 219.463 101.838C219.377 101.924 219.328 102.04 219.328 102.162V176.789C219.327 176.85 219.338 176.911 219.36 176.968C219.382 177.025 219.416 177.077 219.459 177.121C219.501 177.164 219.552 177.199 219.609 177.223C219.665 177.247 219.726 177.259 219.787 177.259Z" fill="#F0F0F0"/>
<path d="M157.282 183.644L139.395 97.9766H128.508L146.395 183.644H157.282Z" fill="white"/>
<path d="M83.5391 183.655V97.9766H82.7201V183.655H83.5391Z" fill="#E6E6E6"/>
<path opacity="0.6" d="M74.7695 107.665H225.225L225.815 100.469H75.3592L74.7695 107.665Z" fill="#EBEBEB"/>
<path opacity="0.6" d="M74.7695 111.728H225.225L225.815 104.531H75.3592L74.7695 111.728Z" fill="#EBEBEB"/>
<path opacity="0.6" d="M74.7695 115.779H225.225L225.815 108.594H75.3592L74.7695 115.779Z" fill="#EBEBEB"/>
<path opacity="0.6" d="M74.7695 119.837H225.225L225.815 112.641H75.3592L74.7695 119.837Z" fill="#EBEBEB"/>
<path opacity="0.6" d="M74.7695 123.888H225.225L225.815 116.703H75.3592L74.7695 123.888Z" fill="#EBEBEB"/>
<path opacity="0.6" d="M74.7695 127.954H225.225L225.815 120.758H75.3592L74.7695 127.954Z" fill="#EBEBEB"/>
<path d="M104.853 298.414H110.051V240.44H104.853V298.414Z" fill="#F5F5F5"/>
<path d="M105.51 298.383H106.984V240.409H105.51V298.383Z" fill="#FAFAFA"/>
<path d="M107.593 298.383H108.172V240.409H107.593V298.383Z" fill="#FAFAFA"/>
<path d="M126.703 301.953H88.221C88.221 300.667 88.7319 299.434 89.6411 298.525C90.5504 297.615 91.7836 297.105 93.0695 297.105H121.844C123.13 297.105 124.363 297.615 125.272 298.525C126.181 299.434 126.692 300.667 126.692 301.953H126.703Z" fill="#F0F0F0"/>
<path d="M98.1046 276.43C98.5005 276.427 98.8794 276.268 99.1593 275.988C99.4393 275.708 99.5978 275.33 99.6007 274.934V236.965C99.6007 236.568 99.443 236.188 99.1625 235.907C98.8819 235.626 98.5014 235.469 98.1046 235.469C97.9072 235.467 97.7115 235.505 97.5288 235.58C97.346 235.654 97.1798 235.764 97.0397 235.903C96.8996 236.042 96.7884 236.208 96.7126 236.39C96.6367 236.572 96.5977 236.767 96.5977 236.965V274.977C96.6118 275.367 96.7768 275.737 97.0579 276.008C97.339 276.279 97.7142 276.43 98.1046 276.43Z" fill="#F0F0F0"/>
<path d="M84.1602 254.221H130.734L125.372 221.68H89.5219L84.1602 254.221Z" fill="#E0E0E0"/>
<path d="M273.001 466.895C389.935 466.895 484.729 461.36 484.729 454.533C484.729 447.706 389.935 442.172 273.001 442.172C156.067 442.172 61.2734 447.706 61.2734 454.533C61.2734 461.36 156.067 466.895 273.001 466.895Z" fill="#F5F5F5"/>
<path d="M113.699 220.976L112.609 221.055L114.06 241.194L115.149 241.115L113.699 220.976Z" fill="#00ADF0"/>
<path d="M115.89 251.515L114.801 251.594L115.347 259.174L116.436 259.096L115.89 251.515Z" fill="#00ADF0"/>
<path d="M368.778 344.156H134.915C132.312 344.11 129.819 343.101 127.915 341.324C126.012 339.548 124.833 337.13 124.607 334.536L113.119 174.962C113.012 173.731 113.164 172.492 113.566 171.323C113.967 170.155 114.608 169.084 115.449 168.179C116.289 167.273 117.31 166.554 118.445 166.067C119.581 165.581 120.806 165.337 122.041 165.352H355.903C358.505 165.399 360.997 166.406 362.9 168.18C364.804 169.954 365.983 172.37 366.212 174.962L377.7 334.536C377.807 335.767 377.654 337.007 377.253 338.176C376.852 339.345 376.211 340.417 375.37 341.323C374.53 342.229 373.509 342.949 372.374 343.437C371.239 343.925 370.014 344.17 368.778 344.156Z" fill="#00ADF0"/>
<path d="M369.677 344.156H135.814C133.211 344.11 130.717 343.101 128.813 341.324C126.91 339.548 125.732 337.13 125.505 334.536L114.018 174.962C113.911 173.731 114.063 172.492 114.464 171.323C114.865 170.155 115.507 169.084 116.347 168.179C117.188 167.273 118.209 166.554 119.344 166.067C120.479 165.581 121.704 165.337 122.939 165.352H356.802C359.403 165.399 361.896 166.406 363.799 168.18C365.702 169.954 366.882 172.37 367.11 174.962L378.598 334.536C378.707 335.767 378.556 337.008 378.155 338.178C377.755 339.347 377.113 340.42 376.273 341.326C375.432 342.233 374.411 342.953 373.275 343.44C372.138 343.928 370.913 344.172 369.677 344.156Z" fill="#00ADF0"/>
<path opacity="0.5" d="M369.677 344.156H135.814C133.211 344.11 130.717 343.101 128.813 341.324C126.91 339.548 125.732 337.13 125.505 334.536L114.018 174.962C113.911 173.731 114.063 172.492 114.464 171.323C114.865 170.155 115.507 169.084 116.347 168.179C117.188 167.273 118.209 166.554 119.344 166.067C120.479 165.581 121.704 165.337 122.939 165.352H356.802C359.403 165.399 361.896 166.406 363.799 168.18C365.702 169.954 366.882 172.37 367.11 174.962L378.598 334.536C378.707 335.767 378.556 337.008 378.155 338.178C377.755 339.347 377.113 340.42 376.273 341.326C375.432 342.233 374.411 342.953 373.275 343.44C372.138 343.928 370.913 344.172 369.677 344.156Z" fill="white"/>
<path d="M357.153 170.156H123.29H122.504C116.531 170.648 117.754 179.744 123.781 179.744H358.037C364.076 179.744 363.989 170.648 357.939 170.156H357.153Z" fill="#00ADF0"/>
<path d="M129.379 174.965C129.402 175.247 129.366 175.53 129.273 175.797C129.179 176.063 129.031 176.307 128.838 176.513C128.644 176.719 128.41 176.882 128.149 176.992C127.889 177.101 127.609 177.155 127.326 177.149C126.733 177.141 126.163 176.913 125.728 176.51C125.292 176.107 125.022 175.557 124.968 174.965C124.945 174.685 124.981 174.403 125.073 174.137C125.166 173.871 125.313 173.627 125.505 173.422C125.698 173.216 125.931 173.053 126.19 172.943C126.449 172.832 126.728 172.777 127.01 172.781C127.605 172.787 128.177 173.014 128.615 173.417C129.053 173.821 129.325 174.372 129.379 174.965Z" fill="#FAFAFA"/>
<path d="M136.883 174.965C136.906 175.247 136.87 175.53 136.777 175.797C136.683 176.063 136.535 176.307 136.342 176.513C136.148 176.719 135.914 176.882 135.653 176.992C135.393 177.101 135.113 177.155 134.83 177.149C134.237 177.141 133.667 176.913 133.232 176.51C132.796 176.107 132.525 175.557 132.472 174.965C132.449 174.685 132.485 174.403 132.577 174.137C132.67 173.871 132.817 173.627 133.009 173.422C133.202 173.216 133.435 173.053 133.694 172.943C133.953 172.832 134.232 172.777 134.514 172.781C135.109 172.787 135.681 173.014 136.119 173.417C136.557 173.821 136.829 174.372 136.883 174.965Z" fill="#FAFAFA"/>
<path d="M144.377 174.966C144.4 175.246 144.364 175.529 144.271 175.794C144.179 176.06 144.032 176.304 143.839 176.509C143.647 176.715 143.414 176.878 143.155 176.988C142.896 177.099 142.617 177.154 142.335 177.15C141.741 177.144 141.17 176.917 140.734 176.513C140.298 176.109 140.028 175.558 139.976 174.966C139.952 174.685 139.987 174.402 140.079 174.135C140.171 173.869 140.318 173.624 140.51 173.418C140.703 173.212 140.937 173.049 141.197 172.939C141.456 172.83 141.736 172.776 142.018 172.782C142.612 172.79 143.181 173.018 143.617 173.421C144.052 173.824 144.323 174.375 144.377 174.966Z" fill="#FAFAFA"/>
<path d="M363.562 328.213H139.866C138.921 328.197 138.016 327.831 137.326 327.185C136.635 326.54 136.21 325.66 136.131 324.719L126.686 193.493C126.644 193.043 126.698 192.588 126.845 192.161C126.992 191.733 127.228 191.341 127.538 191.012C127.848 190.683 128.224 190.423 128.642 190.25C129.06 190.077 129.51 189.995 129.962 190.009H353.712C354.656 190.022 355.562 190.386 356.252 191.03C356.943 191.674 357.369 192.552 357.447 193.493L366.904 324.719C366.945 325.175 366.888 325.634 366.736 326.066C366.585 326.499 366.343 326.894 366.027 327.225C365.71 327.555 365.326 327.815 364.901 327.985C364.476 328.156 364.02 328.233 363.562 328.213Z" fill="white"/>
<path d="M269.209 278.244L265.562 227.663L254.533 221.023H224.164L228.292 278.244H269.209Z" fill="white"/>
<path d="M269.211 278.764H228.294C228.159 278.767 228.027 278.718 227.927 278.626C227.828 278.535 227.767 278.408 227.759 278.273L223.642 221.052C223.637 220.98 223.647 220.908 223.671 220.841C223.696 220.773 223.734 220.711 223.784 220.659C223.832 220.605 223.891 220.562 223.957 220.532C224.023 220.502 224.094 220.486 224.166 220.484H254.535C254.63 220.488 254.724 220.514 254.808 220.561L265.837 227.2C265.911 227.243 265.974 227.303 266.019 227.375C266.065 227.447 266.092 227.53 266.099 227.615L269.724 278.197C269.732 278.27 269.723 278.345 269.699 278.414C269.674 278.484 269.634 278.548 269.582 278.601C269.535 278.652 269.477 278.693 269.414 278.721C269.35 278.749 269.281 278.764 269.211 278.764ZM228.807 277.672H268.632L265.051 227.932L254.436 221.544H224.734L228.807 277.672Z" fill="#00ADF0"/>
<path d="M265.564 227.663L254.535 221.023L258.586 229.825L265.564 227.663Z" fill="#EBEBEB"/>
<path d="M258.589 230.345C258.488 230.345 258.39 230.316 258.305 230.261C258.22 230.207 258.152 230.13 258.109 230.039L254.057 221.238C254.01 221.134 253.996 221.019 254.018 220.907C254.039 220.796 254.095 220.694 254.177 220.615C254.264 220.541 254.372 220.496 254.485 220.486C254.599 220.477 254.713 220.503 254.811 220.561L265.84 227.2C265.929 227.254 266.001 227.331 266.047 227.424C266.094 227.517 266.113 227.621 266.102 227.724C266.088 227.825 266.046 227.919 265.98 227.997C265.914 228.074 265.828 228.131 265.731 228.161L258.742 230.345H258.589ZM255.739 222.352L258.873 229.177L264.333 227.506L255.739 222.352Z" fill="#00ADF0"/>
<path d="M241.333 246.793C241.349 247.09 241.305 247.387 241.203 247.666C241.1 247.945 240.942 248.2 240.737 248.415C240.533 248.631 240.287 248.803 240.014 248.92C239.74 249.037 239.446 249.097 239.149 249.097C238.526 249.086 237.928 248.844 237.473 248.419C237.017 247.993 236.735 247.414 236.681 246.793C236.653 246.493 236.689 246.191 236.787 245.906C236.885 245.621 237.043 245.36 237.249 245.141C237.456 244.922 237.707 244.75 237.986 244.635C238.264 244.521 238.564 244.467 238.865 244.478C239.49 244.492 240.087 244.736 240.542 245.163C240.998 245.59 241.279 246.171 241.333 246.793Z" fill="#00ADF0"/>
<path d="M256.292 246.792C256.318 247.091 256.281 247.392 256.182 247.675C256.083 247.959 255.926 248.218 255.719 248.436C255.513 248.654 255.262 248.825 254.984 248.939C254.707 249.053 254.408 249.106 254.108 249.096C253.483 249.085 252.885 248.844 252.427 248.418C251.97 247.993 251.685 247.414 251.629 246.792C251.611 246.494 251.654 246.196 251.756 245.916C251.858 245.635 252.016 245.379 252.22 245.162C252.425 244.945 252.672 244.772 252.946 244.654C253.22 244.537 253.515 244.476 253.813 244.477C254.44 244.485 255.041 244.727 255.5 245.155C255.958 245.583 256.24 246.167 256.292 246.792Z" fill="#00ADF0"/>
<path d="M234.45 253.513C234.583 253.516 234.71 253.567 234.807 253.658C234.904 253.749 234.963 253.872 234.974 254.005C235.247 257.728 241.078 260.753 247.969 260.753C252.544 260.753 256.65 259.388 258.681 257.204C259.099 256.802 259.425 256.315 259.64 255.777C259.855 255.238 259.952 254.66 259.926 254.081C259.921 254.009 259.93 253.937 259.953 253.869C259.976 253.801 260.012 253.738 260.059 253.684C260.154 253.574 260.289 253.507 260.434 253.497C260.579 253.487 260.722 253.535 260.831 253.63C260.941 253.725 261.008 253.86 261.018 254.005C261.051 254.729 260.932 255.451 260.668 256.126C260.405 256.802 260.003 257.414 259.489 257.925C257.305 260.316 252.861 261.812 248.002 261.812C240.434 261.812 234.264 258.416 233.958 254.081C233.954 254.012 233.963 253.943 233.986 253.878C234.008 253.813 234.043 253.752 234.088 253.701C234.134 253.649 234.19 253.607 234.252 253.576C234.314 253.546 234.381 253.528 234.45 253.524V253.513Z" fill="#00ADF0"/>
<path d="M232.781 242.116C232.648 242.114 232.52 242.063 232.421 241.974C232.321 241.874 232.266 241.739 232.266 241.598C232.266 241.456 232.321 241.321 232.421 241.221L234.747 238.72C234.846 238.624 234.98 238.57 235.118 238.57C235.256 238.57 235.39 238.624 235.489 238.72C235.538 238.769 235.577 238.827 235.603 238.89C235.63 238.954 235.643 239.022 235.643 239.091C235.643 239.16 235.63 239.229 235.603 239.292C235.577 239.356 235.538 239.414 235.489 239.463L233.163 241.963C233.113 242.013 233.054 242.053 232.988 242.079C232.922 242.105 232.852 242.118 232.781 242.116Z" fill="#00ADF0"/>
<path d="M259.438 242.116C259.305 242.11 259.178 242.06 259.077 241.974L256.402 239.474C256.351 239.425 256.311 239.366 256.284 239.301C256.256 239.237 256.242 239.167 256.242 239.097C256.242 239.027 256.256 238.957 256.284 238.892C256.311 238.828 256.351 238.769 256.402 238.72C256.502 238.624 256.635 238.57 256.773 238.57C256.912 238.57 257.045 238.624 257.144 238.72L259.82 241.221C259.869 241.269 259.908 241.327 259.934 241.391C259.96 241.455 259.974 241.523 259.974 241.592C259.974 241.661 259.96 241.729 259.934 241.793C259.908 241.857 259.869 241.915 259.82 241.963C259.716 242.06 259.58 242.115 259.438 242.116Z" fill="#00ADF0"/>
<path d="M386.227 189.007C387.198 188.515 388.411 187.915 389.437 187.292C390.464 186.67 391.621 186.069 392.713 185.414C394.842 184.093 397.005 182.793 399.047 181.352C403.148 178.546 406.992 175.381 410.534 171.895C410.982 171.48 411.375 171.022 411.801 170.574L412.424 169.908L412.729 169.58L412.882 169.405C412.729 169.7 412.882 169.613 412.882 169.329C412.978 168.939 413.033 168.54 413.046 168.139C413.021 165.817 412.754 163.504 412.249 161.237C411.277 156.345 409.803 151.3 408.35 146.364L412.587 144.508C415.262 149.243 417.495 154.215 419.26 159.359C420.251 162.139 420.882 165.035 421.138 167.975C421.205 168.889 421.175 169.808 421.05 170.716C420.888 172 420.432 173.229 419.718 174.308L419.533 174.56L419.391 174.734L419.227 174.942L418.888 175.357L418.211 176.176C417.764 176.711 417.327 177.268 416.846 177.781C413.112 181.925 408.946 185.659 404.419 188.919C402.235 190.536 399.92 192.086 397.551 193.495C396.382 194.205 395.192 194.882 393.98 195.548C392.768 196.214 391.588 196.826 390.191 197.481L386.227 189.007Z" fill="#FFB573"/>
<path d="M376.513 445.734C377.331 445.714 378.143 445.604 378.937 445.407C378.977 445.394 379.014 445.372 379.042 445.341C379.071 445.31 379.091 445.273 379.101 445.232C379.106 445.19 379.1 445.147 379.083 445.109C379.065 445.07 379.038 445.037 379.003 445.013C378.686 444.806 375.912 443.015 374.842 443.496C374.724 443.551 374.622 443.637 374.547 443.744C374.472 443.851 374.427 443.977 374.416 444.107C374.374 444.313 374.384 444.527 374.447 444.727C374.51 444.928 374.624 445.109 374.777 445.254C375.278 445.618 375.895 445.789 376.513 445.734ZM378.315 445.101C376.731 445.418 375.53 445.363 375.039 444.937C374.94 444.836 374.869 444.713 374.831 444.577C374.792 444.442 374.789 444.299 374.82 444.162C374.824 444.104 374.844 444.048 374.876 444C374.909 443.952 374.954 443.914 375.006 443.889C375.585 443.638 377.19 444.446 378.315 445.101Z" fill="#00ADF0"/>
<path d="M378.922 445.407H379.031C379.063 445.387 379.09 445.36 379.109 445.327C379.128 445.295 379.138 445.258 379.14 445.221C379.14 445.101 379.14 442.469 378.135 441.596C378.015 441.479 377.87 441.393 377.711 441.341C377.552 441.29 377.383 441.276 377.218 441.301C377.046 441.302 376.879 441.362 376.746 441.472C376.613 441.581 376.521 441.733 376.487 441.901C376.279 442.993 377.939 444.904 378.812 445.407C378.848 445.417 378.886 445.417 378.922 445.407ZM377.36 441.705C377.538 441.705 377.709 441.771 377.841 441.89C378.417 442.74 378.714 443.747 378.692 444.773C377.819 444.074 376.781 442.589 376.912 441.967C376.912 441.869 376.989 441.737 377.262 441.705H377.36Z" fill="#00ADF0"/>
<path d="M378.071 161.695C376.979 167.155 374.795 178.075 378.563 181.734C378.563 181.734 377.077 187.194 366.998 187.194C355.903 187.194 361.702 181.734 361.702 181.734C367.752 180.292 367.588 175.804 366.54 171.578L378.071 161.695Z" fill="#FFB573"/>
<path d="M359.573 183.916C357.837 184.156 359.322 179.646 360.021 179.177C361.659 178.085 382.8 176.567 382.658 179.177C382.571 180.269 382.046 182.453 381.129 183.173C380.212 183.894 374.774 181.645 359.573 183.916Z" fill="#263238"/>
<path d="M363.026 182.363C361.639 182.832 361.77 178.29 362.24 177.744C363.332 176.477 380.443 172.087 380.946 174.566C381.142 175.658 381.24 177.842 380.651 178.617C380.061 179.393 375.038 178.115 363.026 182.363Z" fill="#263238"/>
<path d="M356.659 151.911C356.59 151.914 356.522 151.901 356.459 151.872C356.396 151.844 356.341 151.801 356.299 151.747C355.965 151.318 355.536 150.972 355.044 150.739C354.553 150.506 354.014 150.391 353.47 150.404C353.413 150.412 353.356 150.408 353.3 150.393C353.245 150.377 353.194 150.351 353.149 150.315C353.104 150.28 353.067 150.235 353.039 150.185C353.012 150.134 352.995 150.079 352.99 150.022C352.98 149.91 353.015 149.798 353.086 149.71C353.158 149.623 353.26 149.566 353.372 149.552C354.059 149.517 354.745 149.649 355.371 149.936C355.996 150.223 356.543 150.657 356.965 151.201C357.038 151.29 357.073 151.404 357.063 151.518C357.053 151.633 356.998 151.739 356.91 151.813C356.836 151.866 356.749 151.9 356.659 151.911Z" fill="#263238"/>
<path d="M354.539 157.25C354.044 158.992 353.309 160.657 352.355 162.197C352.756 162.427 353.202 162.567 353.662 162.606C354.123 162.646 354.586 162.585 355.02 162.426L354.539 157.25Z" fill="#FF5652"/>
<path d="M355.073 155.927C355.149 156.659 354.811 157.292 354.33 157.336C353.85 157.379 353.402 156.833 353.336 156.091C353.271 155.348 353.599 154.726 354.068 154.682C354.538 154.638 354.996 155.184 355.073 155.927Z" fill="#263238"/>
<path d="M354.289 154.706L352.477 154.367C352.477 154.367 353.514 155.656 354.289 154.706Z" fill="#263238"/>
<path d="M389.518 445.2H380.367L381.088 424.016H390.239L389.518 445.2Z" fill="#FFB573"/>
<path d="M379.644 444.141H389.92C390.097 444.137 390.27 444.198 390.405 444.312C390.54 444.427 390.628 444.588 390.652 444.763L391.82 452.888C391.843 453.093 391.823 453.301 391.76 453.498C391.696 453.695 391.592 453.876 391.454 454.03C391.316 454.184 391.147 454.306 390.957 454.39C390.768 454.474 390.564 454.516 390.357 454.515C386.775 454.46 385.05 454.242 380.529 454.242C377.744 454.242 373.682 454.537 369.849 454.537C366.016 454.537 365.798 450.737 367.403 450.398C374.567 448.847 375.702 446.729 378.116 444.698C378.545 444.341 379.086 444.144 379.644 444.141Z" fill="#263238"/>
<g opacity="0.2">
<path d="M390.237 424.016H381.086L380.715 434.936H389.866L390.237 424.016Z" fill="black"/>
</g>
<path d="M353.12 194.375C347.52 192.198 342.035 189.738 336.685 187.004C331.159 184.304 325.895 181.098 320.961 177.427C319.642 176.394 318.394 175.274 317.226 174.075C316.92 173.747 316.614 173.441 316.32 173.059C315.974 172.668 315.653 172.256 315.359 171.825C314.553 170.652 314.05 169.298 313.895 167.883C313.775 166.542 313.958 165.191 314.43 163.93C314.809 162.916 315.327 161.961 315.97 161.091C317.025 159.648 318.27 158.355 319.672 157.247C322.146 155.277 324.818 153.568 327.644 152.147C328.998 151.427 330.374 150.782 331.771 150.182C333.169 149.581 334.545 149.013 336.041 148.5L337.974 152.704C333.213 155.707 328.277 159.016 324.652 162.707C323.84 163.529 323.126 164.441 322.522 165.426C321.998 166.289 322.009 166.933 322.096 166.878C322.184 166.824 322.096 166.878 322.249 166.988L322.686 167.457C322.85 167.654 323.079 167.85 323.287 168.058C324.212 168.909 325.193 169.697 326.224 170.416C328.478 172.012 330.827 173.471 333.256 174.784C335.713 176.16 338.247 177.46 340.824 178.705C345.978 181.173 351.307 183.542 356.538 185.704L353.12 194.375Z" fill="#FFB573"/>
<path d="M340.701 149.772L342.208 146.496L335.306 144.148C335.306 144.148 333.122 150.602 335.711 153.572C336.792 153.402 337.814 152.966 338.686 152.302C339.557 151.639 340.249 150.77 340.701 149.772Z" fill="#FFB573"/>
<path d="M342.177 139.407L336.685 137.812L335.309 144.102L342.177 146.494V139.407Z" fill="#FFB573"/>
<path d="M413.158 146.808L413.955 139.164L406.879 140.868C406.879 140.868 406.77 148.053 410.516 149.189L413.158 146.808Z" fill="#FFB573"/>
<path d="M410.549 133.781L405.93 135.932L406.88 140.814L413.956 139.143L410.549 133.781Z" fill="#FFB573"/>
<path d="M379.514 150.97C379.853 160.044 380.18 163.877 376.085 168.955C369.915 176.599 358.701 175.016 355.665 166.225C352.935 158.319 352.848 144.811 361.321 140.356C363.184 139.365 365.27 138.867 367.379 138.909C369.489 138.95 371.553 139.53 373.375 140.594C375.198 141.657 376.718 143.168 377.793 144.984C378.867 146.8 379.46 148.861 379.514 150.97Z" fill="#FFB573"/>
<path d="M375.559 168.942C384.469 165.088 390.322 156.93 387.854 144.285C385.485 132.153 377.295 130.952 373.91 133.463C370.524 135.975 362.083 132.229 357.016 136.488C348.28 143.881 356.536 151.776 360.86 156.548C363.437 161.855 366.823 172.71 375.559 168.942Z" fill="#263238"/>
<path d="M371.858 142.118C372.945 143.513 374.417 144.558 376.091 145.126C377.766 145.694 379.569 145.759 381.28 145.313C382.991 144.867 384.534 143.93 385.719 142.617C386.903 141.305 387.677 139.674 387.946 137.926C388.214 136.179 387.965 134.391 387.228 132.783C386.492 131.176 385.302 129.819 383.803 128.881C382.305 127.942 380.564 127.463 378.797 127.502C377.029 127.542 375.312 128.098 373.856 129.102C371.866 130.563 370.537 132.755 370.163 135.196C369.788 137.637 370.398 140.127 371.858 142.118Z" fill="#00ADF0"/>
<path d="M374.172 134.318C372.894 127.002 379.807 121.367 389.067 124.086C398.327 126.805 393.435 135.006 391.524 141.558C389.613 148.11 394.614 154.357 396.689 149.366C398.764 144.376 395.269 142.814 395.269 142.814C395.269 142.814 405.097 145.359 395.968 156.442C386.839 167.526 378.573 155.285 380.811 148.067C382.624 142.268 375.384 141.231 374.172 134.318Z" fill="#263238"/>
<path d="M364.925 137.084C360.699 134.9 353.546 133.098 349.473 139.956C347.551 143.232 348.293 147.6 348.293 147.6L360.731 148.419L364.925 137.084Z" fill="#263238"/>
<path d="M346.833 145.433C346.759 145.427 346.691 145.394 346.642 145.339C346.593 145.284 346.568 145.212 346.571 145.138C346.571 144.953 346.887 140.563 349.541 137.811C355.951 131.15 363.464 136.719 365.604 138.521C365.65 138.569 365.677 138.633 365.679 138.7C365.681 138.767 365.658 138.833 365.615 138.884C365.571 138.935 365.511 138.969 365.444 138.979C365.378 138.988 365.311 138.973 365.255 138.936C363.191 137.167 356.005 131.87 349.967 138.182C347.455 140.792 347.149 145.127 347.149 145.171C347.148 145.21 347.139 145.248 347.122 145.283C347.105 145.318 347.08 145.349 347.05 145.374C347.02 145.399 346.986 145.417 346.948 145.427C346.91 145.437 346.871 145.439 346.833 145.433Z" fill="#263238"/>
<path d="M362.383 156.16C362.334 157.878 361.698 159.528 360.581 160.834C359.074 162.603 357.305 161.73 356.945 159.742C356.584 157.984 356.945 154.937 358.845 153.878C360.745 152.819 362.405 154.173 362.383 156.16Z" fill="#FFB573"/>
<path d="M360.414 239.281C360.414 239.281 361.004 302.781 366.507 338.162C370.963 366.74 379.186 432.827 379.186 432.827H391.667C391.667 432.827 392.879 369.022 390.575 340.761C384.864 269.235 399.617 255.858 387.714 239.281H360.414Z" fill="#263238"/>
<path opacity="0.1" d="M360.414 239.281C360.414 239.281 361.004 302.781 366.507 338.162C370.963 366.74 379.186 432.827 379.186 432.827H391.667C391.667 432.827 392.879 369.022 390.575 340.761C384.864 269.235 399.617 255.858 387.714 239.281H360.414Z" fill="white"/>
<path opacity="0.3" d="M366.975 268.092C371.343 287.256 367.859 317.439 365.468 330.729C362.934 310.549 361.657 284.395 361.023 265.209C363.284 261.561 365.424 261.321 366.975 268.092Z" fill="black"/>
<path d="M377.482 433.067H393.37L394.2 427.498L377.395 426.93L377.482 433.067Z" fill="#00ADF0"/>
<path d="M382.016 185.639C383.512 182.669 391.549 180.802 395.939 180.813L399.215 195.402C399.215 195.402 390.479 208.386 386.832 207.01C382.54 205.426 378.816 192.049 382.016 185.639Z" fill="#00ADF0"/>
<path opacity="0.4" d="M382.016 185.639C383.512 182.669 391.549 180.802 395.939 180.813L399.215 195.402C399.215 195.402 390.479 208.386 386.832 207.01C382.54 205.426 378.816 192.049 382.016 185.639Z" fill="black"/>
<path d="M372.754 429.494C372.772 429.463 372.782 429.427 372.782 429.39C372.782 429.354 372.772 429.318 372.754 429.287C372.733 429.245 372.7 429.211 372.659 429.189C372.618 429.167 372.571 429.16 372.525 429.167C372.066 429.243 368.026 429.876 367.48 431.034C367.421 431.139 367.391 431.258 367.391 431.378C367.391 431.498 367.421 431.617 367.48 431.722C367.573 431.894 367.708 432.042 367.872 432.15C368.035 432.259 368.223 432.325 368.419 432.344C369.74 432.475 371.695 430.641 372.677 429.527L372.754 429.494ZM367.905 431.176C368.277 430.564 370.373 429.996 371.968 429.702C370.526 431.165 369.26 431.984 368.517 431.886C368.389 431.873 368.265 431.828 368.159 431.756C368.052 431.683 367.965 431.585 367.905 431.471C367.881 431.429 367.869 431.382 367.869 431.334C367.869 431.286 367.881 431.239 367.905 431.198C367.905 431.198 367.895 431.187 367.905 431.176Z" fill="#00ADF0"/>
<path d="M372.751 429.497C372.769 429.466 372.779 429.43 372.779 429.393C372.779 429.357 372.769 429.321 372.751 429.29C372.686 429.213 371.07 427.346 369.574 427.248C369.358 427.23 369.141 427.256 368.936 427.326C368.731 427.395 368.543 427.506 368.383 427.652C367.936 428.056 367.979 428.405 368.088 428.624C368.558 429.563 371.463 429.89 372.631 429.639C372.661 429.627 372.688 429.608 372.709 429.583C372.73 429.559 372.744 429.529 372.751 429.497ZM368.482 428.121C368.529 428.047 368.588 427.981 368.656 427.925C368.77 427.816 368.906 427.734 369.055 427.683C369.204 427.632 369.362 427.614 369.519 427.63C370.535 427.88 371.447 428.441 372.129 429.235C370.829 429.344 368.733 428.951 368.449 428.383C368.431 428.341 368.424 428.294 368.43 428.248C368.435 428.202 368.453 428.158 368.482 428.121Z" fill="#00ADF0"/>
<path d="M382.288 425.623L373.923 429.346L370.199 421.582L365.329 411.427L364.75 410.247L373.115 406.523L373.759 407.856L378.476 417.695L382.288 425.623Z" fill="#FFB573"/>
<path opacity="0.2" d="M378.476 417.69L370.198 421.578L365.328 411.422L373.758 407.852L378.476 417.69Z" fill="black"/>
<path d="M350.608 239.281C350.608 239.281 323.887 305.762 331.127 336.993C337.679 365.265 366.617 418.806 366.617 418.806L377.832 413.193C377.832 413.193 359.934 348.558 358.001 334.515C354.223 307.215 378.498 268.634 378.498 239.281H350.608Z" fill="#263238"/>
<path opacity="0.1" d="M350.608 239.281C350.608 239.281 323.887 305.762 331.127 336.993C337.679 365.265 366.617 418.806 366.617 418.806L377.832 413.193C377.832 413.193 359.934 348.558 358.001 334.515C354.223 307.215 378.498 268.634 378.498 239.281H350.608Z" fill="white"/>
<path d="M372.439 428.176L380.738 422.137C380.878 422.028 381.053 421.974 381.231 421.986C381.408 421.998 381.575 422.075 381.699 422.203L387.432 428.089C387.571 428.242 387.676 428.424 387.74 428.621C387.805 428.818 387.827 429.026 387.805 429.232C387.783 429.438 387.718 429.637 387.615 429.817C387.511 429.996 387.37 430.151 387.202 430.273C384.265 432.326 382.747 433.178 379.1 435.831C376.85 437.469 372.373 441.084 369.272 443.344C366.171 445.604 363.812 442.656 364.904 441.444C369.796 435.984 370.822 432.599 371.587 429.53C371.705 428.994 372.006 428.515 372.439 428.176Z" fill="#263238"/>
<path d="M365.895 421.172L380.343 414.566L378.497 408.68L363.023 415.734L365.895 421.172Z" fill="#00ADF0"/>
<path d="M357.695 184.941C356.505 181.84 346.065 178.389 340.824 177.297L338.52 194.463C338.52 194.463 347.081 206.759 350.826 205.743C355.26 204.542 360.272 191.591 357.695 184.941Z" fill="#00ADF0"/>
<path opacity="0.4" d="M357.695 184.941C356.505 181.84 346.065 178.389 340.824 177.297L338.52 194.463C338.52 194.463 347.081 206.759 350.826 205.743C355.26 204.542 360.272 191.591 357.695 184.941Z" fill="black"/>
<path d="M346.24 184.081C346.24 184.081 341.872 185.61 350.608 239.281H387.736C387.114 224.168 387.092 214.843 394.288 183.808C389.086 182.734 383.812 182.041 378.509 181.733C372.896 181.329 367.261 181.329 361.649 181.733C354.452 182.366 346.24 184.081 346.24 184.081Z" fill="#00ADF0"/>
<path opacity="0.4" d="M346.24 184.081C346.24 184.081 341.872 185.61 350.608 239.281H387.736C387.114 224.168 387.092 214.843 394.288 183.808C389.086 182.734 383.812 182.041 378.509 181.733C372.896 181.329 367.261 181.329 361.649 181.733C354.452 182.366 346.24 184.081 346.24 184.081Z" fill="black"/>
<path d="M388.317 237.105L389.988 240.381C390.119 240.643 389.813 240.905 389.388 240.905H350.425C350.086 240.905 349.813 240.741 349.792 240.523L349.453 237.247C349.453 237.017 349.726 236.821 350.086 236.821H387.662C387.787 236.801 387.915 236.817 388.031 236.867C388.147 236.918 388.246 237 388.317 237.105Z" fill="#00ADF0"/>
<path opacity="0.3" d="M388.317 237.105L389.988 240.381C390.119 240.643 389.813 240.905 389.388 240.905H350.425C350.086 240.905 349.813 240.741 349.792 240.523L349.453 237.247C349.453 237.017 349.726 236.821 350.086 236.821H387.662C387.787 236.801 387.915 236.817 388.031 236.867C388.147 236.918 388.246 237 388.317 237.105Z" fill="white"/>
<path d="M383.293 241.334H384.298C384.505 241.334 384.658 241.225 384.636 241.105L384.167 236.737C384.167 236.606 383.981 236.508 383.784 236.508H382.769C382.572 236.508 382.419 236.606 382.43 236.737L382.9 241.105C382.889 241.203 383.064 241.334 383.293 241.334Z" fill="#263238"/>
<path d="M358.844 241.334H359.848C360.045 241.334 360.198 241.225 360.187 241.105L359.717 236.737C359.717 236.606 359.532 236.508 359.324 236.508H358.32C358.112 236.508 357.97 236.606 357.981 236.737L358.451 241.105C358.462 241.203 358.636 241.334 358.844 241.334Z" fill="#263238"/>
</svg>
