
<svg width="32" height="33" viewBox="0 0 32 33" fill="none" xmlns="http://www.w3.org/2000/svg">
<path opacity="0.5" d="M16.0001 9.16669C12.6801 9.16669 10.6667 11.86 10.6667 15.1667V23.1667H21.3334V15.1667C21.3334 11.86 19.3201 9.16669 16.0001 9.16669Z" fill="#606060"/>
<path d="M15.9999 29.8333C17.4666 29.8333 18.6666 28.6333 18.6666 27.1666H13.3333C13.3333 28.6333 14.5333 29.8333 15.9999 29.8333ZM23.9999 21.8333V15.1666C23.9999 11.0733 21.8266 7.64665 17.9999 6.73998V5.83331C17.9999 4.72665 17.1066 3.83331 15.9999 3.83331C14.8933 3.83331 13.9999 4.72665 13.9999 5.83331V6.73998C10.1866 7.64665 7.99992 11.06 7.99992 15.1666V21.8333L5.33325 24.5V25.8333H26.6666V24.5L23.9999 21.8333ZM21.3333 23.1666H10.6666V15.1666C10.6666 11.86 12.6799 9.16665 15.9999 9.16665C19.3199 9.16665 21.3333 11.86 21.3333 15.1666V23.1666Z" fill="#333333"/>
</svg>
