<svg width="22" height="27" viewBox="0 0 22 27" fill="none" xmlns="http://www.w3.org/2000/svg">
<path d="M10.9999 26.8333C12.4666 26.8333 13.6666 25.6333 13.6666 24.1666H8.33325C8.33325 25.6333 9.53325 26.8333 10.9999 26.8333ZM18.9999 18.8333V12.1666C18.9999 8.07331 16.8266 4.64665 12.9999 3.73998V2.83331C12.9999 1.72665 12.1066 0.833313 10.9999 0.833313C9.89325 0.833313 8.99992 1.72665 8.99992 2.83331V3.73998C5.18659 4.64665 2.99992 8.05998 2.99992 12.1666V18.8333L0.333252 21.5V22.8333H21.6666V21.5L18.9999 18.8333ZM16.3333 20.1666H5.66659V12.1666C5.66659 8.85998 7.67992 6.16665 10.9999 6.16665C14.3199 6.16665 16.3333 8.85998 16.3333 12.1666V20.1666Z" fill="#333333"/>
</svg>
