<svg width="19" height="14" viewBox="0 0 19 14" fill="none" xmlns="http://www.w3.org/2000/svg">
<path fill-rule="evenodd" clip-rule="evenodd" d="M9.54419 1.21289C5.63221 1.21289 2.23816 3.42814 0.544189 6.67261C2.23816 9.91707 5.63221 12.1323 9.54419 12.1323C13.4562 12.1323 16.8502 9.91707 18.5442 6.67261C16.8502 3.42814 13.4562 1.21289 9.54419 1.21289ZM12.6769 6.67262C12.6769 8.3478 11.3189 9.7058 9.64372 9.7058C7.96854 9.7058 6.61054 8.3478 6.61054 6.67262C6.61054 4.99744 7.96854 3.63944 9.64372 3.63944C11.3189 3.63944 12.6769 4.99744 12.6769 6.67262ZM11.4636 6.67262C11.4636 7.67773 10.6488 8.49253 9.64372 8.49253C8.63861 8.49253 7.82381 7.67773 7.82381 6.67262C7.82381 5.66751 8.63861 4.85271 9.64372 4.85271C10.6488 4.85271 11.4636 5.66751 11.4636 6.67262Z" fill="#C5C5C5"/>
<path d="M4.2445 1.27235L15.3973 12.4252L14.125 13.6975L2.97215 2.5447L4.2445 1.27235Z" fill="white"/>
<path d="M5.51685 0L16.6697 11.1528L15.3973 12.4252L4.2445 1.27235L5.51685 0Z" fill="#C4C4C4"/>
</svg>
