<svg width="19" height="13" viewBox="0 0 19 13" fill="none" xmlns="http://www.w3.org/2000/svg">
<path fill-rule="evenodd" clip-rule="evenodd" d="M9.6106 1C5.66975 1 2.25066 3.23159 0.544189 6.5C2.25066 9.76841 5.66975 12 9.6106 12C13.5514 12 16.9705 9.76841 18.677 6.5C16.9705 3.23159 13.5514 1 9.6106 1ZM12.7664 6.5C12.7664 8.18754 11.3984 9.55556 9.71086 9.55556C8.02332 9.55556 6.6553 8.18754 6.6553 6.5C6.6553 4.81246 8.02332 3.44444 9.71086 3.44444C11.3984 3.44444 12.7664 4.81246 12.7664 6.5ZM11.5442 6.5C11.5442 7.51252 10.7234 8.33333 9.71086 8.33333C8.69833 8.33333 7.87752 7.51252 7.87752 6.5C7.87752 5.48748 8.69833 4.66667 9.71086 4.66667C10.7234 4.66667 11.5442 5.48748 11.5442 6.5Z" fill="#C5C5C5"/>
</svg>
