<svg width="24" height="24" viewBox="0 0 24 24" fill="none" xmlns="http://www.w3.org/2000/svg">
<g id="Printer">
<path id="Vector" d="M18.9646 7.33333H17.7857V4.66667C17.7857 4.48986 17.718 4.32029 17.5974 4.19526C17.4769 4.07024 17.3134 4 17.1429 4H6.85714C6.68665 4 6.52313 4.07024 6.40257 4.19526C6.28202 4.32029 6.21429 4.48986 6.21429 4.66667V7.33333H5.03545C3.91286 7.33333 3 8.23083 3 9.33333V16C3 16.1768 3.06773 16.3464 3.18829 16.4714C3.30885 16.5964 3.47236 16.6667 3.64286 16.6667H6.21429V19.3333C6.21429 19.5101 6.28202 19.6797 6.40257 19.8047C6.52313 19.9298 6.68665 20 6.85714 20H17.1429C17.3134 20 17.4769 19.9298 17.5974 19.8047C17.718 19.6797 17.7857 19.5101 17.7857 19.3333V16.6667H20.3571C20.5276 16.6667 20.6912 16.5964 20.8117 16.4714C20.9323 16.3464 21 16.1768 21 16V9.33333C21 8.23083 20.0871 7.33333 18.9646 7.33333ZM7.5 5.33333H16.5V7.33333H7.5V5.33333ZM16.5 18.6667H7.5V14.6667H16.5V18.6667ZM19.7143 15.3333H17.7857V14C17.7857 13.8232 17.718 13.6536 17.5974 13.5286C17.4769 13.4036 17.3134 13.3333 17.1429 13.3333H6.85714C6.68665 13.3333 6.52313 13.4036 6.40257 13.5286C6.28202 13.6536 6.21429 13.8232 6.21429 14V15.3333H4.28571V9.33333C4.28571 8.96583 4.62241 8.66667 5.03545 8.66667H18.9646C19.3776 8.66667 19.7143 8.96583 19.7143 9.33333V15.3333ZM17.7857 11C17.7857 11.1978 17.7292 11.3911 17.6232 11.5556C17.5172 11.72 17.3666 11.8482 17.1904 11.9239C17.0142 11.9996 16.8204 12.0194 16.6333 11.9808C16.4463 11.9422 16.2744 11.847 16.1396 11.7071C16.0047 11.5673 15.9129 11.3891 15.8757 11.1951C15.8385 11.0011 15.8576 10.8 15.9305 10.6173C16.0035 10.4346 16.1271 10.2784 16.2857 10.1685C16.4443 10.0586 16.6307 10 16.8214 10C17.0772 10 17.3224 10.1054 17.5033 10.2929C17.6841 10.4804 17.7857 10.7348 17.7857 11Z" fill="#BDBDBD"/>
</g>
</svg>
