<svg width="207" height="23" viewBox="0 0 207 23" fill="none" xmlns="http://www.w3.org/2000/svg">
<path d="M0.150051 22V0.916998H15.5781C16.6027 0.916998 17.5307 1.033 18.3621 1.265C19.2127 1.497 19.9377 1.845 20.5371 2.309C21.1364 2.75367 21.6004 3.324 21.9291 4.02C22.2577 4.69667 22.4221 5.47967 22.4221 6.369C22.4221 7.04567 22.3447 7.63533 22.1901 8.138C22.0354 8.64067 21.8227 9.07567 21.5521 9.443C21.2814 9.791 20.9624 10.0907 20.5951 10.342C20.2471 10.574 19.8797 10.748 19.4931 10.864C20.4597 11.1733 21.2524 11.734 21.8711 12.546C22.4897 13.358 22.7991 14.3827 22.7991 15.62C22.7991 16.5867 22.6347 17.4663 22.3061 18.259C21.9967 19.0323 21.5424 19.6993 20.9431 20.26C20.3631 20.8207 19.6477 21.2557 18.7971 21.565C17.9657 21.855 17.0377 22 16.0131 22H0.150051ZM6.50105 12.836V9.733H15.6071C16.6511 9.733 17.4244 9.53967 17.9271 9.153C18.4297 8.76633 18.6811 8.109 18.6811 7.181C18.6811 6.62033 18.5747 6.17567 18.3621 5.847C18.1494 5.499 17.8401 5.238 17.4341 5.064C17.0474 4.87067 16.5737 4.745 16.0131 4.687C15.4717 4.629 14.8627 4.6 14.1861 4.6H3.83305V18.346H14.5051C15.1624 18.346 15.7714 18.2977 16.3321 18.201C16.8927 18.1043 17.3761 17.9497 17.7821 17.737C18.1881 17.505 18.4974 17.215 18.7101 16.867C18.9421 16.519 19.0581 16.084 19.0581 15.562C19.0581 14.692 18.7874 14.025 18.2461 13.561C17.7047 13.0777 16.9121 12.836 15.8681 12.836H6.50105ZM44.8572 0.916998H48.4532V12.691C48.4532 14.315 48.2405 15.736 47.8152 16.954C47.3898 18.1527 46.7228 19.1483 45.8142 19.941C44.9055 20.7337 43.7262 21.3233 42.2762 21.71C40.8455 22.0967 39.1055 22.29 37.0562 22.29C35.0262 22.29 33.2862 22.0967 31.8362 21.71C30.4055 21.3233 29.2358 20.7337 28.3272 19.941C27.4185 19.1483 26.7515 18.1527 26.3262 16.954C25.9008 15.736 25.6882 14.315 25.6882 12.691V0.916998H29.4872V12.691C29.4872 13.7543 29.6128 14.663 29.8642 15.417C30.1348 16.171 30.5602 16.7897 31.1402 17.273C31.7395 17.7563 32.5322 18.114 33.5182 18.346C34.5042 18.5587 35.7222 18.665 37.1722 18.665C38.6222 18.665 39.8402 18.5587 40.8262 18.346C41.8122 18.114 42.5952 17.7563 43.1752 17.273C43.7745 16.7897 44.1998 16.171 44.4512 15.417C44.7218 14.663 44.8572 13.7543 44.8572 12.691V0.916998ZM51.9817 22V0.916998H55.6647V22H51.9817ZM59.5101 22V0.916998H63.1931V18.317H77.3741V22H59.5101ZM80.014 22V0.916998H92.223C93.7117 0.916998 95.0843 1.16833 96.341 1.671C97.5977 2.17367 98.6803 2.87933 99.589 3.788C100.498 4.69667 101.203 5.789 101.706 7.065C102.228 8.32167 102.489 9.71367 102.489 11.241C102.489 12.7683 102.228 14.1893 101.706 15.504C101.203 16.8187 100.498 17.9593 99.589 18.926C98.6803 19.8733 97.5977 20.6273 96.341 21.188C95.0843 21.7293 93.7117 22 92.223 22H80.014ZM92.223 18.317C93.1703 18.317 94.0403 18.143 94.833 17.795C95.645 17.447 96.341 16.9733 96.921 16.374C97.5203 15.7553 97.9843 15.0207 98.313 14.17C98.6417 13.3193 98.806 12.401 98.806 11.415C98.806 10.429 98.6417 9.52033 98.313 8.689C97.9843 7.83833 97.5203 7.11333 96.921 6.514C96.341 5.91467 95.645 5.45067 94.833 5.122C94.0403 4.774 93.1703 4.6 92.223 4.6H83.668V18.317H92.223Z" fill="#FF6F00"/>
<path d="M105.502 22V0.916998H123.395V4.6H109.156V22H105.502ZM111.853 13.271V10.052H122.525V13.271H111.853ZM125.95 22V0.916998H129.633V18.317H143.814V22H125.95ZM156.081 22C154.612 22 153.249 21.7293 151.992 21.188C150.755 20.6273 149.672 19.8733 148.744 18.926C147.836 17.9593 147.12 16.8187 146.598 15.504C146.096 14.1893 145.844 12.7683 145.844 11.241C145.844 9.69433 146.096 8.283 146.598 7.007C147.12 5.731 147.836 4.64833 148.744 3.759C149.672 2.85033 150.755 2.15433 151.992 1.671C153.249 1.16833 154.612 0.916998 156.081 0.916998H161.214C162.742 0.916998 164.134 1.16833 165.39 1.671C166.666 2.17367 167.759 2.87933 168.667 3.788C169.576 4.69667 170.282 5.789 170.784 7.065C171.287 8.32167 171.538 9.71367 171.538 11.241C171.538 12.7683 171.277 14.1893 170.755 15.504C170.253 16.8187 169.537 17.9593 168.609 18.926C167.701 19.8733 166.618 20.6273 165.361 21.188C164.105 21.7293 162.722 22 161.214 22H156.081ZM161.214 18.317C162.181 18.317 163.07 18.143 163.882 17.795C164.694 17.447 165.39 16.9733 165.97 16.374C166.57 15.7553 167.034 15.0207 167.362 14.17C167.691 13.3193 167.855 12.401 167.855 11.415C167.855 10.429 167.691 9.52033 167.362 8.689C167.034 7.83833 166.57 7.11333 165.97 6.514C165.39 5.91467 164.694 5.45067 163.882 5.122C163.07 4.774 162.181 4.6 161.214 4.6H156.081C155.134 4.6 154.254 4.774 153.442 5.122C152.65 5.45067 151.963 5.91467 151.383 6.514C150.803 7.11333 150.349 7.82867 150.02 8.66C149.692 9.49133 149.527 10.4097 149.527 11.415C149.527 12.401 149.692 13.3193 150.02 14.17C150.349 15.0207 150.803 15.7553 151.383 16.374C151.963 16.9733 152.65 17.447 153.442 17.795C154.254 18.143 155.134 18.317 156.081 18.317H161.214ZM188.274 14.953L184.997 21.13C184.785 21.5167 184.514 21.8067 184.185 22C183.857 22.1933 183.499 22.29 183.112 22.29C182.262 22.29 181.624 21.9033 181.198 21.13L170.294 0.916998H174.702L183.228 17.128L186.418 11.386L180.937 0.916998H185.374L193.523 17.128L202.107 0.916998H206.225L195.321 21.13C195.109 21.5167 194.828 21.8067 194.48 22C194.152 22.1933 193.794 22.29 193.407 22.29C193.021 22.29 192.663 22.1933 192.334 22C192.006 21.8067 191.735 21.5167 191.522 21.13L188.274 14.953Z" fill="#333333"/>
</svg>
