<svg width="40" height="40" viewBox="0 0 40 40" fill="none" xmlns="http://www.w3.org/2000/svg">
<g id="Icons">
<path id="Vector" d="M10 12.5007V12.0007C10 10.1338 10 9.19969 10.3633 8.48665C10.6829 7.85945 11.1925 7.34988 11.8197 7.0303C12.5327 6.66699 13.4668 6.66699 15.3337 6.66699H29.667C31.5338 6.66699 32.466 6.66699 33.179 7.0303C33.8062 7.34988 34.3175 7.85945 34.637 8.48665C35 9.199 35 10.132 35 11.9952V23.0055C35 24.8687 35 25.8003 34.637 26.5126C34.3175 27.1399 33.8065 27.6511 33.1793 27.9707C32.467 28.3337 31.535 28.3337 29.6718 28.3337H17.5M5 28.0007V18.6673C5 16.8005 5 15.8664 5.36331 15.1533C5.68289 14.5261 6.19245 14.0165 6.81966 13.697C7.5327 13.3337 8.46682 13.3337 10.3337 13.3337H11.3337C13.2005 13.3337 14.1326 13.3337 14.8457 13.697C15.4729 14.0165 15.9841 14.5261 16.3037 15.1533C16.6667 15.8657 16.6667 16.7987 16.6667 18.6618V28.0055C16.6667 29.8687 16.6667 30.8003 16.3037 31.5126C15.9841 32.1399 15.4729 32.6511 14.8457 32.9707C14.1333 33.3337 13.2017 33.3337 11.3385 33.3337H10.3282C8.46499 33.3337 7.532 33.3337 6.81966 32.9707C6.19245 32.6511 5.68289 32.1399 5.36331 31.5126C5 30.7996 5 29.8675 5 28.0007Z" stroke="#082B45" stroke-width="2.5" stroke-linecap="round" stroke-linejoin="round"/>
</g>
</svg>
