<svg width="160" height="14" viewBox="0 0 160 14" fill="none" xmlns="http://www.w3.org/2000/svg">
<path d="M6.14566 13C5.28433 13 4.48533 12.8413 3.74866 12.524C3.02333 12.1953 2.38866 11.7533 1.84466 11.198C1.312 10.6313 0.892664 9.96267 0.586664 9.192C0.291997 8.42133 0.144664 7.58833 0.144664 6.693C0.144664 5.78633 0.291997 4.959 0.586664 4.211C0.892664 3.463 1.312 2.82833 1.84466 2.307C2.38866 1.77433 3.02333 1.36633 3.74866 1.083C4.48533 0.788332 5.28433 0.640999 6.14566 0.640999H12.8437V2.8H6.14566C5.59033 2.8 5.07466 2.902 4.59866 3.106C4.134 3.29867 3.73166 3.57067 3.39166 3.922C3.05166 4.27333 2.78533 4.69267 2.59266 5.18C2.4 5.66733 2.30366 6.20567 2.30366 6.795C2.30366 7.373 2.4 7.91133 2.59266 8.41C2.78533 8.90867 3.05166 9.33933 3.39166 9.702C3.73166 10.0533 4.134 10.331 4.59866 10.535C5.07466 10.739 5.59033 10.841 6.14566 10.841H12.8437V13H6.14566ZM26.0714 13L22.9434 9.566H18.3194V7.662H23.4704C24.2524 7.662 24.8417 7.45233 25.2384 7.033C25.6351 6.60233 25.8334 5.98467 25.8334 5.18C25.8334 4.37533 25.6237 3.78033 25.2044 3.395C24.7964 2.99833 24.2184 2.8 23.4704 2.8H16.7384V13H14.5964V0.640999H23.4704C24.1731 0.640999 24.8021 0.748666 25.3574 0.964C25.9127 1.168 26.3831 1.46833 26.7684 1.865C27.1537 2.25033 27.4484 2.72067 27.6524 3.276C27.8564 3.83133 27.9584 4.45467 27.9584 5.146C27.9584 6.17733 27.7317 7.04433 27.2784 7.747C26.8364 8.43833 26.2131 8.937 25.4084 9.243L29.1314 13H26.0714ZM30.2517 13V0.640999H41.2847V2.8H32.3937V10.841H41.3017V13H30.2517ZM33.9747 7.628V5.809H40.8257V7.628H33.9747ZM43.1511 13V10.841H52.4161C52.9941 10.841 53.4361 10.6937 53.7421 10.399C54.0594 10.1043 54.2181 9.71333 54.2181 9.226C54.2181 8.69333 54.0594 8.29667 53.7421 8.036C53.4361 7.764 52.9941 7.628 52.4161 7.628H46.7381C46.1601 7.628 45.6331 7.543 45.1571 7.373C44.6924 7.19167 44.2957 6.948 43.9671 6.642C43.6497 6.32467 43.4004 5.95067 43.2191 5.52C43.0491 5.08933 42.9641 4.619 42.9641 4.109C42.9641 3.61033 43.0434 3.15133 43.2021 2.732C43.3721 2.30133 43.6157 1.933 43.9331 1.627C44.2617 1.321 44.6641 1.083 45.1401 0.913C45.6161 0.731666 46.1601 0.640999 46.7721 0.640999H55.6461V2.8H46.7721C46.2734 2.8 45.8881 2.936 45.6161 3.208C45.3441 3.46867 45.2081 3.837 45.2081 4.313C45.2081 4.789 45.3441 5.15733 45.6161 5.418C45.8994 5.67867 46.2791 5.809 46.7551 5.809H52.4161C53.6741 5.809 54.6261 6.10367 55.2721 6.693C55.9294 7.28233 56.2581 8.17767 56.2581 9.379C56.2581 9.90033 56.1787 10.382 56.0201 10.824C55.8614 11.266 55.6234 11.6513 55.3061 11.98C54.9887 12.2973 54.5864 12.5467 54.0991 12.728C53.6231 12.9093 53.0621 13 52.4161 13H43.1511ZM62.0701 13V2.8H57.3781V0.640999H68.9211V2.8H64.2291V13H62.0701Z" fill="#FF6F00"/>
<path d="M70.3274 13V0.640999H79.3714C79.9721 0.640999 80.5161 0.708999 81.0034 0.844999C81.5021 0.981 81.9271 1.185 82.2784 1.457C82.6298 1.71767 82.9018 2.052 83.0944 2.46C83.2871 2.85667 83.3834 3.31567 83.3834 3.837C83.3834 4.23367 83.3381 4.57933 83.2474 4.874C83.1568 5.16867 83.0321 5.42367 82.8734 5.639C82.7148 5.843 82.5278 6.01867 82.3124 6.166C82.1084 6.302 81.8931 6.404 81.6664 6.472C82.2331 6.65333 82.6978 6.982 83.0604 7.458C83.4231 7.934 83.6044 8.53467 83.6044 9.26C83.6044 9.82667 83.5081 10.3423 83.3154 10.807C83.1341 11.2603 82.8678 11.6513 82.5164 11.98C82.1764 12.3087 81.7571 12.5637 81.2584 12.745C80.7711 12.915 80.2271 13 79.6264 13H70.3274ZM74.0504 7.628V5.809H79.3884C80.0004 5.809 80.4538 5.69567 80.7484 5.469C81.0431 5.24233 81.1904 4.857 81.1904 4.313C81.1904 3.98433 81.1281 3.72367 81.0034 3.531C80.8788 3.327 80.6974 3.174 80.4594 3.072C80.2328 2.95867 79.9551 2.885 79.6264 2.851C79.3091 2.817 78.9521 2.8 78.5554 2.8H72.4864V10.858H78.7424C79.1278 10.858 79.4848 10.8297 79.8134 10.773C80.1421 10.7163 80.4254 10.6257 80.6634 10.501C80.9014 10.365 81.0828 10.195 81.2074 9.991C81.3434 9.787 81.4114 9.532 81.4114 9.226C81.4114 8.716 81.2528 8.325 80.9354 8.053C80.6181 7.76967 80.1534 7.628 79.5414 7.628H74.0504ZM96.5351 0.640999H98.6431V7.543C98.6431 8.495 98.5184 9.328 98.2691 10.042C98.0197 10.7447 97.6287 11.3283 97.0961 11.793C96.5634 12.2577 95.8721 12.6033 95.0221 12.83C94.1834 13.0567 93.1634 13.17 91.9621 13.17C90.7721 13.17 89.7521 13.0567 88.9021 12.83C88.0634 12.6033 87.3777 12.2577 86.8451 11.793C86.3124 11.3283 85.9214 10.7447 85.6721 10.042C85.4227 9.328 85.2981 8.495 85.2981 7.543V0.640999H87.5251V7.543C87.5251 8.16633 87.5987 8.699 87.7461 9.141C87.9047 9.583 88.1541 9.94567 88.4941 10.229C88.8454 10.5123 89.3101 10.722 89.8881 10.858C90.4661 10.9827 91.1801 11.045 92.0301 11.045C92.8801 11.045 93.5941 10.9827 94.1721 10.858C94.7501 10.722 95.2091 10.5123 95.5491 10.229C95.9004 9.94567 96.1497 9.583 96.2971 9.141C96.4557 8.699 96.5351 8.16633 96.5351 7.543V0.640999ZM100.711 13V0.640999H102.87V13H100.711ZM105.125 13V0.640999H107.284V10.841H115.597V13H105.125ZM117.144 13V0.640999H124.301C125.174 0.640999 125.979 0.788332 126.715 1.083C127.452 1.37767 128.087 1.79133 128.619 2.324C129.152 2.85667 129.566 3.497 129.86 4.245C130.166 4.98167 130.319 5.79767 130.319 6.693C130.319 7.58833 130.166 8.42133 129.86 9.192C129.566 9.96267 129.152 10.6313 128.619 11.198C128.087 11.7533 127.452 12.1953 126.715 12.524C125.979 12.8413 125.174 13 124.301 13H117.144ZM124.301 10.841C124.857 10.841 125.367 10.739 125.831 10.535C126.307 10.331 126.715 10.0533 127.055 9.702C127.407 9.33933 127.679 8.90867 127.871 8.41C128.064 7.91133 128.16 7.373 128.16 6.795C128.16 6.217 128.064 5.68433 127.871 5.197C127.679 4.69833 127.407 4.27333 127.055 3.922C126.715 3.57067 126.307 3.29867 125.831 3.106C125.367 2.902 124.857 2.8 124.301 2.8H119.286V10.841H124.301ZM132.086 13V0.640999H143.119V2.8H134.228V10.841H143.136V13H132.086ZM135.809 7.628V5.809H142.66V7.628H135.809ZM156.46 13L153.332 9.566H148.708V7.662H153.859C154.641 7.662 155.23 7.45233 155.627 7.033C156.024 6.60233 156.222 5.98467 156.222 5.18C156.222 4.37533 156.012 3.78033 155.593 3.395C155.185 2.99833 154.607 2.8 153.859 2.8H147.127V13H144.985V0.640999H153.859C154.562 0.640999 155.191 0.748666 155.746 0.964C156.301 1.168 156.772 1.46833 157.157 1.865C157.542 2.25033 157.837 2.72067 158.041 3.276C158.245 3.83133 158.347 4.45467 158.347 5.146C158.347 6.17733 158.12 7.04433 157.667 7.747C157.225 8.43833 156.602 8.937 155.797 9.243L159.52 13H156.46Z" fill="#333333"/>
</svg>
