<svg width="25" height="25" viewBox="0 0 25 25" fill="none" xmlns="http://www.w3.org/2000/svg">
<path fill-rule="evenodd" clip-rule="evenodd" d="M17.7501 11C17.7501 11.8865 17.5755 12.7642 17.2363 13.5831C16.8971 14.4021 16.3999 15.1462 15.7731 15.773C15.1463 16.3998 14.4021 16.897 13.5832 17.2362C12.7643 17.5754 11.8865 17.75 11.0001 17.75C10.1137 17.75 9.23592 17.5754 8.41698 17.2362C7.59803 16.897 6.85391 16.3998 6.22712 15.773C5.60032 15.1462 5.10312 14.4021 4.7639 13.5831C4.42468 12.7642 4.25009 11.8865 4.25009 11C4.25009 9.20982 4.96125 7.49293 6.22712 6.22706C7.49299 4.96119 9.20988 4.25003 11.0001 4.25003C12.7903 4.25003 14.5072 4.96119 15.7731 6.22706C17.0389 7.49293 17.7501 9.20982 17.7501 11ZM16.5201 18.11C14.7117 19.514 12.4361 20.176 10.1568 19.9612C7.87744 19.7465 5.76561 18.6711 4.25121 16.9541C2.73682 15.2371 1.93372 13.0075 2.00539 10.7192C2.07707 8.43083 3.01814 6.25584 4.63702 4.63696C6.2559 3.01808 8.43089 2.07701 10.7192 2.00533C13.0075 1.93366 15.2372 2.73676 16.9542 4.25115C18.6712 5.76555 19.7466 7.87738 19.9613 10.1567C20.176 12.4361 19.5141 14.7116 18.1101 16.52L22.2951 20.705C22.4056 20.808 22.4943 20.9322 22.5558 21.0702C22.6172 21.2082 22.6503 21.3572 22.653 21.5082C22.6556 21.6593 22.6279 21.8093 22.5713 21.9494C22.5147 22.0895 22.4305 22.2168 22.3236 22.3236C22.2168 22.4304 22.0896 22.5146 21.9495 22.5712C21.8094 22.6278 21.6594 22.6556 21.5083 22.6529C21.3573 22.6502 21.2083 22.6172 21.0703 22.5557C20.9323 22.4942 20.8081 22.4056 20.7051 22.295L16.5201 18.11Z" fill="#606060"/>
</svg>
