<svg width="18" height="19" viewBox="0 0 18 19" fill="none" xmlns="http://www.w3.org/2000/svg">
<path d="M16.8754 6.7046C16.8472 7.68381 16.4445 8.61492 15.7504 9.30616L13.307 11.7509C12.9512 12.1087 12.5279 12.3924 12.0616 12.5855C11.5954 12.7786 11.0955 12.8773 10.5909 12.8759H10.5874C10.0741 12.8756 9.56612 12.7723 9.09343 12.5724C8.62073 12.3724 8.19291 12.0797 7.83523 11.7116C7.47755 11.3435 7.19727 10.9075 7.01094 10.4292C6.82462 9.95097 6.73603 9.44023 6.7504 8.92718C6.7546 8.778 6.81788 8.63659 6.92634 8.53407C7.0348 8.43154 7.17954 8.37631 7.32872 8.3805C7.47791 8.3847 7.61931 8.44798 7.72184 8.55644C7.82436 8.6649 7.8796 8.80964 7.8754 8.95882C7.86516 9.32158 7.92773 9.68272 8.05943 10.0209C8.19112 10.359 8.38927 10.6674 8.64215 10.9277C8.89503 11.188 9.19753 11.3949 9.53175 11.5363C9.86598 11.6777 10.2252 11.7507 10.5881 11.7509C10.9448 11.7518 11.2982 11.682 11.6278 11.5455C11.9574 11.409 12.2566 11.2086 12.5083 10.9557L14.9517 8.51234C15.4558 8.00187 15.7374 7.3127 15.7352 6.59527C15.733 5.87785 15.447 5.19045 14.9397 4.68315C14.4324 4.17585 13.745 3.88986 13.0275 3.88761C12.3101 3.88537 11.6209 4.16705 11.1105 4.67116L10.337 5.4446C10.2307 5.54564 10.0891 5.60113 9.94241 5.59926C9.79573 5.59738 9.65559 5.53828 9.55186 5.43455C9.44813 5.33082 9.38903 5.19068 9.38715 5.044C9.38528 4.89732 9.44077 4.75572 9.54181 4.64937L10.3152 3.87593C10.6721 3.51897 11.0957 3.23581 11.562 3.04262C12.0283 2.84943 12.5281 2.75 13.0328 2.75C13.5375 2.75 14.0373 2.84943 14.5036 3.04262C14.9699 3.23581 15.3936 3.51897 15.7504 3.87593C16.12 4.24645 16.4103 4.6883 16.6037 5.17459C16.7972 5.66089 16.8896 6.18145 16.8754 6.7046ZM7.66446 13.5551L6.89103 14.3286C6.63876 14.5825 6.33853 14.7838 6.00779 14.9207C5.67706 15.0576 5.32241 15.1273 4.96446 15.1259C4.42749 15.1255 3.90269 14.9659 3.45638 14.6673C3.01006 14.3688 2.66226 13.9446 2.45692 13.4484C2.25158 12.9523 2.19791 12.4064 2.30269 11.8797C2.40748 11.3531 2.66601 10.8693 3.04564 10.4895L5.48478 8.04616C5.86895 7.65996 6.36038 7.39819 6.89524 7.29487C7.43009 7.19154 7.98366 7.25142 8.48405 7.46674C8.98443 7.68206 9.40851 8.04286 9.70122 8.50229C9.99392 8.96171 10.1417 9.49854 10.1254 10.043C10.1212 10.1922 10.1764 10.337 10.279 10.4454C10.3815 10.5539 10.5229 10.6172 10.6721 10.6214C10.8213 10.6256 10.966 10.5703 11.0745 10.4678C11.1829 10.3653 11.2462 10.2239 11.2504 10.0747C11.2639 9.55235 11.1712 9.03272 10.9778 8.54732C10.7844 8.06192 10.4944 7.62087 10.1254 7.25093C9.40483 6.53067 8.4277 6.12605 7.40888 6.12605C6.39005 6.12605 5.41293 6.53067 4.69235 7.25093L2.2504 9.69429C1.71338 10.2311 1.34753 10.915 1.1991 11.6597C1.05066 12.4044 1.1263 13.1763 1.41646 13.878C1.70662 14.5797 2.19827 15.1796 2.82928 15.602C3.46029 16.0244 4.20234 16.2502 4.96165 16.2509C5.4664 16.2524 5.96643 16.1537 6.43279 15.9606C6.89914 15.7675 7.32256 15.4838 7.67853 15.1259L8.45196 14.3525C8.54299 14.2453 8.59055 14.1078 8.58526 13.9673C8.57996 13.8267 8.5222 13.6932 8.42337 13.5932C8.32453 13.4931 8.19178 13.4337 8.05131 13.4267C7.91083 13.4196 7.77281 13.4655 7.66446 13.5551Z" fill="#00ADF0"/>
</svg>
