<svg width="102" height="102" viewBox="0 0 102 102" fill="none" xmlns="http://www.w3.org/2000/svg">
<path d="M51 0.625C41.0368 0.625 31.2973 3.57944 23.0132 9.11472C14.729 14.65 8.27236 22.5175 4.45959 31.7223C0.646827 40.9271 -0.350766 51.0559 1.59296 60.8277C3.53669 70.5995 8.33445 79.5754 15.3795 86.6205C22.4246 93.6656 31.4006 98.4633 41.1723 100.407C50.9441 102.351 61.0729 101.353 70.2777 97.5404C79.4825 93.7277 87.35 87.271 92.8853 78.9868C98.4206 70.7027 101.375 60.9632 101.375 51C101.361 37.644 96.049 24.8392 86.6049 15.3951C77.1609 5.95098 64.356 0.639104 51 0.625ZM73.1166 42.1166L45.9916 69.2416C45.6317 69.6018 45.2043 69.8877 44.7339 70.0827C44.2635 70.2777 43.7593 70.378 43.25 70.378C42.7408 70.378 42.2365 70.2777 41.7661 70.0827C41.2957 69.8877 40.8683 69.6018 40.5085 69.2416L28.8835 57.6166C28.1564 56.8895 27.7479 55.9033 27.7479 54.875C27.7479 53.8467 28.1564 52.8605 28.8835 52.1334C29.6106 51.4063 30.5967 50.9978 31.625 50.9978C32.6533 50.9978 33.6395 51.4063 34.3666 52.1334L43.25 61.0217L67.6335 36.6334C67.9935 36.2734 68.4209 35.9878 68.8913 35.793C69.3617 35.5981 69.8659 35.4978 70.375 35.4978C70.8842 35.4978 71.3884 35.5981 71.8587 35.793C72.3291 35.9878 72.7566 36.2734 73.1166 36.6334C73.4766 36.9935 73.7622 37.4209 73.957 37.8913C74.1519 38.3617 74.2522 38.8658 74.2522 39.375C74.2522 39.8842 74.1519 40.3883 73.957 40.8587C73.7622 41.3291 73.4766 41.7565 73.1166 42.1166Z" fill="#00ADF0"/>
</svg>
