<svg width="24" height="25" viewBox="0 0 24 25" fill="none" xmlns="http://www.w3.org/2000/svg">
<g clip-path="url(#clip0_3517_14969)">
<path fill-rule="evenodd" clip-rule="evenodd" d="M11.9999 0.5C18.6274 0.5 24 5.87242 24 12.4997C24 19.1272 18.6274 24.4996 11.9999 24.4996C5.37261 24.4998 0 19.1272 0 12.4997C0 5.87242 5.37261 0.5 11.9999 0.5ZM6.66127 13.7183L6.65834 13.7155C6.50503 13.5753 6.4226 13.3864 6.41303 13.1942C6.40346 13.0024 6.46674 12.8065 6.60522 12.6519C6.60717 12.6497 6.60893 12.6478 6.61088 12.6458C6.75092 12.4927 6.93979 12.4101 7.13197 12.4005C7.32514 12.3909 7.5222 12.4552 7.67728 12.5954L10.2077 14.8899L16.2798 8.53079C16.4243 8.37923 16.6163 8.30033 16.8108 8.29564C17.0045 8.29076 17.2003 8.3599 17.352 8.50404C17.5038 8.64837 17.5825 8.84095 17.5874 9.03509C17.5922 9.22903 17.5229 9.42512 17.3788 9.57668L10.7966 16.4704C10.7921 16.4751 10.7872 16.4796 10.7823 16.4835C10.6427 16.6231 10.4603 16.6973 10.2749 16.7042C10.0847 16.7114 9.89152 16.6469 9.73898 16.5089L6.66362 13.7202L6.66127 13.7183Z" fill="white"/>
</g>
<defs>
<clipPath id="clip0_3517_14969">
<rect width="24" height="23.9998" fill="white" transform="translate(0 0.5)"/>
</clipPath>
</defs>
</svg>
