<svg width="52" height="52" viewBox="0 0 52 52" fill="none" xmlns="http://www.w3.org/2000/svg">
<path d="M41.9989 30.0004V39.3334C41.9989 40.0406 41.718 40.7189 41.2179 41.219C40.7178 41.7191 40.0396 42 39.3324 42H12.6666C11.9594 42 11.2811 41.7191 10.781 41.219C10.2809 40.7189 10 40.0406 10 39.3334V30.0004C10 29.6468 10.1405 29.3077 10.3905 29.0576C10.6406 28.8076 10.9797 28.6671 11.3333 28.6671C11.6869 28.6671 12.026 28.8076 12.2761 29.0576C12.5261 29.3077 12.6666 29.6468 12.6666 30.0004V39.3334H39.3324V30.0004C39.3324 29.6468 39.4728 29.3077 39.7229 29.0576C39.9729 28.8076 40.312 28.6671 40.6657 28.6671C41.0193 28.6671 41.3584 28.8076 41.6084 29.0576C41.8585 29.3077 41.9989 29.6468 41.9989 30.0004ZM20.2763 18.9441L24.6662 14.5526V30.0004C24.6662 30.354 24.8067 30.6931 25.0567 30.9432C25.3067 31.1932 25.6459 31.3337 25.9995 31.3337C26.3531 31.3337 26.6922 31.1932 26.9423 30.9432C27.1923 30.6931 27.3328 30.354 27.3328 30.0004V14.5526L31.7226 18.9441C31.9728 19.1943 32.3121 19.3348 32.6659 19.3348C33.0197 19.3348 33.359 19.1943 33.6092 18.9441C33.8594 18.6939 34 18.3546 34 18.0008C34 17.647 33.8594 17.3077 33.6092 17.0575L26.9428 10.391C26.819 10.2671 26.6719 10.1687 26.51 10.1016C26.3482 10.0345 26.1747 10 25.9995 10C25.8243 10 25.6508 10.0345 25.4889 10.1016C25.327 10.1687 25.18 10.2671 25.0562 10.391L18.3897 17.0575C18.1395 17.3077 17.999 17.647 17.999 18.0008C17.999 18.3546 18.1395 18.6939 18.3897 18.9441C18.6399 19.1943 18.9792 19.3348 19.333 19.3348C19.6868 19.3348 20.0261 19.1943 20.2763 18.9441Z" fill="#00ADF0"/>
</svg>
