<svg width="24" height="24" viewBox="0 0 24 24" fill="none" xmlns="http://www.w3.org/2000/svg">
<g clip-path="url(#clip0_24020_387493)">
<path d="M21.5934 13.225C21.3144 13.0102 20.9895 12.8628 20.6442 12.794C20.2988 12.7252 19.9422 12.737 19.6022 12.8284L15.6797 13.7303C15.7709 13.3448 15.7738 12.9436 15.6879 12.5569C15.6021 12.1701 15.4298 11.8078 15.1841 11.4971C14.9383 11.1864 14.6254 10.9353 14.2688 10.7627C13.9122 10.5902 13.5212 10.5005 13.125 10.5006H8.43188C8.03775 10.4996 7.64733 10.5767 7.28319 10.7275C6.91904 10.8783 6.58838 11.0997 6.31031 11.379L4.18969 13.5006H1.5C1.10218 13.5006 0.720644 13.6586 0.43934 13.9399C0.158035 14.2212 0 14.6028 0 15.0006L0 18.7506C0 19.1484 0.158035 19.5299 0.43934 19.8112C0.720644 20.0926 1.10218 20.2506 1.5 20.2506H11.25C11.3113 20.2506 11.3724 20.2431 11.4319 20.2281L17.4319 18.7281C17.4704 18.7188 17.508 18.7063 17.5444 18.6906L21.1875 17.14L21.2288 17.1212C21.579 16.9462 21.8789 16.6849 22.1002 16.362C22.3215 16.039 22.457 15.6651 22.4939 15.2753C22.5307 14.8855 22.4678 14.4928 22.3109 14.1341C22.154 13.7754 21.9084 13.4625 21.5972 13.225H21.5934ZM20.5716 15.7703L17.0091 17.2872L11.1562 18.7506H5.25V14.5609L7.37156 12.4403C7.51035 12.3004 7.67555 12.1895 7.85758 12.114C8.03961 12.0385 8.23482 12 8.43188 12.0006H13.125C13.4234 12.0006 13.7095 12.1191 13.9205 12.3301C14.1315 12.5411 14.25 12.8272 14.25 13.1256C14.25 13.424 14.1315 13.7101 13.9205 13.9211C13.7095 14.1321 13.4234 14.2506 13.125 14.2506H10.5C10.3011 14.2506 10.1103 14.3296 9.96967 14.4703C9.82902 14.6109 9.75 14.8017 9.75 15.0006C9.75 15.1995 9.82902 15.3903 9.96967 15.5309C10.1103 15.6716 10.3011 15.7506 10.5 15.7506H13.5C13.5565 15.7504 13.6127 15.7441 13.6678 15.7318L19.9491 14.2872L19.9781 14.2797C20.1699 14.2264 20.3745 14.246 20.5527 14.3346C20.7309 14.4232 20.87 14.5745 20.9433 14.7595C21.0167 14.9445 21.0189 15.1501 20.9498 15.3367C20.8806 15.5233 20.7449 15.6777 20.5687 15.7703H20.5716ZM14.4694 5.78122C14.3996 5.71156 14.3443 5.62884 14.3066 5.5378C14.2688 5.44675 14.2494 5.34915 14.2494 5.25059C14.2494 5.15203 14.2688 5.05443 14.3066 4.96338C14.3443 4.87234 14.3996 4.78962 14.4694 4.71996L17.4694 1.71997C17.539 1.65023 17.6217 1.59491 17.7128 1.55717C17.8038 1.51943 17.9014 1.5 18 1.5C18.0986 1.5 18.1962 1.51943 18.2872 1.55717C18.3783 1.59491 18.461 1.65023 18.5306 1.71997L21.5306 4.71996C21.6003 4.78965 21.6556 4.87237 21.6933 4.96342C21.731 5.05446 21.7504 5.15204 21.7504 5.25059C21.7504 5.34914 21.731 5.44672 21.6933 5.53776C21.6556 5.62881 21.6003 5.71153 21.5306 5.78122C21.4609 5.8509 21.3782 5.90617 21.2872 5.94388C21.1961 5.9816 21.0985 6.00101 21 6.00101C20.9015 6.00101 20.8039 5.9816 20.7128 5.94388C20.6218 5.90617 20.5391 5.8509 20.4694 5.78122L18.75 4.0609V9.75059C18.75 9.9495 18.671 10.1403 18.5303 10.2809C18.3897 10.4216 18.1989 10.5006 18 10.5006C17.8011 10.5006 17.6103 10.4216 17.4697 10.2809C17.329 10.1403 17.25 9.9495 17.25 9.75059V4.0609L15.5306 5.78122C15.461 5.85095 15.3783 5.90627 15.2872 5.94401C15.1962 5.98175 15.0986 6.00118 15 6.00118C14.9014 6.00118 14.8038 5.98175 14.7128 5.94401C14.6217 5.90627 14.539 5.85095 14.4694 5.78122Z" fill="#00ADF0"/>
</g>
<defs>
<clipPath id="clip0_24020_387493">
<rect width="24" height="24" fill="white"/>
</clipPath>
</defs>
</svg>
