<svg width="40" height="40" viewBox="0 0 40 40" fill="none" xmlns="http://www.w3.org/2000/svg">
<path d="M35.9891 22.0416C35.5239 21.6837 34.9825 21.4379 34.4069 21.3233C33.8313 21.2087 33.2371 21.2283 32.6703 21.3807L26.1328 22.8838C26.2849 22.2413 26.2896 21.5727 26.1466 20.9281C26.0035 20.2835 25.7164 19.6797 25.3068 19.1618C24.8972 18.644 24.3756 18.2255 23.7813 17.9379C23.187 17.6503 22.5353 17.5009 21.875 17.501H14.0531C13.3962 17.4993 12.7456 17.6279 12.1386 17.8792C11.5317 18.1305 10.9806 18.4995 10.5172 18.965L6.98281 22.501H2.5C1.83696 22.501 1.20107 22.7644 0.732233 23.2332C0.263392 23.7021 0 24.3379 0 25.001L0 31.251C0 31.914 0.263392 32.5499 0.732233 33.0187C1.20107 33.4876 1.83696 33.751 2.5 33.751H18.75C18.8522 33.751 18.954 33.7384 19.0531 33.7135L29.0531 31.2135C29.1173 31.1981 29.18 31.1772 29.2406 31.151L35.3125 28.5666L35.3812 28.5354C35.965 28.2437 36.4648 27.8082 36.8337 27.27C37.2026 26.7317 37.4284 26.1085 37.4898 25.4588C37.5512 24.8092 37.4463 24.1547 37.1848 23.5568C36.9233 22.959 36.514 22.4375 35.9953 22.0416H35.9891ZM34.2859 26.2838L28.3484 28.8119L18.5938 31.251H8.75V24.2682L12.2859 20.7338C12.5172 20.5006 12.7926 20.3158 13.096 20.19C13.3993 20.0642 13.7247 19.9999 14.0531 20.001H21.875C22.3723 20.001 22.8492 20.1985 23.2008 20.5502C23.5525 20.9018 23.75 21.3787 23.75 21.876C23.75 22.3733 23.5525 22.8502 23.2008 23.2018C22.8492 23.5534 22.3723 23.751 21.875 23.751H17.5C17.1685 23.751 16.8505 23.8827 16.6161 24.1171C16.3817 24.3515 16.25 24.6695 16.25 25.001C16.25 25.3325 16.3817 25.6504 16.6161 25.8849C16.8505 26.1193 17.1685 26.251 17.5 26.251H22.5C22.5941 26.2507 22.6879 26.2402 22.7797 26.2197L33.2484 23.8119L33.2969 23.7994C33.6165 23.7107 33.9576 23.7433 34.2545 23.891C34.5515 24.0386 34.7834 24.2909 34.9056 24.5992C35.0278 24.9076 35.0316 25.2502 34.9163 25.5612C34.8011 25.8722 34.5749 26.1296 34.2812 26.2838H34.2859ZM24.1156 9.63536C23.9994 9.51927 23.9072 9.38141 23.8443 9.22966C23.7814 9.07791 23.749 8.91525 23.749 8.75098C23.749 8.58671 23.7814 8.42406 23.8443 8.27231C23.9072 8.12056 23.9994 7.9827 24.1156 7.86661L29.1156 2.86661C29.2317 2.75039 29.3696 2.65819 29.5213 2.59528C29.6731 2.53238 29.8357 2.5 30 2.5C30.1643 2.5 30.3269 2.53238 30.4787 2.59528C30.6304 2.65819 30.7683 2.75039 30.8844 2.86661L35.8844 7.86661C36.0005 7.98275 36.0926 8.12062 36.1555 8.27236C36.2183 8.4241 36.2507 8.58674 36.2507 8.75098C36.2507 8.91523 36.2183 9.07786 36.1555 9.2296C36.0926 9.38135 36.0005 9.51922 35.8844 9.63536C35.7682 9.7515 35.6304 9.84362 35.4786 9.90648C35.3269 9.96933 35.1642 10.0017 35 10.0017C34.8358 10.0017 34.6731 9.96933 34.5214 9.90648C34.3696 9.84362 34.2318 9.7515 34.1156 9.63536L31.25 6.76817V16.251C31.25 16.5825 31.1183 16.9004 30.8839 17.1349C30.6495 17.3693 30.3315 17.501 30 17.501C29.6685 17.501 29.3505 17.3693 29.1161 17.1349C28.8817 16.9004 28.75 16.5825 28.75 16.251V6.76817L25.8844 9.63536C25.7683 9.75158 25.6304 9.84378 25.4787 9.90668C25.3269 9.96959 25.1643 10.002 25 10.002C24.8357 10.002 24.6731 9.96959 24.5213 9.90668C24.3696 9.84378 24.2317 9.75158 24.1156 9.63536Z" fill="#082B45"/>
</svg>
