<svg width="18" height="18" viewBox="0 0 18 18" fill="none" xmlns="http://www.w3.org/2000/svg">
<g clip-path="url(#clip0_23337_40310)">
<path d="M17.8358 9.39409L16.1483 11.0816C16.096 11.1339 16.034 11.1754 15.9657 11.2037C15.8974 11.232 15.8242 11.2466 15.7503 11.2466C15.6764 11.2466 15.6032 11.232 15.5349 11.2037C15.4666 11.1754 15.4046 11.1339 15.3523 11.0816L13.6648 9.39409C13.5593 9.28855 13.5 9.14539 13.5 8.99613C13.5 8.84686 13.5593 8.7037 13.6648 8.59816C13.7704 8.49261 13.9135 8.43331 14.0628 8.43331C14.2121 8.43331 14.3552 8.49261 14.4608 8.59816L15.1878 9.32589V8.99613C15.1885 7.68594 14.7732 6.40938 14.0019 5.35032C13.2305 4.29126 12.1429 3.50438 10.8957 3.10303C9.64852 2.70169 8.30612 2.7066 7.06189 3.11705C5.81767 3.5275 4.73584 4.32231 3.97227 5.38698C3.88518 5.5082 3.75351 5.58985 3.60622 5.61398C3.45893 5.63811 3.30809 5.60274 3.18688 5.51566C3.06566 5.42857 2.98401 5.2969 2.95988 5.14961C2.93575 5.00232 2.97112 4.85148 3.0582 4.73027C3.96066 3.47204 5.23921 2.53275 6.70969 2.04772C8.18017 1.56268 9.76665 1.55694 11.2406 2.03131C12.7145 2.50569 13.9999 3.43569 14.9114 4.68736C15.8229 5.93902 16.3136 7.44772 16.3128 8.99613V9.32589L17.0398 8.59816C17.1454 8.49261 17.2885 8.43331 17.4378 8.43331C17.5871 8.43331 17.7302 8.49261 17.8358 8.59816C17.9413 8.7037 18.0006 8.84686 18.0006 8.99613C18.0006 9.14539 17.9413 9.28855 17.8358 9.39409ZM14.9403 13.2613C14.0376 14.5186 12.7592 15.457 11.2892 15.9415C9.81922 16.4259 8.2334 16.4315 6.76004 15.9573C5.28668 15.4831 4.00178 14.5537 3.09029 13.3027C2.17881 12.0518 1.68775 10.5439 1.68781 8.99613V8.66636L0.960782 9.39409C0.855234 9.49964 0.71208 9.55894 0.562813 9.55894C0.413546 9.55894 0.270392 9.49964 0.164844 9.39409C0.0592962 9.28855 0 9.14539 0 8.99613C0 8.84686 0.0592962 8.7037 0.164844 8.59816L1.85234 6.91066C1.90459 6.85836 1.96662 6.81687 2.03491 6.78856C2.1032 6.76025 2.17639 6.74568 2.25031 6.74568C2.32423 6.74568 2.39743 6.76025 2.46572 6.78856C2.534 6.81687 2.59604 6.85836 2.64828 6.91066L4.33578 8.59816C4.44133 8.7037 4.50063 8.84686 4.50063 8.99613C4.50063 9.14539 4.44133 9.28855 4.33578 9.39409C4.23023 9.49964 4.08708 9.55894 3.93781 9.55894C3.78855 9.55894 3.64539 9.49964 3.53984 9.39409L2.81281 8.66636V8.99613C2.81148 10.5108 3.36818 11.9729 4.37656 13.1031C5.00391 12.194 5.88604 11.4907 6.91203 11.0816C6.36091 10.6475 5.95875 10.0525 5.76149 9.37925C5.56422 8.70602 5.58165 7.98805 5.81135 7.32518C6.04105 6.66231 6.4716 6.0875 7.04314 5.68067C7.61467 5.27385 8.29877 5.05523 9.00031 5.05523C9.70185 5.05523 10.386 5.27385 10.9575 5.68067C11.529 6.0875 11.9596 6.66231 12.1893 7.32518C12.419 7.98805 12.4364 8.70602 12.2391 9.37925C12.0419 10.0525 11.6397 10.6475 11.0886 11.0816C12.1155 11.4908 12.9983 12.1949 13.6255 13.1052C13.7677 12.9455 13.9017 12.7786 14.027 12.6053C14.114 12.4841 14.2457 12.4024 14.393 12.3783C14.5403 12.3541 14.6911 12.3895 14.8123 12.4766C14.9336 12.5637 15.0152 12.6954 15.0393 12.8426C15.0635 12.9899 15.0281 13.1408 14.941 13.262L14.9403 13.2613ZM9.00031 10.6836C9.44532 10.6836 9.88034 10.5517 10.2503 10.3044C10.6204 10.0572 10.9087 9.7058 11.079 9.29466C11.2493 8.88353 11.2939 8.43113 11.2071 7.99467C11.1203 7.55821 10.906 7.1573 10.5913 6.84263C10.2766 6.52797 9.87572 6.31367 9.43927 6.22686C9.00281 6.14004 8.55041 6.1846 8.13927 6.3549C7.72814 6.52519 7.37674 6.81358 7.12951 7.18359C6.88227 7.5536 6.75031 7.98862 6.75031 8.43363C6.75031 9.03036 6.98737 9.60266 7.40932 10.0246C7.83128 10.4466 8.40358 10.6836 9.00031 10.6836ZM9.00031 15.1836C10.3731 15.1818 11.7065 14.7246 12.7916 13.8835C12.3846 13.2471 11.8241 12.7234 11.1615 12.3606C10.4989 11.9978 9.7557 11.8077 9.00031 11.8077C8.24493 11.8077 7.5017 11.9978 6.83913 12.3606C6.17657 12.7234 5.61599 13.2471 5.20906 13.8835C6.29246 14.7276 7.62694 15.1852 9.00031 15.1836Z" fill="#4F4F4F"/>
</g>
<defs>
<clipPath id="clip0_23337_40310">
<rect width="18" height="18" fill="white"/>
</clipPath>
</defs>
</svg>
