<svg width="24" height="24" viewBox="0 0 24 24" fill="none" xmlns="http://www.w3.org/2000/svg">
<path d="M15.7506 5.25001C15.7506 5.0511 15.8297 4.86033 15.9703 4.71968C16.111 4.57903 16.3017 4.50001 16.5006 4.50001H18.0006V3.00001C18.0006 2.8011 18.0797 2.61033 18.2203 2.46968C18.361 2.32903 18.5517 2.25001 18.7506 2.25001C18.9495 2.25001 19.1403 2.32903 19.281 2.46968C19.4216 2.61033 19.5006 2.8011 19.5006 3.00001V4.50001H21.0006C21.1995 4.50001 21.3903 4.57903 21.531 4.71968C21.6716 4.86033 21.7506 5.0511 21.7506 5.25001C21.7506 5.44892 21.6716 5.63969 21.531 5.78034C21.3903 5.92099 21.1995 6.00001 21.0006 6.00001H19.5006V7.50001C19.5006 7.69892 19.4216 7.88969 19.281 8.03034C19.1403 8.17099 18.9495 8.25001 18.7506 8.25001C18.5517 8.25001 18.361 8.17099 18.2203 8.03034C18.0797 7.88969 18.0006 7.69892 18.0006 7.50001V6.00001H16.5006C16.3017 6.00001 16.111 5.92099 15.9703 5.78034C15.8297 5.63969 15.7506 5.44892 15.7506 5.25001ZM21.6156 10.3763C21.9583 12.413 21.6448 14.506 20.7203 16.353C19.7959 18.2 18.3085 19.7054 16.4727 20.6518C14.6369 21.5983 12.5479 21.9369 10.5071 21.6187C8.46641 21.3005 6.5796 20.342 5.11915 18.8815C3.65869 17.421 2.70016 15.5342 2.38196 13.4935C2.06375 11.4528 2.40233 9.36371 3.34881 7.52795C4.29529 5.69218 5.80069 4.20471 7.64767 3.2803C9.49464 2.35589 11.5876 2.04237 13.6244 2.38501C13.8191 2.41944 13.9923 2.52935 14.1064 2.69083C14.2204 2.85232 14.2661 3.05231 14.2335 3.24731C14.2009 3.4423 14.0926 3.61653 13.9322 3.73209C13.7717 3.84766 13.5722 3.8952 13.3769 3.86439C12.1939 3.66538 10.9817 3.72655 9.82477 4.04364C8.66781 4.36073 7.59385 4.92613 6.67762 5.70048C5.76139 6.47483 5.02491 7.43954 4.51942 8.52746C4.01393 9.61538 3.75158 10.8004 3.75064 12C3.74886 14.0196 4.49112 15.969 5.83564 17.4759C6.6721 16.2638 7.84828 15.3261 9.21626 14.7806C8.48143 14.2019 7.94522 13.4085 7.6822 12.5109C7.41918 11.6132 7.44242 10.6559 7.74868 9.77209C8.05495 8.88826 8.62902 8.12184 9.39107 7.57941C10.1531 7.03697 11.0653 6.74549 12.0006 6.74549C12.936 6.74549 13.8482 7.03697 14.6102 7.57941C15.3722 8.12184 15.9463 8.88826 16.2526 9.77209C16.5589 10.6559 16.5821 11.6132 16.3191 12.5109C16.056 13.4085 15.5198 14.2019 14.785 14.7806C16.153 15.3261 17.3292 16.2638 18.1656 17.4759C19.5102 15.969 20.2524 14.0196 20.2506 12C20.2507 11.5389 20.2124 11.0786 20.1363 10.6238C20.119 10.5262 20.1213 10.4262 20.1429 10.3295C20.1645 10.2328 20.2051 10.1414 20.2622 10.0604C20.3194 9.97951 20.392 9.91072 20.4759 9.85802C20.5598 9.80533 20.6533 9.76978 20.751 9.75343C20.8488 9.73709 20.9488 9.74026 21.0452 9.76278C21.1417 9.78529 21.2328 9.8267 21.3132 9.88461C21.3936 9.94252 21.4617 10.0158 21.5136 10.1002C21.5655 10.1846 21.6002 10.2784 21.6156 10.3763ZM12.0006 14.25C12.594 14.25 13.174 14.0741 13.6673 13.7444C14.1607 13.4148 14.5452 12.9462 14.7723 12.3981C14.9993 11.8499 15.0587 11.2467 14.943 10.6647C14.8272 10.0828 14.5415 9.54825 14.122 9.12869C13.7024 8.70913 13.1678 8.42341 12.5859 8.30765C12.004 8.1919 11.4008 8.25131 10.8526 8.47837C10.3044 8.70543 9.83587 9.08995 9.50623 9.5833C9.17658 10.0766 9.00064 10.6567 9.00064 11.25C9.00064 12.0457 9.31671 12.8087 9.87931 13.3713C10.4419 13.9339 11.205 14.25 12.0006 14.25ZM12.0006 20.25C13.8319 20.2519 15.6112 19.6414 17.0556 18.5156C16.5131 17.6671 15.7656 16.9688 14.8822 16.4851C13.9988 16.0014 13.0078 15.7478 12.0006 15.7478C10.9935 15.7478 10.0025 16.0014 9.11906 16.4851C8.23564 16.9688 7.4882 17.6671 6.94564 18.5156C8.39004 19.6414 10.1694 20.2519 12.0006 20.25Z" fill="#EB5757"/>
</svg>
