<svg width="24" height="23" viewBox="0 0 24 23" fill="none" xmlns="http://www.w3.org/2000/svg">
<g filter="url(#filter0_d_3572_4827)">
<path d="M18.5459 16.887V21.4689H5.45508V16.887M12.0005 0.523438H9.64416L8.46595 2.87978M18.9843 2.87978C18.9373 2.77643 18.8721 2.68237 18.7919 2.60205L16.9909 0.801165C16.9029 0.713113 16.7984 0.643267 16.6833 0.595615C16.5683 0.547962 16.445 0.523436 16.3204 0.523438H14.3568L15.535 2.87978" stroke="white" stroke-miterlimit="10" stroke-linecap="round" stroke-linejoin="round"/>
<path d="M11.9994 2.87978V0.523438H14.3558M9.64309 0.523438H7.67949C7.428 0.523454 7.18682 0.623352 7.00898 0.801165L5.2081 2.60205C5.12782 2.68234 5.06262 2.77642 5.01562 2.87978" stroke="white" stroke-miterlimit="10" stroke-linecap="round" stroke-linejoin="round"/>
<path d="M6.097 2.88281H5.0169C4.96074 3.00614 4.93167 3.14008 4.93164 3.27559V3.97037C4.93164 4.59882 5.44107 5.10825 6.06952 5.10825H7.32831C7.95676 5.10825 8.46619 4.59882 8.46619 3.97037M8.46619 3.97037C8.46619 4.59882 8.97562 5.1083 9.60407 5.1083H10.8629C11.4913 5.1083 12.0007 4.59886 12.0007 3.97042M8.46619 3.97037V2.88281M8.46619 2.88281H7.57203M8.46619 2.88281H12.0007M12.0007 3.97042C12.0007 4.59886 12.5102 5.1083 13.1386 5.1083H14.3974C15.0259 5.1083 15.5353 4.59886 15.5353 3.97042M12.0007 3.97042V2.88281M12.0007 2.88281H15.5353M15.5353 3.97042V2.88281M15.5353 3.97042C15.5353 4.59886 16.0447 5.10825 16.6732 5.10825H17.932C18.5604 5.10825 19.0698 4.59882 19.0698 3.97037V3.27559C19.0698 3.13875 19.0402 3.00499 18.9846 2.88281H15.5353M13.6073 8.67854L13.6511 8.24101C13.7487 7.26462 12.982 6.41736 12.0007 6.41736C11.0195 6.41736 10.2527 7.26462 10.3504 8.24101L10.3941 8.67854" stroke="white" stroke-miterlimit="10" stroke-linecap="round" stroke-linejoin="round"/>
<path d="M11.3467 15.579H8.72852V13.7801C8.72852 12.9662 9.38836 12.3063 10.2024 12.3063H11.3467M11.3467 15.579H12.6558V13.6153M11.3467 15.579V13.6153M11.3467 12.3063V13.6153M11.3467 12.3063L12.6558 12.3062M12.6558 12.3062H13.8001C14.6141 12.3062 15.2739 12.9661 15.2739 13.7801V15.579H12.6558M12.6558 12.3062V13.6153M10.0376 14.2683V15.579M13.9649 14.2683V15.579M11.3467 13.6153H12.6558M12.9059 7.97454C12.7769 7.84558 12.5802 7.81515 12.4172 7.89708C12.2881 7.96183 12.1457 7.99554 12.0012 7.99554C11.8568 7.99554 11.7143 7.96183 11.5852 7.89708C11.4223 7.81511 11.2255 7.84558 11.0966 7.97454L10.3946 8.67649L10.4899 9.62944C10.5675 10.4059 11.2209 10.9972 12.0012 10.9972C12.7816 10.9972 13.4349 10.4059 13.5125 9.62944L13.6078 8.67649L12.9059 7.97454Z" stroke="white" stroke-miterlimit="10" stroke-linecap="round" stroke-linejoin="round"/>
<path d="M6.02611 16.8839H5.11686C5.03303 16.8839 4.95263 16.8506 4.89336 16.7913C4.83408 16.7321 4.80078 16.6517 4.80078 16.5678V15.8909C4.80078 15.8071 4.83408 15.7267 4.89336 15.6674C4.95263 15.6081 5.03303 15.5748 5.11686 15.5748H18.8847C18.9685 15.5748 19.0489 15.6081 19.1082 15.6674C19.1675 15.7267 19.2008 15.8071 19.2008 15.8909V16.5678C19.2008 16.6517 19.1675 16.7321 19.1082 16.7913C19.0489 16.8506 18.9685 16.8839 18.8847 16.8839H7.54328M17.2371 5.10212V15.5748M18.5462 5.95452V4.92188M18.5462 15.5748V7.42955M6.76443 5.10212V15.5748M5.45536 15.5748V4.92188M16.9211 20.1567H13.6259C13.5421 20.1567 13.4617 20.1234 13.4024 20.0641C13.3431 20.0048 13.3098 19.9244 13.3098 19.8406V18.5091C13.3098 18.4253 13.3431 18.3449 13.4024 18.2856C13.4617 18.2263 13.5421 18.193 13.6259 18.193H16.9211C17.0049 18.193 17.0853 18.2263 17.1446 18.2856C17.2038 18.3449 17.2371 18.4253 17.2371 18.5091V19.8406C17.2371 19.9244 17.2038 20.0048 17.1446 20.0641C17.0853 20.1234 17.0049 20.1567 16.9211 20.1567Z" stroke="white" stroke-miterlimit="10" stroke-linecap="round" stroke-linejoin="round"/>
</g>
<defs>
<filter id="filter0_d_3572_4827" x="0.300781" y="0.0234375" width="23.3999" height="29.9453" filterUnits="userSpaceOnUse" color-interpolation-filters="sRGB">
<feFlood flood-opacity="0" result="BackgroundImageFix"/>
<feColorMatrix in="SourceAlpha" type="matrix" values="0 0 0 0 0 0 0 0 0 0 0 0 0 0 0 0 0 0 127 0" result="hardAlpha"/>
<feOffset dy="4"/>
<feGaussianBlur stdDeviation="2"/>
<feComposite in2="hardAlpha" operator="out"/>
<feColorMatrix type="matrix" values="0 0 0 0 0 0 0 0 0 0 0 0 0 0 0 0 0 0 0.25 0"/>
<feBlend mode="normal" in2="BackgroundImageFix" result="effect1_dropShadow_3572_4827"/>
<feBlend mode="normal" in="SourceGraphic" in2="effect1_dropShadow_3572_4827" result="shape"/>
</filter>
</defs>
</svg>
