<svg width="24" height="24" viewBox="0 0 24 24" fill="none" xmlns="http://www.w3.org/2000/svg">
<path fill-rule="evenodd" clip-rule="evenodd" d="M12 3.18441C11.7251 3.18441 11.453 3.23855 11.199 3.34373C10.9451 3.44892 10.7144 3.60309 10.52 3.79744C10.3257 3.9918 10.1715 4.22253 10.0663 4.47647C9.96111 4.73041 9.90698 5.00257 9.90698 5.27743C9.90698 5.55229 9.96111 5.82446 10.0663 6.0784C10.1715 6.33234 10.3257 6.56307 10.52 6.75743C10.7144 6.95178 10.9451 7.10595 11.199 7.21114C11.453 7.31632 11.7251 7.37046 12 7.37046C12.5551 7.37046 13.0875 7.14994 13.48 6.75743C13.8725 6.36491 14.093 5.83254 14.093 5.27743C14.093 4.72233 13.8725 4.18996 13.48 3.79744C13.0875 3.40493 12.5551 3.18441 12 3.18441ZM8.51163 5.27743C8.51163 4.35226 8.87915 3.46498 9.53335 2.81078C10.1875 2.15659 11.0748 1.78906 12 1.78906C12.9252 1.78906 13.8125 2.15659 14.4667 2.81078C15.1208 3.46498 15.4884 4.35226 15.4884 5.27743C15.4884 6.20261 15.1208 7.08989 14.4667 7.74409C13.8125 8.39828 12.9252 8.76581 12 8.76581C11.0748 8.76581 10.1875 8.39828 9.53335 7.74409C8.87915 7.08989 8.51163 6.20261 8.51163 5.27743ZM5.48837 16.2077C4.93327 16.2077 4.4009 16.4282 4.00838 16.8207C3.61586 17.2132 3.39535 17.7456 3.39535 18.3007C3.39535 18.8558 3.61586 19.3882 4.00838 19.7807C4.4009 20.1732 4.93327 20.3937 5.48837 20.3937C6.04348 20.3937 6.57584 20.1732 6.96836 19.7807C7.36088 19.3882 7.5814 18.8558 7.5814 18.3007C7.5814 17.7456 7.36088 17.2132 6.96836 16.8207C6.57584 16.4282 6.04348 16.2077 5.48837 16.2077ZM2 18.3007C2 17.3755 2.36752 16.4882 3.02172 15.834C3.67592 15.1798 4.5632 14.8123 5.48837 14.8123C6.41355 14.8123 7.30083 15.1798 7.95502 15.834C8.60922 16.4882 8.97674 17.3755 8.97674 18.3007C8.97674 19.2259 8.60922 20.1131 7.95502 20.7673C7.30083 21.4215 6.41355 21.7891 5.48837 21.7891C4.5632 21.7891 3.67592 21.4215 3.02172 20.7673C2.36752 20.1131 2 19.2259 2 18.3007ZM18.5116 16.2077C17.9565 16.2077 17.4242 16.4282 17.0316 16.8207C16.6391 17.2132 16.4186 17.7456 16.4186 18.3007C16.4186 18.8558 16.6391 19.3882 17.0316 19.7807C17.4242 20.1732 17.9565 20.3937 18.5116 20.3937C19.0667 20.3937 19.5991 20.1732 19.9916 19.7807C20.3841 19.3882 20.6047 18.8558 20.6047 18.3007C20.6047 17.7456 20.3841 17.2132 19.9916 16.8207C19.5991 16.4282 19.0667 16.2077 18.5116 16.2077ZM15.0233 18.3007C15.0233 17.3755 15.3908 16.4882 16.045 15.834C16.6992 15.1798 17.5865 14.8123 18.5116 14.8123C19.4368 14.8123 20.3241 15.1798 20.9783 15.834C21.6325 16.4882 22 17.3755 22 18.3007C22 19.2259 21.6325 20.1131 20.9783 20.7673C20.3241 21.4215 19.4368 21.7891 18.5116 21.7891C17.5865 21.7891 16.6992 21.4215 16.045 20.7673C15.3908 20.1131 15.0233 19.2259 15.0233 18.3007Z" fill="white"/>
<path fill-rule="evenodd" clip-rule="evenodd" d="M11.9984 7.37109C12.1834 7.37109 12.3609 7.4446 12.4917 7.57544C12.6225 7.70628 12.696 7.88373 12.696 8.06877V11.092H15.296C16.0281 11.092 16.6365 11.092 17.1202 11.1478C17.6226 11.2055 18.096 11.3339 18.4877 11.6688C18.8942 12.0176 19.0644 12.4623 19.1388 12.9413C19.2077 13.3757 19.2077 13.9153 19.2077 14.5292V15.5106C19.2077 15.6957 19.1342 15.8731 19.0033 16.004C18.8725 16.1348 18.695 16.2083 18.51 16.2083C18.325 16.2083 18.1475 16.1348 18.0167 16.004C17.8858 15.8731 17.8123 15.6957 17.8123 15.5106V14.5804C17.8123 13.8995 17.8105 13.4706 17.7612 13.1571C17.7174 12.8762 17.6495 12.7878 17.5788 12.7283C17.4932 12.6548 17.3444 12.5785 16.9602 12.5339C16.5667 12.4883 16.0393 12.4874 15.2542 12.4874H8.74255C7.95836 12.4874 7.43092 12.4883 7.0365 12.5339C6.65232 12.5785 6.50348 12.6548 6.4179 12.7283C6.3472 12.7878 6.27929 12.8771 6.23557 13.1571C6.18627 13.4706 6.18441 13.8995 6.18441 14.5804V15.5106C6.18441 15.6957 6.11091 15.8731 5.98007 16.004C5.84923 16.1348 5.67177 16.2083 5.48674 16.2083C5.3017 16.2083 5.12425 16.1348 4.99341 16.004C4.86257 15.8731 4.78906 15.6957 4.78906 15.5106V14.5292C4.78906 13.9153 4.78906 13.3757 4.85697 12.9413C4.93139 12.4623 5.10255 12.0176 5.50906 11.6688C5.90069 11.3339 6.37418 11.2055 6.8765 11.1478C7.36023 11.092 7.9686 11.092 8.70069 11.092H11.3007V8.06877C11.3007 7.88373 11.3742 7.70628 11.505 7.57544C11.6359 7.4446 11.8133 7.37109 11.9984 7.37109Z" fill="white"/>
</svg>
