<svg width="21" height="20" viewBox="0 0 21 20" fill="none" xmlns="http://www.w3.org/2000/svg">
<path d="M19.0483 7.44584L18.073 7.28045C17.9864 7.03948 17.8885 6.80275 17.7795 6.57107L18.3539 5.76755C18.8536 5.06548 18.7734 4.11727 18.165 3.51485L16.993 2.3427C16.6617 2.01145 16.2225 1.82891 15.7565 1.82891C15.3896 1.82891 15.0386 1.942 14.7441 2.15391L13.9375 2.72848C13.6905 2.6116 13.4377 2.50739 13.1801 2.41626L13.0188 1.46063C12.8769 0.614181 12.1509 0 11.2924 0H9.63654C8.77822 0 8.05217 0.614181 7.9106 1.45891L7.74107 2.45196C7.50084 2.53967 7.26501 2.639 7.03443 2.74962L6.24251 2.1793C5.94556 1.96547 5.59325 1.85258 5.22353 1.85258C4.75294 1.85258 4.31364 2.0354 3.98602 2.36743L2.81125 3.53833C2.20457 4.14501 2.12508 5.09243 2.62235 5.79099L3.20598 6.61099C3.09793 6.84375 3.00123 7.08161 2.91622 7.32373L1.96043 7.48506C1.11418 7.62709 0.5 8.35314 0.5 9.21143V10.8673C0.5 11.7256 1.11418 12.4516 1.95891 12.5934L2.95196 12.7628C3.03968 13.003 3.13901 13.2389 3.24962 13.4695L2.68141 14.26C2.18168 14.962 2.26192 15.9103 2.87032 16.5126L4.04235 17.6848C4.3736 18.016 4.81274 18.1986 5.27876 18.1986C5.64571 18.1986 5.99669 18.0855 6.29103 17.8737L7.11103 17.29C7.32957 17.3914 7.55253 17.4829 7.77923 17.5644L7.94173 18.5396C8.08381 19.3859 8.80978 20 9.66811 20H11.3278C12.1861 20 12.9123 19.3859 13.0541 18.5407L13.2194 17.5652C13.4604 17.4787 13.6971 17.3807 13.9288 17.2718L14.7298 17.8443C15.0267 18.058 15.379 18.1711 15.7487 18.1711C16.2146 18.1711 16.6537 17.9886 16.985 17.6573L18.1571 16.4852C18.7639 15.8785 18.8432 14.931 18.3459 14.2325L17.771 13.4252C17.8805 13.1939 17.9787 12.9574 18.0655 12.7167L19.0395 12.5544C19.8857 12.4123 20.4999 11.6863 20.4999 10.828V9.17545C20.5095 8.31623 19.8998 7.58927 19.0483 7.44584ZM19.328 10.828C19.3284 10.9648 19.2802 11.0973 19.1919 11.2018C19.1036 11.3063 18.9811 11.376 18.8461 11.3985L17.5543 11.6138C17.316 11.6535 17.1237 11.8216 17.0521 12.0528C16.9374 12.4247 16.7798 12.8048 16.584 13.1819C16.5297 13.2856 16.5052 13.4023 16.5133 13.5191C16.5215 13.6358 16.5619 13.748 16.6301 13.8431L17.3914 14.9121C17.4709 15.0235 17.5082 15.1596 17.4967 15.2959C17.4852 15.4323 17.4256 15.5602 17.3285 15.6566L16.1565 16.8287C16.0449 16.9402 15.9039 16.9993 15.7487 16.9993C15.6264 16.9993 15.5109 16.9626 15.4129 16.8921L14.3485 16.1313C14.1527 15.9908 13.8982 15.9731 13.6844 16.0849C13.3221 16.2742 12.9437 16.4308 12.5537 16.5531C12.4419 16.5878 12.342 16.6528 12.2651 16.741C12.1881 16.8291 12.1372 16.9369 12.1179 17.0523L11.8985 18.3455C11.8762 18.4807 11.8065 18.6034 11.7019 18.6918C11.5973 18.7803 11.4647 18.8286 11.3278 18.8282H9.66807C9.53126 18.8286 9.39877 18.7803 9.29426 18.6921C9.18974 18.6038 9.12002 18.4812 9.09756 18.3463L8.88225 17.0545C8.86335 16.9389 8.81267 16.8308 8.73588 16.7423C8.65908 16.6538 8.55919 16.5884 8.44736 16.5534C8.06072 16.4313 7.69252 16.28 7.35271 16.1034C7.26232 16.0563 7.16192 16.0317 7.06001 16.0317C6.9282 16.0318 6.79969 16.073 6.69244 16.1496L5.60892 16.9208C5.51126 16.9911 5.40017 17.0267 5.27872 17.0267C5.12353 17.0267 4.98255 16.9678 4.87099 16.8561L3.69688 15.6821C3.49649 15.4837 3.47106 15.1715 3.63446 14.9418L4.39114 13.8893C4.53352 13.6917 4.55091 13.4354 4.43618 13.2198C4.24425 12.86 4.08556 12.4835 3.96208 12.0949C3.92703 11.9837 3.86196 11.8844 3.77405 11.8079C3.68614 11.7314 3.5788 11.6806 3.46387 11.6612L2.15438 11.438C2.01932 11.4156 1.89664 11.3459 1.80825 11.2413C1.71986 11.1368 1.67152 11.0042 1.67188 10.8673V9.21147C1.67152 9.07449 1.71991 8.94186 1.80839 8.8373C1.89687 8.73274 2.01967 8.66307 2.15481 8.64076L3.43075 8.42545C3.66926 8.38533 3.86137 8.21674 3.93231 7.98482C4.0527 7.5908 4.20759 7.20982 4.39266 6.85275C4.44673 6.74917 4.47104 6.63264 4.46288 6.51608C4.45472 6.39952 4.41442 6.28751 4.34645 6.19247L3.57708 5.11153C3.49754 5.00032 3.46012 4.86446 3.4715 4.72821C3.48287 4.59196 3.54231 4.46419 3.63919 4.3677L4.8152 3.19567L4.8195 3.19122C4.92521 3.08364 5.06864 3.02442 5.22353 3.02442C5.34591 3.02442 5.46157 3.06106 5.55771 3.13036L6.61482 3.8913C6.81271 4.03384 7.06939 4.05091 7.28423 3.93618C7.64384 3.74432 8.02021 3.58568 8.40865 3.46223C8.51988 3.42722 8.61928 3.36215 8.69586 3.2742C8.77245 3.18626 8.82324 3.07886 8.84264 2.96387L9.066 1.65438C9.08836 1.51929 9.15806 1.39656 9.26263 1.30816C9.3672 1.21976 9.49981 1.17145 9.63674 1.17188H11.2926C11.4296 1.17152 11.5622 1.21991 11.6668 1.30839C11.7713 1.39687 11.841 1.51967 11.8633 1.65481L12.0786 2.93122C12.1189 3.16989 12.2878 3.36184 12.5199 3.43262C12.9155 3.55286 13.3101 3.7152 13.693 3.91544C13.9057 4.02649 14.1591 4.00911 14.3551 3.86977L15.4266 3.10669C15.524 3.03637 15.6351 3.00083 15.7567 3.00083C15.9118 3.00083 16.0527 3.05969 16.1644 3.17141L17.3384 4.3454C17.5388 4.54376 17.5645 4.85595 17.4 5.08681L16.6383 6.15236C16.5699 6.24774 16.5293 6.36032 16.5213 6.47746C16.5132 6.59459 16.5379 6.71166 16.5927 6.81552C16.7802 7.17349 16.9377 7.55388 17.061 7.94635C17.1328 8.17525 17.3243 8.34217 17.5602 8.38197L18.8523 8.60123L18.8534 8.60139C19.1322 8.64826 19.332 8.88475 19.328 9.16385L19.328 10.828Z" fill="white"/>
<path d="M10.4999 6.11133C8.35575 6.11133 6.61133 7.85571 6.61133 9.99989C6.61133 12.1441 8.35575 13.8885 10.4999 13.8885C12.644 13.8885 14.3885 12.144 14.3885 9.99989C14.3885 7.85575 12.644 6.11133 10.4999 6.11133ZM10.4999 12.7166C9.00192 12.7166 7.78321 11.4978 7.78321 9.99989C7.78321 8.50196 9.00196 7.28321 10.4999 7.28321C11.9978 7.28321 13.2166 8.50196 13.2166 9.99989C13.2166 11.4978 11.9978 12.7166 10.4999 12.7166Z" fill="white"/>
</svg>
