<svg width="19" height="20" viewBox="0 0 19 20" fill="none" xmlns="http://www.w3.org/2000/svg">
<path fill-rule="evenodd" clip-rule="evenodd" d="M7.73438 4.91527L7.26416 4.44504L6.79393 4.91527H7.73438ZM10.9905 16.9506H9.87875V17.9582H10.9905V16.9506ZM12.7272 16.9506H11.6155V17.9582H12.7272V16.9506ZM10.9905 14.6929H9.87875V13.6853H10.9905V14.6929ZM12.7272 14.6929H11.6155V13.6853H12.7272V14.6929ZM11.6155 15.318H12.7272V16.3255H11.6155V15.318ZM9.87875 15.318H10.9905V16.3255H9.87875V15.318ZM9.87875 11.0249H12.7273V11.4081H9.87875V11.0249ZM16.3302 12.7663H15.2184V13.7739H16.3302V12.7663ZM18.067 12.7663H16.9553V13.7739H18.067V12.7663ZM16.3302 10.5085H15.2184V9.50096H16.3302V10.5085ZM18.067 10.5085H16.9553V9.50096H18.067V10.5085ZM16.9553 11.1336H18.067V12.1412H16.9553V11.1336ZM15.2184 11.1336H16.3302V12.1412H15.2184V11.1336ZM14.2854 19.5716V7.97609H19V19.5716H17.8531V16.3238C17.8531 16.0225 17.5805 15.7767 17.2461 15.7767H16.0393C15.705 15.7767 15.4323 16.0225 15.4323 16.3238V19.5716H14.2854ZM15.2184 6.94844H18.067V7.35104H15.2184V6.94844ZM13.6603 19.5716H8.94568V12.0332H13.6603V19.5716ZM8.56704 4.86397L9.03726 4.39375H8.09681L8.56704 4.86397ZM10.3401 4.91527L9.86992 4.44504L9.39969 4.91527H10.3401ZM12.4394 4.48122L12.0054 4.91527H12.9584L12.4394 4.48122ZM11.1728 4.86397L11.643 4.39375H10.7025L11.1728 4.86397ZM6.3661 3.61239H10.3899L6.3661 1.67637V3.61239ZM4.55811 3.61239H5.58474V1.20958H5.20765L4.55811 3.61239ZM5.53344 15.9691L4.23345 14.6691V17.2692L5.53344 15.9691ZM5.58474 12.5365V15.1365L4.28475 13.8365L5.58474 12.5365ZM5.53344 11.7038L4.23345 10.4039V13.0039L5.53344 11.7038ZM5.58474 8.27121V10.8712L4.28475 9.57124L5.58474 8.27121ZM5.53344 7.43859L4.23345 6.1386V8.73862L5.53344 7.43859ZM4.67543 5.69663H5.58474V6.60594L4.67543 5.69663ZM5.49105 4.39375L5.96128 4.86397L6.4315 4.39375H5.49105ZM5.12866 4.91527L4.65843 4.44504L4.18821 4.91527H5.12866ZM3.40048 4.819L3.82574 4.39375H3.10982L3.40048 4.819ZM2.71246 3.61239V3.53269C2.71244 3.50125 2.70608 3.47015 2.69377 3.44123C2.68145 3.41231 2.66342 3.38617 2.64077 3.36438L4.14446 2.1523L3.74971 3.61239H2.71246ZM4.28471 18.1018L5.5847 16.8018V18.1018H4.28471ZM2.63108 18.1018H3.45209V5.69663H2.71246V5.77633C2.71246 5.90525 2.60697 6.01073 2.47805 6.01073H0.234408C0.105484 6.01073 0 5.90525 0 5.77633V3.53265C0 3.40372 0.105484 3.29824 0.234408 3.29824H1.72927L4.42129 1.12828L4.53217 0.718147C4.57881 0.54363 4.73665 0.428535 4.90913 0.428613L5.97542 0.428223C6.19119 0.428223 6.3661 0.60313 6.3661 0.818903V0.985528L11.8257 3.61239H12.4756C12.575 3.61226 12.6707 3.65013 12.743 3.71822L14.2837 5.0068C14.5646 5.24187 14.3931 5.69573 14.0334 5.69592L12.7283 5.69663V7.18727H13.2362C13.3222 7.18727 13.3925 7.25759 13.3925 7.34354V8.9844C13.3925 9.07035 13.3222 9.14067 13.2362 9.14067H11.5954C11.5094 9.14067 11.4391 9.07035 11.4391 8.9844V7.34354C11.4391 7.25759 11.5094 7.18727 11.5954 7.18727H12.1032V5.69663H6.3661V18.1018H7.18711C7.27306 18.1018 7.34339 18.1721 7.34339 18.2581V19.4153C7.34339 19.5012 7.27306 19.5716 7.18711 19.5716H2.63108C2.54513 19.5716 2.4748 19.5012 2.4748 19.4153V18.2581C2.4748 18.1721 2.54509 18.1018 2.63108 18.1018Z" fill="white"/>
</svg>
