<svg width="21" height="20" viewBox="0 0 21 20" fill="none" xmlns="http://www.w3.org/2000/svg">
<path d="M5.16667 19.3332C4.98991 19.333 4.82044 19.2627 4.69546 19.1377C4.57047 19.0127 4.50018 18.8433 4.5 18.6665V15.3332H2.5C1.39733 15.3332 0.5 14.4358 0.5 13.3332V2.6665C0.5 1.56384 1.39733 0.666504 2.5 0.666504H18.5C19.6027 0.666504 20.5 1.56384 20.5 2.6665V13.3332C20.5 14.4358 19.6027 15.3332 18.5 15.3332H10.4007L5.58333 19.1872C5.46511 19.2818 5.31813 19.3333 5.16667 19.3332ZM2.5 1.99984C2.132 1.99984 1.83333 2.29917 1.83333 2.6665V13.3332C1.83333 13.7005 2.132 13.9998 2.5 13.9998H5.16667C5.34348 13.9998 5.51305 14.0701 5.63807 14.1951C5.7631 14.3201 5.83333 14.4897 5.83333 14.6665V17.2798L9.75 14.1458C9.86827 14.0513 10.0152 13.9998 10.1667 13.9998H18.5C18.868 13.9998 19.1667 13.7005 19.1667 13.3332V2.6665C19.1667 2.29917 18.868 1.99984 18.5 1.99984H2.5Z" fill="white"/>
</svg>
