<svg width="24" height="24" viewBox="0 0 24 24" fill="none" xmlns="http://www.w3.org/2000/svg">
<path d="M7.85938 14.9297C7.85938 13.6373 6.80805 12.5859 5.51562 12.5859C4.2232 12.5859 3.17188 13.6373 3.17188 14.9297C3.17188 16.2221 4.2232 17.2734 5.51562 17.2734C6.80805 17.2734 7.85938 16.2221 7.85938 14.9297ZM5.51562 16.1016C4.86941 16.1016 4.34375 15.5759 4.34375 14.9297C4.34375 14.2835 4.86941 13.7578 5.51562 13.7578C6.16184 13.7578 6.6875 14.2835 6.6875 14.9297C6.6875 15.5759 6.16184 16.1016 5.51562 16.1016ZM20.8281 14.9297C20.8281 13.6373 19.7768 12.5859 18.4844 12.5859C17.192 12.5859 16.1406 13.6373 16.1406 14.9297C16.1406 16.2221 17.192 17.2734 18.4844 17.2734C19.7768 17.2734 20.8281 16.2221 20.8281 14.9297ZM18.4844 16.1016C17.8382 16.1016 17.3125 15.5759 17.3125 14.9297C17.3125 14.2835 17.8382 13.7578 18.4844 13.7578C19.1306 13.7578 19.6562 14.2835 19.6562 14.9297C19.6562 15.5759 19.1306 16.1016 18.4844 16.1016Z" fill="white"/>
<path d="M18.4844 17.2734C17.8411 17.2734 17.2232 17.4492 16.6835 17.7784L12.5859 15.1926V11.4141H15.5156V10.2422C15.5156 8.29242 13.9366 6.6875 12 6.6875C10.0645 6.6875 8.48438 8.29102 8.48438 10.2422V11.4141H11.4141V15.1926L7.31648 17.7784C6.77676 17.4492 6.15895 17.2734 5.51562 17.2734C3.58008 17.2734 2 18.877 2 20.8281V22H9.03125V20.8281C9.03125 20.004 8.75078 19.2192 8.23535 18.5842L12 16.2085L15.7646 18.5842C15.2492 19.2193 14.9688 20.004 14.9688 20.8281V22H22V20.8281C22 18.8784 20.421 17.2734 18.4844 17.2734ZM12 7.85938C13.2924 7.85938 14.3438 8.92824 14.3438 10.2422H9.65625C9.65625 8.92824 10.7076 7.85938 12 7.85938ZM3.17188 20.8281C3.17188 19.5142 4.2232 18.4453 5.51562 18.4453C6.80805 18.4453 7.85938 19.5142 7.85938 20.8281H3.17188ZM16.1406 20.8281C16.1406 19.5142 17.192 18.4453 18.4844 18.4453C19.7768 18.4453 20.8281 19.5142 20.8281 20.8281H16.1406ZM14.3438 4.34375C14.3438 3.05133 13.2924 2 12 2C10.7076 2 9.65625 3.05133 9.65625 4.34375C9.65625 5.63617 10.7076 6.6875 12 6.6875C13.2924 6.6875 14.3438 5.63617 14.3438 4.34375ZM12 5.51562C11.3538 5.51562 10.8281 4.98996 10.8281 4.34375C10.8281 3.69754 11.3538 3.17188 12 3.17188C12.6462 3.17188 13.1719 3.69754 13.1719 4.34375C13.1719 4.98996 12.6462 5.51562 12 5.51562Z" fill="white"/>
</svg>
