<svg width="21" height="20" viewBox="0 0 21 20" fill="none" xmlns="http://www.w3.org/2000/svg">
<path d="M7.03023 20H3.27209C1.40233 20 0.5 19.1349 0.5 17.3488V2.65116C0.5 0.865116 1.41163 0 3.27209 0H7.03023C8.9 0 9.80233 0.865116 9.80233 2.65116V17.3488C9.80233 19.1349 8.8907 20 7.03023 20ZM3.27209 1.39535C2.0907 1.39535 1.89535 1.71163 1.89535 2.65116V17.3488C1.89535 18.2884 2.0907 18.6047 3.27209 18.6047H7.03023C8.21163 18.6047 8.40698 18.2884 8.40698 17.3488V2.65116C8.40698 1.71163 8.21163 1.39535 7.03023 1.39535H3.27209ZM17.7279 13.4884H13.9698C12.1 13.4884 11.1977 12.6233 11.1977 10.8372V2.65116C11.1977 0.865116 12.1093 0 13.9698 0H17.7279C19.5977 0 20.5 0.865116 20.5 2.65116V10.8372C20.5 12.6233 19.5884 13.4884 17.7279 13.4884ZM13.9698 1.39535C12.7884 1.39535 12.593 1.71163 12.593 2.65116V10.8372C12.593 11.7767 12.7884 12.093 13.9698 12.093H17.7279C18.9093 12.093 19.1047 11.7767 19.1047 10.8372V2.65116C19.1047 1.71163 18.9093 1.39535 17.7279 1.39535H13.9698Z" fill="white"/>
</svg>
