<svg width="24" height="24" viewBox="0 0 24 24" fill="none" xmlns="http://www.w3.org/2000/svg">
<path d="M7.2 20.3996C7.04092 20.3995 6.8884 20.3362 6.77591 20.2237C6.66342 20.1112 6.60016 19.9587 6.6 19.7996V16.7996H4.8C3.8076 16.7996 3 15.992 3 14.9996V5.39961C3 4.40721 3.8076 3.59961 4.8 3.59961H19.2C20.1924 3.59961 21 4.40721 21 5.39961V14.9996C21 15.992 20.1924 16.7996 19.2 16.7996H11.9106L7.575 20.2682C7.4686 20.3534 7.33631 20.3998 7.2 20.3996ZM4.8 4.79961C4.4688 4.79961 4.2 5.06901 4.2 5.39961V14.9996C4.2 15.3302 4.4688 15.5996 4.8 15.5996H7.2C7.35913 15.5996 7.51174 15.6628 7.62426 15.7753C7.73679 15.8879 7.8 16.0405 7.8 16.1996V18.5516L11.325 15.731C11.4314 15.6459 11.5637 15.5995 11.7 15.5996H19.2C19.5312 15.5996 19.8 15.3302 19.8 14.9996V5.39961C19.8 5.06901 19.5312 4.79961 19.2 4.79961H4.8Z" fill="white"/>
<path d="M16.7996 9.60039H7.19961C7.04048 9.60039 6.88787 9.53718 6.77535 9.42465C6.66282 9.31213 6.59961 9.15952 6.59961 9.00039C6.59961 8.84126 6.66282 8.68865 6.77535 8.57613C6.88787 8.4636 7.04048 8.40039 7.19961 8.40039H16.7996C16.9587 8.40039 17.1114 8.4636 17.2239 8.57613C17.3364 8.68865 17.3996 8.84126 17.3996 9.00039C17.3996 9.15952 17.3364 9.31213 17.2239 9.42465C17.1114 9.53718 16.9587 9.60039 16.7996 9.60039ZM11.9996 12.0004H7.19961C7.04048 12.0004 6.88787 11.9372 6.77535 11.8247C6.66282 11.7121 6.59961 11.5595 6.59961 11.4004C6.59961 11.2413 6.66282 11.0886 6.77535 10.9761C6.88787 10.8636 7.04048 10.8004 7.19961 10.8004H11.9996C12.1587 10.8004 12.3114 10.8636 12.4239 10.9761C12.5364 11.0886 12.5996 11.2413 12.5996 11.4004C12.5996 11.5595 12.5364 11.7121 12.4239 11.8247C12.3114 11.9372 12.1587 12.0004 11.9996 12.0004Z" fill="white"/>
</svg>
