<svg width="52" height="52" viewBox="0 0 52 52" fill="none" xmlns="http://www.w3.org/2000/svg">
<g id="Icons">
<path id="Vector" d="M8.66699 17.3327V36.3993C8.66699 38.8262 8.66699 40.0388 9.1393 40.9658C9.55475 41.7812 10.2172 42.4454 11.0326 42.8608C11.9586 43.3327 13.1715 43.3327 15.5936 43.3327H36.407C38.8292 43.3327 40.0403 43.3327 40.9663 42.8608C41.7817 42.4454 42.4464 41.7812 42.8618 40.9658C43.3337 40.0397 43.3337 38.8282 43.3337 36.406V17.3327M8.66699 17.3327H43.3337M8.66699 17.3327L11.6249 12.1563C12.3508 10.886 12.7136 10.2509 13.224 9.78849C13.676 9.379 14.2106 9.06913 14.7904 8.8799C15.4456 8.66602 16.1772 8.66602 17.6426 8.66602H34.3573C35.8228 8.66602 36.5569 8.66602 37.2122 8.8799C37.792 9.06913 38.3241 9.379 38.776 9.78849C39.2868 10.2513 39.6507 10.887 40.3778 12.1593L43.3337 17.3327M26.0003 23.8327V36.8327M26.0003 36.8327L32.5003 32.4993M26.0003 36.8327L19.5003 32.4993" stroke="black" stroke-width="2" stroke-linecap="round" stroke-linejoin="round"/>
</g>
</svg>
