<svg width="52" height="52" viewBox="0 0 52 52" fill="none" xmlns="http://www.w3.org/2000/svg">
<path d="M1.40921 19.6464H1.64486V12.0919V10.1799L3.21528 11.2706C4.17973 11.9404 5.44749 12.5504 6.98331 13.0737L6.98353 13.0738C10.5496 14.2897 15.5013 15.0564 20.9896 15.0564C26.4729 15.0564 31.4295 14.2856 34.9966 13.0734C36.5469 12.5466 37.8314 11.9242 38.8048 11.2457L40.3766 10.15V12.066V20.3919V21.3919H40.1341C39.8243 22.0504 39.2409 22.5928 38.6308 23.0205C37.6801 23.6869 36.3635 24.2894 34.816 24.8154C31.2575 26.0291 26.3693 26.7584 20.9896 26.7584C15.6102 26.7584 10.7223 26.0291 7.16383 24.8156L1.40921 19.6464ZM1.40921 19.6464L1.66191 20.8516M1.40921 19.6464L1.66191 20.8516M1.66191 20.8516C1.86545 21.8224 2.66932 22.5807 3.55336 23.1603M1.66191 20.8516L3.55336 23.1603M3.55336 23.1603C4.48182 23.769 5.7202 24.3243 7.1632 24.8154L3.55336 23.1603ZM20.998 38.5527C22.6811 38.5527 24.313 38.4805 25.8696 38.3464C25.8463 38.5658 25.8279 38.7866 25.8145 39.0084C24.269 39.141 22.6523 39.2101 20.9896 39.2101C15.5013 39.2101 10.5496 38.4433 6.98354 37.2274L6.98331 37.2273C5.44749 36.7041 4.17973 36.094 3.21528 35.4242L1.64486 34.3335V36.2456V44.222V44.3257L1.66614 44.4272C1.86969 45.398 2.67356 46.1563 3.55759 46.7359C4.48618 47.3447 5.72479 47.9 7.16806 48.3912L7.1685 48.3913C10.7258 49.6001 15.6132 50.334 20.9938 50.334C23.9986 50.334 26.8405 50.1071 29.3825 49.696C29.5508 49.8931 29.724 50.0858 29.902 50.2738C27.2253 50.7355 24.1974 50.9957 20.9938 50.9957C15.5056 50.9957 10.5541 50.229 6.98803 49.0131C6.0735 48.701 4.50065 48.0264 3.17794 47.1359C2.51661 46.6906 1.95795 46.218 1.57376 45.743C1.18807 45.2661 1.03385 44.8578 1.03385 44.5154V44.5136V44.5118V44.51V44.5082V44.5064V44.5046V44.5028V44.501V44.4992V44.4975V44.4957V44.4939V44.4921V44.4903V44.4886V44.4868V44.485V44.4832V44.4815V44.4797V44.4779V44.4761V44.4744V44.4726V44.4708V44.4691V44.4673V44.4655V44.4638V44.462V44.4603V44.4585V44.4567V44.455V44.4532V44.4515V44.4497V44.448V44.4462V44.4445V44.4427V44.441V44.4392V44.4375V44.4357V44.434V44.4322V44.4305V44.4288V44.427V44.4253V44.4235V44.4218V44.4201V44.4183V44.4166V44.4149V44.4131V44.4114V44.4097V44.4079V44.4062V44.4045V44.4027V44.401V44.3993V44.3976V44.3958V44.3941V44.3924V44.3907V44.389V44.3872V44.3855V44.3838V44.3821V44.3804V44.3787V44.3769V44.3752V44.3735V44.3718V44.3701V44.3684V44.3667V44.365V44.3633V44.3615V44.3598V44.3581V44.3564V44.3547V44.353V44.3513V44.3496V44.3479V44.3462V44.3445V44.3428V44.3411V44.3394V44.3377V44.336V44.3344V44.3327V44.331V44.3293V44.3276V44.3259V44.3242V44.3225V44.3208V44.3191V44.3175V44.3158V44.3141V44.3124V44.3107V44.309V44.3074V44.3057V44.304V44.3023V44.3006V44.299V44.2973V44.2956V44.2939V44.2922V44.2906V44.2889V44.2872V44.2855V44.2839V44.2822V44.2805V44.2789V44.2772V44.2755V44.2739V44.2722V44.2705V44.2689V44.2672V44.2655V44.2639V44.2622V44.2605V44.2589V44.2572V44.2555V44.2539V44.2522V44.2506V44.2489V44.2472V44.2456V44.2439V44.2423V44.2406V44.2389V44.2373V44.2356V44.234V44.2323V44.2307V44.229V44.2274V44.2257V44.2241V44.2224V44.2208V44.2191V44.2175V44.2158V44.2142V44.2125V44.2109V44.2092V44.2076V44.2059V44.2043V44.2026V44.201V44.1993V44.1977V44.196V44.1944V44.1928V44.1911V44.1895V44.1878V44.1862V44.1846V44.1829V44.1813V44.1796V44.178V44.1764V44.1747V44.1731V44.1714V44.1698V44.1682V44.1665V44.1649V44.1633V44.1616V44.16V44.1583V44.1567V44.1551V44.1534V44.1518V44.1502V44.1485V44.1469V44.1453V44.1436V44.142V44.1404V44.1387V44.1371V44.1355V44.1339V44.1322V44.1306V44.129V44.1273V44.1257V44.1241V44.1224V44.1208V44.1192V44.1176V44.1159V44.1143V44.1127V44.111V44.1094V44.1078V44.1062V44.1045V44.1029V44.1013V44.0997V44.098V44.0964V44.0948V44.0932V44.0915V44.0899V44.0883V44.0867V44.085V44.0834V44.0818V44.0802V44.0785V44.0769V44.0753V44.0737V44.0721V44.0704V44.0688V44.0672V44.0656V44.0639V44.0623V44.0607V44.0591V44.0574V44.0558V44.0542V44.0526V44.051V44.0493V44.0477V44.0461V44.0445V44.0429V44.0412V44.0396V44.038V44.0364V44.0347V44.0331V44.0315V44.0299V44.0283V44.0266V44.025V44.0234V44.0218V44.0202V44.0185V44.0169V44.0153V44.0137V44.012V44.0104V44.0088V44.0072V44.0056V44.0039V44.0023V44.0007V43.9991V43.9974V43.9958V43.9942V43.9926V43.991V43.9893V43.9877V43.9861V43.9845V43.9828V43.9812V43.9796V43.978V43.9764V43.9747V43.9731V43.9715V43.9699V43.9682V43.9666V43.965V43.9634V43.9617V43.9601V43.9585V43.9569V43.9552V43.9536V43.952V43.9504V43.9487V43.9471V43.9455V43.9439V43.9422V43.9406V43.939V43.9374V43.9357V43.9341V43.9325V43.9309V43.9292V43.9276V43.926V43.9243V43.9227V43.9211V43.9194V43.9178V43.9162V43.9146V43.9129V43.9113V43.9097V43.908V43.9064V43.9048V43.9031V43.9015V43.8999V43.8982V43.8966V43.895V43.8933V43.8917V43.8901V43.8884V43.8868V43.8852V43.8835V43.8819V43.8802V43.8786V43.877V43.8753V43.8737V43.8721V43.8704V43.8688V43.8671V43.8655V43.8639V43.8622V43.8606V43.8589V43.8573V43.8556V43.854V43.8524V43.8507V43.8491V43.8474V43.8458V43.8441V43.8425V43.8408V43.8392V43.8376V43.8359V43.8343V43.8326V43.831V43.8293V43.8277V43.826V43.8244V43.8227V43.821V43.8194V43.8177V43.8161V43.8144V43.8128V43.8111V43.8095V43.8078V43.8062V43.8045V43.8028V43.8012V43.7995V43.7979V43.7962V43.7945V43.7929V43.7912V43.7896V43.7879V43.7862V43.7846V43.7829V43.7812V43.7796V43.7779V43.7762V43.7746V43.7729V43.7712V43.7696V43.7679V43.7662V43.7645V43.7629V43.7612V43.7595V43.7578V43.7562V43.7545V43.7528V43.7511V43.7495V43.7478V43.7461V43.7444V43.7427V43.7411V43.7394V43.7377V43.736V43.7343V43.7326V43.731V43.7293V43.7276V43.7259V43.7242V43.7225V43.7208V43.7191V43.7175V43.7158V43.7141V43.7124V43.7107V43.709V43.7073V43.7056V43.7039V43.7022V43.7005V43.6988V43.6971V43.6954V43.6937V43.692V43.6903V43.6886V43.6869V43.6852V43.6835V43.6818V43.68V43.6783V43.6766V43.6749V43.6732V43.6715V43.6698V43.6681V43.6663V43.6646V43.6629L1.03385 43.6612L1.03385 43.6605C1.03047 38.9123 1.02438 34.1636 1.01829 29.4144C1.00914 22.2868 1 15.1581 1 8.02821C1 7.16062 1.43647 6.26456 2.44689 5.37429C3.46353 4.47856 4.99447 3.65495 6.97856 2.9786C10.5452 1.76669 15.5014 1 20.9896 1C26.4779 1 31.4296 1.76673 34.9956 2.98266L34.9966 2.983C36.8004 3.59591 38.233 4.33302 39.2445 5.13871C40.2573 5.94547 40.7857 6.76839 40.9327 7.5559L40.9481 7.63869L40.9772 7.71773C40.9834 7.73471 40.9919 7.76759 40.9919 7.82114V25.019C40.8097 25.0121 40.6268 25.0086 40.443 25.0086C40.4223 25.0086 40.4016 25.0087 40.3809 25.0087V24.4384V22.5223L38.809 23.618C37.8357 24.2965 36.5512 24.9189 35.0009 25.4457C31.4337 26.6579 26.4772 27.4287 20.9938 27.4287C15.5055 27.4287 10.5538 26.662 6.98777 25.4461L6.98754 25.446C5.45172 24.9227 4.18396 24.3127 3.21952 23.6429L1.64909 22.5522V24.4642V32.4407V32.5444L1.67037 32.6459C1.87392 33.6167 2.67779 34.375 3.56182 34.9546C4.49042 35.5634 5.72902 36.1187 7.17229 36.6099L7.17273 36.61C10.73 37.8188 15.6175 38.5527 20.998 38.5527ZM40.498 29.2562C46.2796 29.2562 51 34.0403 51 39.9814C51 45.9225 46.2796 50.7067 40.498 50.7067C34.7165 50.7067 29.9961 45.9225 29.9961 39.9814C29.9961 34.0403 34.7165 29.2562 40.498 29.2562ZM7.1632 12.4517C10.7217 13.6654 15.6098 14.3947 20.9896 14.3947C26.3691 14.3947 31.257 13.6654 34.8154 12.4519C36.3632 11.9259 37.68 11.3232 38.6308 10.6568C39.5261 10.0292 40.3639 9.15447 40.3639 8.02821C40.3639 6.90194 39.5261 6.02721 38.6308 5.39966C37.6799 4.7331 36.3629 4.13038 34.8149 3.60436C31.2576 2.39557 26.3702 1.66169 20.9896 1.66169C15.6101 1.66169 10.7222 2.39098 7.16369 3.60455C5.52737 4.16169 4.21453 4.7662 3.28809 5.42742C2.39184 6.06709 1.65034 6.91285 1.63022 7.98848C1.60989 9.07576 2.3326 9.9389 3.23084 10.5922C4.15514 11.2645 5.4828 11.8806 7.1632 12.4517ZM48.1716 41.2885V38.67C48.1716 37.6082 47.3173 36.6994 46.2194 36.6994H43.7324V34.1447C43.7324 33.0757 42.8753 32.174 41.7803 32.174H39.2116C38.1165 32.174 37.2594 33.0757 37.2594 34.1447V36.6994H34.7725C33.6774 36.6994 32.8203 37.601 32.8203 38.67V41.2885C32.8203 42.3575 33.6774 43.2592 34.7725 43.2592H37.2594V45.8138C37.2594 46.8828 38.1165 47.7845 39.2116 47.7845H41.7803C42.8753 47.7845 43.7324 46.8828 43.7324 45.8138V43.2592H46.2194C47.3145 43.2592 48.1716 42.3575 48.1716 41.2885Z" stroke="#101010" stroke-width="2"/>
</svg>
