<svg width="52" height="52" viewBox="0 0 52 52" fill="none" xmlns="http://www.w3.org/2000/svg">
<g id="Icons">
<path id="Vector" d="M36.8333 43.334C36.8333 39.7441 31.9831 36.834 26 36.834C20.0169 36.834 15.1667 39.7441 15.1667 43.334M45.5 36.8348C45.5 34.1694 42.8261 31.8787 39 30.8757M6.5 36.8348C6.5 34.1694 9.17387 31.8787 13 30.8757M39 22.1789C40.3298 20.9887 41.1667 19.2591 41.1667 17.334C41.1667 13.7441 38.2565 10.834 34.6667 10.834C33.0019 10.834 31.4833 11.4598 30.3333 12.4891M13 22.1789C11.6702 20.9887 10.8333 19.2591 10.8333 17.334C10.8333 13.7441 13.7435 10.834 17.3333 10.834C18.9981 10.834 20.5167 11.4598 21.6667 12.4891M26 30.334C22.4101 30.334 19.5 27.4238 19.5 23.834C19.5 20.2441 22.4101 17.334 26 17.334C29.5899 17.334 32.5 20.2441 32.5 23.834C32.5 27.4238 29.5899 30.334 26 30.334Z" stroke="black" stroke-width="1.5" stroke-linecap="round" stroke-linejoin="round"/>
</g>
</svg>
