<svg width="54" height="54" viewBox="0 0 54 54" fill="none" xmlns="http://www.w3.org/2000/svg">
<path d="M33.7505 29.2501L24.7505 38.2501L20.2505 33.7501M9.85303 34.1997C7.8068 37.7439 6.78398 39.5166 6.93682 40.9707C7.07013 42.2391 7.73581 43.3914 8.76758 44.141C9.95007 45.0001 11.995 45.0001 16.0847 45.0001H37.9163C42.006 45.0001 44.0506 45.0001 45.2331 44.141C46.2649 43.3914 46.9308 42.2391 47.0642 40.9707C47.217 39.5166 46.1945 37.7439 44.1482 34.1997L33.2363 15.2997C31.1901 11.7555 30.1665 9.98375 28.8308 9.38905C27.6657 8.87032 26.3345 8.87032 25.1694 9.38905C23.8342 9.9835 22.8113 11.7553 20.7668 15.2965L9.85303 34.1997Z" stroke="black" stroke-width="2" stroke-linecap="round" stroke-linejoin="round"/>
</svg>
