<svg width="24" height="24" viewBox="0 0 24 24" fill="none" xmlns="http://www.w3.org/2000/svg">
<path d="M19.5 4.38462H17.25V3.69231C17.25 3.5087 17.171 3.33261 17.0303 3.20277C16.8897 3.07294 16.6989 3 16.5 3C16.3011 3 16.1103 3.07294 15.9697 3.20277C15.829 3.33261 15.75 3.5087 15.75 3.69231V4.38462H8.25V3.69231C8.25 3.5087 8.17098 3.33261 8.03033 3.20277C7.88968 3.07294 7.69891 3 7.5 3C7.30109 3 7.11032 3.07294 6.96967 3.20277C6.82902 3.33261 6.75 3.5087 6.75 3.69231V4.38462H4.5C4.10231 4.38504 3.72105 4.53105 3.43984 4.79062C3.15864 5.0502 3.00045 5.40214 3 5.76923V19.6154C3.00045 19.9825 3.15864 20.3344 3.43984 20.594C3.72105 20.8536 4.10231 20.9996 4.5 21H19.5C19.8977 20.9996 20.279 20.8536 20.5602 20.594C20.8414 20.3344 20.9995 19.9825 21 19.6154V5.76923C20.9995 5.40214 20.8414 5.0502 20.5602 4.79062C20.279 4.53105 19.8977 4.38504 19.5 4.38462ZM4.5 5.76923H6.75V6.46154C6.75 6.64515 6.82902 6.82124 6.96967 6.95107C7.11032 7.08091 7.30109 7.15385 7.5 7.15385C7.69891 7.15385 7.88968 7.08091 8.03033 6.95107C8.17098 6.82124 8.25 6.64515 8.25 6.46154V5.76923H15.75V6.46154C15.75 6.64515 15.829 6.82124 15.9697 6.95107C16.1103 7.08091 16.3011 7.15385 16.5 7.15385C16.6989 7.15385 16.8897 7.08091 17.0303 6.95107C17.171 6.82124 17.25 6.64515 17.25 6.46154V5.76923H19.5L19.5002 8.53846H4.5V5.76923ZM19.5 19.6154H4.5V9.92308H19.5003L19.5009 19.6154H19.5ZM12 15.8074C12 16.2181 11.8681 16.6196 11.621 16.9611C11.3739 17.3026 11.0226 17.5688 10.6117 17.726C10.2007 17.8833 9.74841 17.9246 9.31203 17.8446C8.87564 17.7647 8.47473 17.5671 8.15996 17.2769C8.01922 17.1471 7.94009 16.9711 7.93998 16.7875C7.93986 16.6039 8.01877 16.4277 8.15934 16.2978C8.29991 16.1679 8.49063 16.0949 8.68954 16.0948C8.88846 16.0947 9.07927 16.1675 9.22 16.2973C9.30725 16.3777 9.41465 16.437 9.53267 16.47C9.6507 16.503 9.77572 16.5086 9.89666 16.4864C10.0176 16.4641 10.1307 16.4147 10.226 16.3424C10.3213 16.2702 10.3958 16.1774 10.443 16.0722C10.4902 15.967 10.5085 15.8527 10.4964 15.7394C10.4843 15.6261 10.4421 15.5174 10.3735 15.4227C10.305 15.3281 10.2123 15.2505 10.1035 15.1969C9.99473 15.1432 9.87332 15.1151 9.75 15.1151C9.60873 15.1151 9.47033 15.0783 9.35073 15.0089C9.23114 14.9395 9.13522 14.8403 9.07402 14.7228C9.01282 14.6052 8.98883 14.4741 9.00481 14.3446C9.02079 14.215 9.07608 14.0922 9.16434 13.9904L9.68952 13.3844H8.625C8.42609 13.3844 8.23532 13.3114 8.09467 13.1816C7.95402 13.0518 7.875 12.8757 7.875 12.6921C7.875 12.5084 7.95402 12.3324 8.09467 12.2025C8.23532 12.0727 8.42609 11.9997 8.625 11.9997H11.25C11.3913 11.9997 11.5297 12.0366 11.6493 12.106C11.7689 12.1754 11.8648 12.2746 11.926 12.3921C11.9872 12.5097 12.0112 12.6408 11.9952 12.7703C11.9792 12.8999 11.9239 13.0227 11.8357 13.1245L11.0042 14.0839C11.3106 14.2737 11.5617 14.5302 11.7354 14.8308C11.909 15.1314 11.9999 15.4668 12 15.8074ZM15.75 12.6921V17.1921C15.75 17.3757 15.671 17.5518 15.5303 17.6816C15.3897 17.8114 15.1989 17.8844 15 17.8844C14.8011 17.8844 14.6103 17.8114 14.4697 17.6816C14.329 17.5518 14.25 17.3757 14.25 17.1921V14.0767L13.95 14.2844C13.7908 14.3946 13.5908 14.4419 13.3939 14.4159C13.197 14.3899 13.0193 14.2928 12.9 14.1459C12.7806 13.999 12.7294 13.8143 12.7575 13.6326C12.7857 13.4508 12.8909 13.2868 13.05 13.1766L14.55 12.1382C14.6615 12.061 14.7939 12.0141 14.9327 12.0025C15.0714 11.991 15.2108 12.0154 15.3354 12.0729C15.46 12.1304 15.5648 12.2187 15.638 12.3281C15.7112 12.4375 15.75 12.5635 15.75 12.6921Z" fill="#082B45"/>
</svg>
