<svg width="25" height="24" viewBox="0 0 25 24" fill="none" xmlns="http://www.w3.org/2000/svg">
<path d="M2.5 20H4.5M4.5 20H14.5M4.5 20V6.2002C4.5 5.08009 4.5 4.51962 4.71799 4.0918C4.90973 3.71547 5.21547 3.40973 5.5918 3.21799C6.01962 3 6.58009 3 7.7002 3H11.3002C12.4203 3 12.9796 3 13.4074 3.21799C13.7837 3.40973 14.0905 3.71547 14.2822 4.0918C14.5 4.5192 14.5 5.07899 14.5 6.19691V12M14.5 20H20.5M14.5 20V12M20.5 20H22.5M20.5 20V12C20.5 11.0681 20.4999 10.6024 20.3477 10.2349C20.1447 9.74481 19.7557 9.35523 19.2656 9.15224C18.8981 9 18.4316 9 17.4997 9C16.5679 9 16.1019 9 15.7344 9.15224C15.2443 9.35523 14.8552 9.74481 14.6522 10.2349C14.5 10.6024 14.5 11.0681 14.5 12M7.5 10H11.5M7.5 7H11.5" stroke="#082B45" stroke-opacity="0.8" stroke-width="1.5" stroke-linecap="round" stroke-linejoin="round"/>
</svg>
