<svg width="25" height="24" viewBox="0 0 25 24" fill="none" xmlns="http://www.w3.org/2000/svg">
<g id="Frame 60847">
<g id="Vector">
<path fill-rule="evenodd" clip-rule="evenodd" d="M11.761 12.739V2.22876C11.761 1.81414 11.4245 1.47542 11.0108 1.50304C10.6324 1.5283 10.2564 1.5726 9.88416 1.63552C8.32487 1.8991 6.83132 2.48944 5.50472 3.37585C3.65286 4.61322 2.20951 6.37194 1.3572 8.42962C0.504879 10.4873 0.281874 12.7515 0.716382 14.9359C1.15089 17.1203 2.22339 19.1269 3.79827 20.7017C5.37315 22.2766 7.37966 23.3491 9.56408 23.7836C11.7485 24.2181 14.0127 23.9951 16.0704 23.1428C18.1281 22.2905 19.8868 20.8471 21.1242 18.9953C22.0106 17.6687 22.6009 16.1751 22.8645 14.6158C22.9274 14.2436 22.9717 13.8676 22.997 13.4892C23.0246 13.0755 22.6859 12.739 22.2712 12.739H11.761ZM20.9555 14.6158H10.6349C10.2203 14.6158 9.88416 14.2797 9.88416 13.8651V3.54445C8.698 3.78658 7.56391 4.25719 6.54743 4.93637C5.00422 5.96752 3.80143 7.43312 3.09116 9.14785C2.3809 10.8626 2.19506 12.7494 2.55715 14.5698C2.91924 16.3901 3.81299 18.0622 5.12539 19.3746C6.43779 20.687 8.10988 21.5808 9.93023 21.9428C11.7506 22.3049 13.6374 22.1191 15.3521 21.4088C17.0669 20.6986 18.5325 19.4958 19.5636 17.9526C20.2428 16.9361 20.7134 15.802 20.9555 14.6158Z" fill="#082B45" fill-opacity="0.8"/>
<path fill-rule="evenodd" clip-rule="evenodd" d="M16.8536 2.56772C16.2989 2.33795 15.7248 2.1625 15.1393 2.04299V9.36072L22.457 9.36072C22.3375 8.77524 22.1621 8.20111 21.9323 7.64639C21.4607 6.50785 20.7694 5.47335 19.8981 4.60195C19.0267 3.73055 17.9922 3.03932 16.8536 2.56772ZM24.3659 9.36072C24.2252 8.5281 23.9909 7.71199 23.6662 6.92816C23.1003 5.56191 22.2709 4.32051 21.2252 3.27483C20.1795 2.22915 18.9381 1.39967 17.5718 0.833755C16.788 0.509081 15.9719 0.274805 15.1393 0.134067C14.7666 0.0710662 14.3905 0.0268092 14.0126 0.00157778C13.5989 -0.0260428 13.2625 0.312677 13.2625 0.727295V10.4868C13.2625 10.9014 13.5986 11.2375 14.0132 11.2375L23.7727 11.2375C24.1873 11.2375 24.526 10.9011 24.4984 10.4874C24.4732 10.1095 24.4289 9.73343 24.3659 9.36072Z" fill="#082B45" fill-opacity="0.8"/>
</g>
</g>
</svg>
