<svg width="25" height="24" viewBox="0 0 25 24" fill="none" xmlns="http://www.w3.org/2000/svg">
<path d="M6.5 7.5002V7.2002C6.5 6.08009 6.5 5.51962 6.71799 5.0918C6.90973 4.71547 7.21547 4.40973 7.5918 4.21799C8.01962 4 8.58009 4 9.7002 4H18.3002C19.4203 4 19.9796 4 20.4074 4.21799C20.7837 4.40973 21.0905 4.71547 21.2822 5.0918C21.5 5.5192 21.5 6.07899 21.5 7.19691V13.8031C21.5 14.921 21.5 15.48 21.2822 15.9074C21.0905 16.2837 20.7839 16.5905 20.4076 16.7822C19.9802 17 19.421 17 18.3031 17H11M3.5 16.8002V11.2002C3.5 10.0801 3.5 9.51962 3.71799 9.0918C3.90973 8.71547 4.21547 8.40973 4.5918 8.21799C5.01962 8 5.58009 8 6.7002 8H7.30019C8.4203 8 8.97957 8 9.4074 8.21799C9.78372 8.40973 10.0905 8.71547 10.2822 9.0918C10.5 9.5192 10.5 10.079 10.5 11.1969V16.8031C10.5 17.921 10.5 18.48 10.2822 18.9074C10.0905 19.2837 9.78372 19.5905 9.4074 19.7822C8.97999 20 8.421 20 7.30309 20H6.69691C5.57899 20 5.0192 20 4.5918 19.7822C4.21547 19.5905 3.90973 19.2837 3.71799 18.9074C3.5 18.4796 3.5 17.9203 3.5 16.8002Z" stroke="#082B45" stroke-opacity="0.8" stroke-width="1.5" stroke-linecap="round" stroke-linejoin="round"/>
</svg>
