<svg width="24" height="24" viewBox="0 0 24 24" fill="none" xmlns="http://www.w3.org/2000/svg">
<path d="M17.3124 20.8412C17.2733 20.8363 17.2335 20.8392 17.1955 20.8497C17.1575 20.8602 17.1219 20.8781 17.0908 20.9024C17.0597 20.9267 17.0336 20.9568 17.0142 20.9911C16.9947 21.0255 16.9822 21.0633 16.9774 21.1024C16.9333 21.4591 16.6287 21.728 16.2685 21.728H4.49049C4.09657 21.728 3.77595 21.4078 3.77595 21.0135V8.8456L5.41062 14.2348C5.4293 14.2965 5.46731 14.3506 5.51904 14.389C5.57077 14.4275 5.63349 14.4483 5.69794 14.4484C5.72678 14.4484 5.75645 14.444 5.78529 14.4352C5.94438 14.3871 6.03415 14.2192 5.98567 14.0605L4.48607 9.1161C4.69047 9.62465 5.189 9.98492 5.77045 9.98492C6.53347 9.98492 7.15462 9.36377 7.15462 8.60075V5.14829C9.15736 4.54047 11.5625 3.81129 13.791 3.13534C13.8673 3.11209 13.9312 3.05954 13.9688 2.98922C14.0063 2.91889 14.0145 2.83654 13.9914 2.76023C13.9429 2.60153 13.775 2.51176 13.6163 2.55985L8.0559 4.24658C7.73488 3.6174 7.08048 3.18581 6.32669 3.18581C5.25669 3.18581 4.38628 4.05622 4.38628 5.12622V5.35985L4.11776 5.44119C3.55914 5.61035 3.18403 6.11611 3.18403 6.6996L3.1748 7.05545V21.0135C3.1748 21.7393 3.76509 22.3292 4.49045 22.3292H16.2684C16.9316 22.3292 17.4927 21.8334 17.574 21.1762C17.5946 21.0115 17.4771 20.8612 17.3124 20.8412ZM4.98746 5.12626C4.98746 4.3877 5.58817 3.78695 6.32677 3.78695C6.80847 3.78695 7.23166 4.04262 7.46729 4.42536L6.94871 4.58247C6.4721 4.03423 5.6902 4.41168 5.60027 5.1339C5.58969 5.21678 5.57692 8.00502 5.577 8.11587C5.577 8.28176 5.60459 8.41644 5.77053 8.41644C5.93647 8.41644 5.9347 8.2818 5.9347 8.11587L5.97757 5.1339C5.97757 5.00085 6.17929 4.89263 6.31237 4.89263C6.44545 4.89263 6.55364 5.00081 6.55364 5.1339V8.60075C6.55364 9.03234 6.2022 9.38382 5.77057 9.38382C5.33894 9.38382 4.9875 9.03238 4.9875 8.60075L4.98746 5.12626ZM3.99439 6.19665L3.99558 6.19586C4.02298 6.17713 4.15499 6.03991 4.38632 6.00709C4.39606 8.7081 4.36432 8.63679 4.41515 8.88247L3.81608 6.90757C3.73681 6.6434 3.81564 6.37651 3.99439 6.19665Z" fill="white" stroke="white" stroke-width="0.501754"/>
<path d="M16.9664 2.866C16.7493 2.15039 16.0037 1.78145 15.3257 1.98919L14.7038 2.17756C14.6275 2.2008 14.5636 2.25335 14.526 2.32368C14.4884 2.394 14.4803 2.47635 14.5034 2.55267C14.5265 2.62891 14.579 2.69284 14.6493 2.73041C14.7195 2.76798 14.8018 2.77612 14.8781 2.75305C15.4675 2.58269 15.5322 2.53345 15.7081 2.53345C16.0194 2.53345 16.3008 2.74183 16.3913 3.04081L17.2549 5.88854L17.521 6.7654L20.5419 16.7248C20.6599 17.1108 20.4312 17.5052 20.0658 17.616C8.02616 21.2679 8.74837 21.0657 8.58713 21.0657C8.27534 21.0657 7.99442 20.8573 7.90385 20.5583L6.27161 15.1775C6.24846 15.1012 6.19599 15.0373 6.12573 14.9997C6.05547 14.9621 5.97316 14.954 5.8969 14.9771C5.82061 15.0003 5.75666 15.0528 5.71909 15.1232C5.68152 15.1935 5.6734 15.2759 5.69652 15.3522L7.32837 20.733C7.49788 21.2917 8.00361 21.6668 8.58713 21.6668C8.71667 21.6667 8.84548 21.6475 8.96944 21.6099L16.9199 19.1982V19.9043C16.9199 19.9438 16.9276 19.9829 16.9427 20.0193C16.9578 20.0558 16.98 20.0889 17.0079 20.1169C17.0358 20.1448 17.0689 20.1669 17.1054 20.182C17.1419 20.1971 17.181 20.2049 17.2205 20.2048C17.3002 20.2048 17.3766 20.1731 17.433 20.1168C17.4893 20.0604 17.521 19.984 17.521 19.9043V19.0158L20.2401 18.1911C20.7987 18.0215 21.1742 17.5158 21.1742 16.9327C21.1742 16.5669 21.3225 17.2946 16.9664 2.866Z" fill="white" stroke="white" stroke-width="0.501754"/>
<path d="M12.0373 9.09523C11.7832 8.25755 11.1112 8.21754 10.7097 8.19372C10.3472 8.16715 10.0952 8.18381 10.0132 7.91319C9.93436 7.65343 10.1173 7.51911 10.3776 7.44012C10.7584 7.32462 10.8908 7.47512 11.0738 7.4196C11.2889 7.35433 11.3414 7.0989 11.2954 6.94732C11.1975 6.6246 10.7054 6.65785 10.4418 6.7008L10.4052 6.57997C10.3449 6.38114 10.1341 6.26846 9.93524 6.32876C9.73641 6.38905 9.62373 6.59986 9.68407 6.79873L9.73442 6.96466C9.31473 7.24065 9.16633 7.65975 9.31644 8.15466C9.53269 8.86757 10.1009 8.90452 10.5575 8.93419C11.0129 8.96378 11.2364 8.99321 11.3406 9.33674C11.4302 9.63218 11.3183 9.81641 10.9884 9.91644C10.4568 10.0776 10.377 9.68548 10.0871 9.77342C9.8963 9.83129 9.80876 10.0756 9.86078 10.2471C9.94614 10.5286 10.381 10.7065 10.8574 10.667L10.8937 10.7868C10.954 10.9856 11.1648 11.0983 11.3637 11.0379C11.5625 10.9777 11.6752 10.7668 11.6149 10.568L11.5761 10.4402C12.0448 10.1588 12.2129 9.67418 12.0373 9.09523ZM16.6554 10.6726C16.6322 10.5964 16.5797 10.5324 16.5094 10.4948C16.4392 10.4573 16.3568 10.4491 16.2805 10.4722L7.71251 13.0712C7.63668 13.0947 7.57324 13.1473 7.53603 13.2174C7.49882 13.2875 7.49087 13.3695 7.51392 13.4455C7.53696 13.5215 7.58913 13.5853 7.65903 13.6229C7.72893 13.6606 7.81089 13.669 7.887 13.6464L16.455 11.0475C16.5313 11.0244 16.5953 10.9719 16.6328 10.9016C16.6704 10.8313 16.6785 10.7489 16.6554 10.6726ZM17.1559 12.3218C17.1074 12.1631 16.9394 12.0733 16.7808 12.1214L16.7331 12.1359L8.21279 14.7203C8.13653 14.7435 8.0726 14.7961 8.03503 14.8664C7.99747 14.9367 7.98933 15.0191 8.01241 15.0954C8.06077 15.2548 8.22949 15.3434 8.38752 15.2958L16.9555 12.6969C17.1142 12.6484 17.204 12.4805 17.1559 12.3218ZM17.656 13.9709C17.6328 13.8947 17.5803 13.8308 17.5101 13.7932C17.4398 13.7557 17.3575 13.7475 17.2813 13.7705L16.7331 13.9368L8.71291 16.3697C8.38358 16.4695 8.45644 16.958 8.80025 16.958C8.82909 16.958 8.85836 16.9536 8.88759 16.9448L17.4556 14.3459C17.6143 14.2979 17.7041 14.13 17.656 13.9709ZM18.1561 15.6204C18.133 15.5441 18.0805 15.4802 18.0103 15.4426C17.94 15.4051 17.8577 15.3969 17.7814 15.42L17.3342 15.5559L9.21426 18.0186L9.21406 18.0187L9.21418 18.0186L9.2135 18.0188L9.21362 18.0188L9.21346 18.0188C8.88346 18.1186 8.95724 18.6072 9.30041 18.6072C9.3681 18.6072 8.86452 18.7544 17.9558 15.9951C18.1149 15.947 18.2046 15.779 18.1561 15.6204Z" fill="white"/>
</svg>
