<svg width="24" height="24" viewBox="0 0 24 24" fill="none" xmlns="http://www.w3.org/2000/svg">
<path d="M20.4098 12.2469H16.8531C16.8029 11.8199 16.704 11.4 16.5583 10.9955H20.4649C20.759 10.9955 20.9983 10.7589 21.0015 10.4648C21.048 6.23165 17.6309 2.88281 13.5095 2.88281C13.2131 2.88281 12.9728 3.12308 12.9728 3.41944V7.51648C12.5764 7.38705 12.1667 7.30205 11.7515 7.26305V5.23968C11.7515 4.94332 11.5112 4.70305 11.2148 4.70305C6.67581 4.70305 3.00195 8.37608 3.00195 12.9156C3.00195 17.4544 6.67538 21.1281 11.2148 21.1281C13.0319 21.1281 14.7538 20.5466 16.1945 19.4464C16.4315 19.2654 16.475 18.9263 16.2932 18.6914L15.0559 17.093C15.4244 16.754 15.7468 16.368 16.0148 15.945L17.5595 17.9406C17.74 18.1738 18.075 18.2177 18.3096 18.0386C19.9611 16.7772 20.9222 14.8641 20.9464 12.7898C20.9498 12.491 20.7084 12.2469 20.4098 12.2469ZM14.0461 3.978C17.1377 4.23189 19.6894 6.71179 19.9128 9.92224H16.0374C15.5427 9.12797 14.8576 8.46405 14.0461 7.99522V3.978ZM15.1016 18.9054C13.9457 19.6591 12.6127 20.0549 11.2148 20.0549C7.27804 20.0549 4.07521 16.8522 4.07521 12.9156C4.07521 9.15941 6.99102 6.07141 10.6782 5.79623V7.26297C7.79796 7.53415 5.53655 9.96553 5.53655 12.9155C5.53655 16.0464 8.0837 18.5936 11.2146 18.5936C12.3097 18.5936 13.3332 18.2816 14.2014 17.7424L15.1016 18.9054ZM11.2146 17.5203C8.67549 17.5203 6.6098 15.4546 6.6098 12.9155C6.6098 10.3764 8.67549 8.31072 11.2146 8.31072C13.7537 8.31072 15.8194 10.3764 15.8194 12.9155C15.8194 15.4546 13.7537 17.5203 11.2146 17.5203ZM18.0668 16.8425L16.544 14.8752C16.7283 14.3753 16.8408 13.8517 16.8781 13.3202H19.8411C19.6961 14.6747 19.0702 15.9172 18.0668 16.8425Z" fill="white"/>
<path d="M11.7925 12.3865H10.64C10.3652 12.3865 10.1416 12.163 10.1416 11.8881C10.1416 11.6125 10.3647 11.3898 10.6398 11.3898L10.6476 11.3898H11.7513C11.9482 11.3918 12.143 11.4802 12.2858 11.6327C12.4885 11.8489 12.8281 11.86 13.0443 11.6573C13.2606 11.4546 13.2716 11.115 13.0689 10.8988C12.71 10.5158 12.2185 10.3166 11.7528 10.3166V9.84913C11.7528 9.55277 11.5126 9.3125 11.2162 9.3125C10.9198 9.3125 10.6796 9.55277 10.6796 9.84913V10.3166C9.71213 10.3166 9.06836 11.0643 9.06836 11.8882C9.06836 12.7548 9.77338 13.4598 10.64 13.4598H11.7925C12.0672 13.4598 12.2908 13.6834 12.2908 13.9581C12.2908 14.2231 12.0815 14.4565 11.7848 14.4565H10.5806C10.4416 14.4551 10.2938 14.4049 10.1644 14.3151C9.92092 14.1461 9.58656 14.2067 9.41763 14.4501C9.2487 14.6936 9.30913 15.028 9.55261 15.1969C9.92918 15.4582 10.2735 15.5297 10.6795 15.5297V15.9972C10.6795 16.2936 10.9198 16.5338 11.2162 16.5338C11.5125 16.5338 11.7528 16.2936 11.7528 15.9972V15.5297C12.7282 15.5297 13.364 14.7748 13.364 13.9581C13.3641 13.0915 12.6591 12.3865 11.7925 12.3865Z" fill="white"/>
</svg>
