<svg width="24" height="24" viewBox="0 0 24 24" fill="none" xmlns="http://www.w3.org/2000/svg">
<path d="M13.8695 9.66206C13.7576 9.34739 13.5512 9.07499 13.2785 8.88214C13.0059 8.68929 12.6802 8.58541 12.3463 8.58474H11.0959C10.7391 8.58287 10.3944 8.71334 10.1283 8.95093C9.86216 9.18852 9.6936 9.51635 9.65519 9.87101C9.61677 10.2257 9.71124 10.582 9.92031 10.871C10.1294 11.1601 10.4382 11.3614 10.7871 11.4359L12.6911 11.8513C13.0804 11.9366 13.4245 12.1627 13.6572 12.4862C13.89 12.8097 13.995 13.2078 13.9521 13.604C13.9091 14.0002 13.7213 14.3666 13.4246 14.6328C13.128 14.8989 12.7434 15.0461 12.3449 15.0459H11.269C10.5655 15.0459 9.9673 14.5973 9.74575 13.97M11.8076 8.58474V6.96875M11.8076 16.6619V15.0473M5.07227 21.0044V17.5426H8.5341" stroke="white" stroke-width="1.5" stroke-linecap="round" stroke-linejoin="round"/>
<path d="M20.8437 10.348C21.2113 12.3077 20.9178 14.334 20.0093 16.1088C19.1008 17.8837 17.6286 19.3066 15.8239 20.1543C14.0192 21.002 11.9841 21.2264 10.038 20.7924C8.09198 20.3584 6.3451 19.2905 5.0716 17.7563M3.15236 13.6603C2.78475 11.7006 3.07825 9.67428 3.98679 7.89943C4.89533 6.12459 6.36748 4.70165 8.17219 3.85396C9.97689 3.00627 12.012 2.78182 13.9581 3.21583C15.9041 3.64984 17.651 4.71775 18.9245 6.25194" stroke="white" stroke-width="1.5" stroke-linecap="round" stroke-linejoin="round"/>
<path d="M18.9247 3.01562V6.47746H15.4629" stroke="white" stroke-width="1.5" stroke-linecap="round" stroke-linejoin="round"/>
</svg>
