<svg width="20" height="22" viewBox="0 0 20 22" fill="none" xmlns="http://www.w3.org/2000/svg">
<path d="M16.9272 3.12437C16.03 2.21817 14.9629 1.49783 13.7869 1.0046C12.611 0.511372 11.3493 0.254945 10.0741 0.25H10C7.41414 0.25 4.93419 1.27723 3.10571 3.10571C1.27723 4.93419 0.25 7.41414 0.25 10V15.25C0.25 15.8467 0.487053 16.419 0.90901 16.841C1.33097 17.2629 1.90326 17.5 2.5 17.5H4C4.59674 17.5 5.16903 17.2629 5.59099 16.841C6.01295 16.419 6.25 15.8467 6.25 15.25V11.5C6.25 10.9033 6.01295 10.331 5.59099 9.90901C5.16903 9.48705 4.59674 9.25 4 9.25H1.78375C1.92839 7.68619 2.51578 6.196 3.47709 4.9541C4.43839 3.71219 5.73377 2.77003 7.21141 2.23803C8.68904 1.70603 10.2877 1.60624 11.82 1.95035C13.3524 2.29446 14.7548 3.06822 15.8631 4.18094C17.2177 5.54247 18.0509 7.33662 18.2172 9.25H16C15.4033 9.25 14.831 9.48705 14.409 9.90901C13.9871 10.331 13.75 10.9033 13.75 11.5V15.25C13.75 15.8467 13.9871 16.419 14.409 16.841C14.831 17.2629 15.4033 17.5 16 17.5H18.25C18.25 18.0967 18.0129 18.669 17.591 19.091C17.169 19.5129 16.5967 19.75 16 19.75H10.75C10.5511 19.75 10.3603 19.829 10.2197 19.9697C10.079 20.1103 10 20.3011 10 20.5C10 20.6989 10.079 20.8897 10.2197 21.0303C10.3603 21.171 10.5511 21.25 10.75 21.25H16C16.9946 21.25 17.9484 20.8549 18.6517 20.1516C19.3549 19.4484 19.75 18.4946 19.75 17.5V10C19.7549 8.7246 19.5081 7.46077 19.0237 6.28093C18.5393 5.10108 17.8268 4.02841 16.9272 3.12437ZM4 10.75C4.19891 10.75 4.38968 10.829 4.53033 10.9697C4.67098 11.1103 4.75 11.3011 4.75 11.5V15.25C4.75 15.4489 4.67098 15.6397 4.53033 15.7803C4.38968 15.921 4.19891 16 4 16H2.5C2.30109 16 2.11032 15.921 1.96967 15.7803C1.82902 15.6397 1.75 15.4489 1.75 15.25V10.75H4ZM16 16C15.8011 16 15.6103 15.921 15.4697 15.7803C15.329 15.6397 15.25 15.4489 15.25 15.25V11.5C15.25 11.3011 15.329 11.1103 15.4697 10.9697C15.6103 10.829 15.8011 10.75 16 10.75H18.25V16H16Z" fill="#082B45" fill-opacity="0.8"/>
</svg>
