<svg width="24" height="24" viewBox="0 0 24 24" fill="none" xmlns="http://www.w3.org/2000/svg">
<path d="M10.6407 15.8672C10.8347 15.8672 10.9922 15.7097 10.9922 15.5157C10.9922 15.3216 10.8347 15.1641 10.6407 15.1641C10.4466 15.1641 10.2891 15.3216 10.2891 15.5157C10.2891 15.7097 10.4466 15.8672 10.6407 15.8672Z" fill="white"/>
<path d="M3.1489 16.6792L7.36795 20.8983C7.40059 20.9309 7.43934 20.9568 7.48199 20.9745C7.52464 20.9922 7.57035 21.0013 7.61652 21.0013C7.66269 21.0013 7.7084 20.9922 7.75105 20.9745C7.79371 20.9568 7.83246 20.9309 7.86509 20.8983L10.1856 18.5778C10.2182 18.5452 10.2441 18.5064 10.2618 18.4638C10.2795 18.4211 10.2886 18.3754 10.2886 18.3292C10.2886 18.2831 10.2795 18.2373 10.2618 18.1947C10.2441 18.152 10.2182 18.1133 10.1856 18.0807L10.0826 17.9776H15.1507C15.5958 17.9776 16.0206 17.8108 16.3481 17.5067L20.6135 13.5092C21.0218 13.13 21.157 12.5276 20.9499 12.0104C20.8764 11.8259 20.7631 11.6598 20.6182 11.524C20.4733 11.3881 20.3002 11.2859 20.1113 11.2244C19.9226 11.1624 19.7225 11.1428 19.5253 11.1668C19.3281 11.1909 19.1387 11.258 18.9703 11.3635C18.9681 11.3649 18.0234 11.9849 18.0234 11.9849C18.0169 10.079 16.8651 8.04665 15.2795 7.13172C15.3721 7.02516 15.4425 6.90113 15.4865 6.76695C15.6679 6.21495 15.3663 5.61754 14.8135 5.43503C14.7962 5.42926 14.7789 5.42416 14.7616 5.41882L15.6666 3.79301C15.6924 3.74686 15.7073 3.6955 15.7105 3.64276C15.7136 3.59001 15.7048 3.53725 15.6846 3.48839C15.6646 3.4395 15.6338 3.39577 15.5945 3.36045C15.5552 3.32514 15.5084 3.29915 15.4576 3.28443C14.8087 3.09574 14.1342 3 13.4529 3C12.7717 3 12.0971 3.09574 11.4481 3.28429C11.3974 3.29903 11.3506 3.32502 11.3113 3.36033C11.2719 3.39565 11.2411 3.43938 11.221 3.48827C11.2009 3.53715 11.1921 3.58994 11.1952 3.64271C11.1984 3.69547 11.2134 3.74684 11.2391 3.79301L12.1442 5.41882C12.1266 5.4243 12.109 5.42954 12.0914 5.43531C11.5395 5.61754 11.238 6.21481 11.4194 6.76719C11.4637 6.90127 11.5343 7.02512 11.6272 7.13144C10.018 8.05998 8.88224 10.1132 8.88224 12.0006C8.88224 12.0522 8.88347 12.103 8.88512 12.1534C8.25543 12.3252 7.66996 12.6382 7.1776 13.0693L6.10909 14.0041L5.96652 13.8616C5.93388 13.8289 5.89513 13.803 5.85248 13.7854C5.80983 13.7677 5.76412 13.7586 5.71795 13.7586C5.67178 13.7586 5.62607 13.7677 5.58341 13.7854C5.54076 13.803 5.50201 13.8289 5.46938 13.8616L3.1489 16.1821C3.11624 16.2147 3.09034 16.2535 3.07267 16.2961C3.05499 16.3388 3.0459 16.3845 3.0459 16.4306C3.0459 16.4768 3.05499 16.5225 3.07267 16.5652C3.09034 16.6078 3.11624 16.6466 3.1489 16.6792ZM12.0758 3.85028C12.5263 3.75247 12.9877 3.70318 13.4529 3.70318C13.918 3.70318 14.3795 3.75247 14.8301 3.85028L14.0466 5.25754C13.6527 5.20247 13.2531 5.20247 12.8593 5.25754L12.0758 3.85028ZM12.3109 6.10332C13.0324 5.86723 13.8189 5.84937 14.5939 6.10304C14.7783 6.16387 14.879 6.36329 14.8184 6.54734C14.7967 6.61432 14.7552 6.67316 14.6995 6.71617C14.6437 6.75918 14.5763 6.78434 14.506 6.78836C13.8127 6.56791 13.0926 6.56753 12.3996 6.78765H12.3995C12.255 6.77862 12.1323 6.68411 12.0873 6.54745C12.0267 6.36315 12.1274 6.16373 12.3109 6.10332ZM12.5053 7.49385C13.115 7.27425 13.7466 7.26905 14.3578 7.47905C15.9913 8.04071 17.3203 10.0691 17.3203 12.0006C17.3203 12.1643 17.31 12.3204 17.2897 12.4662L15.5997 13.5749C15.3382 13.2509 14.9416 13.0554 14.5076 13.0554H13.8045V12.6434C14.2137 12.4982 14.5076 12.1074 14.5076 11.6491C14.5076 11.0674 14.0345 10.5943 13.4529 10.5943C13.2591 10.5943 13.1013 10.4366 13.1013 10.2427C13.1013 10.0488 13.2591 9.89112 13.4529 9.89112C13.5774 9.89112 13.7089 9.95472 13.8332 10.0749C13.9727 10.2099 14.1953 10.2062 14.3303 10.0668C14.4653 9.92723 14.4616 9.7046 14.3221 9.56959C14.1437 9.39682 13.9651 9.29922 13.8045 9.24588V8.83636C13.8045 8.64217 13.6471 8.48477 13.4529 8.48477C13.2587 8.48477 13.1013 8.64217 13.1013 8.83636V9.24838C12.6921 9.39355 12.3981 9.78441 12.3981 10.2427C12.3981 10.8243 12.8712 11.2975 13.4529 11.2975C13.6468 11.2975 13.8045 11.4551 13.8045 11.6491C13.8045 11.843 13.6468 12.0006 13.4529 12.0006C13.3026 12.0006 13.1406 11.9061 12.9964 11.7346C12.8714 11.586 12.6496 11.5668 12.501 11.6917C12.3524 11.8168 12.3331 12.0385 12.4581 12.1871C12.646 12.4107 12.8671 12.5665 13.1013 12.645V13.0554H12.9843C12.8115 13.0554 12.7339 12.9428 12.6122 12.8641C11.8693 12.3073 10.9492 12.0006 10.021 12.0006C9.87589 12.0006 9.73044 12.0082 9.58569 12.0229C9.58569 12.0155 9.58541 12.0082 9.58541 12.0006C9.58541 10.0962 10.8954 8.07454 12.5053 7.49385ZM7.64075 13.5983C8.30131 13.0198 9.15015 12.7038 10.021 12.7038C10.7981 12.7038 11.5684 12.9605 12.19 13.4265C12.2797 13.479 12.5294 13.7586 12.9841 13.7586H14.5076C14.9079 13.7586 15.2108 14.0839 15.2108 14.4618C15.2108 14.8495 14.8953 15.1649 14.5076 15.1649H12.0465C11.8523 15.1649 11.6949 15.3223 11.6949 15.5165C11.6949 15.7107 11.8523 15.8681 12.0465 15.8681H14.5076C15.2831 15.8681 15.914 15.2372 15.914 14.4618C15.914 14.3811 15.9069 14.3016 15.8934 14.2233L19.346 11.9581C19.4269 11.908 19.5178 11.8762 19.6122 11.8649C19.7067 11.8536 19.8025 11.8631 19.893 11.8927C19.984 11.9223 20.0674 11.9717 20.1372 12.0371C20.207 12.1026 20.2616 12.1827 20.297 12.2716C20.3985 12.5249 20.3348 12.8085 20.1337 12.9951L15.8685 16.9925C15.6736 17.174 15.417 17.2748 15.1507 17.2745H9.37942L6.6075 14.5024L7.64075 13.5983ZM5.71798 14.6074L9.43986 18.3292L7.61652 20.1526L3.89461 16.4306L5.71798 14.6074Z" fill="white" stroke="white" stroke-width="0.5"/>
</svg>
