<svg width="24" height="24" viewBox="0 0 24 24" fill="none" xmlns="http://www.w3.org/2000/svg">
<path fill-rule="evenodd" clip-rule="evenodd" d="M11.261 12.739V2.22876C11.261 1.81414 10.9245 1.47542 10.5108 1.50304C10.1324 1.5283 9.75642 1.5726 9.38416 1.63552C7.82487 1.8991 6.33132 2.48944 5.00472 3.37585C3.15286 4.61322 1.70951 6.37194 0.857197 8.42962C0.00487923 10.4873 -0.218126 12.7515 0.216382 14.9359C0.650889 17.1203 1.72339 19.1269 3.29827 20.7017C4.87315 22.2766 6.87966 23.3491 9.06408 23.7836C11.2485 24.2181 13.5127 23.9951 15.5704 23.1428C17.6281 22.2905 19.3868 20.8471 20.6242 18.9953C21.5106 17.6687 22.1009 16.1751 22.3645 14.6158C22.4274 14.2436 22.4717 13.8676 22.497 13.4892C22.5246 13.0755 22.1859 12.739 21.7712 12.739H11.261ZM20.4555 14.6158H10.1349C9.72027 14.6158 9.38416 14.2797 9.38416 13.8651V3.54445C8.198 3.78658 7.06391 4.25719 6.04743 4.93637C4.50422 5.96752 3.30143 7.43312 2.59116 9.14785C1.8809 10.8626 1.69506 12.7494 2.05715 14.5698C2.41924 16.3901 3.31299 18.0622 4.62539 19.3746C5.93779 20.687 7.60988 21.5808 9.43023 21.9428C11.2506 22.3049 13.1374 22.1191 14.8521 21.4088C16.5669 20.6986 18.0325 19.4958 19.0636 17.9526C19.7428 16.9361 20.2134 15.802 20.4555 14.6158Z" fill="white"/>
<path fill-rule="evenodd" clip-rule="evenodd" d="M16.3536 2.56772C15.7989 2.33795 15.2248 2.1625 14.6393 2.04299V9.36072L21.957 9.36072C21.8375 8.77524 21.6621 8.20111 21.4323 7.64639C20.9607 6.50785 20.2694 5.47335 19.3981 4.60195C18.5267 3.73055 17.4922 3.03932 16.3536 2.56772ZM23.8659 9.36072C23.7252 8.5281 23.4909 7.71199 23.1662 6.92816C22.6003 5.56191 21.7709 4.32051 20.7252 3.27483C19.6795 2.22915 18.4381 1.39967 17.0718 0.833755C16.288 0.509081 15.4719 0.274805 14.6393 0.134067C14.2666 0.0710662 13.8905 0.0268092 13.5126 0.00157778C13.0989 -0.0260428 12.7625 0.312677 12.7625 0.727295V10.4868C12.7625 10.9014 13.0986 11.2375 13.5132 11.2375L23.2727 11.2375C23.6873 11.2375 24.026 10.9011 23.9984 10.4874C23.9732 10.1095 23.9289 9.73343 23.8659 9.36072Z" fill="white"/>
</svg>
