<svg width="24" height="24" viewBox="0 0 24 24" fill="none" xmlns="http://www.w3.org/2000/svg">
<path d="M12.0051 7.00226C13.1036 7.00226 14.0023 6.10351 14.0023 5.00504C14.0023 3.90656 13.1036 3.00781 12.0051 3.00781C10.9066 3.00781 10.0079 3.90656 10.0079 5.00504C10.0079 6.10351 10.9066 7.00226 12.0051 7.00226ZM12.0051 4.00643C12.5543 4.00643 13.0037 4.4558 13.0037 5.00504C13.0037 5.55428 12.5543 6.00365 12.0051 6.00365C11.4559 6.00365 11.0065 5.55428 11.0065 5.00504C11.0065 4.4558 11.4559 4.00643 12.0051 4.00643ZM9.45863 17.7124C7.78596 17.1632 5.96349 17.1632 4.29081 17.7124C3.51688 17.962 3.01758 18.686 3.01758 19.5099V20.4835C3.01758 20.7582 3.24227 20.9828 3.51688 20.9828H10.2575C10.5321 20.9828 10.7568 20.7582 10.7568 20.4835V19.5099C10.7568 18.686 10.2326 17.962 9.45863 17.7124ZM9.75822 19.9842H4.01619V19.5099C4.01619 19.1104 4.26584 18.7609 4.61536 18.6611C6.06335 18.1618 7.68609 18.1618 9.13408 18.6611C9.4836 18.7859 9.73325 19.1354 9.73325 19.5099V19.9842H9.75822ZM6.8872 16.589C7.98568 16.589 8.88443 15.6902 8.88443 14.5917C8.88443 13.4932 7.98568 12.5945 6.8872 12.5945C5.78873 12.5945 4.88998 13.4932 4.88998 14.5917C4.88998 15.6902 5.78873 16.589 6.8872 16.589ZM6.8872 13.6181C7.43644 13.6181 7.88582 14.0675 7.88582 14.6167C7.88582 15.1659 7.43644 15.6153 6.8872 15.6153C6.33797 15.6153 5.88859 15.1659 5.88859 14.6167C5.88859 14.0425 6.33797 13.6181 6.8872 13.6181ZM19.7194 17.7124C18.0467 17.1632 16.2242 17.1632 14.5516 17.7124C13.7776 17.962 13.2783 18.686 13.2783 19.5099V20.4835C13.2783 20.7582 13.503 20.9828 13.7776 20.9828H20.5183C20.7929 20.9828 21.0176 20.7582 21.0176 20.4835V19.5099C20.9926 18.686 20.4683 17.962 19.7194 17.7124ZM19.994 19.9842H14.252V19.5099C14.252 19.1104 14.5016 18.7609 14.8511 18.6611C16.2991 18.1618 17.9219 18.1618 19.3699 18.6611C19.7194 18.7859 19.969 19.1354 19.969 19.5099L19.994 19.9842ZM15.1258 14.5917C15.1258 15.6902 16.0245 16.589 17.123 16.589C18.2215 16.589 19.1202 15.6902 19.1202 14.5917C19.1202 13.4932 18.2215 12.5945 17.123 12.5945C16.0245 12.5945 15.1258 13.4932 15.1258 14.5917ZM17.123 13.6181C17.6722 13.6181 18.1216 14.0675 18.1216 14.6167C18.1216 15.1659 17.6722 15.6153 17.123 15.6153C16.5738 15.6153 16.1244 15.1659 16.1244 14.6167C16.1244 14.0425 16.5738 13.6181 17.123 13.6181ZM14.252 15.141C14.4267 14.9163 14.4018 14.6167 14.1771 14.4419L12.5044 13.0938V11.3712H15.3754C15.65 11.3712 15.8747 11.1465 15.8747 10.8719V9.89824C15.8747 9.07439 15.3504 8.35039 14.6015 8.10074C12.9288 7.5515 11.1063 7.5515 9.43367 8.10074C8.65974 8.35039 8.16044 9.07439 8.16044 9.89824V10.8719C8.16044 11.1465 8.38512 11.3712 8.65974 11.3712H11.5308V13.0688L9.85808 14.417C9.63339 14.5917 9.60842 14.9163 9.78318 15.116C9.95794 15.3407 10.2825 15.3656 10.4822 15.1909L12.0051 13.9426L13.528 15.1909C13.7527 15.3906 14.0772 15.3656 14.252 15.141ZM9.13408 10.3726V9.89824C9.13408 9.4988 9.38374 9.14928 9.73325 9.04942C11.1812 8.55012 12.804 8.55012 14.252 9.04942C14.6015 9.17425 14.8511 9.52376 14.8511 9.89824V10.3726H9.13408Z" fill="white"/>
</svg>
