<svg width="24" height="24" viewBox="0 0 24 24" fill="none" xmlns="http://www.w3.org/2000/svg">
<path d="M14.3458 9.03899C15.3889 7.99587 15.3889 6.30468 14.3457 5.2616C13.3026 4.21852 11.6114 4.21855 10.5684 5.26166C9.52527 6.30478 9.5253 7.99597 10.5684 9.03905C11.6115 10.0821 13.3027 10.0821 14.3458 9.03899Z" stroke="white" stroke-miterlimit="10" stroke-linecap="round" stroke-linejoin="round"/>
<path d="M15.4249 10.1177C17.0638 8.47878 17.0637 5.82163 15.4248 4.18277C13.7859 2.54392 11.1287 2.54396 9.48987 4.18288C7.85102 5.82179 7.85106 8.47895 9.48997 10.1178C11.1289 11.7567 13.786 11.7566 15.4249 10.1177Z" stroke="white" stroke-miterlimit="10" stroke-linecap="round" stroke-linejoin="round"/>
<path d="M17.1327 10.7755L16.0821 11.8261L14.8535 10.5974C15.2625 10.3116 15.618 9.95595 15.9037 9.54688L17.1327 10.7755Z" stroke="white" stroke-miterlimit="10" stroke-linecap="round" stroke-linejoin="round"/>
<path d="M18.3025 11.0519L17.5796 10.3289L15.6352 12.2733M15.6352 12.2733L18.6529 15.291C19.1899 15.8279 20.0604 15.8279 20.5973 15.291C21.1342 14.7541 21.1342 13.8836 20.5973 13.3466L20.5794 13.3287M15.6352 12.2733L15.6352 17.4117M11.3098 7.22551L11.9996 7.91529L13.4357 6.47917M3 5.08008V18.969M3 18.969H5.07267V20.5592H3V18.969ZM3 18.969H15.6352M3 18.969V17.4117H15.6352M15.6352 18.969H13.5625V20.5592H15.6352V18.969ZM15.6352 18.969V17.4117M3 13.8177H15.6352M3 8.63317H8.48081M7.14899 12.1209H4.46363V13.8176H7.14899M7.14899 12.1209V13.8176M7.14899 12.1209H9.83435V13.8176H7.14899M4.56746 15.3734H6.60585V17.4117H4.56746V15.3734ZM8.27981 15.3734H10.3182V17.4117H8.27981V15.3734ZM11.9921 15.3734H14.0305V17.4117H11.9921V15.3734ZM5.16834 10.4242H7.8537V12.1209H5.16834V10.4242ZM4.68142 6.64776H6.56198V8.52832H4.68142V6.64776Z" stroke="white" stroke-miterlimit="10" stroke-linecap="round" stroke-linejoin="round"/>
</svg>
