<svg width="24" height="24" viewBox="0 0 24 24" fill="none" xmlns="http://www.w3.org/2000/svg">
<path d="M5 6.575C5 5.70515 5.72922 5 6.62875 5H9.64736C10.5469 5 11.2761 5.70515 11.2761 6.575V8.094C11.2761 8.96385 10.5469 9.669 9.64736 9.669H6.62875C5.72922 9.669 5 8.96385 5 8.094V6.575Z" fill="white"/>
<path d="M13.2089 6.575C13.2089 5.70515 13.9381 5 14.8376 5H17.3713C18.2708 5 19 5.70515 19 6.575V11.356C19 12.2258 18.2708 12.931 17.3713 12.931H14.8376C13.9381 12.931 13.2089 12.2258 13.2089 11.356V6.575Z" fill="white"/>
<path d="M13.2089 16.375C13.2089 15.5052 13.9381 14.8 14.8376 14.8H17.3713C18.2708 14.8 19 15.5052 19 16.375V17.425C19 18.2948 18.2708 19 17.3713 19H14.8376C13.9381 19 13.2089 18.2948 13.2089 17.425V16.375Z" fill="white"/>
<path d="M5 13.106C5 12.2361 5.72922 11.531 6.62875 11.531H9.64736C10.5469 11.531 11.2761 12.2362 11.2761 13.106V17.425C11.2761 18.2949 10.5469 19 9.64736 19H6.62875C5.72922 19 5 18.2948 5 17.425V13.106Z" fill="white"/>
</svg>
