<svg width="24" height="24" viewBox="0 0 24 24" fill="none" xmlns="http://www.w3.org/2000/svg">
<path d="M20.129 3.58065H17.4189C17.2153 3.58067 17.0181 3.652 16.8617 3.78226C16.7052 3.91252 16.5993 4.09347 16.5624 4.29368L16.1716 6.41536C15.9086 6.06971 15.5488 5.8101 15.1378 5.66952C15.0245 5.32542 14.8309 5.01327 14.5729 4.75895C14.3149 4.50464 14 4.31548 13.6543 4.20717L13.3906 3.67994C13.2891 3.47514 13.1321 3.30289 12.9377 3.18272C12.7432 3.06254 12.5189 2.99925 12.2903 3.00001C11.8421 3.00001 11.4371 3.23807 11.219 3.62565C10.8706 3.73453 10.5534 3.92551 10.2941 4.18251C10.0348 4.43952 9.84104 4.75504 9.7291 5.10252C9.44925 5.22068 9.20081 5.40247 9.00351 5.63344C8.8062 5.86441 8.66547 6.1382 8.59248 6.43307L8.56519 6.54281C8.20316 6.66662 7.87983 6.883 7.62732 7.17045C7.3748 7.45791 7.20189 7.80643 7.12577 8.18139L7.11677 8.22581H7.06452C6.74429 8.22581 6.48387 8.48623 6.48387 8.80646V9.3871C6.48387 9.70733 6.74429 9.96775 7.06452 9.96775H7.0921L7.32929 12.3394C7.04112 12.4215 6.79596 12.612 6.64529 12.871H6.41506L4.86387 7.18297C4.80885 6.98237 4.68954 6.80535 4.52424 6.67907C4.35895 6.55279 4.15679 6.48422 3.94877 6.48388C3.69724 6.48418 3.45609 6.58424 3.27823 6.76211C3.10037 6.93997 3.00031 7.18112 3 7.43265V7.5601C3 7.64168 3.01045 7.72326 3.03106 7.80165L4.3651 12.871H4.16129C3.84106 12.871 3.58065 13.1314 3.58065 13.4516V14.0323C3.58065 14.3525 3.84106 14.6129 4.16129 14.6129H4.17406L4.42665 20.1688C4.43653 20.3928 4.53256 20.6043 4.69469 20.7592C4.85682 20.9141 5.07252 21.0004 5.29674 21H19.2581C19.5783 21 19.8387 20.7396 19.8387 20.4194V18.0968C19.8387 17.7766 19.5783 17.5161 19.2581 17.5161H17.5161V15.1936C17.5161 14.8733 17.2557 14.6129 16.9355 14.6129H16.4144L18.0474 5.90323H20.129C20.6092 5.90323 21 5.51246 21 5.03226V4.45162C21 3.97143 20.6092 3.58065 20.129 3.58065ZM8.87671 7.05581L9.04597 7.01343L9.15571 6.57388C9.21152 6.34803 9.32371 6.14003 9.48176 5.96933C9.63982 5.79863 9.83859 5.67081 10.0595 5.59781L10.2107 5.54759L10.2494 5.39284C10.324 5.093 10.4789 4.81913 10.6974 4.60063C10.9159 4.38213 11.1898 4.22725 11.4896 4.15259L11.6191 4.12036L11.7097 3.93949C11.8203 3.71826 12.0427 3.58065 12.2903 3.58065C12.538 3.58065 12.7604 3.71826 12.871 3.93949L13.2519 4.70072L13.3814 4.73294C13.6812 4.80754 13.9551 4.96241 14.1736 5.18092C14.3921 5.39943 14.547 5.67332 14.6216 5.9732L14.664 6.14246L14.8333 6.18455C15.1156 6.2567 15.3731 6.40415 15.5782 6.61118C15.7832 6.81822 15.9283 7.07706 15.9977 7.36007L15.8381 8.22581H7.71426C7.78418 7.94394 7.9292 7.68629 8.1339 7.48027C8.33859 7.27425 8.59529 7.12756 8.87671 7.05581ZM7.06452 8.80646H15.7312L15.6244 9.3871H7.06452V8.80646ZM15.5173 9.96775L14.6617 14.6129H12.871C12.5507 14.6129 12.2903 14.8733 12.2903 15.1936V17.5161H10.9842L11.1163 14.6129H11.129C11.4493 14.6129 11.7097 14.3525 11.7097 14.0323V13.4516C11.7097 13.1314 11.4493 12.871 11.129 12.871H8.64503C8.56625 12.7348 8.46057 12.6161 8.33445 12.5221C8.20832 12.428 8.06438 12.3606 7.91139 12.324L7.67564 9.96775H15.5173ZM8.80645 13.4516H11.129V14.0323H8.64503C8.74953 13.8565 8.80525 13.6561 8.80645 13.4516ZM7.64516 12.871C7.96539 12.871 8.22581 13.1314 8.22581 13.4516C8.22581 13.7718 7.96539 14.0323 7.64516 14.0323C7.32494 14.0323 7.06452 13.7718 7.06452 13.4516C7.06452 13.1314 7.32494 12.871 7.64516 12.871ZM3.59284 7.6533C3.58469 7.6229 3.58059 7.59157 3.58065 7.5601V7.43265C3.58121 7.34383 3.61385 7.2582 3.67255 7.19153C3.73125 7.12486 3.81206 7.08165 3.9001 7.06984C3.98814 7.05804 4.07747 7.07844 4.15166 7.12729C4.22585 7.17614 4.27989 7.25014 4.30384 7.33568L5.81352 12.871H4.96577L3.59284 7.6533ZM4.16129 13.4516H6.48387C6.48387 13.6641 6.54542 13.8607 6.64529 14.0323H4.16129V13.4516ZM7.32377 14.6129C7.12868 16.3017 6.27861 17.8131 4.94806 18.8525L4.75558 14.6129H7.32377ZM5.29674 20.4194C5.22201 20.4195 5.15011 20.3908 5.09607 20.3392C5.04202 20.2875 5.01 20.2171 5.00671 20.1424L4.97971 19.5496C5.79602 18.9877 6.4806 18.2553 6.98617 17.4029C7.49173 16.5506 7.80622 15.5987 7.9079 14.6129H10.535L10.4021 17.537C10.278 17.5693 10.1681 17.6417 10.0896 17.7429C10.011 17.8442 9.96817 17.9686 9.96774 18.0968V20.4194H5.29674ZM10.5484 18.0968H14.6129V20.4194H10.5484V18.0968ZM19.2584 20.4194H15.1935V18.0968H19.2581L19.2584 20.4194ZM16.9355 17.5161H12.871V15.1936H16.9355V17.5161ZM15.8235 14.6129H15.2519L16.8562 5.90323H17.4566L15.8235 14.6129ZM20.4194 5.03226C20.4194 5.19252 20.289 5.32259 20.129 5.32259H16.9634L17.1335 4.39878C17.1458 4.3321 17.1811 4.27184 17.2333 4.22846C17.2854 4.18508 17.3511 4.16132 17.4189 4.1613H20.129C20.289 4.1613 20.4194 4.29136 20.4194 4.45162V5.03226Z" fill="white" stroke="white" stroke-width="0.4"/>
<path d="M11.1287 5.90348H11.7093C11.7093 5.58325 11.9697 5.32283 12.2899 5.32283V4.74219C11.6495 4.74219 11.1287 5.26303 11.1287 5.90348ZM9.38672 7.64541H9.96736C9.96736 7.32519 10.2278 7.06477 10.548 7.06477V6.48412C9.90756 6.48412 9.38672 7.00496 9.38672 7.64541ZM13.4512 6.48412V7.06477C13.7715 7.06477 14.0319 7.32519 14.0319 7.64541H14.6125C14.6125 7.00496 14.0917 6.48412 13.4512 6.48412Z" fill="white"/>
</svg>
