<svg width="24" height="24" viewBox="0 0 24 24" fill="none" xmlns="http://www.w3.org/2000/svg">
<path d="M20.3975 18.4336H7.26783C7.10639 18.4336 7.03722 18.2215 7.16365 18.124L8.99136 16.7193H19.4345C20.177 16.7193 20.7929 16.109 20.8073 15.3677L20.9243 9.34473C20.9377 8.65812 20.4349 8.06194 19.7548 7.96029C19.4276 7.91135 19.1212 8.1363 19.0722 8.46394C19.0232 8.79158 19.2492 9.09647 19.5772 9.14549C19.6624 9.15822 19.7254 9.23228 19.7237 9.31808L19.6067 15.3443C19.6049 15.437 19.5277 15.5194 19.4346 15.5194H9.26415L7.36953 7.32789L8.33115 7.46808C8.65901 7.51693 8.9647 7.28941 9.01378 6.96177C9.0628 6.63413 8.83673 6.32791 8.50875 6.27889L7.06838 6.06319L6.51775 3.92279C6.44965 3.65746 6.21034 3.47656 5.93618 3.47656H3.59847C3.26689 3.47656 2.99805 3.74527 2.99805 4.07656C2.99805 4.40784 3.26685 4.67655 3.59847 4.67655H5.47033L8.1149 15.8673L6.43024 17.1651C5.41389 17.9482 5.98551 19.6336 7.26779 19.6336H8.84398C8.77421 19.805 8.73589 20.0236 8.73589 20.2382C8.73589 21.2306 9.5491 22.0347 10.5487 22.0347C11.5483 22.0347 12.3615 21.2323 12.3615 20.2398C12.3615 20.0253 12.3232 19.805 12.2534 19.6336H15.5326C15.4628 19.805 15.4245 20.0236 15.4245 20.2382C15.4245 21.2306 16.2377 22.0347 17.2373 22.0347C18.2369 22.0347 19.0502 21.2323 19.0502 20.2398C19.0502 20.0253 19.0118 19.805 18.9421 19.6336H20.3976C20.7292 19.6336 20.998 19.3649 20.998 19.0336C20.998 18.7023 20.7292 18.4336 20.3975 18.4336ZM10.5487 20.8317C10.2112 20.8317 9.93674 20.5624 9.93674 20.2315C9.93674 19.9005 10.2113 19.6313 10.5487 19.6313C10.8861 19.6313 11.1607 19.9005 11.1607 20.2315C11.1607 20.5624 10.8861 20.8317 10.5487 20.8317ZM17.2373 20.8317C16.8998 20.8317 16.6253 20.5624 16.6253 20.2315C16.6253 19.9005 16.8999 19.6313 17.2373 19.6313C17.5748 19.6313 17.8493 19.9005 17.8493 20.2315C17.8493 20.5624 17.5747 20.8317 17.2373 20.8317Z" fill="white"/>
<path d="M13.978 10.6732C11.5734 10.6732 9.61719 8.72253 9.61719 6.32486C9.61719 3.92719 11.5734 1.97656 13.978 1.97656C16.3825 1.97656 18.3387 3.92719 18.3387 6.32486C18.3387 8.72253 16.3825 10.6732 13.978 10.6732ZM13.978 3.1763C12.2356 3.1763 10.818 4.58873 10.818 6.32486C10.818 8.06099 12.2356 9.47342 13.978 9.47342C15.7203 9.47342 17.1379 8.06099 17.1379 6.32486C17.1379 4.58873 15.7203 3.1763 13.978 3.1763Z" fill="white"/>
<path d="M12.9141 7.84617L11.9497 6.70168C11.7362 6.44826 11.7686 6.06984 12.0223 5.85645C12.2759 5.64307 12.6547 5.67551 12.8683 5.92901L13.3982 6.55785L15.0468 4.80612C15.274 4.56479 15.654 4.55309 15.8955 4.78002C16.1372 5.00695 16.1488 5.38661 15.9217 5.62794L13.8109 7.87077C13.6223 8.06924 13.1398 8.10854 12.9141 7.84617Z" fill="white"/>
</svg>
