<svg width="24" height="24" viewBox="0 0 24 24" fill="none" xmlns="http://www.w3.org/2000/svg">
<g clip-path="url(#clip0_306_22754)">
<g filter="url(#filter0_d_306_22754)">
<path d="M18.545 17.8909V22.4728H5.4541V17.8909M11.9995 1.52734H9.64319L8.46497 3.88368M18.9834 3.88368C18.9363 3.78034 18.8712 3.68627 18.7909 3.60596L16.99 1.80507C16.9019 1.71702 16.7974 1.64717 16.6823 1.59952C16.5673 1.55187 16.444 1.52734 16.3195 1.52734H14.3559L15.534 3.88368" stroke="white" stroke-miterlimit="10" stroke-linecap="round" stroke-linejoin="round"/>
<path d="M11.9994 3.88368V1.52734H14.3558M9.64309 1.52734H7.67949C7.428 1.52736 7.18682 1.62726 7.00898 1.80507L5.2081 3.60596C5.12782 3.68625 5.06262 3.78032 5.01562 3.88368" stroke="white" stroke-miterlimit="10" stroke-linecap="round" stroke-linejoin="round"/>
<path d="M6.09602 3.88477H5.01592C4.95976 4.0081 4.93069 4.14203 4.93066 4.27755V4.97233C4.93066 5.60077 5.4401 6.11021 6.06854 6.11021H7.32733C7.95578 6.11021 8.46522 5.60077 8.46522 4.97233M8.46522 4.97233C8.46522 5.60077 8.97465 6.11025 9.6031 6.11025H10.8619C11.4903 6.11025 11.9998 5.60082 11.9998 4.97237M8.46522 4.97233V3.88477M8.46522 3.88477H7.57105M8.46522 3.88477H11.9998M11.9998 4.97237C11.9998 5.60082 12.5092 6.11025 13.1376 6.11025H14.3964C15.0249 6.11025 15.5343 5.60082 15.5343 4.97237M11.9998 4.97237V3.88477M11.9998 3.88477H15.5343M15.5343 4.97237V3.88477M15.5343 4.97237C15.5343 5.60082 16.0438 6.11021 16.6722 6.11021H17.931C18.5594 6.11021 19.0689 5.60077 19.0689 4.97233V4.27755C19.0689 4.1407 19.0392 4.00694 18.9836 3.88477H15.5343M13.6064 9.68049L13.6501 9.24296C13.7478 8.26657 12.981 7.41932 11.9998 7.41932C11.0185 7.41932 10.2518 8.26657 10.3494 9.24296L10.3932 9.68049" stroke="white" stroke-miterlimit="10" stroke-linecap="round" stroke-linejoin="round"/>
<path d="M11.3457 16.5829H8.72754V14.784C8.72754 13.9701 9.38738 13.3102 10.2014 13.3102H11.3457M11.3457 16.5829H12.6548V14.6193M11.3457 16.5829V14.6193M11.3457 13.3102V14.6193M11.3457 13.3102L12.6548 13.3101M12.6548 13.3101H13.7991C14.6131 13.3101 15.273 13.97 15.273 14.784V16.5829H12.6548M12.6548 13.3101V14.6193M10.0366 15.2722V16.5829M13.9639 15.2722V16.5829M11.3457 14.6193H12.6548M12.9049 8.97845C12.7759 8.84949 12.5792 8.81906 12.4163 8.90099C12.2871 8.96573 12.1447 8.99945 12.0003 8.99945C11.8558 8.99945 11.7134 8.96573 11.5843 8.90099C11.4214 8.81902 11.2246 8.84949 11.0956 8.97845L10.3936 9.68039L10.4889 10.6333C10.5666 11.4098 11.2199 12.0011 12.0003 12.0011C12.7806 12.0011 13.4339 11.4098 13.5116 10.6333L13.6069 9.68039L12.9049 8.97845Z" stroke="white" stroke-miterlimit="10" stroke-linecap="round" stroke-linejoin="round"/>
<path d="M6.02513 17.8917H5.11588C5.03205 17.8917 4.95166 17.8584 4.89238 17.7991C4.83311 17.7399 4.7998 17.6595 4.7998 17.5756V16.8987C4.7998 16.8149 4.83311 16.7345 4.89238 16.6752C4.95166 16.616 5.03205 16.5826 5.11588 16.5826H18.8837C18.9676 16.5826 19.048 16.616 19.1072 16.6752C19.1665 16.7345 19.1998 16.8149 19.1998 16.8987V17.5756C19.1998 17.6595 19.1665 17.7399 19.1072 17.7991C19.048 17.8584 18.9676 17.8917 18.8837 17.8917H7.54231M17.2362 6.10994V16.5826M18.5452 6.96234V5.92969M18.5452 16.5826V8.43737M6.76345 6.10994V16.5826M5.45438 16.5826V5.92969M16.9201 21.1645H13.625C13.5411 21.1645 13.4607 21.1312 13.4014 21.0719C13.3422 21.0126 13.3089 20.9322 13.3089 20.8484V19.5169C13.3089 19.4331 13.3422 19.3527 13.4014 19.2934C13.4607 19.2341 13.5411 19.2008 13.625 19.2008H16.9201C17.0039 19.2008 17.0843 19.2341 17.1436 19.2934C17.2029 19.3527 17.2362 19.4331 17.2362 19.5169V20.8484C17.2362 20.9322 17.2029 21.0126 17.1436 21.0719C17.0843 21.1312 17.0039 21.1645 16.9201 21.1645Z" stroke="white" stroke-miterlimit="10" stroke-linecap="round" stroke-linejoin="round"/>
</g>
</g>
<defs>
<filter id="filter0_d_306_22754" x="0.299805" y="1.02734" width="23.4004" height="29.9453" filterUnits="userSpaceOnUse" color-interpolation-filters="sRGB">
<feFlood flood-opacity="0" result="BackgroundImageFix"/>
<feColorMatrix in="SourceAlpha" type="matrix" values="0 0 0 0 0 0 0 0 0 0 0 0 0 0 0 0 0 0 127 0" result="hardAlpha"/>
<feOffset dy="4"/>
<feGaussianBlur stdDeviation="2"/>
<feComposite in2="hardAlpha" operator="out"/>
<feColorMatrix type="matrix" values="0 0 0 0 0 0 0 0 0 0 0 0 0 0 0 0 0 0 0.25 0"/>
<feBlend mode="normal" in2="BackgroundImageFix" result="effect1_dropShadow_306_22754"/>
<feBlend mode="normal" in="SourceGraphic" in2="effect1_dropShadow_306_22754" result="shape"/>
</filter>
<clipPath id="clip0_306_22754">
<rect width="24" height="24" fill="white"/>
</clipPath>
</defs>
</svg>
