<svg width="24" height="24" viewBox="0 0 24 24" fill="none" xmlns="http://www.w3.org/2000/svg">
<g clip-path="url(#clip0_1991_12414)">
<g filter="url(#filter0_d_1991_12414)">
<path d="M18.5459 17.887V22.4689H5.45508V17.887M12.0005 1.52344H9.64416L8.46595 3.87978M18.9843 3.87978C18.9373 3.77643 18.8721 3.68237 18.7919 3.60205L16.9909 1.80116C16.9029 1.71311 16.7984 1.64327 16.6833 1.59561C16.5683 1.54796 16.445 1.52344 16.3204 1.52344H14.3568L15.535 3.87978" stroke="white" stroke-miterlimit="10" stroke-linecap="round" stroke-linejoin="round"/>
<path d="M11.9994 3.87978V1.52344H14.3558M9.64309 1.52344H7.67949C7.428 1.52345 7.18682 1.62335 7.00898 1.80116L5.2081 3.60205C5.12782 3.68234 5.06262 3.77642 5.01562 3.87978" stroke="white" stroke-miterlimit="10" stroke-linecap="round" stroke-linejoin="round"/>
<path d="M6.097 3.88281H5.0169C4.96074 4.00614 4.93167 4.14008 4.93164 4.27559V4.97037C4.93164 5.59882 5.44107 6.10825 6.06952 6.10825H7.32831C7.95676 6.10825 8.46619 5.59882 8.46619 4.97037M8.46619 4.97037C8.46619 5.59882 8.97562 6.1083 9.60407 6.1083H10.8629C11.4913 6.1083 12.0007 5.59886 12.0007 4.97042M8.46619 4.97037V3.88281M8.46619 3.88281H7.57203M8.46619 3.88281H12.0007M12.0007 4.97042C12.0007 5.59886 12.5102 6.1083 13.1386 6.1083H14.3974C15.0259 6.1083 15.5353 5.59886 15.5353 4.97042M12.0007 4.97042V3.88281M12.0007 3.88281H15.5353M15.5353 4.97042V3.88281M15.5353 4.97042C15.5353 5.59886 16.0447 6.10825 16.6732 6.10825H17.932C18.5604 6.10825 19.0698 5.59882 19.0698 4.97037V4.27559C19.0698 4.13875 19.0402 4.00499 18.9846 3.88281H15.5353M13.6073 9.67854L13.6511 9.24101C13.7487 8.26462 12.982 7.41736 12.0007 7.41736C11.0195 7.41736 10.2527 8.26462 10.3504 9.24101L10.3941 9.67854" stroke="white" stroke-miterlimit="10" stroke-linecap="round" stroke-linejoin="round"/>
<path d="M11.3467 16.579H8.72852V14.7801C8.72852 13.9662 9.38836 13.3063 10.2024 13.3063H11.3467M11.3467 16.579H12.6558V14.6153M11.3467 16.579V14.6153M11.3467 13.3063V14.6153M11.3467 13.3063L12.6558 13.3062M12.6558 13.3062H13.8001C14.6141 13.3062 15.2739 13.9661 15.2739 14.7801V16.579H12.6558M12.6558 13.3062V14.6153M10.0376 15.2683V16.579M13.9649 15.2683V16.579M11.3467 14.6153H12.6558M12.9059 8.97454C12.7769 8.84558 12.5802 8.81515 12.4172 8.89708C12.2881 8.96183 12.1457 8.99554 12.0012 8.99554C11.8568 8.99554 11.7143 8.96183 11.5852 8.89708C11.4223 8.81511 11.2255 8.84558 11.0966 8.97454L10.3946 9.67649L10.4899 10.6294C10.5675 11.4059 11.2209 11.9972 12.0012 11.9972C12.7816 11.9972 13.4349 11.4059 13.5125 10.6294L13.6078 9.67649L12.9059 8.97454Z" stroke="white" stroke-miterlimit="10" stroke-linecap="round" stroke-linejoin="round"/>
<path d="M6.02611 17.8839H5.11686C5.03303 17.8839 4.95263 17.8506 4.89336 17.7913C4.83408 17.7321 4.80078 17.6517 4.80078 17.5678V16.8909C4.80078 16.8071 4.83408 16.7267 4.89336 16.6674C4.95263 16.6081 5.03303 16.5748 5.11686 16.5748H18.8847C18.9685 16.5748 19.0489 16.6081 19.1082 16.6674C19.1675 16.7267 19.2008 16.8071 19.2008 16.8909V17.5678C19.2008 17.6517 19.1675 17.7321 19.1082 17.7913C19.0489 17.8506 18.9685 17.8839 18.8847 17.8839H7.54328M17.2371 6.10212V16.5748M18.5462 6.95452V5.92188M18.5462 16.5748V8.42955M6.76443 6.10212V16.5748M5.45536 16.5748V5.92188M16.9211 21.1567H13.6259C13.5421 21.1567 13.4617 21.1234 13.4024 21.0641C13.3431 21.0048 13.3098 20.9244 13.3098 20.8406V19.5091C13.3098 19.4253 13.3431 19.3449 13.4024 19.2856C13.4617 19.2263 13.5421 19.193 13.6259 19.193H16.9211C17.0049 19.193 17.0853 19.2263 17.1446 19.2856C17.2038 19.3449 17.2371 19.4253 17.2371 19.5091V20.8406C17.2371 20.9244 17.2038 21.0048 17.1446 21.0641C17.0853 21.1234 17.0049 21.1567 16.9211 21.1567Z" stroke="white" stroke-miterlimit="10" stroke-linecap="round" stroke-linejoin="round"/>
</g>
</g>
<defs>
<filter id="filter0_d_1991_12414" x="0.300781" y="1.02344" width="23.4004" height="29.9453" filterUnits="userSpaceOnUse" color-interpolation-filters="sRGB">
<feFlood flood-opacity="0" result="BackgroundImageFix"/>
<feColorMatrix in="SourceAlpha" type="matrix" values="0 0 0 0 0 0 0 0 0 0 0 0 0 0 0 0 0 0 127 0" result="hardAlpha"/>
<feOffset dy="4"/>
<feGaussianBlur stdDeviation="2"/>
<feComposite in2="hardAlpha" operator="out"/>
<feColorMatrix type="matrix" values="0 0 0 0 0 0 0 0 0 0 0 0 0 0 0 0 0 0 0.25 0"/>
<feBlend mode="normal" in2="BackgroundImageFix" result="effect1_dropShadow_1991_12414"/>
<feBlend mode="normal" in="SourceGraphic" in2="effect1_dropShadow_1991_12414" result="shape"/>
</filter>
<clipPath id="clip0_1991_12414">
<rect width="24" height="24" fill="white"/>
</clipPath>
</defs>
</svg>
